%TF.GenerationSoftware,KiCad,Pcbnew,9.0.4*%
%TF.CreationDate,2025-11-05T17:51:59+01:00*%
%TF.ProjectId,FliperKAd,466c6970-6572-44b4-9164-2e6b69636164,rev?*%
%TF.SameCoordinates,Original*%
%TF.FileFunction,Soldermask,Top*%
%TF.FilePolarity,Negative*%
%FSLAX46Y46*%
G04 Gerber Fmt 4.6, Leading zero omitted, Abs format (unit mm)*
G04 Created by KiCad (PCBNEW 9.0.4) date 2025-11-05 17:51:59*
%MOMM*%
%LPD*%
G01*
G04 APERTURE LIST*
G04 Aperture macros list*
%AMRoundRect*
0 Rectangle with rounded corners*
0 $1 Rounding radius*
0 $2 $3 $4 $5 $6 $7 $8 $9 X,Y pos of 4 corners*
0 Add a 4 corners polygon primitive as box body*
4,1,4,$2,$3,$4,$5,$6,$7,$8,$9,$2,$3,0*
0 Add four circle primitives for the rounded corners*
1,1,$1+$1,$2,$3*
1,1,$1+$1,$4,$5*
1,1,$1+$1,$6,$7*
1,1,$1+$1,$8,$9*
0 Add four rect primitives between the rounded corners*
20,1,$1+$1,$2,$3,$4,$5,0*
20,1,$1+$1,$4,$5,$6,$7,0*
20,1,$1+$1,$6,$7,$8,$9,0*
20,1,$1+$1,$8,$9,$2,$3,0*%
%AMFreePoly0*
4,1,6,1.000000,0.000000,0.500000,-0.750000,-0.500000,-0.750000,-0.500000,0.750000,0.500000,0.750000,1.000000,0.000000,1.000000,0.000000,$1*%
%AMFreePoly1*
4,1,6,0.500000,-0.750000,-0.650000,-0.750000,-0.150000,0.000000,-0.650000,0.750000,0.500000,0.750000,0.500000,-0.750000,0.500000,-0.750000,$1*%
G04 Aperture macros list end*
%ADD10RoundRect,0.250000X-0.300000X2.050000X-0.300000X-2.050000X0.300000X-2.050000X0.300000X2.050000X0*%
%ADD11RoundRect,0.250002X-5.149998X4.449998X-5.149998X-4.449998X5.149998X-4.449998X5.149998X4.449998X0*%
%ADD12RoundRect,0.200000X0.275000X-0.200000X0.275000X0.200000X-0.275000X0.200000X-0.275000X-0.200000X0*%
%ADD13RoundRect,0.225000X-0.250000X0.225000X-0.250000X-0.225000X0.250000X-0.225000X0.250000X0.225000X0*%
%ADD14RoundRect,0.140000X-0.140000X-0.170000X0.140000X-0.170000X0.140000X0.170000X-0.140000X0.170000X0*%
%ADD15C,0.800000*%
%ADD16C,6.400000*%
%ADD17RoundRect,0.225000X0.250000X-0.225000X0.250000X0.225000X-0.250000X0.225000X-0.250000X-0.225000X0*%
%ADD18RoundRect,0.250000X-0.600000X-0.750000X0.600000X-0.750000X0.600000X0.750000X-0.600000X0.750000X0*%
%ADD19O,1.700000X2.000000*%
%ADD20RoundRect,0.218750X-0.256250X0.218750X-0.256250X-0.218750X0.256250X-0.218750X0.256250X0.218750X0*%
%ADD21RoundRect,0.225000X-0.225000X-0.250000X0.225000X-0.250000X0.225000X0.250000X-0.225000X0.250000X0*%
%ADD22RoundRect,0.200000X-0.275000X0.200000X-0.275000X-0.200000X0.275000X-0.200000X0.275000X0.200000X0*%
%ADD23C,2.000000*%
%ADD24RoundRect,0.250000X-0.750000X0.600000X-0.750000X-0.600000X0.750000X-0.600000X0.750000X0.600000X0*%
%ADD25O,2.000000X1.700000*%
%ADD26RoundRect,0.250000X-0.650000X1.000000X-0.650000X-1.000000X0.650000X-1.000000X0.650000X1.000000X0*%
%ADD27FreePoly0,90.000000*%
%ADD28FreePoly1,90.000000*%
%ADD29RoundRect,0.200000X0.200000X0.275000X-0.200000X0.275000X-0.200000X-0.275000X0.200000X-0.275000X0*%
%ADD30RoundRect,0.140000X-0.170000X0.140000X-0.170000X-0.140000X0.170000X-0.140000X0.170000X0.140000X0*%
%ADD31RoundRect,0.218750X0.256250X-0.218750X0.256250X0.218750X-0.256250X0.218750X-0.256250X-0.218750X0*%
%ADD32R,2.400000X0.740000*%
%ADD33RoundRect,0.800000X0.000010X0.000010X-0.000010X0.000010X-0.000010X-0.000010X0.000010X-0.000010X0*%
%ADD34RoundRect,0.125000X0.125000X-0.625000X0.125000X0.625000X-0.125000X0.625000X-0.125000X-0.625000X0*%
%ADD35RoundRect,0.125000X0.625000X-0.125000X0.625000X0.125000X-0.625000X0.125000X-0.625000X-0.125000X0*%
%ADD36RoundRect,0.117000X1.023000X-0.273000X1.023000X0.273000X-1.023000X0.273000X-1.023000X-0.273000X0*%
%ADD37RoundRect,0.200000X-0.200000X-0.275000X0.200000X-0.275000X0.200000X0.275000X-0.200000X0.275000X0*%
%ADD38RoundRect,0.250000X0.600000X0.750000X-0.600000X0.750000X-0.600000X-0.750000X0.600000X-0.750000X0*%
%ADD39RoundRect,0.060000X0.190000X-0.140000X0.190000X0.140000X-0.190000X0.140000X-0.190000X-0.140000X0*%
%ADD40RoundRect,0.225000X0.525000X-0.525000X0.525000X0.525000X-0.525000X0.525000X-0.525000X-0.525000X0*%
%ADD41RoundRect,0.225000X0.225000X0.250000X-0.225000X0.250000X-0.225000X-0.250000X0.225000X-0.250000X0*%
G04 APERTURE END LIST*
%TO.C,JP2*%
G36*
X222050000Y-101425000D02*
G01*
X223550000Y-101425000D01*
X223550000Y-98975000D01*
X222050000Y-98975000D01*
X222050000Y-101425000D01*
G37*
%TO.C,JP1*%
G36*
X223000000Y-79475000D02*
G01*
X224500000Y-79475000D01*
X224500000Y-77025000D01*
X223000000Y-77025000D01*
X223000000Y-79475000D01*
G37*
%TD*%
D10*
%TO.C,Q2*%
X207540000Y-97000000D03*
X205000000Y-97000000D03*
D11*
X205000000Y-106150000D03*
D10*
X202460000Y-97000000D03*
%TD*%
%TO.C,Q1*%
X194080000Y-97000000D03*
X191540000Y-97000000D03*
D11*
X191540000Y-106150000D03*
D10*
X189000000Y-97000000D03*
%TD*%
D12*
%TO.C,R8*%
X208000000Y-70825000D03*
X208000000Y-69175000D03*
%TD*%
D13*
%TO.C,C2*%
X217500000Y-88975000D03*
X217500000Y-90525000D03*
%TD*%
%TO.C,C6*%
X216500000Y-78225000D03*
X216500000Y-79775000D03*
%TD*%
D14*
%TO.C,C10*%
X202520000Y-83250000D03*
X203480000Y-83250000D03*
%TD*%
D15*
%TO.C,H1*%
X182600000Y-66900000D03*
X183302944Y-65202944D03*
X183302944Y-68597056D03*
X185000000Y-64500000D03*
D16*
X185000000Y-66900000D03*
D15*
X185000000Y-69300000D03*
X186697056Y-65202944D03*
X186697056Y-68597056D03*
X187400000Y-66900000D03*
%TD*%
D13*
%TO.C,C4*%
X217500000Y-84475000D03*
X217500000Y-86025000D03*
%TD*%
D17*
%TO.C,C12*%
X219000000Y-101375000D03*
X219000000Y-99825000D03*
%TD*%
D18*
%TO.C,J5*%
X208500000Y-119250000D03*
D19*
X211000000Y-119250000D03*
%TD*%
D12*
%TO.C,R1*%
X213000000Y-68862500D03*
X213000000Y-67212500D03*
%TD*%
D20*
%TO.C,D1*%
X213000000Y-71212500D03*
X213000000Y-72787500D03*
%TD*%
D21*
%TO.C,C3*%
X221000000Y-93500000D03*
X222550000Y-93500000D03*
%TD*%
D22*
%TO.C,R3*%
X217500000Y-91925000D03*
X217500000Y-93575000D03*
%TD*%
D23*
%TO.C,TP2*%
X226770000Y-81260000D03*
%TD*%
D15*
%TO.C,H2*%
X218600000Y-66900000D03*
X219302944Y-65202944D03*
X219302944Y-68597056D03*
X221000000Y-64500000D03*
D16*
X221000000Y-66900000D03*
D15*
X221000000Y-69300000D03*
X222697056Y-65202944D03*
X222697056Y-68597056D03*
X223400000Y-66900000D03*
%TD*%
D24*
%TO.C,J3*%
X181025000Y-75250000D03*
D25*
X181025000Y-77750000D03*
%TD*%
D26*
%TO.C,D3*%
X185800000Y-88000000D03*
X185800000Y-92000000D03*
%TD*%
D27*
%TO.C,JP2*%
X222800000Y-100925000D03*
D28*
X222800000Y-99475000D03*
%TD*%
D27*
%TO.C,JP1*%
X223750000Y-78975000D03*
D28*
X223750000Y-77525000D03*
%TD*%
D17*
%TO.C,C5*%
X217400000Y-101375000D03*
X217400000Y-99825000D03*
%TD*%
D29*
%TO.C,R7*%
X200825000Y-74000000D03*
X199175000Y-74000000D03*
%TD*%
D30*
%TO.C,C8*%
X218000000Y-78250000D03*
X218000000Y-79210000D03*
%TD*%
D31*
%TO.C,L2*%
X219250000Y-78287500D03*
X219250000Y-76712500D03*
%TD*%
D15*
%TO.C,H3*%
X218600000Y-116250000D03*
X219302944Y-114552944D03*
X219302944Y-117947056D03*
X221000000Y-113850000D03*
D16*
X221000000Y-116250000D03*
D15*
X221000000Y-118650000D03*
X222697056Y-114552944D03*
X222697056Y-117947056D03*
X223400000Y-116250000D03*
%TD*%
D12*
%TO.C,R12*%
X190000000Y-66825000D03*
X190000000Y-65175000D03*
%TD*%
D23*
%TO.C,TP3*%
X226200000Y-97200000D03*
%TD*%
D21*
%TO.C,C1*%
X225425000Y-99600000D03*
X226975000Y-99600000D03*
%TD*%
D32*
%TO.C,J2*%
X195050000Y-76190000D03*
X198950000Y-76190000D03*
X195050000Y-77460000D03*
X198950000Y-77460000D03*
X195050000Y-78730000D03*
X198950000Y-78730000D03*
X195050000Y-80000000D03*
X198950000Y-80000000D03*
X195050000Y-81270000D03*
X198950000Y-81270000D03*
X195050000Y-82540000D03*
X198950000Y-82540000D03*
X195050000Y-83810000D03*
X198950000Y-83810000D03*
%TD*%
D33*
%TO.C,U5*%
X217750000Y-104480000D03*
X220295000Y-104470000D03*
X222850000Y-104470000D03*
%TD*%
D15*
%TO.C,H4*%
X182600000Y-116250000D03*
X183302944Y-114552944D03*
X183302944Y-117947056D03*
X185000000Y-113850000D03*
D16*
X185000000Y-116250000D03*
D15*
X185000000Y-118650000D03*
X186697056Y-114552944D03*
X186697056Y-117947056D03*
X187400000Y-116250000D03*
%TD*%
D34*
%TO.C,U1*%
X207200000Y-84175000D03*
X208000000Y-84175000D03*
X208800000Y-84175000D03*
X209600000Y-84175000D03*
X210400000Y-84175000D03*
X211200000Y-84175000D03*
X212000000Y-84175000D03*
X212800000Y-84175000D03*
D35*
X214175000Y-82800000D03*
X214175000Y-82000000D03*
X214175000Y-81200000D03*
X214175000Y-80400000D03*
X214175000Y-79600000D03*
X214175000Y-78800000D03*
X214175000Y-78000000D03*
X214175000Y-77200000D03*
D34*
X212800000Y-75825000D03*
X212000000Y-75825000D03*
X211200000Y-75825000D03*
X210400000Y-75825000D03*
X209600000Y-75825000D03*
X208800000Y-75825000D03*
X208000000Y-75825000D03*
X207200000Y-75825000D03*
D35*
X205825000Y-77200000D03*
X205825000Y-78000000D03*
X205825000Y-78800000D03*
X205825000Y-79600000D03*
X205825000Y-80400000D03*
X205825000Y-81200000D03*
X205825000Y-82000000D03*
X205825000Y-82800000D03*
%TD*%
D21*
%TO.C,C7*%
X202225000Y-81000000D03*
X203775000Y-81000000D03*
%TD*%
D14*
%TO.C,C9*%
X202520000Y-82250000D03*
X203480000Y-82250000D03*
%TD*%
D36*
%TO.C,U4*%
X204490000Y-71620000D03*
X204500000Y-70350000D03*
X204520000Y-69080000D03*
X204530000Y-67810000D03*
X199030000Y-67810000D03*
X199020000Y-69080000D03*
X199000000Y-70350000D03*
X198990000Y-71620000D03*
%TD*%
D37*
%TO.C,R10*%
X192175000Y-71000000D03*
X193825000Y-71000000D03*
%TD*%
D38*
%TO.C,J1*%
X210000000Y-62900000D03*
D19*
X207500000Y-62900000D03*
%TD*%
D24*
%TO.C,J4*%
X181025000Y-88450000D03*
D25*
X181025000Y-90950000D03*
%TD*%
D22*
%TO.C,R5*%
X219000000Y-94175000D03*
X219000000Y-95825000D03*
%TD*%
D39*
%TO.C,U3*%
X218900000Y-92150000D03*
X218900000Y-91150000D03*
X218900000Y-90150000D03*
X218900000Y-89150000D03*
X218900000Y-88150000D03*
D40*
X219400000Y-83400000D03*
X223600000Y-83400000D03*
D39*
X224100000Y-88150000D03*
X224100000Y-89150000D03*
X224100000Y-90150000D03*
X224100000Y-91150000D03*
X224100000Y-92150000D03*
D40*
X221500000Y-90550000D03*
%TD*%
D26*
%TO.C,D2*%
X185800000Y-75000000D03*
X185800000Y-79000000D03*
%TD*%
D23*
%TO.C,TP1*%
X210400000Y-91200000D03*
%TD*%
D12*
%TO.C,R9*%
X192000000Y-66825000D03*
X192000000Y-65175000D03*
%TD*%
D22*
%TO.C,R4*%
X215500000Y-84425000D03*
X215500000Y-86075000D03*
%TD*%
D41*
%TO.C,C11*%
X209775000Y-86000000D03*
X208225000Y-86000000D03*
%TD*%
D37*
%TO.C,R11*%
X192175000Y-69000000D03*
X193825000Y-69000000D03*
%TD*%
M02*
