%TF.GenerationSoftware,KiCad,Pcbnew,9.0.6-9.0.6~ubuntu22.04.1*%
%TF.CreationDate,2025-11-05T22:25:10+01:00*%
%TF.ProjectId,FliperKAd,466c6970-6572-44b4-9164-2e6b69636164,rev?*%
%TF.SameCoordinates,Original*%
%TF.FileFunction,Paste,Top*%
%TF.FilePolarity,Positive*%
%FSLAX46Y46*%
G04 Gerber Fmt 4.6, Leading zero omitted, Abs format (unit mm)*
G04 Created by KiCad (PCBNEW 9.0.6-9.0.6~ubuntu22.04.1) date 2025-11-05 22:25:10*
%MOMM*%
%LPD*%
G01*
G04 APERTURE LIST*
G04 Aperture macros list*
%AMRoundRect*
0 Rectangle with rounded corners*
0 $1 Rounding radius*
0 $2 $3 $4 $5 $6 $7 $8 $9 X,Y pos of 4 corners*
0 Add a 4 corners polygon primitive as box body*
4,1,4,$2,$3,$4,$5,$6,$7,$8,$9,$2,$3,0*
0 Add four circle primitives for the rounded corners*
1,1,$1+$1,$2,$3*
1,1,$1+$1,$4,$5*
1,1,$1+$1,$6,$7*
1,1,$1+$1,$8,$9*
0 Add four rect primitives between the rounded corners*
20,1,$1+$1,$2,$3,$4,$5,0*
20,1,$1+$1,$4,$5,$6,$7,0*
20,1,$1+$1,$6,$7,$8,$9,0*
20,1,$1+$1,$8,$9,$2,$3,0*%
G04 Aperture macros list end*
%ADD10RoundRect,0.218750X0.256250X-0.218750X0.256250X0.218750X-0.256250X0.218750X-0.256250X-0.218750X0*%
%ADD11RoundRect,0.200000X-0.200000X-0.275000X0.200000X-0.275000X0.200000X0.275000X-0.200000X0.275000X0*%
%ADD12RoundRect,0.225000X0.225000X0.250000X-0.225000X0.250000X-0.225000X-0.250000X0.225000X-0.250000X0*%
%ADD13RoundRect,0.250000X0.325000X0.650000X-0.325000X0.650000X-0.325000X-0.650000X0.325000X-0.650000X0*%
%ADD14RoundRect,0.140000X0.170000X-0.140000X0.170000X0.140000X-0.170000X0.140000X-0.170000X-0.140000X0*%
%ADD15RoundRect,0.140000X0.140000X0.170000X-0.140000X0.170000X-0.140000X-0.170000X0.140000X-0.170000X0*%
%ADD16RoundRect,0.200000X0.200000X0.275000X-0.200000X0.275000X-0.200000X-0.275000X0.200000X-0.275000X0*%
%ADD17RoundRect,0.140000X-0.170000X0.140000X-0.170000X-0.140000X0.170000X-0.140000X0.170000X0.140000X0*%
%ADD18RoundRect,0.225000X0.250000X-0.225000X0.250000X0.225000X-0.250000X0.225000X-0.250000X-0.225000X0*%
%ADD19RoundRect,0.225000X0.525000X-0.525000X0.525000X0.525000X-0.525000X0.525000X-0.525000X-0.525000X0*%
%ADD20RoundRect,0.060000X0.190000X-0.140000X0.190000X0.140000X-0.190000X0.140000X-0.190000X-0.140000X0*%
%ADD21RoundRect,0.250000X0.325000X1.100000X-0.325000X1.100000X-0.325000X-1.100000X0.325000X-1.100000X0*%
%ADD22RoundRect,0.250000X-0.650000X0.325000X-0.650000X-0.325000X0.650000X-0.325000X0.650000X0.325000X0*%
%ADD23RoundRect,0.150000X0.800000X0.150000X-0.800000X0.150000X-0.800000X-0.150000X0.800000X-0.150000X0*%
%ADD24RoundRect,0.250000X-2.025000X-2.375000X2.025000X-2.375000X2.025000X2.375000X-2.025000X2.375000X0*%
%ADD25RoundRect,0.250000X-2.050000X-0.300000X2.050000X-0.300000X2.050000X0.300000X-2.050000X0.300000X0*%
%ADD26RoundRect,0.250000X0.650000X-1.000000X0.650000X1.000000X-0.650000X1.000000X-0.650000X-1.000000X0*%
%ADD27RoundRect,0.200000X-0.275000X0.200000X-0.275000X-0.200000X0.275000X-0.200000X0.275000X0.200000X0*%
%ADD28R,2.400000X0.740000*%
%ADD29RoundRect,0.125000X0.125000X-0.625000X0.125000X0.625000X-0.125000X0.625000X-0.125000X-0.625000X0*%
%ADD30RoundRect,0.125000X0.625000X-0.125000X0.625000X0.125000X-0.625000X0.125000X-0.625000X-0.125000X0*%
%ADD31RoundRect,0.200000X0.275000X-0.200000X0.275000X0.200000X-0.275000X0.200000X-0.275000X-0.200000X0*%
G04 APERTURE END LIST*
D10*
%TO.C,D3*%
X55600000Y-50675000D03*
X55600000Y-49100000D03*
%TD*%
D11*
%TO.C,R10*%
X48575000Y-31900000D03*
X50225000Y-31900000D03*
%TD*%
D12*
%TO.C,C12*%
X53175000Y-31900000D03*
X51625000Y-31900000D03*
%TD*%
D13*
%TO.C,C8*%
X50125000Y-29900000D03*
X53075000Y-29900000D03*
%TD*%
D14*
%TO.C,C7*%
X47100000Y-36080000D03*
X47100000Y-35120000D03*
%TD*%
D15*
%TO.C,C6*%
X48245000Y-53200000D03*
X49205000Y-53200000D03*
%TD*%
D16*
%TO.C,R3*%
X51575000Y-34900000D03*
X53225000Y-34900000D03*
%TD*%
D11*
%TO.C,R4*%
X50225000Y-34900000D03*
X48575000Y-34900000D03*
%TD*%
D17*
%TO.C,C5*%
X55425000Y-47880000D03*
X55425000Y-46920000D03*
%TD*%
%TO.C,C3*%
X53925000Y-43700000D03*
X53925000Y-42740000D03*
%TD*%
D14*
%TO.C,C2*%
X44925000Y-51440000D03*
X44925000Y-52400000D03*
%TD*%
D18*
%TO.C,C1*%
X43625000Y-50600000D03*
X43625000Y-52150000D03*
%TD*%
D16*
%TO.C,R9*%
X51575000Y-33400000D03*
X53225000Y-33400000D03*
%TD*%
%TO.C,R8*%
X48575000Y-33400000D03*
X50225000Y-33400000D03*
%TD*%
D19*
%TO.C,U4*%
X57100000Y-34300000D03*
D20*
X59700000Y-35900000D03*
X59700000Y-34900000D03*
X59700000Y-33900000D03*
X59700000Y-32900000D03*
X59700000Y-31900000D03*
D19*
X59200000Y-27150000D03*
X55000000Y-27150000D03*
D20*
X54500000Y-31900000D03*
X54500000Y-32900000D03*
X54500000Y-33900000D03*
X54500000Y-34900000D03*
X54500000Y-35900000D03*
%TD*%
D21*
%TO.C,C9*%
X50125000Y-27100000D03*
X53075000Y-27100000D03*
%TD*%
D22*
%TO.C,C11*%
X42900000Y-17225000D03*
X42900000Y-20175000D03*
%TD*%
%TO.C,C10*%
X40300000Y-17225000D03*
X40300000Y-20175000D03*
%TD*%
D23*
%TO.C,U2*%
X54000000Y-40905000D03*
X54000000Y-39635000D03*
X54000000Y-38365000D03*
X54000000Y-37095000D03*
X47000000Y-37095000D03*
X47000000Y-38365000D03*
X47000000Y-39635000D03*
X47000000Y-40905000D03*
%TD*%
D24*
%TO.C,Q2*%
X36625000Y-26485000D03*
X36625000Y-32035000D03*
X41475000Y-26485000D03*
X41475000Y-32035000D03*
D25*
X29900000Y-26720000D03*
X29900000Y-29260000D03*
X29900000Y-31800000D03*
%TD*%
%TO.C,Q1*%
X29900000Y-43280000D03*
X29900000Y-40740000D03*
X29900000Y-38200000D03*
D24*
X41475000Y-43515000D03*
X41475000Y-37965000D03*
X36625000Y-43515000D03*
X36625000Y-37965000D03*
%TD*%
D26*
%TO.C,D2*%
X25000000Y-42000000D03*
X25000000Y-38000000D03*
%TD*%
D27*
%TO.C,R2*%
X44900000Y-38750000D03*
X44900000Y-40400000D03*
%TD*%
D28*
%TO.C,J5*%
X61550000Y-45310000D03*
X57650000Y-45310000D03*
X61550000Y-44040000D03*
X57650000Y-44040000D03*
X61550000Y-42770000D03*
X57650000Y-42770000D03*
X61550000Y-41500000D03*
X57650000Y-41500000D03*
X61550000Y-40230000D03*
X57650000Y-40230000D03*
X61550000Y-38960000D03*
X57650000Y-38960000D03*
X61550000Y-37690000D03*
X57650000Y-37690000D03*
%TD*%
D29*
%TO.C,U1*%
X46825000Y-51775000D03*
X47625000Y-51775000D03*
X48425000Y-51775000D03*
X49225000Y-51775000D03*
X50025000Y-51775000D03*
X50825000Y-51775000D03*
X51625000Y-51775000D03*
X52425000Y-51775000D03*
D30*
X53800000Y-50400000D03*
X53800000Y-49600000D03*
X53800000Y-48800000D03*
X53800000Y-48000000D03*
X53800000Y-47200000D03*
X53800000Y-46400000D03*
X53800000Y-45600000D03*
X53800000Y-44800000D03*
D29*
X52425000Y-43425000D03*
X51625000Y-43425000D03*
X50825000Y-43425000D03*
X50025000Y-43425000D03*
X49225000Y-43425000D03*
X48425000Y-43425000D03*
X47625000Y-43425000D03*
X46825000Y-43425000D03*
D30*
X45450000Y-44800000D03*
X45450000Y-45600000D03*
X45450000Y-46400000D03*
X45450000Y-47200000D03*
X45450000Y-48000000D03*
X45450000Y-48800000D03*
X45450000Y-49600000D03*
X45450000Y-50400000D03*
%TD*%
D27*
%TO.C,R5*%
X44900000Y-32575000D03*
X44900000Y-34225000D03*
%TD*%
D26*
%TO.C,D1*%
X25000000Y-32000000D03*
X25000000Y-28000000D03*
%TD*%
D31*
%TO.C,R6*%
X44900000Y-31225000D03*
X44900000Y-29575000D03*
%TD*%
%TO.C,R1*%
X44900000Y-37400000D03*
X44900000Y-35750000D03*
%TD*%
D16*
%TO.C,R7*%
X53975000Y-52200000D03*
X55625000Y-52200000D03*
%TD*%
M02*
