%TF.GenerationSoftware,KiCad,Pcbnew,9.0.6-9.0.6~ubuntu22.04.1*%
%TF.CreationDate,2025-11-05T22:25:10+01:00*%
%TF.ProjectId,FliperKAd,466c6970-6572-44b4-9164-2e6b69636164,rev?*%
%TF.SameCoordinates,Original*%
%TF.FileFunction,Soldermask,Bot*%
%TF.FilePolarity,Negative*%
%FSLAX46Y46*%
G04 Gerber Fmt 4.6, Leading zero omitted, Abs format (unit mm)*
G04 Created by KiCad (PCBNEW 9.0.6-9.0.6~ubuntu22.04.1) date 2025-11-05 22:25:10*
%MOMM*%
%LPD*%
G01*
G04 APERTURE LIST*
G04 Aperture macros list*
%AMRoundRect*
0 Rectangle with rounded corners*
0 $1 Rounding radius*
0 $2 $3 $4 $5 $6 $7 $8 $9 X,Y pos of 4 corners*
0 Add a 4 corners polygon primitive as box body*
4,1,4,$2,$3,$4,$5,$6,$7,$8,$9,$2,$3,0*
0 Add four circle primitives for the rounded corners*
1,1,$1+$1,$2,$3*
1,1,$1+$1,$4,$5*
1,1,$1+$1,$6,$7*
1,1,$1+$1,$8,$9*
0 Add four rect primitives between the rounded corners*
20,1,$1+$1,$2,$3,$4,$5,0*
20,1,$1+$1,$4,$5,$6,$7,0*
20,1,$1+$1,$6,$7,$8,$9,0*
20,1,$1+$1,$8,$9,$2,$3,0*%
G04 Aperture macros list end*
%ADD10RoundRect,0.760000X1.140000X1.140000X-1.140000X1.140000X-1.140000X-1.140000X1.140000X-1.140000X0*%
%ADD11C,4.000000*%
%ADD12C,0.800000*%
%ADD13C,6.400000*%
%ADD14RoundRect,0.250000X-0.750000X0.600000X-0.750000X-0.600000X0.750000X-0.600000X0.750000X0.600000X0*%
%ADD15O,2.000000X1.700000*%
%ADD16RoundRect,0.800000X0.000010X0.000010X-0.000010X0.000010X-0.000010X-0.000010X0.000010X-0.000010X0*%
%ADD17O,1.700000X2.000000*%
%ADD18RoundRect,0.250000X-0.600000X-0.750000X0.600000X-0.750000X0.600000X0.750000X-0.600000X0.750000X0*%
G04 APERTURE END LIST*
D10*
%TO.C,J2*%
X34000000Y-20000000D03*
D11*
X29000000Y-20000000D03*
%TD*%
D12*
%TO.C,H1*%
X17600000Y-20000000D03*
X18302944Y-18302944D03*
X18302944Y-21697056D03*
X20000000Y-17600000D03*
D13*
X20000000Y-20000000D03*
D12*
X20000000Y-22400000D03*
X21697056Y-18302944D03*
X21697056Y-21697056D03*
X22400000Y-20000000D03*
%TD*%
%TO.C,H2*%
X57600000Y-20000000D03*
X58302944Y-18302944D03*
X58302944Y-21697056D03*
X60000000Y-17600000D03*
D13*
X60000000Y-20000000D03*
D12*
X60000000Y-22400000D03*
X61697056Y-18302944D03*
X61697056Y-21697056D03*
X62400000Y-20000000D03*
%TD*%
D14*
%TO.C,J3*%
X20000000Y-28750000D03*
D15*
X20000000Y-31250000D03*
%TD*%
D12*
%TO.C,H3*%
X57600000Y-50000000D03*
X58302944Y-48302944D03*
X58302944Y-51697056D03*
X60000000Y-47600000D03*
D13*
X60000000Y-50000000D03*
D12*
X60000000Y-52400000D03*
X61697056Y-48302944D03*
X61697056Y-51697056D03*
X62400000Y-50000000D03*
%TD*%
D16*
%TO.C,U3*%
X47755000Y-18380000D03*
X50300000Y-18370000D03*
X52855000Y-18370000D03*
%TD*%
D12*
%TO.C,H4*%
X17600000Y-50000000D03*
X18302944Y-48302944D03*
X18302944Y-51697056D03*
X20000000Y-47600000D03*
D13*
X20000000Y-50000000D03*
D12*
X20000000Y-52400000D03*
X21697056Y-48302944D03*
X21697056Y-51697056D03*
X22400000Y-50000000D03*
%TD*%
D17*
%TO.C,J1*%
X39675000Y-49675000D03*
D18*
X37175000Y-49675000D03*
%TD*%
D14*
%TO.C,J4*%
X20000000Y-38750000D03*
D15*
X20000000Y-41250000D03*
%TD*%
M02*
