%TF.GenerationSoftware,KiCad,Pcbnew,9.0.6-9.0.6~ubuntu22.04.1*%
%TF.CreationDate,2025-11-05T22:25:10+01:00*%
%TF.ProjectId,FliperKAd,466c6970-6572-44b4-9164-2e6b69636164,rev?*%
%TF.SameCoordinates,Original*%
%TF.FileFunction,Copper,L1,Top*%
%TF.FilePolarity,Positive*%
%FSLAX46Y46*%
G04 Gerber Fmt 4.6, Leading zero omitted, Abs format (unit mm)*
G04 Created by KiCad (PCBNEW 9.0.6-9.0.6~ubuntu22.04.1) date 2025-11-05 22:25:10*
%MOMM*%
%LPD*%
G01*
G04 APERTURE LIST*
G04 Aperture macros list*
%AMRoundRect*
0 Rectangle with rounded corners*
0 $1 Rounding radius*
0 $2 $3 $4 $5 $6 $7 $8 $9 X,Y pos of 4 corners*
0 Add a 4 corners polygon primitive as box body*
4,1,4,$2,$3,$4,$5,$6,$7,$8,$9,$2,$3,0*
0 Add four circle primitives for the rounded corners*
1,1,$1+$1,$2,$3*
1,1,$1+$1,$4,$5*
1,1,$1+$1,$6,$7*
1,1,$1+$1,$8,$9*
0 Add four rect primitives between the rounded corners*
20,1,$1+$1,$2,$3,$4,$5,0*
20,1,$1+$1,$4,$5,$6,$7,0*
20,1,$1+$1,$6,$7,$8,$9,0*
20,1,$1+$1,$8,$9,$2,$3,0*%
%AMFreePoly0*
4,1,6,1.000000,0.000000,0.500000,-0.750000,-0.500000,-0.750000,-0.500000,0.750000,0.500000,0.750000,1.000000,0.000000,1.000000,0.000000,$1*%
%AMFreePoly1*
4,1,6,0.500000,-0.750000,-0.650000,-0.750000,-0.150000,0.000000,-0.650000,0.750000,0.500000,0.750000,0.500000,-0.750000,0.500000,-0.750000,$1*%
G04 Aperture macros list end*
%TA.AperFunction,SMDPad,CuDef*%
%ADD10RoundRect,0.218750X0.256250X-0.218750X0.256250X0.218750X-0.256250X0.218750X-0.256250X-0.218750X0*%
%TD*%
%TA.AperFunction,SMDPad,CuDef*%
%ADD11RoundRect,0.200000X-0.200000X-0.275000X0.200000X-0.275000X0.200000X0.275000X-0.200000X0.275000X0*%
%TD*%
%TA.AperFunction,SMDPad,CuDef*%
%ADD12RoundRect,0.225000X0.225000X0.250000X-0.225000X0.250000X-0.225000X-0.250000X0.225000X-0.250000X0*%
%TD*%
%TA.AperFunction,SMDPad,CuDef*%
%ADD13RoundRect,0.250000X0.325000X0.650000X-0.325000X0.650000X-0.325000X-0.650000X0.325000X-0.650000X0*%
%TD*%
%TA.AperFunction,SMDPad,CuDef*%
%ADD14C,2.000000*%
%TD*%
%TA.AperFunction,SMDPad,CuDef*%
%ADD15RoundRect,0.140000X0.170000X-0.140000X0.170000X0.140000X-0.170000X0.140000X-0.170000X-0.140000X0*%
%TD*%
%TA.AperFunction,SMDPad,CuDef*%
%ADD16RoundRect,0.140000X0.140000X0.170000X-0.140000X0.170000X-0.140000X-0.170000X0.140000X-0.170000X0*%
%TD*%
%TA.AperFunction,SMDPad,CuDef*%
%ADD17RoundRect,0.200000X0.200000X0.275000X-0.200000X0.275000X-0.200000X-0.275000X0.200000X-0.275000X0*%
%TD*%
%TA.AperFunction,SMDPad,CuDef*%
%ADD18RoundRect,0.140000X-0.170000X0.140000X-0.170000X-0.140000X0.170000X-0.140000X0.170000X0.140000X0*%
%TD*%
%TA.AperFunction,SMDPad,CuDef*%
%ADD19RoundRect,0.225000X0.250000X-0.225000X0.250000X0.225000X-0.250000X0.225000X-0.250000X-0.225000X0*%
%TD*%
%TA.AperFunction,SMDPad,CuDef*%
%ADD20RoundRect,0.225000X0.525000X-0.525000X0.525000X0.525000X-0.525000X0.525000X-0.525000X-0.525000X0*%
%TD*%
%TA.AperFunction,SMDPad,CuDef*%
%ADD21RoundRect,0.060000X0.190000X-0.140000X0.190000X0.140000X-0.190000X0.140000X-0.190000X-0.140000X0*%
%TD*%
%TA.AperFunction,SMDPad,CuDef*%
%ADD22RoundRect,0.250000X0.325000X1.100000X-0.325000X1.100000X-0.325000X-1.100000X0.325000X-1.100000X0*%
%TD*%
%TA.AperFunction,SMDPad,CuDef*%
%ADD23RoundRect,0.250000X-0.650000X0.325000X-0.650000X-0.325000X0.650000X-0.325000X0.650000X0.325000X0*%
%TD*%
%TA.AperFunction,SMDPad,CuDef*%
%ADD24RoundRect,0.150000X0.800000X0.150000X-0.800000X0.150000X-0.800000X-0.150000X0.800000X-0.150000X0*%
%TD*%
%TA.AperFunction,SMDPad,CuDef*%
%ADD25RoundRect,0.250000X-2.050000X-0.300000X2.050000X-0.300000X2.050000X0.300000X-2.050000X0.300000X0*%
%TD*%
%TA.AperFunction,SMDPad,CuDef*%
%ADD26RoundRect,0.250002X-4.449998X-5.149998X4.449998X-5.149998X4.449998X5.149998X-4.449998X5.149998X0*%
%TD*%
%TA.AperFunction,ComponentPad*%
%ADD27RoundRect,0.760000X1.140000X1.140000X-1.140000X1.140000X-1.140000X-1.140000X1.140000X-1.140000X0*%
%TD*%
%TA.AperFunction,ComponentPad*%
%ADD28C,4.000000*%
%TD*%
%TA.AperFunction,ComponentPad*%
%ADD29C,0.800000*%
%TD*%
%TA.AperFunction,ComponentPad*%
%ADD30C,6.400000*%
%TD*%
%TA.AperFunction,ComponentPad*%
%ADD31RoundRect,0.250000X-0.750000X0.600000X-0.750000X-0.600000X0.750000X-0.600000X0.750000X0.600000X0*%
%TD*%
%TA.AperFunction,ComponentPad*%
%ADD32O,2.000000X1.700000*%
%TD*%
%TA.AperFunction,SMDPad,CuDef*%
%ADD33RoundRect,0.250000X0.650000X-1.000000X0.650000X1.000000X-0.650000X1.000000X-0.650000X-1.000000X0*%
%TD*%
%TA.AperFunction,SMDPad,CuDef*%
%ADD34FreePoly0,270.000000*%
%TD*%
%TA.AperFunction,SMDPad,CuDef*%
%ADD35FreePoly1,270.000000*%
%TD*%
%TA.AperFunction,SMDPad,CuDef*%
%ADD36RoundRect,0.200000X-0.275000X0.200000X-0.275000X-0.200000X0.275000X-0.200000X0.275000X0.200000X0*%
%TD*%
%TA.AperFunction,SMDPad,CuDef*%
%ADD37R,2.400000X0.740000*%
%TD*%
%TA.AperFunction,ComponentPad*%
%ADD38RoundRect,0.800000X0.000010X0.000010X-0.000010X0.000010X-0.000010X-0.000010X0.000010X-0.000010X0*%
%TD*%
%TA.AperFunction,SMDPad,CuDef*%
%ADD39RoundRect,0.125000X0.125000X-0.625000X0.125000X0.625000X-0.125000X0.625000X-0.125000X-0.625000X0*%
%TD*%
%TA.AperFunction,SMDPad,CuDef*%
%ADD40RoundRect,0.125000X0.625000X-0.125000X0.625000X0.125000X-0.625000X0.125000X-0.625000X-0.125000X0*%
%TD*%
%TA.AperFunction,ComponentPad*%
%ADD41O,1.700000X2.000000*%
%TD*%
%TA.AperFunction,ComponentPad*%
%ADD42RoundRect,0.250000X-0.600000X-0.750000X0.600000X-0.750000X0.600000X0.750000X-0.600000X0.750000X0*%
%TD*%
%TA.AperFunction,SMDPad,CuDef*%
%ADD43RoundRect,0.200000X0.275000X-0.200000X0.275000X0.200000X-0.275000X0.200000X-0.275000X-0.200000X0*%
%TD*%
%TA.AperFunction,ViaPad*%
%ADD44C,0.450000*%
%TD*%
%TA.AperFunction,Conductor*%
%ADD45C,0.200000*%
%TD*%
%TA.AperFunction,Conductor*%
%ADD46C,0.400000*%
%TD*%
%TA.AperFunction,Conductor*%
%ADD47C,1.000000*%
%TD*%
%TA.AperFunction,Conductor*%
%ADD48C,0.500000*%
%TD*%
%TA.AperFunction,Conductor*%
%ADD49C,1.100000*%
%TD*%
%TA.AperFunction,Conductor*%
%ADD50C,1.500000*%
%TD*%
G04 APERTURE END LIST*
D10*
%TO.P,D3,1,K*%
%TO.N,/LED_Stat*%
X55600000Y-50675000D03*
%TO.P,D3,2,A*%
%TO.N,LED_Status*%
X55600000Y-49100000D03*
%TD*%
D11*
%TO.P,R10,1*%
%TO.N,Net-(U4-FSW)*%
X48575000Y-31900000D03*
%TO.P,R10,2*%
%TO.N,GND*%
X50225000Y-31900000D03*
%TD*%
D12*
%TO.P,C12,1*%
%TO.N,Net-(U4-VCC)*%
X53175000Y-31900000D03*
%TO.P,C12,2*%
%TO.N,GND*%
X51625000Y-31900000D03*
%TD*%
D13*
%TO.P,C8,2*%
%TO.N,GND*%
X50125000Y-29900000D03*
%TO.P,C8,1*%
%TO.N,+24V*%
X53075000Y-29900000D03*
%TD*%
D14*
%TO.P,TP3,1,1*%
%TO.N,+12V*%
X62000000Y-28300000D03*
%TD*%
D15*
%TO.P,C7,1*%
%TO.N,+12V*%
X47100000Y-36080000D03*
%TO.P,C7,2*%
%TO.N,GND*%
X47100000Y-35120000D03*
%TD*%
D16*
%TO.P,C6,2*%
%TO.N,GND*%
X48245000Y-53200000D03*
%TO.P,C6,1*%
%TO.N,NRST*%
X49205000Y-53200000D03*
%TD*%
D17*
%TO.P,R3,2*%
%TO.N,GND*%
X51575000Y-34900000D03*
%TO.P,R3,1*%
%TO.N,Com-SolA*%
X53225000Y-34900000D03*
%TD*%
D11*
%TO.P,R4,2*%
%TO.N,GND*%
X50225000Y-34900000D03*
%TO.P,R4,1*%
%TO.N,Com-SolB*%
X48575000Y-34900000D03*
%TD*%
D18*
%TO.P,C5,2*%
%TO.N,GND*%
X55425000Y-47880000D03*
%TO.P,C5,1*%
%TO.N,+3.3V*%
X55425000Y-46920000D03*
%TD*%
%TO.P,C3,2*%
%TO.N,GND*%
X53925000Y-43700000D03*
%TO.P,C3,1*%
%TO.N,+3.3V*%
X53925000Y-42740000D03*
%TD*%
D15*
%TO.P,C2,2*%
%TO.N,GND*%
X44925000Y-51440000D03*
%TO.P,C2,1*%
%TO.N,+3.3V*%
X44925000Y-52400000D03*
%TD*%
D19*
%TO.P,C1,2*%
%TO.N,GND*%
X43625000Y-50600000D03*
%TO.P,C1,1*%
%TO.N,+3.3V*%
X43625000Y-52150000D03*
%TD*%
D17*
%TO.P,R9,2*%
%TO.N,GND*%
X51575000Y-33400000D03*
%TO.P,R9,1*%
%TO.N,Net-(U4-FB)*%
X53225000Y-33400000D03*
%TD*%
%TO.P,R8,2*%
%TO.N,Net-(U4-FB)*%
X48575000Y-33400000D03*
%TO.P,R8,1*%
%TO.N,/Test 3.3*%
X50225000Y-33400000D03*
%TD*%
D20*
%TO.P,U4,13,PGND*%
%TO.N,GND*%
X57100000Y-34300000D03*
D21*
%TO.P,U4,12,EN*%
%TO.N,+24V*%
X59700000Y-35900000D03*
%TO.P,U4,11,PG*%
%TO.N,unconnected-(U4-PG-Pad11)*%
X59700000Y-34900000D03*
%TO.P,U4,10,AGND*%
%TO.N,GND*%
X59700000Y-33900000D03*
%TO.P,U4,9,Vin*%
%TO.N,+24V*%
X59700000Y-32900000D03*
%TO.P,U4,8,DNC*%
%TO.N,unconnected-(U4-DNC-Pad8)*%
X59700000Y-31900000D03*
D20*
%TO.P,U4,7,Vout*%
%TO.N,/Test 3.3*%
X59200000Y-27150000D03*
%TO.P,U4,6,Vout*%
X55000000Y-27150000D03*
D21*
%TO.P,U4,5,Vin*%
%TO.N,+24V*%
X54500000Y-31900000D03*
%TO.P,U4,4,Vin*%
X54500000Y-32900000D03*
%TO.P,U4,3,VCC*%
%TO.N,Net-(U4-VCC)*%
X54500000Y-33900000D03*
%TO.P,U4,2,FB*%
%TO.N,Net-(U4-FB)*%
X54500000Y-34900000D03*
%TO.P,U4,1,FSW*%
%TO.N,Net-(U4-FSW)*%
X54500000Y-35900000D03*
%TD*%
D22*
%TO.P,C9,2*%
%TO.N,GND*%
X50125000Y-27100000D03*
%TO.P,C9,1*%
%TO.N,/Test 3.3*%
X53075000Y-27100000D03*
%TD*%
D23*
%TO.P,C11,1*%
%TO.N,+24V*%
X42900000Y-17225000D03*
%TO.P,C11,2*%
%TO.N,GND*%
X42900000Y-20175000D03*
%TD*%
%TO.P,C10,1*%
%TO.N,+24V*%
X40300000Y-17225000D03*
%TO.P,C10,2*%
%TO.N,GND*%
X40300000Y-20175000D03*
%TD*%
D24*
%TO.P,U2,1,NC*%
%TO.N,unconnected-(U2-NC-Pad1)*%
X54000000Y-40905000D03*
%TO.P,U2,2,INA*%
%TO.N,Com-SolB*%
X54000000Y-39635000D03*
%TO.P,U2,3,GND*%
%TO.N,GND*%
X54000000Y-38365000D03*
%TO.P,U2,4,INB*%
%TO.N,Com-SolA*%
X54000000Y-37095000D03*
%TO.P,U2,5,OUTB*%
%TO.N,Com-MOSA*%
X47000000Y-37095000D03*
%TO.P,U2,6,Vs*%
%TO.N,+12V*%
X47000000Y-38365000D03*
%TO.P,U2,7,OUTA*%
%TO.N,Com-MOSB*%
X47000000Y-39635000D03*
%TO.P,U2,8,NC*%
%TO.N,unconnected-(U2-NC-Pad8)*%
X47000000Y-40905000D03*
%TD*%
D25*
%TO.P,Q2,1,D*%
%TO.N,Sortie-Sol\u00E9noideA*%
X29900000Y-26720000D03*
%TO.P,Q2,2,G*%
%TO.N,Net-(Q2-G)*%
X29900000Y-29260000D03*
D26*
X39050000Y-29260000D03*
D25*
%TO.P,Q2,3,S*%
%TO.N,GND*%
X29900000Y-31800000D03*
%TD*%
%TO.P,Q1,3,S*%
%TO.N,GND*%
X29900000Y-43280000D03*
D26*
%TO.P,Q1,2,G*%
%TO.N,Net-(Q1-G)*%
X39050000Y-40740000D03*
D25*
X29900000Y-40740000D03*
%TO.P,Q1,1,D*%
%TO.N,Sortie-Sol\u00E9noideB*%
X29900000Y-38200000D03*
%TD*%
D27*
%TO.P,J2,1,Pin_1*%
%TO.N,GND*%
X34000000Y-20000000D03*
D28*
%TO.P,J2,2,Pin_2*%
%TO.N,+24V*%
X29000000Y-20000000D03*
%TD*%
D29*
%TO.P,H1,1,1*%
%TO.N,GND*%
X17600000Y-20000000D03*
X18302944Y-18302944D03*
X18302944Y-21697056D03*
X20000000Y-17600000D03*
D30*
X20000000Y-20000000D03*
D29*
X20000000Y-22400000D03*
X21697056Y-18302944D03*
X21697056Y-21697056D03*
X22400000Y-20000000D03*
%TD*%
D14*
%TO.P,TP1,1,1*%
%TO.N,/Test 3.3*%
X62000000Y-31400000D03*
%TD*%
D29*
%TO.P,H2,1,1*%
%TO.N,GND*%
X57600000Y-20000000D03*
X58302944Y-18302944D03*
X58302944Y-21697056D03*
X60000000Y-17600000D03*
D30*
X60000000Y-20000000D03*
D29*
X60000000Y-22400000D03*
X61697056Y-18302944D03*
X61697056Y-21697056D03*
X62400000Y-20000000D03*
%TD*%
D31*
%TO.P,J3,1,Pin_1*%
%TO.N,Sortie-Sol\u00E9noideA*%
X20000000Y-28750000D03*
D32*
%TO.P,J3,2,Pin_2*%
%TO.N,+24V*%
X20000000Y-31250000D03*
%TD*%
D33*
%TO.P,D2,1,K*%
%TO.N,+24V*%
X25000000Y-42000000D03*
%TO.P,D2,2,A*%
%TO.N,Sortie-Sol\u00E9noideB*%
X25000000Y-38000000D03*
%TD*%
D34*
%TO.P,JP2,1,A*%
%TO.N,/12test*%
X47400000Y-26700000D03*
D35*
%TO.P,JP2,2,B*%
%TO.N,+12V*%
X47400000Y-28150000D03*
%TD*%
D34*
%TO.P,JP1,1,A*%
%TO.N,/Test 3.3*%
X62000000Y-33875000D03*
D35*
%TO.P,JP1,2,B*%
%TO.N,+3.3V*%
X62000000Y-35325000D03*
%TD*%
D29*
%TO.P,H3,1,1*%
%TO.N,GND*%
X57600000Y-50000000D03*
X58302944Y-48302944D03*
X58302944Y-51697056D03*
X60000000Y-47600000D03*
D30*
X60000000Y-50000000D03*
D29*
X60000000Y-52400000D03*
X61697056Y-48302944D03*
X61697056Y-51697056D03*
X62400000Y-50000000D03*
%TD*%
D36*
%TO.P,R2,1*%
%TO.N,Net-(Q1-G)*%
X44900000Y-38750000D03*
%TO.P,R2,2*%
%TO.N,GND*%
X44900000Y-40400000D03*
%TD*%
D37*
%TO.P,J5,1,NC*%
%TO.N,unconnected-(J5-NC-Pad1)*%
X61550000Y-45310000D03*
%TO.P,J5,2,NC*%
%TO.N,unconnected-(J5-NC-Pad2)*%
X57650000Y-45310000D03*
%TO.P,J5,3,VCC*%
%TO.N,+3.3V*%
X61550000Y-44040000D03*
%TO.P,J5,4,JTMS/SWDIO*%
%TO.N,SYS_SWDIO*%
X57650000Y-44040000D03*
%TO.P,J5,5,GND*%
%TO.N,GND*%
X61550000Y-42770000D03*
%TO.P,J5,6,JCLK/SWCLK*%
%TO.N,SYS_SWCLK*%
X57650000Y-42770000D03*
%TO.P,J5,7,GND*%
%TO.N,GND*%
X61550000Y-41500000D03*
%TO.P,J5,8,JTDO/SWO*%
%TO.N,unconnected-(J5-JTDO{slash}SWO-Pad8)*%
X57650000Y-41500000D03*
%TO.P,J5,9,JRCLK/NC*%
%TO.N,unconnected-(J5-JRCLK{slash}NC-Pad9)*%
X61550000Y-40230000D03*
%TO.P,J5,10,JTDI/NC*%
%TO.N,unconnected-(J5-JTDI{slash}NC-Pad10)*%
X57650000Y-40230000D03*
%TO.P,J5,11,GNDDetect*%
%TO.N,GND*%
X61550000Y-38960000D03*
%TO.P,J5,12,~{RST}*%
%TO.N,NRST*%
X57650000Y-38960000D03*
%TO.P,J5,13,VCP_RX*%
%TO.N,USART2_RX*%
X61550000Y-37690000D03*
%TO.P,J5,14,VCP_TX*%
%TO.N,USART2_TX*%
X57650000Y-37690000D03*
%TD*%
D38*
%TO.P,U3,1,Vin*%
%TO.N,+24V*%
X47755000Y-18380000D03*
%TO.P,U3,2,Gnd*%
%TO.N,GND*%
X50300000Y-18370000D03*
%TO.P,U3,3,Vout*%
%TO.N,/12test*%
X52855000Y-18370000D03*
%TD*%
D29*
%TO.P,H4,1,1*%
%TO.N,GND*%
X17600000Y-50000000D03*
X18302944Y-48302944D03*
X18302944Y-51697056D03*
X20000000Y-47600000D03*
D30*
X20000000Y-50000000D03*
D29*
X20000000Y-52400000D03*
X21697056Y-48302944D03*
X21697056Y-51697056D03*
X22400000Y-50000000D03*
%TD*%
D39*
%TO.P,U1,1,VDD*%
%TO.N,+3.3V*%
X46825000Y-51775000D03*
%TO.P,U1,2,PF0*%
%TO.N,unconnected-(U1-PF0-Pad2)*%
X47625000Y-51775000D03*
%TO.P,U1,3,PF1*%
%TO.N,unconnected-(U1-PF1-Pad3)*%
X48425000Y-51775000D03*
%TO.P,U1,4,PG10*%
%TO.N,NRST*%
X49225000Y-51775000D03*
%TO.P,U1,5,PA0*%
%TO.N,unconnected-(U1-PA0-Pad5)*%
X50025000Y-51775000D03*
%TO.P,U1,6,PA1*%
%TO.N,unconnected-(U1-PA1-Pad6)*%
X50825000Y-51775000D03*
%TO.P,U1,7,PA2*%
%TO.N,USART2_TX*%
X51625000Y-51775000D03*
%TO.P,U1,8,PA3*%
%TO.N,USART2_RX*%
X52425000Y-51775000D03*
D40*
%TO.P,U1,9,PA4*%
%TO.N,LED_Status*%
X53800000Y-50400000D03*
%TO.P,U1,10,PA5*%
%TO.N,unconnected-(U1-PA5-Pad10)*%
X53800000Y-49600000D03*
%TO.P,U1,11,PA6*%
%TO.N,unconnected-(U1-PA6-Pad11)*%
X53800000Y-48800000D03*
%TO.P,U1,12,PA7*%
%TO.N,unconnected-(U1-PA7-Pad12)*%
X53800000Y-48000000D03*
%TO.P,U1,13,PB0*%
%TO.N,unconnected-(U1-PB0-Pad13)*%
X53800000Y-47200000D03*
%TO.P,U1,14,VSSA*%
%TO.N,GND*%
X53800000Y-46400000D03*
%TO.P,U1,15,VDDA*%
%TO.N,+3.3V*%
X53800000Y-45600000D03*
%TO.P,U1,16,VSS*%
%TO.N,GND*%
X53800000Y-44800000D03*
D39*
%TO.P,U1,17,VDD*%
%TO.N,+3.3V*%
X52425000Y-43425000D03*
%TO.P,U1,18,PA8*%
%TO.N,unconnected-(U1-PA8-Pad18)*%
X51625000Y-43425000D03*
%TO.P,U1,19,PA9*%
%TO.N,unconnected-(U1-PA9-Pad19)*%
X50825000Y-43425000D03*
%TO.P,U1,20,PA10*%
%TO.N,Com-SolA*%
X50025000Y-43425000D03*
%TO.P,U1,21,PA11*%
%TO.N,Com-SolB*%
X49225000Y-43425000D03*
%TO.P,U1,22,PA12*%
%TO.N,unconnected-(U1-PA12-Pad22)*%
X48425000Y-43425000D03*
%TO.P,U1,23,PA13*%
%TO.N,SYS_SWDIO*%
X47625000Y-43425000D03*
%TO.P,U1,24,PA14*%
%TO.N,SYS_SWCLK*%
X46825000Y-43425000D03*
D40*
%TO.P,U1,25,PA15*%
%TO.N,unconnected-(U1-PA15-Pad25)*%
X45450000Y-44800000D03*
%TO.P,U1,26,PB3*%
%TO.N,unconnected-(U1-PB3-Pad26)*%
X45450000Y-45600000D03*
%TO.P,U1,27,PB4*%
%TO.N,unconnected-(U1-PB4-Pad27)*%
X45450000Y-46400000D03*
%TO.P,U1,28,PB5*%
%TO.N,unconnected-(U1-PB5-Pad28)*%
X45450000Y-47200000D03*
%TO.P,U1,29,PB6*%
%TO.N,unconnected-(U1-PB6-Pad29)*%
X45450000Y-48000000D03*
%TO.P,U1,30,PB7*%
%TO.N,unconnected-(U1-PB7-Pad30)*%
X45450000Y-48800000D03*
%TO.P,U1,31,PB8*%
%TO.N,Bouton_Actif*%
X45450000Y-49600000D03*
%TO.P,U1,32,VSS*%
%TO.N,GND*%
X45450000Y-50400000D03*
%TD*%
D36*
%TO.P,R5,1*%
%TO.N,Net-(Q2-G)*%
X44900000Y-32575000D03*
%TO.P,R5,2*%
%TO.N,Com-MOSA*%
X44900000Y-34225000D03*
%TD*%
D41*
%TO.P,J1,2,Pin_2*%
%TO.N,Bouton_Actif*%
X39675000Y-49675000D03*
D42*
%TO.P,J1,1,Pin_1*%
%TO.N,GND*%
X37175000Y-49675000D03*
%TD*%
D31*
%TO.P,J4,1,Pin_1*%
%TO.N,Sortie-Sol\u00E9noideB*%
X20000000Y-38750000D03*
D32*
%TO.P,J4,2,Pin_2*%
%TO.N,+24V*%
X20000000Y-41250000D03*
%TD*%
D33*
%TO.P,D1,1,K*%
%TO.N,+24V*%
X25000000Y-32000000D03*
%TO.P,D1,2,A*%
%TO.N,Sortie-Sol\u00E9noideA*%
X25000000Y-28000000D03*
%TD*%
D14*
%TO.P,TP2,1,1*%
%TO.N,+24V*%
X62000000Y-25200000D03*
%TD*%
D43*
%TO.P,R6,1*%
%TO.N,Net-(Q2-G)*%
X44900000Y-31225000D03*
%TO.P,R6,2*%
%TO.N,GND*%
X44900000Y-29575000D03*
%TD*%
%TO.P,R1,1*%
%TO.N,Net-(Q1-G)*%
X44900000Y-37400000D03*
%TO.P,R1,2*%
%TO.N,Com-MOSB*%
X44900000Y-35750000D03*
%TD*%
D17*
%TO.P,R7,2*%
%TO.N,GND*%
X53975000Y-52200000D03*
%TO.P,R7,1*%
%TO.N,/LED_Stat*%
X55625000Y-52200000D03*
%TD*%
D44*
%TO.N,GND*%
X27300000Y-31800000D03*
X32500000Y-31800000D03*
X29900000Y-32600000D03*
X29900000Y-31000000D03*
X27300000Y-43300000D03*
X32500000Y-43300000D03*
X29900000Y-44100000D03*
X29900000Y-42500000D03*
X45600000Y-51500000D03*
X54700000Y-46600000D03*
%TO.N,+12V*%
X61000000Y-27000000D03*
%TO.N,+24V*%
X58000000Y-30000000D03*
X57000000Y-30000000D03*
X56000000Y-30000000D03*
X55000000Y-30000000D03*
X55000000Y-31000000D03*
X56000000Y-31000000D03*
X57000000Y-31000000D03*
X58000000Y-31000000D03*
X59000000Y-31000000D03*
X59000000Y-30000000D03*
X59000000Y-29000000D03*
X58000000Y-29000000D03*
X57000000Y-29000000D03*
X56000000Y-29000000D03*
X55000000Y-29000000D03*
%TO.N,NRST*%
X56000000Y-39000000D03*
X51122250Y-46200000D03*
%TO.N,USART2_RX*%
X60000000Y-37700000D03*
%TO.N,USART2_TX*%
X52500000Y-45800000D03*
X56100000Y-37700000D03*
%TO.N,USART2_RX*%
X52600000Y-46600000D03*
%TO.N,SYS_SWCLK*%
X56000000Y-42800000D03*
X50725000Y-45400000D03*
%TO.N,SYS_SWDIO*%
X55800000Y-43400000D03*
X51800000Y-44900000D03*
%TO.N,GND*%
X47100000Y-34500000D03*
%TO.N,/Test 3.3*%
X49400000Y-32700000D03*
%TO.N,Net-(U4-FSW)*%
X53800000Y-35900000D03*
X49400000Y-31900000D03*
%TO.N,Net-(U4-FB)*%
X49400000Y-33400000D03*
X52500000Y-33400000D03*
%TO.N,GND*%
X58300000Y-34300000D03*
X55900000Y-34300000D03*
X57100000Y-35500000D03*
X59200000Y-33900000D03*
%TO.N,+24V*%
X60500000Y-24300000D03*
X45400000Y-17225000D03*
X41600000Y-17225000D03*
X44200000Y-17225000D03*
X34900000Y-17225000D03*
X35900000Y-17225000D03*
X37100000Y-17225000D03*
X38300000Y-17225000D03*
%TO.N,GND*%
X46000000Y-20175000D03*
X45000000Y-20175000D03*
X44100000Y-20175000D03*
X36700000Y-20175000D03*
X37700000Y-20175000D03*
X38700000Y-20175000D03*
X41700000Y-20175000D03*
X53225000Y-51600000D03*
%TO.N,Com-SolB*%
X50800000Y-39700000D03*
X49500000Y-39700000D03*
%TO.N,GND*%
X44900000Y-28700000D03*
X44900000Y-41100000D03*
%TO.N,+24V*%
X22200000Y-31250000D03*
X22900000Y-31250000D03*
X22900000Y-41250000D03*
X22100000Y-41250000D03*
%TO.N,GND*%
X47400000Y-53100000D03*
%TO.N,+3.3V*%
X45825000Y-52400000D03*
X43625000Y-52900000D03*
%TO.N,GND*%
X44425000Y-50500000D03*
%TO.N,+3.3V*%
X53925000Y-42100000D03*
X55600000Y-46400000D03*
%TO.N,GND*%
X55200000Y-44800000D03*
%TO.N,+3.3V*%
X62000000Y-36200000D03*
%TO.N,/Test 3.3*%
X62000000Y-32900000D03*
X53900000Y-27100000D03*
%TO.N,+3.3V*%
X63040000Y-44040000D03*
%TO.N,GND*%
X63070000Y-42770000D03*
X63100000Y-41500000D03*
X63100000Y-39000000D03*
%TO.N,+12V*%
X47400000Y-29000000D03*
X48100000Y-36300000D03*
X48300000Y-38400000D03*
%TO.N,GND*%
X55200000Y-38400000D03*
X50900000Y-34100000D03*
X50900000Y-32600000D03*
X49300000Y-29900000D03*
X49200000Y-27100000D03*
%TD*%
D45*
%TO.N,GND*%
X48245000Y-53300000D02*
X47600000Y-53300000D01*
X47600000Y-53300000D02*
X47400000Y-53100000D01*
%TO.N,Com-SolA*%
X50025000Y-43425000D02*
X50025000Y-38675000D01*
X50025000Y-38675000D02*
X51605000Y-37095000D01*
X51605000Y-37095000D02*
X52700000Y-37095000D01*
%TO.N,Com-SolB*%
X49225000Y-43425000D02*
X49225000Y-39975000D01*
X49225000Y-39975000D02*
X49500000Y-39700000D01*
%TO.N,GND*%
X29900000Y-31800000D02*
X27300000Y-31800000D01*
X29900000Y-31800000D02*
X32500000Y-31800000D01*
X29900000Y-31800000D02*
X29900000Y-32600000D01*
X29900000Y-31800000D02*
X29900000Y-31000000D01*
X27320000Y-43280000D02*
X27300000Y-43300000D01*
X29900000Y-43280000D02*
X27320000Y-43280000D01*
X32480000Y-43280000D02*
X32500000Y-43300000D01*
X29900000Y-43280000D02*
X32480000Y-43280000D01*
X29900000Y-43280000D02*
X29900000Y-42500000D01*
X29900000Y-43280000D02*
X29900000Y-44100000D01*
X45540000Y-51440000D02*
X45600000Y-51500000D01*
X44925000Y-51440000D02*
X45540000Y-51440000D01*
X55022500Y-47477500D02*
X55425000Y-47880000D01*
X55022500Y-47477500D02*
X54801000Y-47256000D01*
X54801000Y-47256000D02*
X54801000Y-46701000D01*
X54075000Y-46500000D02*
X54600000Y-46500000D01*
X54825000Y-47280000D02*
X54825000Y-46725000D01*
X54825000Y-46725000D02*
X54600000Y-46500000D01*
%TO.N,SYS_SWDIO*%
X47625000Y-44174999D02*
X47625000Y-43425000D01*
X51800000Y-44900000D02*
X48350001Y-44900000D01*
X48350001Y-44900000D02*
X47625000Y-44174999D01*
%TO.N,NRST*%
X51122250Y-46200000D02*
X51122250Y-49202750D01*
X51122250Y-49202750D02*
X49225000Y-51100000D01*
X49225000Y-51100000D02*
X49225000Y-51775000D01*
%TO.N,USART2_RX*%
X52425000Y-51775000D02*
X52425000Y-46775000D01*
X52425000Y-46775000D02*
X52600000Y-46600000D01*
%TO.N,USART2_TX*%
X52500000Y-45800000D02*
X52125000Y-45800000D01*
X52125000Y-45800000D02*
X51625000Y-46300000D01*
X51625000Y-46300000D02*
X51625000Y-51775000D01*
%TO.N,GND*%
X53975000Y-52200000D02*
X53825000Y-52200000D01*
X53825000Y-52200000D02*
X53225000Y-51600000D01*
%TO.N,/LED_Stat*%
X55600000Y-50675000D02*
X55600000Y-52175000D01*
X55600000Y-52175000D02*
X55625000Y-52200000D01*
%TO.N,LED_Status*%
X53800000Y-50400000D02*
X54300000Y-50400000D01*
X54300000Y-50400000D02*
X55600000Y-49100000D01*
D46*
%TO.N,+24V*%
X59700000Y-35900000D02*
X60400000Y-35200000D01*
X60400000Y-35200000D02*
X60400000Y-33600000D01*
X60400000Y-33600000D02*
X59700000Y-32900000D01*
D45*
%TO.N,+12V*%
X61000000Y-27000000D02*
X61000000Y-27300000D01*
X61000000Y-27300000D02*
X62000000Y-28300000D01*
D47*
%TO.N,/Test 3.3*%
X59200000Y-27150000D02*
X59901000Y-27851000D01*
X59901000Y-27851000D02*
X59901000Y-29301000D01*
X59901000Y-29301000D02*
X62000000Y-31400000D01*
D45*
%TO.N,Bouton_Actif*%
X39675000Y-49675000D02*
X45375000Y-49675000D01*
X45375000Y-49675000D02*
X45450000Y-49600000D01*
%TO.N,NRST*%
X56000000Y-39000000D02*
X57610000Y-39000000D01*
X57610000Y-39000000D02*
X57650000Y-38960000D01*
%TO.N,SYS_SWDIO*%
X55800000Y-43400000D02*
X56400000Y-44000000D01*
X56400000Y-44000000D02*
X57610000Y-44000000D01*
X57610000Y-44000000D02*
X57650000Y-44040000D01*
%TO.N,SYS_SWCLK*%
X48050001Y-45400000D02*
X46825000Y-44174999D01*
X50725000Y-45400000D02*
X48050001Y-45400000D01*
X46825000Y-44174999D02*
X46825000Y-43425000D01*
%TO.N,USART2_RX*%
X60000000Y-37700000D02*
X61540000Y-37700000D01*
X61540000Y-37700000D02*
X61550000Y-37690000D01*
%TO.N,+3.3V*%
X55600000Y-46400000D02*
X55700000Y-46500000D01*
X55700000Y-46500000D02*
X55700000Y-47020000D01*
X55600000Y-46400000D02*
X54900000Y-45700000D01*
X54900000Y-45700000D02*
X54075000Y-45700000D01*
%TO.N,USART2_TX*%
X56100000Y-37700000D02*
X57640000Y-37700000D01*
X57640000Y-37700000D02*
X57650000Y-37690000D01*
%TO.N,SYS_SWCLK*%
X56000000Y-42800000D02*
X57620000Y-42800000D01*
X57620000Y-42800000D02*
X57650000Y-42770000D01*
%TO.N,GND*%
X47100000Y-35120000D02*
X47100000Y-34500000D01*
%TO.N,/Test 3.3*%
X49525000Y-32700000D02*
X49400000Y-32700000D01*
X50225000Y-33400000D02*
X49525000Y-32700000D01*
%TO.N,Net-(U4-FSW)*%
X53800000Y-35900000D02*
X54500000Y-35900000D01*
X48575000Y-31900000D02*
X49400000Y-31900000D01*
%TO.N,Net-(U4-FB)*%
X53225000Y-33400000D02*
X52500000Y-33400000D01*
X49400000Y-33400000D02*
X48575000Y-33400000D01*
X54500000Y-34900000D02*
X54500000Y-34675000D01*
X54500000Y-34675000D02*
X53225000Y-33400000D01*
%TO.N,Net-(U4-VCC)*%
X54500000Y-33900000D02*
X54000000Y-33400000D01*
X54000000Y-33400000D02*
X54000000Y-32725000D01*
X54000000Y-32725000D02*
X53175000Y-31900000D01*
D46*
%TO.N,+24V*%
X54500000Y-31900000D02*
X54500000Y-30600000D01*
X54500000Y-30600000D02*
X53800000Y-29900000D01*
X53800000Y-29900000D02*
X53075000Y-29900000D01*
D45*
%TO.N,GND*%
X57100000Y-34300000D02*
X58300000Y-34300000D01*
X57100000Y-34300000D02*
X55900000Y-34300000D01*
X57100000Y-34300000D02*
X57100000Y-35500000D01*
X59700000Y-33900000D02*
X59200000Y-33900000D01*
D46*
%TO.N,+24V*%
X54500000Y-32900000D02*
X59700000Y-32900000D01*
X54500000Y-32900000D02*
X54500000Y-31900000D01*
D45*
X61400000Y-25200000D02*
X60500000Y-24300000D01*
X62000000Y-25200000D02*
X61400000Y-25200000D01*
D47*
X45400000Y-17225000D02*
X46600000Y-17225000D01*
X36400000Y-17225000D02*
X31775000Y-17225000D01*
X36400000Y-17225000D02*
X35900000Y-17225000D01*
X38300000Y-17225000D02*
X36400000Y-17225000D01*
X31775000Y-17225000D02*
X29000000Y-20000000D01*
X40300000Y-17225000D02*
X38300000Y-17225000D01*
X42900000Y-17225000D02*
X45400000Y-17225000D01*
X46600000Y-17225000D02*
X47755000Y-18380000D01*
X40300000Y-17225000D02*
X42900000Y-17225000D01*
%TO.N,GND*%
X42900000Y-20175000D02*
X49825000Y-20175000D01*
X49825000Y-20175000D02*
X50300000Y-19700000D01*
X50300000Y-19700000D02*
X50300000Y-18370000D01*
X36700000Y-20175000D02*
X34175000Y-20175000D01*
X40300000Y-20175000D02*
X36700000Y-20175000D01*
X34175000Y-20175000D02*
X34000000Y-20000000D01*
X41700000Y-20175000D02*
X42900000Y-20175000D01*
X40300000Y-20175000D02*
X41700000Y-20175000D01*
D45*
X53262500Y-51562500D02*
X53225000Y-51600000D01*
%TO.N,/LED_Stat*%
X55325000Y-50400000D02*
X55600000Y-50675000D01*
%TO.N,Com-SolB*%
X50865000Y-39635000D02*
X50800000Y-39700000D01*
X54000000Y-39635000D02*
X50865000Y-39635000D01*
%TO.N,Com-SolA*%
X52700000Y-37095000D02*
X52700000Y-35700000D01*
X52700000Y-35700000D02*
X53225000Y-35175000D01*
X53225000Y-35175000D02*
X53225000Y-34900000D01*
X52700000Y-37095000D02*
X54000000Y-37095000D01*
%TO.N,Com-SolB*%
X49500000Y-39700000D02*
X49500000Y-35825000D01*
X49500000Y-35825000D02*
X48575000Y-34900000D01*
%TO.N,Com-MOSA*%
X47000000Y-37095000D02*
X45626000Y-35721000D01*
X45626000Y-35721000D02*
X45626000Y-34951000D01*
X45626000Y-34951000D02*
X44900000Y-34225000D01*
%TO.N,Com-MOSB*%
X44900000Y-35750000D02*
X45626000Y-36476000D01*
X45626000Y-36476000D02*
X45626000Y-39210999D01*
X45626000Y-39210999D02*
X46050001Y-39635000D01*
X46050001Y-39635000D02*
X47000000Y-39635000D01*
%TO.N,+12V*%
X47100000Y-36080000D02*
X47880000Y-36080000D01*
X47880000Y-36080000D02*
X48100000Y-36300000D01*
X48100000Y-36300000D02*
X48300000Y-36500000D01*
X48300000Y-36500000D02*
X48300000Y-38400000D01*
%TO.N,GND*%
X44900000Y-29575000D02*
X44900000Y-28700000D01*
X44900000Y-40400000D02*
X44900000Y-41100000D01*
D48*
%TO.N,Net-(Q1-G)*%
X39050000Y-40740000D02*
X29900000Y-40740000D01*
%TO.N,Net-(Q2-G)*%
X39050000Y-29260000D02*
X29900000Y-29260000D01*
X44900000Y-31225000D02*
X41015000Y-31225000D01*
X41015000Y-31225000D02*
X39050000Y-29260000D01*
%TO.N,Net-(Q1-G)*%
X44900000Y-38750000D02*
X44850000Y-38700000D01*
X44850000Y-38700000D02*
X41090000Y-38700000D01*
X41090000Y-38700000D02*
X39050000Y-40740000D01*
X44900000Y-38750000D02*
X44900000Y-37400000D01*
%TO.N,Net-(Q2-G)*%
X44900000Y-32575000D02*
X44900000Y-31225000D01*
D49*
%TO.N,Sortie-Sol\u00E9noideB*%
X24250000Y-38750000D02*
X25000000Y-38000000D01*
X20000000Y-38750000D02*
X24250000Y-38750000D01*
X29900000Y-38200000D02*
X25200000Y-38200000D01*
X25200000Y-38200000D02*
X25000000Y-38000000D01*
%TO.N,Sortie-Sol\u00E9noideA*%
X20000000Y-28750000D02*
X24250000Y-28750000D01*
X24250000Y-28750000D02*
X25000000Y-28000000D01*
X29900000Y-26720000D02*
X26280000Y-26720000D01*
X26280000Y-26720000D02*
X25000000Y-28000000D01*
D50*
%TO.N,+24V*%
X20000000Y-31250000D02*
X24250000Y-31250000D01*
X24250000Y-31250000D02*
X25000000Y-32000000D01*
X22900000Y-41250000D02*
X24250000Y-41250000D01*
X20000000Y-41250000D02*
X22900000Y-41250000D01*
X24250000Y-41250000D02*
X25000000Y-42000000D01*
D45*
%TO.N,NRST*%
X49205000Y-53300000D02*
X49205000Y-51795000D01*
X49205000Y-51795000D02*
X49225000Y-51775000D01*
%TO.N,+3.3V*%
X46825000Y-51775000D02*
X46200000Y-52400000D01*
X46200000Y-52400000D02*
X44925000Y-52400000D01*
X43625000Y-52150000D02*
X43625000Y-52900000D01*
%TO.N,GND*%
X44925000Y-51440000D02*
X44925000Y-51000000D01*
X44925000Y-51000000D02*
X44425000Y-50500000D01*
X43625000Y-50600000D02*
X44325000Y-50600000D01*
X44325000Y-50600000D02*
X44425000Y-50500000D01*
X44525000Y-50400000D02*
X44425000Y-50500000D01*
X45450000Y-50400000D02*
X44525000Y-50400000D01*
%TO.N,+3.3V*%
X53925000Y-42740000D02*
X53110000Y-42740000D01*
X53110000Y-42740000D02*
X52425000Y-43425000D01*
X53925000Y-42740000D02*
X53925000Y-42100000D01*
%TO.N,GND*%
X53925000Y-43700000D02*
X53925000Y-44675000D01*
X53925000Y-44675000D02*
X53800000Y-44800000D01*
X54825000Y-47280000D02*
X55022500Y-47477500D01*
X53800000Y-44800000D02*
X54825000Y-44800000D01*
%TO.N,+3.3V*%
X62000000Y-35325000D02*
X62000000Y-36200000D01*
D48*
%TO.N,/Test 3.3*%
X62000000Y-32900000D02*
X62000000Y-31400000D01*
X62000000Y-33875000D02*
X62000000Y-32900000D01*
D45*
X62000000Y-31400000D02*
X62100000Y-31400000D01*
D47*
X53900000Y-27100000D02*
X54950000Y-27100000D01*
X53075000Y-27100000D02*
X53900000Y-27100000D01*
X54950000Y-27100000D02*
X55000000Y-27150000D01*
D45*
%TO.N,GND*%
X61550000Y-41500000D02*
X63100000Y-41500000D01*
%TO.N,+3.3V*%
X63040000Y-44040000D02*
X61550000Y-44040000D01*
%TO.N,GND*%
X63070000Y-42770000D02*
X61550000Y-42770000D01*
X63060000Y-38960000D02*
X63100000Y-39000000D01*
X61550000Y-38960000D02*
X63060000Y-38960000D01*
D47*
%TO.N,/12test*%
X47400000Y-26700000D02*
X47400000Y-24700000D01*
X47400000Y-24700000D02*
X49600000Y-22500000D01*
X49600000Y-22500000D02*
X51500000Y-22500000D01*
X51500000Y-22500000D02*
X52855000Y-21145000D01*
X52855000Y-21145000D02*
X52855000Y-18370000D01*
D45*
%TO.N,+12V*%
X47400000Y-28150000D02*
X47400000Y-29000000D01*
X48265000Y-38365000D02*
X48300000Y-38400000D01*
X47000000Y-38365000D02*
X48265000Y-38365000D01*
%TO.N,GND*%
X55165000Y-38365000D02*
X55200000Y-38400000D01*
X54000000Y-38365000D02*
X55165000Y-38365000D01*
X51625000Y-31900000D02*
X51600000Y-31900000D01*
X51600000Y-31900000D02*
X50900000Y-32600000D01*
X51575000Y-33400000D02*
X51575000Y-33275000D01*
X51575000Y-33275000D02*
X50900000Y-32600000D01*
X51575000Y-33400000D02*
X51575000Y-33425000D01*
X51575000Y-33425000D02*
X50900000Y-34100000D01*
X51575000Y-34900000D02*
X51575000Y-34775000D01*
X51575000Y-34775000D02*
X50900000Y-34100000D01*
X50225000Y-34775000D02*
X50900000Y-34100000D01*
X50225000Y-34900000D02*
X50225000Y-34775000D01*
X50225000Y-31925000D02*
X50900000Y-32600000D01*
X50225000Y-31900000D02*
X50225000Y-31925000D01*
X50225000Y-31900000D02*
X51625000Y-31900000D01*
X51575000Y-33400000D02*
X51575000Y-31950000D01*
X51575000Y-31950000D02*
X51625000Y-31900000D01*
X51575000Y-34900000D02*
X51575000Y-33400000D01*
X50225000Y-34900000D02*
X51575000Y-34900000D01*
X50125000Y-29900000D02*
X49300000Y-29900000D01*
X50125000Y-27100000D02*
X49200000Y-27100000D01*
D47*
%TO.N,/Test 3.3*%
X55000000Y-27150000D02*
X59200000Y-27150000D01*
%TD*%
%TA.AperFunction,Conductor*%
%TO.N,+24V*%
G36*
X58277924Y-27870185D02*
G01*
X58321370Y-27918206D01*
X58326471Y-27928219D01*
X58326476Y-27928225D01*
X58421774Y-28023523D01*
X58421778Y-28023526D01*
X58421780Y-28023528D01*
X58541874Y-28084719D01*
X58541876Y-28084719D01*
X58541878Y-28084720D01*
X58641507Y-28100500D01*
X58641512Y-28100500D01*
X59076500Y-28100500D01*
X59143539Y-28120185D01*
X59189294Y-28172989D01*
X59200500Y-28224500D01*
X59200500Y-29232006D01*
X59200500Y-29369994D01*
X59200500Y-29369996D01*
X59200499Y-29369996D01*
X59227418Y-29505322D01*
X59227421Y-29505332D01*
X59280222Y-29632807D01*
X59356887Y-29747545D01*
X59356888Y-29747546D01*
X60163681Y-30554338D01*
X60197166Y-30615661D01*
X60200000Y-30642019D01*
X60200000Y-31421847D01*
X60180315Y-31488886D01*
X60127511Y-31534641D01*
X60058353Y-31544585D01*
X60007109Y-31524949D01*
X59991642Y-31514614D01*
X59915657Y-31499500D01*
X59915654Y-31499500D01*
X59484346Y-31499500D01*
X59484343Y-31499500D01*
X59408358Y-31514614D01*
X59408357Y-31514614D01*
X59322190Y-31572190D01*
X59264614Y-31658357D01*
X59264614Y-31658358D01*
X59249500Y-31734341D01*
X59249500Y-32065658D01*
X59264614Y-32141641D01*
X59264614Y-32141642D01*
X59292575Y-32183488D01*
X59322190Y-32227810D01*
X59361644Y-32254172D01*
X59408357Y-32285385D01*
X59484341Y-32300499D01*
X59484344Y-32300500D01*
X59484346Y-32300500D01*
X59915656Y-32300500D01*
X59915657Y-32300499D01*
X59991642Y-32285385D01*
X60007109Y-32275050D01*
X60073784Y-32254172D01*
X60141164Y-32272655D01*
X60187856Y-32324633D01*
X60200000Y-32378152D01*
X60200000Y-33276000D01*
X60180315Y-33343039D01*
X60127511Y-33388794D01*
X60076000Y-33400000D01*
X57856036Y-33400000D01*
X57799742Y-33386485D01*
X57758123Y-33365279D01*
X57658493Y-33349500D01*
X57658488Y-33349500D01*
X56541512Y-33349500D01*
X56541507Y-33349500D01*
X56441876Y-33365279D01*
X56400258Y-33386485D01*
X56343964Y-33400000D01*
X54476333Y-33400000D01*
X54446892Y-33391355D01*
X54416906Y-33384832D01*
X54411890Y-33381077D01*
X54409294Y-33380315D01*
X54388652Y-33363681D01*
X54336819Y-33311848D01*
X54303334Y-33250525D01*
X54300500Y-33224167D01*
X54300500Y-32685439D01*
X54280020Y-32609009D01*
X54280017Y-32609004D01*
X54240464Y-32540495D01*
X54240458Y-32540487D01*
X54036319Y-32336348D01*
X54002834Y-32275025D01*
X54000000Y-32248667D01*
X54000000Y-28101111D01*
X54019685Y-28034072D01*
X54072489Y-27988317D01*
X54141647Y-27978373D01*
X54205203Y-28007398D01*
X54211681Y-28013430D01*
X54221774Y-28023523D01*
X54221778Y-28023526D01*
X54221780Y-28023528D01*
X54341874Y-28084719D01*
X54341876Y-28084719D01*
X54341878Y-28084720D01*
X54441507Y-28100500D01*
X54441512Y-28100500D01*
X55558493Y-28100500D01*
X55658121Y-28084720D01*
X55658121Y-28084719D01*
X55658126Y-28084719D01*
X55778220Y-28023528D01*
X55873528Y-27928220D01*
X55878630Y-27918205D01*
X55926604Y-27867410D01*
X55989115Y-27850500D01*
X58210885Y-27850500D01*
X58277924Y-27870185D01*
G37*
%TD.AperFunction*%
%TD*%
%TA.AperFunction,Conductor*%
%TO.N,GND*%
G36*
X31276519Y-16520185D02*
G01*
X31322274Y-16572989D01*
X31332218Y-16642147D01*
X31303193Y-16705703D01*
X31297161Y-16712181D01*
X30042276Y-17967065D01*
X29980953Y-18000550D01*
X29911261Y-17995566D01*
X29907143Y-17993945D01*
X29708860Y-17911814D01*
X29708848Y-17911810D01*
X29708845Y-17911809D01*
X29430217Y-17837151D01*
X29430211Y-17837150D01*
X29430206Y-17837149D01*
X29144238Y-17799501D01*
X29144233Y-17799500D01*
X29144228Y-17799500D01*
X28855772Y-17799500D01*
X28855766Y-17799500D01*
X28855761Y-17799501D01*
X28569793Y-17837149D01*
X28569786Y-17837150D01*
X28569783Y-17837151D01*
X28447189Y-17870000D01*
X28291155Y-17911809D01*
X28291139Y-17911814D01*
X28024663Y-18022191D01*
X28024647Y-18022199D01*
X27774851Y-18166420D01*
X27774835Y-18166431D01*
X27545997Y-18342024D01*
X27545990Y-18342030D01*
X27342030Y-18545990D01*
X27342024Y-18545997D01*
X27166431Y-18774835D01*
X27166420Y-18774851D01*
X27022199Y-19024647D01*
X27022191Y-19024663D01*
X26911814Y-19291139D01*
X26911809Y-19291155D01*
X26847577Y-19530875D01*
X26837152Y-19569780D01*
X26837149Y-19569793D01*
X26799501Y-19855761D01*
X26799500Y-19855778D01*
X26799500Y-20144221D01*
X26799501Y-20144238D01*
X26837149Y-20430206D01*
X26837150Y-20430211D01*
X26837151Y-20430217D01*
X26911463Y-20707554D01*
X26911809Y-20708844D01*
X26911814Y-20708860D01*
X27022191Y-20975336D01*
X27022199Y-20975352D01*
X27166420Y-21225148D01*
X27166431Y-21225164D01*
X27342024Y-21454002D01*
X27342030Y-21454009D01*
X27545990Y-21657969D01*
X27545996Y-21657974D01*
X27774844Y-21833575D01*
X27774851Y-21833579D01*
X28024647Y-21977800D01*
X28024663Y-21977808D01*
X28291139Y-22088185D01*
X28291145Y-22088186D01*
X28291155Y-22088191D01*
X28569783Y-22162849D01*
X28855772Y-22200500D01*
X28855779Y-22200500D01*
X29144221Y-22200500D01*
X29144228Y-22200500D01*
X29430217Y-22162849D01*
X29708845Y-22088191D01*
X29708857Y-22088185D01*
X29708860Y-22088185D01*
X29975336Y-21977808D01*
X29975339Y-21977806D01*
X29975345Y-21977804D01*
X30225156Y-21833575D01*
X30454004Y-21657974D01*
X30657974Y-21454004D01*
X30833575Y-21225156D01*
X30977804Y-20975345D01*
X30980704Y-20968345D01*
X31088185Y-20708860D01*
X31088185Y-20708857D01*
X31088191Y-20708845D01*
X31162849Y-20430217D01*
X31200500Y-20144228D01*
X31200500Y-19855772D01*
X31162849Y-19569783D01*
X31088191Y-19291155D01*
X31088184Y-19291139D01*
X31058593Y-19219698D01*
X31006052Y-19092854D01*
X30998584Y-19023386D01*
X31029859Y-18960907D01*
X31032903Y-18957752D01*
X31396898Y-18593758D01*
X31458218Y-18560275D01*
X31527910Y-18565259D01*
X31583843Y-18607131D01*
X31608260Y-18672595D01*
X31608194Y-18691170D01*
X31600000Y-18795280D01*
X31600000Y-19750000D01*
X32672769Y-19750000D01*
X32650000Y-19893753D01*
X32650000Y-20106247D01*
X32672769Y-20250000D01*
X31600000Y-20250000D01*
X31600000Y-21204719D01*
X31610482Y-21337906D01*
X31610483Y-21337912D01*
X31665898Y-21557829D01*
X31665899Y-21557832D01*
X31759695Y-21764330D01*
X31759698Y-21764336D01*
X31888851Y-21950758D01*
X31888861Y-21950770D01*
X32049229Y-22111138D01*
X32049241Y-22111148D01*
X32235663Y-22240301D01*
X32235669Y-22240304D01*
X32442167Y-22334100D01*
X32442170Y-22334101D01*
X32662087Y-22389516D01*
X32662093Y-22389517D01*
X32795280Y-22399999D01*
X32795294Y-22400000D01*
X33750000Y-22400000D01*
X33750000Y-21327231D01*
X33893753Y-21350000D01*
X34106247Y-21350000D01*
X34250000Y-21327231D01*
X34250000Y-22400000D01*
X35204706Y-22400000D01*
X35204719Y-22399999D01*
X35337906Y-22389517D01*
X35337912Y-22389516D01*
X35557829Y-22334101D01*
X35557832Y-22334100D01*
X35764330Y-22240304D01*
X35764336Y-22240301D01*
X35950758Y-22111148D01*
X35950770Y-22111138D01*
X36111138Y-21950770D01*
X36111148Y-21950758D01*
X36240301Y-21764336D01*
X36240304Y-21764330D01*
X36334100Y-21557832D01*
X36334101Y-21557829D01*
X36389516Y-21337912D01*
X36389517Y-21337906D01*
X36399999Y-21204719D01*
X36400000Y-21204706D01*
X36400000Y-20549986D01*
X38900001Y-20549986D01*
X38910494Y-20652697D01*
X38965641Y-20819119D01*
X38965643Y-20819124D01*
X39057684Y-20968345D01*
X39181654Y-21092315D01*
X39330875Y-21184356D01*
X39330880Y-21184358D01*
X39497302Y-21239505D01*
X39497309Y-21239506D01*
X39600019Y-21249999D01*
X40049999Y-21249999D01*
X40550000Y-21249999D01*
X40999972Y-21249999D01*
X40999986Y-21249998D01*
X41102697Y-21239505D01*
X41269119Y-21184358D01*
X41269124Y-21184356D01*
X41418345Y-21092315D01*
X41512319Y-20998342D01*
X41573642Y-20964857D01*
X41643334Y-20969841D01*
X41687681Y-20998342D01*
X41781654Y-21092315D01*
X41930875Y-21184356D01*
X41930880Y-21184358D01*
X42097302Y-21239505D01*
X42097309Y-21239506D01*
X42200019Y-21249999D01*
X42649999Y-21249999D01*
X43150000Y-21249999D01*
X43599972Y-21249999D01*
X43599986Y-21249998D01*
X43702697Y-21239505D01*
X43869119Y-21184358D01*
X43869124Y-21184356D01*
X44018345Y-21092315D01*
X44142315Y-20968345D01*
X44234356Y-20819124D01*
X44234358Y-20819119D01*
X44289505Y-20652697D01*
X44289506Y-20652690D01*
X44299999Y-20549986D01*
X44300000Y-20549973D01*
X44300000Y-20425000D01*
X43150000Y-20425000D01*
X43150000Y-21249999D01*
X42649999Y-21249999D01*
X42650000Y-21249998D01*
X42650000Y-20425000D01*
X40550000Y-20425000D01*
X40550000Y-21249999D01*
X40049999Y-21249999D01*
X40050000Y-21249998D01*
X40050000Y-20425000D01*
X38900001Y-20425000D01*
X38900001Y-20549986D01*
X36400000Y-20549986D01*
X36400000Y-20250000D01*
X35327231Y-20250000D01*
X35350000Y-20106247D01*
X35350000Y-19893753D01*
X35335153Y-19800013D01*
X38900000Y-19800013D01*
X38900000Y-19925000D01*
X40050000Y-19925000D01*
X40550000Y-19925000D01*
X42650000Y-19925000D01*
X43150000Y-19925000D01*
X44299999Y-19925000D01*
X44299999Y-19800028D01*
X44299998Y-19800013D01*
X44289505Y-19697302D01*
X44234358Y-19530880D01*
X44234356Y-19530875D01*
X44142315Y-19381654D01*
X44018345Y-19257684D01*
X43869124Y-19165643D01*
X43869119Y-19165641D01*
X43702697Y-19110494D01*
X43702690Y-19110493D01*
X43599986Y-19100000D01*
X43150000Y-19100000D01*
X43150000Y-19925000D01*
X42650000Y-19925000D01*
X42650000Y-19100000D01*
X42200028Y-19100000D01*
X42200012Y-19100001D01*
X42097302Y-19110494D01*
X41930880Y-19165641D01*
X41930875Y-19165643D01*
X41781654Y-19257684D01*
X41687681Y-19351658D01*
X41626358Y-19385143D01*
X41556666Y-19380159D01*
X41512319Y-19351658D01*
X41418345Y-19257684D01*
X41269124Y-19165643D01*
X41269119Y-19165641D01*
X41102697Y-19110494D01*
X41102690Y-19110493D01*
X40999986Y-19100000D01*
X40550000Y-19100000D01*
X40550000Y-19925000D01*
X40050000Y-19925000D01*
X40050000Y-19100000D01*
X39600028Y-19100000D01*
X39600012Y-19100001D01*
X39497302Y-19110494D01*
X39330880Y-19165641D01*
X39330875Y-19165643D01*
X39181654Y-19257684D01*
X39057684Y-19381654D01*
X38965643Y-19530875D01*
X38965641Y-19530880D01*
X38910494Y-19697302D01*
X38910493Y-19697309D01*
X38900000Y-19800013D01*
X35335153Y-19800013D01*
X35327231Y-19750000D01*
X36400000Y-19750000D01*
X36400000Y-18795293D01*
X36399999Y-18795280D01*
X36389517Y-18662093D01*
X36389516Y-18662087D01*
X36334101Y-18442170D01*
X36334100Y-18442167D01*
X36240304Y-18235669D01*
X36240301Y-18235663D01*
X36160250Y-18120116D01*
X36138253Y-18053800D01*
X36155601Y-17986118D01*
X36206787Y-17938560D01*
X36262178Y-17925500D01*
X36331007Y-17925500D01*
X38231007Y-17925500D01*
X39359334Y-17925500D01*
X39426373Y-17945185D01*
X39432957Y-17949722D01*
X39437118Y-17952793D01*
X39462913Y-17961819D01*
X39565299Y-17997646D01*
X39595730Y-18000500D01*
X39595734Y-18000500D01*
X41004270Y-18000500D01*
X41034699Y-17997646D01*
X41034701Y-17997646D01*
X41098790Y-17975219D01*
X41162882Y-17952793D01*
X41167034Y-17949728D01*
X41232662Y-17925759D01*
X41240666Y-17925500D01*
X41959334Y-17925500D01*
X42026373Y-17945185D01*
X42032957Y-17949722D01*
X42037118Y-17952793D01*
X42062913Y-17961819D01*
X42165299Y-17997646D01*
X42195730Y-18000500D01*
X42195734Y-18000500D01*
X43604270Y-18000500D01*
X43634699Y-17997646D01*
X43634701Y-17997646D01*
X43698790Y-17975219D01*
X43762882Y-17952793D01*
X43767034Y-17949728D01*
X43832662Y-17925759D01*
X43840666Y-17925500D01*
X45331007Y-17925500D01*
X46258481Y-17925500D01*
X46325520Y-17945185D01*
X46346162Y-17961819D01*
X46718181Y-18333838D01*
X46751666Y-18395161D01*
X46754500Y-18421513D01*
X46754500Y-18438024D01*
X46754501Y-18438035D01*
X46765113Y-18557415D01*
X46821089Y-18753045D01*
X46821090Y-18753046D01*
X46821091Y-18753049D01*
X46915302Y-18933407D01*
X46915304Y-18933409D01*
X47043890Y-19091109D01*
X47101723Y-19138265D01*
X47201593Y-19219698D01*
X47381951Y-19313909D01*
X47381953Y-19313909D01*
X47381954Y-19313910D01*
X47401355Y-19319461D01*
X47577582Y-19369886D01*
X47696963Y-19380500D01*
X47813036Y-19380499D01*
X47932418Y-19369886D01*
X48128049Y-19313909D01*
X48308407Y-19219698D01*
X48466109Y-19091109D01*
X48594698Y-18933407D01*
X48688909Y-18753049D01*
X48744886Y-18557418D01*
X48755500Y-18438037D01*
X48755499Y-18321964D01*
X48744886Y-18202582D01*
X48721256Y-18119999D01*
X49021127Y-18119999D01*
X49021128Y-18120000D01*
X49866988Y-18120000D01*
X49834075Y-18177007D01*
X49800000Y-18304174D01*
X49800000Y-18435826D01*
X49834075Y-18562993D01*
X49866988Y-18620000D01*
X49021128Y-18620000D01*
X49073730Y-18816317D01*
X49073734Y-18816326D01*
X49169865Y-19022482D01*
X49300342Y-19208820D01*
X49461179Y-19369657D01*
X49647517Y-19500134D01*
X49853673Y-19596265D01*
X49853682Y-19596269D01*
X50049999Y-19648872D01*
X50050000Y-19648871D01*
X50050000Y-18803012D01*
X50107007Y-18835925D01*
X50234174Y-18870000D01*
X50365826Y-18870000D01*
X50492993Y-18835925D01*
X50550000Y-18803012D01*
X50550000Y-19648872D01*
X50746317Y-19596269D01*
X50746326Y-19596265D01*
X50952482Y-19500134D01*
X51138820Y-19369657D01*
X51299657Y-19208820D01*
X51430134Y-19022482D01*
X51526265Y-18816326D01*
X51526269Y-18816317D01*
X51578872Y-18620000D01*
X50733012Y-18620000D01*
X50765925Y-18562993D01*
X50800000Y-18435826D01*
X50800000Y-18304174D01*
X50765925Y-18177007D01*
X50733012Y-18120000D01*
X51578872Y-18120000D01*
X51578872Y-18119999D01*
X51526269Y-17923682D01*
X51526265Y-17923673D01*
X51430134Y-17717517D01*
X51299657Y-17531179D01*
X51138820Y-17370342D01*
X50952482Y-17239865D01*
X50746328Y-17143734D01*
X50550000Y-17091127D01*
X50550000Y-17936988D01*
X50492993Y-17904075D01*
X50365826Y-17870000D01*
X50234174Y-17870000D01*
X50107007Y-17904075D01*
X50050000Y-17936988D01*
X50050000Y-17091127D01*
X49853671Y-17143734D01*
X49647517Y-17239865D01*
X49461179Y-17370342D01*
X49300342Y-17531179D01*
X49169865Y-17717517D01*
X49073734Y-17923673D01*
X49073730Y-17923682D01*
X49021127Y-18119999D01*
X48721256Y-18119999D01*
X48688909Y-18006951D01*
X48594698Y-17826593D01*
X48542684Y-17762803D01*
X48466109Y-17668890D01*
X48308409Y-17540304D01*
X48308410Y-17540304D01*
X48308407Y-17540302D01*
X48128049Y-17446091D01*
X48128048Y-17446090D01*
X48128045Y-17446089D01*
X48010829Y-17412550D01*
X47932418Y-17390114D01*
X47932415Y-17390113D01*
X47932413Y-17390113D01*
X47859631Y-17383642D01*
X47813037Y-17379500D01*
X47813033Y-17379500D01*
X47796519Y-17379500D01*
X47729480Y-17359815D01*
X47708838Y-17343181D01*
X47077839Y-16712181D01*
X47044354Y-16650858D01*
X47049338Y-16581166D01*
X47091210Y-16525233D01*
X47156674Y-16500816D01*
X47165520Y-16500500D01*
X59934108Y-16500500D01*
X59996949Y-16500500D01*
X60003032Y-16500648D01*
X60336929Y-16517052D01*
X60349037Y-16518245D01*
X60396147Y-16525233D01*
X60676699Y-16566849D01*
X60688617Y-16569219D01*
X61009951Y-16649709D01*
X61021588Y-16653240D01*
X61092806Y-16678722D01*
X61333467Y-16764832D01*
X61344688Y-16769479D01*
X61644163Y-16911120D01*
X61654871Y-16916844D01*
X61938988Y-17087137D01*
X61949103Y-17093895D01*
X62169913Y-17257659D01*
X62215170Y-17291224D01*
X62224576Y-17298944D01*
X62470013Y-17521395D01*
X62478604Y-17529986D01*
X62595436Y-17658890D01*
X62701055Y-17775423D01*
X62708775Y-17784829D01*
X62906102Y-18050893D01*
X62912862Y-18061011D01*
X63081294Y-18342024D01*
X63083148Y-18345116D01*
X63088883Y-18355844D01*
X63228008Y-18650000D01*
X63230514Y-18655297D01*
X63235170Y-18666540D01*
X63346759Y-18978411D01*
X63350292Y-18990055D01*
X63430777Y-19311369D01*
X63433151Y-19323305D01*
X63481754Y-19650962D01*
X63482947Y-19663071D01*
X63499351Y-19996966D01*
X63499500Y-20003051D01*
X63499500Y-43600180D01*
X63479815Y-43667219D01*
X63427011Y-43712974D01*
X63357853Y-43722918D01*
X63309012Y-43702348D01*
X63308302Y-43703579D01*
X63204239Y-43643498D01*
X63196730Y-43640388D01*
X63197768Y-43637879D01*
X63149479Y-43608442D01*
X63118953Y-43545594D01*
X63127251Y-43476219D01*
X63141971Y-43450725D01*
X63193352Y-43382089D01*
X63193354Y-43382086D01*
X63243596Y-43247379D01*
X63243598Y-43247372D01*
X63249999Y-43187844D01*
X63250000Y-43187827D01*
X63250000Y-43020000D01*
X59850000Y-43020000D01*
X59850000Y-43187844D01*
X59856401Y-43247372D01*
X59856403Y-43247379D01*
X59906645Y-43382086D01*
X59906649Y-43382093D01*
X59992809Y-43497187D01*
X59992812Y-43497190D01*
X60099811Y-43577290D01*
X60141682Y-43633223D01*
X60149500Y-43676556D01*
X60149500Y-44429752D01*
X60161131Y-44488229D01*
X60161132Y-44488230D01*
X60205447Y-44554552D01*
X60231407Y-44571898D01*
X60276212Y-44625511D01*
X60284919Y-44694836D01*
X60254764Y-44757863D01*
X60231407Y-44778102D01*
X60205447Y-44795447D01*
X60161132Y-44861769D01*
X60161131Y-44861770D01*
X60149500Y-44920247D01*
X60149500Y-45699752D01*
X60161131Y-45758229D01*
X60161132Y-45758230D01*
X60205447Y-45824552D01*
X60271769Y-45868867D01*
X60271770Y-45868868D01*
X60330247Y-45880499D01*
X60330250Y-45880500D01*
X60330252Y-45880500D01*
X62769750Y-45880500D01*
X62769751Y-45880499D01*
X62784568Y-45877552D01*
X62828229Y-45868868D01*
X62828229Y-45868867D01*
X62828231Y-45868867D01*
X62894552Y-45824552D01*
X62938867Y-45758231D01*
X62938867Y-45758229D01*
X62938868Y-45758229D01*
X62950499Y-45699752D01*
X62950500Y-45699750D01*
X62950500Y-44920249D01*
X62950499Y-44920247D01*
X62938868Y-44861770D01*
X62938867Y-44861769D01*
X62894552Y-44795448D01*
X62894551Y-44795447D01*
X62868591Y-44778101D01*
X62823787Y-44724491D01*
X62815080Y-44655166D01*
X62845234Y-44592138D01*
X62848433Y-44588709D01*
X62857616Y-44579231D01*
X62894552Y-44554552D01*
X62923472Y-44511270D01*
X62931284Y-44503209D01*
X62952303Y-44491298D01*
X62970843Y-44475804D01*
X62984761Y-44472906D01*
X62992073Y-44468763D01*
X63002003Y-44469316D01*
X63020334Y-44465500D01*
X63096016Y-44465500D01*
X63096018Y-44465500D01*
X63204237Y-44436503D01*
X63301263Y-44380485D01*
X63301263Y-44380484D01*
X63308302Y-44376421D01*
X63309160Y-44377908D01*
X63365176Y-44356250D01*
X63433622Y-44370284D01*
X63483614Y-44419096D01*
X63499500Y-44479819D01*
X63499500Y-49996948D01*
X63499351Y-50003033D01*
X63482947Y-50336928D01*
X63481754Y-50349037D01*
X63433151Y-50676694D01*
X63430777Y-50688630D01*
X63350292Y-51009944D01*
X63346759Y-51021588D01*
X63235170Y-51333459D01*
X63230514Y-51344702D01*
X63088885Y-51644151D01*
X63083148Y-51654883D01*
X62912862Y-51938988D01*
X62906102Y-51949106D01*
X62708775Y-52215170D01*
X62701055Y-52224576D01*
X62478611Y-52470006D01*
X62470006Y-52478611D01*
X62224576Y-52701055D01*
X62215170Y-52708775D01*
X61949106Y-52906102D01*
X61938988Y-52912862D01*
X61654883Y-53083148D01*
X61644151Y-53088885D01*
X61344702Y-53230514D01*
X61333459Y-53235170D01*
X61021588Y-53346759D01*
X61009944Y-53350292D01*
X60688630Y-53430777D01*
X60676694Y-53433151D01*
X60349037Y-53481754D01*
X60336928Y-53482947D01*
X60021989Y-53498419D01*
X60003031Y-53499351D01*
X59996949Y-53499500D01*
X49809500Y-53499500D01*
X49742461Y-53479815D01*
X49696706Y-53427011D01*
X49685500Y-53375500D01*
X49685499Y-52990105D01*
X49685499Y-52990100D01*
X49678972Y-52940513D01*
X49653466Y-52885817D01*
X49642974Y-52816741D01*
X49671493Y-52752957D01*
X49729969Y-52714716D01*
X49799836Y-52714161D01*
X49810110Y-52717992D01*
X49814455Y-52719259D01*
X49861861Y-52725500D01*
X50188138Y-52725499D01*
X50235545Y-52719259D01*
X50339579Y-52670747D01*
X50339581Y-52670745D01*
X50348465Y-52664525D01*
X50349678Y-52666258D01*
X50398642Y-52639522D01*
X50468334Y-52644506D01*
X50500898Y-52665434D01*
X50501535Y-52664525D01*
X50510419Y-52670745D01*
X50510421Y-52670747D01*
X50614455Y-52719259D01*
X50661861Y-52725500D01*
X50988138Y-52725499D01*
X51035545Y-52719259D01*
X51139579Y-52670747D01*
X51139581Y-52670745D01*
X51148465Y-52664525D01*
X51149678Y-52666258D01*
X51198642Y-52639522D01*
X51268334Y-52644506D01*
X51300898Y-52665434D01*
X51301535Y-52664525D01*
X51310419Y-52670745D01*
X51310421Y-52670747D01*
X51414455Y-52719259D01*
X51461861Y-52725500D01*
X51788138Y-52725499D01*
X51835545Y-52719259D01*
X51939579Y-52670747D01*
X51939581Y-52670745D01*
X51948465Y-52664525D01*
X51949678Y-52666258D01*
X51998642Y-52639522D01*
X52068334Y-52644506D01*
X52100898Y-52665434D01*
X52101535Y-52664525D01*
X52110419Y-52670745D01*
X52110421Y-52670747D01*
X52214455Y-52719259D01*
X52261861Y-52725500D01*
X52588138Y-52725499D01*
X52635545Y-52719259D01*
X52739579Y-52670747D01*
X52820747Y-52589579D01*
X52843673Y-52540413D01*
X52889843Y-52487976D01*
X52957036Y-52468823D01*
X53023918Y-52489038D01*
X53069253Y-52542203D01*
X53079545Y-52581598D01*
X53081408Y-52602102D01*
X53081409Y-52602107D01*
X53131981Y-52764396D01*
X53219927Y-52909877D01*
X53340122Y-53030072D01*
X53485604Y-53118019D01*
X53485603Y-53118019D01*
X53647894Y-53168590D01*
X53647893Y-53168590D01*
X53718408Y-53174998D01*
X53718426Y-53174999D01*
X53724999Y-53174998D01*
X53725000Y-53174998D01*
X53725000Y-51225000D01*
X53724999Y-51224999D01*
X53718436Y-51225000D01*
X53718417Y-51225001D01*
X53647897Y-51231408D01*
X53647892Y-51231409D01*
X53485603Y-51281981D01*
X53340122Y-51369927D01*
X53219927Y-51490122D01*
X53131981Y-51635603D01*
X53117884Y-51680841D01*
X53079146Y-51738989D01*
X53015120Y-51766962D01*
X52946135Y-51755880D01*
X52894093Y-51709261D01*
X52875499Y-51643950D01*
X52875499Y-51111867D01*
X52875499Y-51111862D01*
X52869259Y-51064455D01*
X52820844Y-50960630D01*
X52810353Y-50891555D01*
X52838872Y-50827771D01*
X52897349Y-50789531D01*
X52967216Y-50788976D01*
X52985627Y-50795843D01*
X53089455Y-50844259D01*
X53136861Y-50850500D01*
X54463138Y-50850499D01*
X54510545Y-50844259D01*
X54614579Y-50795747D01*
X54695747Y-50714579D01*
X54695750Y-50714570D01*
X54698925Y-50710039D01*
X54753502Y-50666415D01*
X54823001Y-50659222D01*
X54885355Y-50690744D01*
X54920769Y-50750974D01*
X54924500Y-50781163D01*
X54924500Y-50926751D01*
X54940047Y-51024917D01*
X54940049Y-51024920D01*
X55000342Y-51143251D01*
X55000344Y-51143253D01*
X55000346Y-51143256D01*
X55094243Y-51237153D01*
X55094245Y-51237154D01*
X55094249Y-51237158D01*
X55212580Y-51297451D01*
X55212584Y-51297451D01*
X55212585Y-51297452D01*
X55213820Y-51297854D01*
X55215128Y-51298748D01*
X55221276Y-51301881D01*
X55220871Y-51302675D01*
X55234219Y-51311803D01*
X55256703Y-51322071D01*
X55262557Y-51331180D01*
X55271495Y-51337292D01*
X55281115Y-51360057D01*
X55294477Y-51380849D01*
X55296836Y-51397260D01*
X55298692Y-51401651D01*
X55299500Y-51415784D01*
X55299500Y-51463466D01*
X55279815Y-51530505D01*
X55231796Y-51573950D01*
X55186656Y-51596950D01*
X55096954Y-51686652D01*
X55096950Y-51686657D01*
X55072005Y-51735614D01*
X55024029Y-51786409D01*
X54956208Y-51803203D01*
X54890074Y-51780664D01*
X54846623Y-51725948D01*
X54843135Y-51716207D01*
X54818017Y-51635600D01*
X54730072Y-51490122D01*
X54609877Y-51369927D01*
X54464395Y-51281980D01*
X54464396Y-51281980D01*
X54302105Y-51231409D01*
X54302106Y-51231409D01*
X54231572Y-51225000D01*
X54225000Y-51225000D01*
X54225000Y-53174999D01*
X54231581Y-53174999D01*
X54302102Y-53168591D01*
X54302107Y-53168590D01*
X54464396Y-53118018D01*
X54609877Y-53030072D01*
X54730072Y-52909877D01*
X54818017Y-52764398D01*
X54843135Y-52683792D01*
X54881872Y-52625644D01*
X54945897Y-52597669D01*
X55014883Y-52608750D01*
X55066926Y-52655368D01*
X55072001Y-52664377D01*
X55096950Y-52713342D01*
X55096952Y-52713344D01*
X55096954Y-52713347D01*
X55186652Y-52803045D01*
X55186654Y-52803046D01*
X55186658Y-52803050D01*
X55299694Y-52860645D01*
X55299698Y-52860647D01*
X55393475Y-52875499D01*
X55393481Y-52875500D01*
X55856518Y-52875499D01*
X55950304Y-52860646D01*
X56063342Y-52803050D01*
X56153050Y-52713342D01*
X56210646Y-52600304D01*
X56210646Y-52600302D01*
X56210647Y-52600301D01*
X56225499Y-52506524D01*
X56225500Y-52506519D01*
X56225499Y-51893482D01*
X56210646Y-51799696D01*
X56153050Y-51686658D01*
X56153046Y-51686654D01*
X56153045Y-51686652D01*
X56063347Y-51596954D01*
X56063343Y-51596951D01*
X56063342Y-51596950D01*
X56023152Y-51576472D01*
X55968204Y-51548474D01*
X55957140Y-51538025D01*
X55943297Y-51531703D01*
X55932255Y-51514522D01*
X55917409Y-51500500D01*
X55913167Y-51484820D01*
X55905523Y-51472925D01*
X55900500Y-51437990D01*
X55900500Y-51415784D01*
X55920185Y-51348745D01*
X55972989Y-51302990D01*
X55986180Y-51297854D01*
X55987414Y-51297452D01*
X55987414Y-51297451D01*
X55987420Y-51297451D01*
X56105751Y-51237158D01*
X56199658Y-51143251D01*
X56259951Y-51024920D01*
X56259951Y-51024918D01*
X56259952Y-51024917D01*
X56275500Y-50926751D01*
X56275500Y-50423248D01*
X56259952Y-50325082D01*
X56258685Y-50322596D01*
X56199658Y-50206749D01*
X56199654Y-50206745D01*
X56199653Y-50206743D01*
X56105756Y-50112846D01*
X56105753Y-50112844D01*
X56105751Y-50112842D01*
X55987420Y-50052549D01*
X55987419Y-50052548D01*
X55987416Y-50052547D01*
X55987417Y-50052547D01*
X55889251Y-50037000D01*
X55889246Y-50037000D01*
X55387333Y-50037000D01*
X55366087Y-50030761D01*
X55343999Y-50029182D01*
X55333215Y-50021109D01*
X55320294Y-50017315D01*
X55305794Y-50000581D01*
X55288066Y-49987310D01*
X55283358Y-49974689D01*
X55274539Y-49964511D01*
X55271387Y-49942593D01*
X55263649Y-49921846D01*
X55266511Y-49908685D01*
X55264595Y-49895353D01*
X55273794Y-49875209D01*
X55278501Y-49853573D01*
X55291769Y-49835847D01*
X55293620Y-49831797D01*
X55299652Y-49825319D01*
X55350652Y-49774319D01*
X55411975Y-49740834D01*
X55438333Y-49738000D01*
X55889251Y-49738000D01*
X55987417Y-49722452D01*
X55987418Y-49722451D01*
X55987420Y-49722451D01*
X56105751Y-49662158D01*
X56199658Y-49568251D01*
X56259951Y-49449920D01*
X56259951Y-49449918D01*
X56259952Y-49449917D01*
X56275500Y-49351751D01*
X56275500Y-48848248D01*
X56259952Y-48750082D01*
X56259951Y-48750080D01*
X56199658Y-48631749D01*
X56199654Y-48631745D01*
X56199653Y-48631743D01*
X56127605Y-48559695D01*
X56094120Y-48498372D01*
X56099104Y-48428680D01*
X56108554Y-48408893D01*
X56187031Y-48276195D01*
X56229504Y-48130000D01*
X55549000Y-48130000D01*
X55481961Y-48110315D01*
X55436206Y-48057511D01*
X55425000Y-48006000D01*
X55425000Y-47754000D01*
X55444685Y-47686961D01*
X55497489Y-47641206D01*
X55549000Y-47630000D01*
X56229504Y-47630000D01*
X56187031Y-47483804D01*
X56104721Y-47344625D01*
X56104714Y-47344616D01*
X56012906Y-47252808D01*
X55979421Y-47191485D01*
X55980813Y-47133032D01*
X56000499Y-47059564D01*
X56000500Y-47059561D01*
X56000500Y-46565644D01*
X56004725Y-46533551D01*
X56006681Y-46526252D01*
X56025500Y-46456018D01*
X56025500Y-46343982D01*
X55996503Y-46235763D01*
X55940485Y-46138737D01*
X55861263Y-46059515D01*
X55769939Y-46006789D01*
X55764239Y-46003498D01*
X55764238Y-46003497D01*
X55764237Y-46003497D01*
X55656018Y-45974500D01*
X55656017Y-45974500D01*
X55650833Y-45974500D01*
X55583794Y-45954815D01*
X55563152Y-45938181D01*
X55084513Y-45459541D01*
X55084511Y-45459540D01*
X55072875Y-45452822D01*
X55072824Y-45452793D01*
X55072710Y-45452727D01*
X55015989Y-45419979D01*
X55015026Y-45419721D01*
X55007286Y-45415292D01*
X54988324Y-45395559D01*
X54967013Y-45378385D01*
X54964465Y-45370729D01*
X54958875Y-45364912D01*
X54953592Y-45338060D01*
X54944949Y-45312091D01*
X54946941Y-45304259D01*
X54945387Y-45296356D01*
X54955371Y-45271132D01*
X54962138Y-45244545D01*
X55003154Y-45175190D01*
X55003156Y-45175185D01*
X55039525Y-45050000D01*
X54050000Y-45050000D01*
X54039815Y-45060184D01*
X54030315Y-45092539D01*
X53977511Y-45138294D01*
X53926000Y-45149500D01*
X53674000Y-45149500D01*
X53606961Y-45129815D01*
X53561206Y-45077011D01*
X53556811Y-45056811D01*
X53550000Y-45050000D01*
X52560474Y-45050000D01*
X52596843Y-45175185D01*
X52596843Y-45175186D01*
X52604054Y-45187378D01*
X52621237Y-45255102D01*
X52599078Y-45321365D01*
X52544612Y-45365128D01*
X52497322Y-45374500D01*
X52443982Y-45374500D01*
X52335763Y-45403497D01*
X52335760Y-45403498D01*
X52238740Y-45459513D01*
X52238734Y-45459517D01*
X52235071Y-45463181D01*
X52208376Y-45477757D01*
X52182856Y-45494320D01*
X52176287Y-45495279D01*
X52173748Y-45496666D01*
X52147944Y-45499499D01*
X52147720Y-45499500D01*
X52085438Y-45499500D01*
X52084382Y-45499782D01*
X52075402Y-45499823D01*
X52049067Y-45492218D01*
X52021986Y-45487992D01*
X52015984Y-45482664D01*
X52008275Y-45480438D01*
X52007146Y-45479146D01*
X52003927Y-45498300D01*
X51956933Y-45550004D01*
X51954392Y-45551512D01*
X51940492Y-45559537D01*
X51940486Y-45559542D01*
X51599694Y-45900334D01*
X51538371Y-45933819D01*
X51468679Y-45928835D01*
X51424332Y-45900334D01*
X51383515Y-45859517D01*
X51383513Y-45859515D01*
X51298696Y-45810546D01*
X51286489Y-45803498D01*
X51286488Y-45803497D01*
X51286487Y-45803497D01*
X51180067Y-45774982D01*
X51120409Y-45738618D01*
X51089880Y-45675771D01*
X51098175Y-45606395D01*
X51104777Y-45593207D01*
X51121503Y-45564237D01*
X51150500Y-45456018D01*
X51150500Y-45343982D01*
X51150066Y-45340686D01*
X51150500Y-45337902D01*
X51150500Y-45335855D01*
X51150819Y-45335855D01*
X51152701Y-45323784D01*
X51150267Y-45306853D01*
X51157972Y-45289979D01*
X51160831Y-45271651D01*
X51172185Y-45258857D01*
X51179292Y-45243297D01*
X51194898Y-45233267D01*
X51207211Y-45219395D01*
X51223976Y-45214580D01*
X51238070Y-45205523D01*
X51273005Y-45200500D01*
X51447390Y-45200500D01*
X51514429Y-45220185D01*
X51535071Y-45236819D01*
X51538737Y-45240485D01*
X51635763Y-45296503D01*
X51743982Y-45325500D01*
X51743984Y-45325500D01*
X51856014Y-45325500D01*
X51856018Y-45325500D01*
X51860287Y-45324356D01*
X51864029Y-45324444D01*
X51864074Y-45324439D01*
X51864074Y-45324445D01*
X51930132Y-45326013D01*
X51958218Y-45345018D01*
X51963307Y-45333741D01*
X51971345Y-45307537D01*
X51977935Y-45301328D01*
X51980773Y-45295041D01*
X51993104Y-45287038D01*
X52012849Y-45268437D01*
X52019214Y-45264761D01*
X52061263Y-45240485D01*
X52140485Y-45161263D01*
X52196503Y-45064237D01*
X52225500Y-44956018D01*
X52225500Y-44843982D01*
X52196503Y-44735763D01*
X52140485Y-44638737D01*
X52068186Y-44566438D01*
X52034701Y-44505115D01*
X52039685Y-44435423D01*
X52081557Y-44379490D01*
X52147021Y-44355073D01*
X52208270Y-44366375D01*
X52214455Y-44369259D01*
X52261861Y-44375500D01*
X52446018Y-44375499D01*
X52513057Y-44395183D01*
X52558812Y-44447987D01*
X52568756Y-44517145D01*
X52565095Y-44534092D01*
X52560473Y-44549999D01*
X52560474Y-44550000D01*
X53550000Y-44550000D01*
X54175000Y-44550000D01*
X55039526Y-44550000D01*
X55039525Y-44549999D01*
X55003156Y-44424814D01*
X55003154Y-44424808D01*
X54922773Y-44288891D01*
X54922767Y-44288883D01*
X54811116Y-44177232D01*
X54811110Y-44177227D01*
X54767924Y-44151688D01*
X54720240Y-44100619D01*
X54707736Y-44031877D01*
X54711968Y-44010360D01*
X54729504Y-43950000D01*
X54175000Y-43950000D01*
X54175000Y-44550000D01*
X53550000Y-44550000D01*
X53550000Y-44044000D01*
X53569685Y-43976961D01*
X53579981Y-43963151D01*
X53675000Y-43852653D01*
X53675000Y-43824000D01*
X53694685Y-43756961D01*
X53747489Y-43711206D01*
X53799000Y-43700000D01*
X53925000Y-43700000D01*
X53925000Y-43574000D01*
X53944685Y-43506961D01*
X53997489Y-43461206D01*
X54049000Y-43450000D01*
X54729504Y-43450000D01*
X54687031Y-43303804D01*
X54604721Y-43164625D01*
X54604714Y-43164616D01*
X54490381Y-43050283D01*
X54484217Y-43045502D01*
X54485733Y-43043547D01*
X54446363Y-43001378D01*
X54433862Y-42932635D01*
X54434226Y-42929576D01*
X54435500Y-42919901D01*
X54435499Y-42560100D01*
X54428972Y-42510513D01*
X54378224Y-42401684D01*
X54355066Y-42378526D01*
X54321581Y-42317203D01*
X54322971Y-42258754D01*
X54350500Y-42156018D01*
X54350500Y-42043982D01*
X54321503Y-41935763D01*
X54265485Y-41838737D01*
X54186263Y-41759515D01*
X54089237Y-41703497D01*
X53981018Y-41674500D01*
X53868982Y-41674500D01*
X53760763Y-41703497D01*
X53760760Y-41703498D01*
X53663740Y-41759513D01*
X53663734Y-41759517D01*
X53584517Y-41838734D01*
X53584513Y-41838740D01*
X53528498Y-41935760D01*
X53528497Y-41935763D01*
X53499500Y-42043982D01*
X53499500Y-42156017D01*
X53527027Y-42258752D01*
X53526741Y-42270750D01*
X53530936Y-42281996D01*
X53525925Y-42305032D01*
X53525364Y-42328602D01*
X53518264Y-42340249D01*
X53516085Y-42350270D01*
X53494935Y-42378524D01*
X53470281Y-42403179D01*
X53408959Y-42436666D01*
X53382598Y-42439500D01*
X53070438Y-42439500D01*
X53023663Y-42452033D01*
X52994006Y-42459980D01*
X52994005Y-42459981D01*
X52966431Y-42475901D01*
X52966423Y-42475906D01*
X52960165Y-42479520D01*
X52925489Y-42499540D01*
X52898645Y-42526383D01*
X52891403Y-42531777D01*
X52866760Y-42540898D01*
X52843695Y-42553493D01*
X52834511Y-42552836D01*
X52825878Y-42556032D01*
X52800214Y-42550382D01*
X52774003Y-42548507D01*
X52761253Y-42541805D01*
X52757642Y-42541010D01*
X52755340Y-42538696D01*
X52746213Y-42533899D01*
X52739580Y-42529254D01*
X52739579Y-42529253D01*
X52635545Y-42480741D01*
X52635543Y-42480740D01*
X52635544Y-42480740D01*
X52588140Y-42474500D01*
X52261867Y-42474500D01*
X52246839Y-42476478D01*
X52214455Y-42480741D01*
X52214453Y-42480742D01*
X52214451Y-42480742D01*
X52110419Y-42529253D01*
X52101535Y-42535475D01*
X52100322Y-42533742D01*
X52051347Y-42560480D01*
X51981656Y-42555489D01*
X51949100Y-42534566D01*
X51948465Y-42535475D01*
X51939580Y-42529254D01*
X51939579Y-42529253D01*
X51835545Y-42480741D01*
X51835543Y-42480740D01*
X51835544Y-42480740D01*
X51788140Y-42474500D01*
X51461867Y-42474500D01*
X51446839Y-42476478D01*
X51414455Y-42480741D01*
X51414453Y-42480742D01*
X51414451Y-42480742D01*
X51310419Y-42529253D01*
X51301535Y-42535475D01*
X51300322Y-42533742D01*
X51251347Y-42560480D01*
X51181656Y-42555489D01*
X51149100Y-42534566D01*
X51148465Y-42535475D01*
X51139580Y-42529254D01*
X51139579Y-42529253D01*
X51035545Y-42480741D01*
X51035543Y-42480740D01*
X51035544Y-42480740D01*
X50988140Y-42474500D01*
X50661867Y-42474500D01*
X50646839Y-42476478D01*
X50614455Y-42480741D01*
X50614453Y-42480742D01*
X50614451Y-42480742D01*
X50501905Y-42533224D01*
X50432827Y-42543716D01*
X50369043Y-42515196D01*
X50330804Y-42456720D01*
X50325500Y-42420842D01*
X50325500Y-40721739D01*
X52849500Y-40721739D01*
X52849500Y-41088260D01*
X52859426Y-41156391D01*
X52910803Y-41261485D01*
X52993514Y-41344196D01*
X52993515Y-41344196D01*
X52993517Y-41344198D01*
X53098607Y-41395573D01*
X53132673Y-41400536D01*
X53166739Y-41405500D01*
X53166740Y-41405500D01*
X54833261Y-41405500D01*
X54855971Y-41402191D01*
X54901393Y-41395573D01*
X55006483Y-41344198D01*
X55089198Y-41261483D01*
X55140573Y-41156393D01*
X55150500Y-41088260D01*
X55150500Y-40721740D01*
X55140573Y-40653607D01*
X55089198Y-40548517D01*
X55089196Y-40548515D01*
X55089196Y-40548514D01*
X55006485Y-40465803D01*
X54901391Y-40414426D01*
X54833261Y-40404500D01*
X54833260Y-40404500D01*
X53166740Y-40404500D01*
X53166739Y-40404500D01*
X53098608Y-40414426D01*
X52993514Y-40465803D01*
X52910803Y-40548514D01*
X52859426Y-40653608D01*
X52849500Y-40721739D01*
X50325500Y-40721739D01*
X50325500Y-40126610D01*
X50345185Y-40059571D01*
X50397989Y-40013816D01*
X50467147Y-40003872D01*
X50530703Y-40032897D01*
X50537181Y-40038929D01*
X50538737Y-40040485D01*
X50635763Y-40096503D01*
X50743982Y-40125500D01*
X50743984Y-40125500D01*
X50856016Y-40125500D01*
X50856018Y-40125500D01*
X50964237Y-40096503D01*
X51061263Y-40040485D01*
X51129929Y-39971819D01*
X51191252Y-39938334D01*
X51217610Y-39935500D01*
X52807003Y-39935500D01*
X52874042Y-39955185D01*
X52907923Y-39987450D01*
X52910805Y-39991487D01*
X52993514Y-40074196D01*
X52993515Y-40074196D01*
X52993517Y-40074198D01*
X53098607Y-40125573D01*
X53132673Y-40130536D01*
X53166739Y-40135500D01*
X53166740Y-40135500D01*
X54833261Y-40135500D01*
X54855971Y-40132191D01*
X54901393Y-40125573D01*
X55006483Y-40074198D01*
X55089198Y-39991483D01*
X55140573Y-39886393D01*
X55150500Y-39818260D01*
X55150500Y-39451740D01*
X55148605Y-39438737D01*
X55140573Y-39383608D01*
X55140573Y-39383607D01*
X55089198Y-39278517D01*
X55089195Y-39278514D01*
X55089195Y-39278513D01*
X55083227Y-39270153D01*
X55084340Y-39269357D01*
X55056029Y-39217509D01*
X55061013Y-39147817D01*
X55102885Y-39091884D01*
X55114075Y-39084419D01*
X55201550Y-39032687D01*
X55201561Y-39032678D01*
X55317678Y-38916561D01*
X55317683Y-38916555D01*
X55343815Y-38872368D01*
X55394884Y-38824684D01*
X55463626Y-38812180D01*
X55528215Y-38838825D01*
X55568146Y-38896160D01*
X55571982Y-38935855D01*
X55574500Y-38935855D01*
X55574500Y-38943982D01*
X55574500Y-39056018D01*
X55603497Y-39164237D01*
X55659515Y-39261263D01*
X55738737Y-39340485D01*
X55835763Y-39396503D01*
X55943982Y-39425500D01*
X55943984Y-39425500D01*
X56056015Y-39425500D01*
X56056018Y-39425500D01*
X56153947Y-39399260D01*
X56223792Y-39400923D01*
X56273421Y-39431058D01*
X56282236Y-39439814D01*
X56305448Y-39474552D01*
X56341386Y-39498565D01*
X56349901Y-39507023D01*
X56361194Y-39527541D01*
X56376212Y-39545511D01*
X56377727Y-39557578D01*
X56383592Y-39568233D01*
X56382000Y-39591597D01*
X56384919Y-39614836D01*
X56379669Y-39625807D01*
X56378843Y-39637941D01*
X56364872Y-39656736D01*
X56354764Y-39677863D01*
X56339040Y-39691487D01*
X56337161Y-39694016D01*
X56335323Y-39694708D01*
X56331407Y-39698102D01*
X56305447Y-39715447D01*
X56261132Y-39781769D01*
X56261131Y-39781770D01*
X56249500Y-39840247D01*
X56249500Y-40619752D01*
X56261131Y-40678229D01*
X56261132Y-40678230D01*
X56305447Y-40744552D01*
X56331407Y-40761898D01*
X56376212Y-40815511D01*
X56384919Y-40884836D01*
X56354764Y-40947863D01*
X56331407Y-40968102D01*
X56305447Y-40985447D01*
X56261132Y-41051769D01*
X56261131Y-41051770D01*
X56249500Y-41110247D01*
X56249500Y-41889752D01*
X56261131Y-41948229D01*
X56261132Y-41948230D01*
X56305447Y-42014552D01*
X56331407Y-42031898D01*
X56376212Y-42085511D01*
X56384919Y-42154836D01*
X56357317Y-42214929D01*
X56346000Y-42228351D01*
X56305448Y-42255448D01*
X56261133Y-42321769D01*
X56259248Y-42331245D01*
X56242836Y-42350711D01*
X56229092Y-42359808D01*
X56218746Y-42372645D01*
X56200556Y-42378697D01*
X56184574Y-42389276D01*
X56168090Y-42389498D01*
X56152449Y-42394703D01*
X56115946Y-42390557D01*
X56056018Y-42374500D01*
X55943982Y-42374500D01*
X55835763Y-42403497D01*
X55835760Y-42403498D01*
X55738740Y-42459513D01*
X55738734Y-42459517D01*
X55659517Y-42538734D01*
X55659513Y-42538740D01*
X55603498Y-42635760D01*
X55603497Y-42635763D01*
X55574500Y-42743982D01*
X55574500Y-42856017D01*
X55592304Y-42922464D01*
X55590641Y-42992314D01*
X55551478Y-43050176D01*
X55545175Y-43054553D01*
X55545186Y-43054567D01*
X55538734Y-43059517D01*
X55459517Y-43138734D01*
X55459513Y-43138740D01*
X55403498Y-43235760D01*
X55403497Y-43235763D01*
X55374500Y-43343982D01*
X55374500Y-43456018D01*
X55403497Y-43564237D01*
X55459515Y-43661263D01*
X55538737Y-43740485D01*
X55635763Y-43796503D01*
X55743982Y-43825500D01*
X55749167Y-43825500D01*
X55816206Y-43845185D01*
X55836848Y-43861819D01*
X56213181Y-44238152D01*
X56246666Y-44299475D01*
X56249500Y-44325833D01*
X56249500Y-44429752D01*
X56261131Y-44488229D01*
X56261132Y-44488230D01*
X56305447Y-44554552D01*
X56331407Y-44571898D01*
X56376212Y-44625511D01*
X56384919Y-44694836D01*
X56354764Y-44757863D01*
X56331407Y-44778102D01*
X56305447Y-44795447D01*
X56261132Y-44861769D01*
X56261131Y-44861770D01*
X56249500Y-44920247D01*
X56249500Y-45699752D01*
X56261131Y-45758229D01*
X56261132Y-45758230D01*
X56305447Y-45824552D01*
X56371769Y-45868867D01*
X56371770Y-45868868D01*
X56430247Y-45880499D01*
X56430250Y-45880500D01*
X56430252Y-45880500D01*
X58869750Y-45880500D01*
X58869751Y-45880499D01*
X58884568Y-45877552D01*
X58928229Y-45868868D01*
X58928229Y-45868867D01*
X58928231Y-45868867D01*
X58994552Y-45824552D01*
X59038867Y-45758231D01*
X59038867Y-45758229D01*
X59038868Y-45758229D01*
X59050499Y-45699752D01*
X59050500Y-45699750D01*
X59050500Y-44920249D01*
X59050499Y-44920247D01*
X59038868Y-44861770D01*
X59038867Y-44861769D01*
X58994552Y-44795448D01*
X58994551Y-44795447D01*
X58968591Y-44778101D01*
X58923787Y-44724491D01*
X58915080Y-44655166D01*
X58945234Y-44592138D01*
X58968592Y-44571898D01*
X58994552Y-44554552D01*
X59038867Y-44488231D01*
X59038867Y-44488229D01*
X59038868Y-44488229D01*
X59049156Y-44436503D01*
X59050500Y-44429748D01*
X59050500Y-43650252D01*
X59050500Y-43650249D01*
X59050499Y-43650247D01*
X59038868Y-43591770D01*
X59038867Y-43591769D01*
X58994552Y-43525448D01*
X58968591Y-43508101D01*
X58923787Y-43454491D01*
X58915080Y-43385166D01*
X58945234Y-43322138D01*
X58968590Y-43301899D01*
X58994552Y-43284552D01*
X59038867Y-43218231D01*
X59038867Y-43218229D01*
X59038868Y-43218229D01*
X59049532Y-43164616D01*
X59050500Y-43159748D01*
X59050500Y-42380252D01*
X59050500Y-42380249D01*
X59050499Y-42380247D01*
X59038868Y-42321770D01*
X59038867Y-42321769D01*
X58994552Y-42255448D01*
X58976985Y-42243710D01*
X58968591Y-42238101D01*
X58923787Y-42184491D01*
X58915080Y-42115166D01*
X58945234Y-42052138D01*
X58968592Y-42031898D01*
X58994552Y-42014552D01*
X59038867Y-41948231D01*
X59038867Y-41948229D01*
X59038868Y-41948229D01*
X59044912Y-41917844D01*
X59850000Y-41917844D01*
X59856401Y-41977372D01*
X59856403Y-41977380D01*
X59899029Y-42091667D01*
X59904013Y-42161359D01*
X59899029Y-42178333D01*
X59856403Y-42292619D01*
X59856401Y-42292627D01*
X59850000Y-42352155D01*
X59850000Y-42520000D01*
X61300000Y-42520000D01*
X61800000Y-42520000D01*
X63250000Y-42520000D01*
X63250000Y-42352172D01*
X63249999Y-42352155D01*
X63243598Y-42292627D01*
X63243597Y-42292623D01*
X63200969Y-42178334D01*
X63195985Y-42108643D01*
X63200969Y-42091666D01*
X63243597Y-41977376D01*
X63243598Y-41977372D01*
X63249999Y-41917844D01*
X63250000Y-41917827D01*
X63250000Y-41750000D01*
X61800000Y-41750000D01*
X61800000Y-42520000D01*
X61300000Y-42520000D01*
X61300000Y-41750000D01*
X59850000Y-41750000D01*
X59850000Y-41917844D01*
X59044912Y-41917844D01*
X59050499Y-41889752D01*
X59050500Y-41889750D01*
X59050500Y-41110249D01*
X59050499Y-41110247D01*
X59038868Y-41051770D01*
X59038867Y-41051769D01*
X58994552Y-40985448D01*
X58994551Y-40985447D01*
X58968591Y-40968101D01*
X58923787Y-40914491D01*
X58915080Y-40845166D01*
X58945234Y-40782138D01*
X58968592Y-40761898D01*
X58994552Y-40744552D01*
X59038867Y-40678231D01*
X59038867Y-40678229D01*
X59038868Y-40678229D01*
X59050499Y-40619752D01*
X59050500Y-40619750D01*
X59050500Y-39840249D01*
X59050499Y-39840247D01*
X59038868Y-39781770D01*
X59038867Y-39781769D01*
X58994552Y-39715448D01*
X58980942Y-39706354D01*
X58968591Y-39698101D01*
X58923787Y-39644491D01*
X58915080Y-39575166D01*
X58945234Y-39512138D01*
X58968590Y-39491899D01*
X58994552Y-39474552D01*
X59038867Y-39408231D01*
X59038867Y-39408229D01*
X59038868Y-39408229D01*
X59044911Y-39377844D01*
X59850000Y-39377844D01*
X59856401Y-39437372D01*
X59856403Y-39437379D01*
X59906645Y-39572086D01*
X59906649Y-39572093D01*
X59992809Y-39687187D01*
X59992812Y-39687190D01*
X60099811Y-39767290D01*
X60141682Y-39823223D01*
X60149500Y-39866556D01*
X60149500Y-40593443D01*
X60129815Y-40660482D01*
X60099812Y-40692709D01*
X59992809Y-40772812D01*
X59906649Y-40887906D01*
X59906645Y-40887913D01*
X59856403Y-41022620D01*
X59856401Y-41022627D01*
X59850000Y-41082155D01*
X59850000Y-41250000D01*
X63250000Y-41250000D01*
X63250000Y-41082172D01*
X63249999Y-41082155D01*
X63243598Y-41022627D01*
X63243596Y-41022620D01*
X63193354Y-40887913D01*
X63193350Y-40887906D01*
X63107190Y-40772812D01*
X63000188Y-40692709D01*
X62958318Y-40636775D01*
X62950500Y-40593443D01*
X62950500Y-39866556D01*
X62970185Y-39799517D01*
X63000189Y-39767290D01*
X63107187Y-39687190D01*
X63107190Y-39687187D01*
X63193350Y-39572093D01*
X63193354Y-39572086D01*
X63243596Y-39437379D01*
X63243598Y-39437372D01*
X63249999Y-39377844D01*
X63250000Y-39377827D01*
X63250000Y-39210000D01*
X59850000Y-39210000D01*
X59850000Y-39377844D01*
X59044911Y-39377844D01*
X59050350Y-39350500D01*
X59050500Y-39349748D01*
X59050500Y-38570252D01*
X59050500Y-38570249D01*
X59050499Y-38570247D01*
X59038868Y-38511770D01*
X59038867Y-38511769D01*
X58994552Y-38445448D01*
X58978227Y-38434540D01*
X58968591Y-38428101D01*
X58923787Y-38374491D01*
X58915080Y-38305166D01*
X58945234Y-38242138D01*
X58968590Y-38221899D01*
X58994552Y-38204552D01*
X59038867Y-38138231D01*
X59038867Y-38138229D01*
X59038868Y-38138229D01*
X59050499Y-38079752D01*
X59050500Y-38079750D01*
X59050500Y-37643982D01*
X59574500Y-37643982D01*
X59574500Y-37756018D01*
X59603497Y-37864237D01*
X59659515Y-37961263D01*
X59738737Y-38040485D01*
X59835763Y-38096503D01*
X59874595Y-38106908D01*
X59934255Y-38143271D01*
X59964785Y-38206117D01*
X59956491Y-38275493D01*
X59941769Y-38300992D01*
X59906649Y-38347906D01*
X59906645Y-38347913D01*
X59856403Y-38482620D01*
X59856401Y-38482627D01*
X59850000Y-38542155D01*
X59850000Y-38710000D01*
X63250000Y-38710000D01*
X63250000Y-38542172D01*
X63249999Y-38542155D01*
X63243598Y-38482627D01*
X63243596Y-38482620D01*
X63193354Y-38347913D01*
X63193350Y-38347906D01*
X63107190Y-38232812D01*
X63000188Y-38152709D01*
X62958318Y-38096775D01*
X62950500Y-38053443D01*
X62950500Y-37300249D01*
X62950499Y-37300247D01*
X62938868Y-37241770D01*
X62938867Y-37241769D01*
X62894552Y-37175447D01*
X62828230Y-37131132D01*
X62828229Y-37131131D01*
X62769752Y-37119500D01*
X62769748Y-37119500D01*
X60330252Y-37119500D01*
X60330247Y-37119500D01*
X60271770Y-37131131D01*
X60271769Y-37131132D01*
X60205447Y-37175447D01*
X60175369Y-37220462D01*
X60121756Y-37265266D01*
X60064145Y-37273375D01*
X60064145Y-37274500D01*
X60056153Y-37274500D01*
X60056089Y-37274509D01*
X60056021Y-37274500D01*
X60056018Y-37274500D01*
X59943982Y-37274500D01*
X59835763Y-37303497D01*
X59835760Y-37303498D01*
X59738740Y-37359513D01*
X59738734Y-37359517D01*
X59659517Y-37438734D01*
X59659513Y-37438740D01*
X59603498Y-37535760D01*
X59603497Y-37535763D01*
X59574500Y-37643982D01*
X59050500Y-37643982D01*
X59050500Y-37300249D01*
X59050499Y-37300247D01*
X59038868Y-37241770D01*
X59038867Y-37241769D01*
X58994552Y-37175447D01*
X58928230Y-37131132D01*
X58928229Y-37131131D01*
X58869752Y-37119500D01*
X58869748Y-37119500D01*
X56430252Y-37119500D01*
X56430247Y-37119500D01*
X56371770Y-37131131D01*
X56371769Y-37131132D01*
X56305447Y-37175447D01*
X56275369Y-37220462D01*
X56221756Y-37265266D01*
X56164145Y-37273375D01*
X56164145Y-37274500D01*
X56156153Y-37274500D01*
X56156089Y-37274509D01*
X56156021Y-37274500D01*
X56156018Y-37274500D01*
X56043982Y-37274500D01*
X55935763Y-37303497D01*
X55935760Y-37303498D01*
X55838740Y-37359513D01*
X55838734Y-37359517D01*
X55759517Y-37438734D01*
X55759513Y-37438740D01*
X55703498Y-37535760D01*
X55703497Y-37535763D01*
X55674500Y-37643982D01*
X55674500Y-37756018D01*
X55703497Y-37864237D01*
X55759515Y-37961263D01*
X55838737Y-38040485D01*
X55935763Y-38096503D01*
X56043982Y-38125500D01*
X56043984Y-38125500D01*
X56156016Y-38125500D01*
X56156018Y-38125500D01*
X56156019Y-38125499D01*
X56164074Y-38124439D01*
X56164389Y-38126835D01*
X56221971Y-38128203D01*
X56272117Y-38158852D01*
X56280624Y-38167401D01*
X56305448Y-38204552D01*
X56341688Y-38228767D01*
X56350413Y-38237535D01*
X56361419Y-38257810D01*
X56376212Y-38275511D01*
X56377772Y-38287934D01*
X56383747Y-38298941D01*
X56382044Y-38321949D01*
X56384919Y-38344836D01*
X56379515Y-38356130D01*
X56378591Y-38368620D01*
X56364719Y-38387054D01*
X56354764Y-38407863D01*
X56338378Y-38422061D01*
X56336581Y-38424450D01*
X56334906Y-38425069D01*
X56331407Y-38428102D01*
X56305447Y-38445447D01*
X56261131Y-38511770D01*
X56258866Y-38517240D01*
X56215022Y-38571642D01*
X56148727Y-38593703D01*
X56112215Y-38589557D01*
X56056019Y-38574500D01*
X56056018Y-38574500D01*
X55943982Y-38574500D01*
X55835763Y-38603497D01*
X55835760Y-38603498D01*
X55738740Y-38659513D01*
X55738734Y-38659517D01*
X55653768Y-38744484D01*
X55651919Y-38742635D01*
X55605947Y-38776188D01*
X55536200Y-38780327D01*
X55475287Y-38746101D01*
X55442548Y-38684376D01*
X55444949Y-38624891D01*
X55447100Y-38617486D01*
X55447295Y-38615001D01*
X55447295Y-38615000D01*
X52552705Y-38615000D01*
X52552704Y-38615001D01*
X52552899Y-38617486D01*
X52598718Y-38775198D01*
X52682314Y-38916552D01*
X52682321Y-38916561D01*
X52798438Y-39032678D01*
X52798446Y-39032684D01*
X52885925Y-39084419D01*
X52898420Y-39097801D01*
X52914106Y-39107247D01*
X52921769Y-39122809D01*
X52933608Y-39135488D01*
X52936884Y-39153501D01*
X52944974Y-39169928D01*
X52943007Y-39187163D01*
X52946112Y-39204230D01*
X52939129Y-39221155D01*
X52937054Y-39239348D01*
X52923020Y-39260205D01*
X52919467Y-39268819D01*
X52918848Y-39269583D01*
X52914893Y-39274425D01*
X52910802Y-39278517D01*
X52909683Y-39280805D01*
X52903047Y-39288932D01*
X52877404Y-39306489D01*
X52852949Y-39325674D01*
X52847998Y-39326624D01*
X52845396Y-39328407D01*
X52837525Y-39328636D01*
X52807003Y-39334500D01*
X51051161Y-39334500D01*
X50989161Y-39317887D01*
X50982650Y-39314128D01*
X50964237Y-39303497D01*
X50856018Y-39274500D01*
X50743982Y-39274500D01*
X50635763Y-39303497D01*
X50635760Y-39303498D01*
X50538740Y-39359513D01*
X50538734Y-39359517D01*
X50537181Y-39361071D01*
X50535548Y-39361962D01*
X50532291Y-39364462D01*
X50531901Y-39363954D01*
X50475858Y-39394556D01*
X50406166Y-39389572D01*
X50350233Y-39347700D01*
X50325816Y-39282236D01*
X50325500Y-39273390D01*
X50325500Y-38850833D01*
X50345185Y-38783794D01*
X50361819Y-38763152D01*
X51693152Y-37431819D01*
X51754475Y-37398334D01*
X51780833Y-37395500D01*
X52660438Y-37395500D01*
X52807003Y-37395500D01*
X52808804Y-37396028D01*
X52810620Y-37395553D01*
X52842201Y-37405835D01*
X52874042Y-37415185D01*
X52875837Y-37416786D01*
X52877057Y-37417184D01*
X52884891Y-37424866D01*
X52903045Y-37441065D01*
X52909681Y-37449191D01*
X52910802Y-37451483D01*
X52914899Y-37455580D01*
X52918846Y-37460413D01*
X52930098Y-37487086D01*
X52943970Y-37512490D01*
X52943512Y-37518883D01*
X52946004Y-37524789D01*
X52941050Y-37553306D01*
X52938986Y-37582182D01*
X52935144Y-37587313D01*
X52934048Y-37593628D01*
X52914459Y-37614944D01*
X52897114Y-37638115D01*
X52886913Y-37644921D01*
X52886772Y-37645075D01*
X52886625Y-37645113D01*
X52885926Y-37645580D01*
X52798444Y-37697317D01*
X52798438Y-37697321D01*
X52682321Y-37813438D01*
X52682314Y-37813447D01*
X52598718Y-37954801D01*
X52552899Y-38112513D01*
X52552704Y-38114998D01*
X52552705Y-38115000D01*
X55447295Y-38115000D01*
X55447295Y-38114998D01*
X55447100Y-38112513D01*
X55401281Y-37954801D01*
X55317685Y-37813447D01*
X55317678Y-37813438D01*
X55201561Y-37697321D01*
X55201552Y-37697314D01*
X55114074Y-37645580D01*
X55066390Y-37594511D01*
X55053887Y-37525769D01*
X55080532Y-37461180D01*
X55089074Y-37451656D01*
X55089195Y-37451486D01*
X55089198Y-37451483D01*
X55140573Y-37346393D01*
X55150500Y-37278260D01*
X55150500Y-36911740D01*
X55140573Y-36843607D01*
X55089198Y-36738517D01*
X55089196Y-36738515D01*
X55089196Y-36738514D01*
X55006485Y-36655803D01*
X54999499Y-36652388D01*
X54901393Y-36604427D01*
X54901391Y-36604426D01*
X54833261Y-36594500D01*
X54833260Y-36594500D01*
X53166740Y-36594500D01*
X53142375Y-36598049D01*
X53073199Y-36588235D01*
X53020310Y-36542579D01*
X53000500Y-36475576D01*
X53000500Y-35875832D01*
X53020185Y-35808793D01*
X53036815Y-35788155D01*
X53191305Y-35633664D01*
X53252628Y-35600180D01*
X53322320Y-35605164D01*
X53378253Y-35647036D01*
X53402670Y-35712500D01*
X53398761Y-35753437D01*
X53374500Y-35843982D01*
X53374500Y-35956018D01*
X53402296Y-36059752D01*
X53403497Y-36064236D01*
X53403498Y-36064239D01*
X53411536Y-36078161D01*
X53459515Y-36161263D01*
X53538737Y-36240485D01*
X53635763Y-36296503D01*
X53743982Y-36325500D01*
X53743984Y-36325500D01*
X53856016Y-36325500D01*
X53856018Y-36325500D01*
X53964237Y-36296503D01*
X54037348Y-36254292D01*
X54105246Y-36237820D01*
X54168236Y-36258577D01*
X54208358Y-36285385D01*
X54284341Y-36300499D01*
X54284344Y-36300500D01*
X54284346Y-36300500D01*
X54715656Y-36300500D01*
X54715657Y-36300499D01*
X54791642Y-36285385D01*
X54877810Y-36227810D01*
X54935385Y-36141642D01*
X54950500Y-36065654D01*
X54950500Y-35734346D01*
X54950500Y-35734343D01*
X54950499Y-35734341D01*
X54935385Y-35658358D01*
X54935385Y-35658357D01*
X54904288Y-35611818D01*
X54877810Y-35572190D01*
X54843389Y-35549191D01*
X54791645Y-35514616D01*
X54791516Y-35514563D01*
X54791277Y-35514370D01*
X54781487Y-35507829D01*
X54782072Y-35506953D01*
X54737111Y-35470723D01*
X54715044Y-35404430D01*
X54732321Y-35336730D01*
X54783457Y-35289118D01*
X54791516Y-35285437D01*
X54791638Y-35285385D01*
X54791642Y-35285385D01*
X54877810Y-35227810D01*
X54935385Y-35141642D01*
X54950500Y-35065654D01*
X54950500Y-34873322D01*
X55850001Y-34873322D01*
X55860144Y-34972607D01*
X55913452Y-35133481D01*
X55913457Y-35133492D01*
X56002424Y-35277728D01*
X56002427Y-35277732D01*
X56122267Y-35397572D01*
X56122271Y-35397575D01*
X56266507Y-35486542D01*
X56266518Y-35486547D01*
X56427393Y-35539855D01*
X56526683Y-35549999D01*
X56849999Y-35549999D01*
X57350000Y-35549999D01*
X57673308Y-35549999D01*
X57673322Y-35549998D01*
X57772607Y-35539855D01*
X57933481Y-35486547D01*
X57933492Y-35486542D01*
X58077728Y-35397575D01*
X58077732Y-35397572D01*
X58197572Y-35277732D01*
X58197575Y-35277728D01*
X58286542Y-35133492D01*
X58286547Y-35133481D01*
X58339855Y-34972606D01*
X58349999Y-34873322D01*
X58350000Y-34873309D01*
X58350000Y-34550000D01*
X57350000Y-34550000D01*
X57350000Y-35549999D01*
X56849999Y-35549999D01*
X56850000Y-35549998D01*
X56850000Y-34550000D01*
X55850001Y-34550000D01*
X55850001Y-34873322D01*
X54950500Y-34873322D01*
X54950500Y-34734346D01*
X54950500Y-34734343D01*
X54950499Y-34734341D01*
X54935385Y-34658358D01*
X54935385Y-34658357D01*
X54905532Y-34613680D01*
X54877810Y-34572190D01*
X54791642Y-34514615D01*
X54784067Y-34513108D01*
X54767145Y-34501085D01*
X54753839Y-34484203D01*
X54737107Y-34470719D01*
X54732644Y-34457309D01*
X54723896Y-34446210D01*
X54721830Y-34424816D01*
X54715043Y-34404424D01*
X54718538Y-34390730D01*
X54717180Y-34376664D01*
X54727007Y-34357551D01*
X54732323Y-34336725D01*
X54742667Y-34327094D01*
X54749129Y-34314527D01*
X54767729Y-34303761D01*
X54783461Y-34289115D01*
X54791518Y-34285436D01*
X54791638Y-34285385D01*
X54791642Y-34285385D01*
X54877810Y-34227810D01*
X54935385Y-34141642D01*
X54950500Y-34065654D01*
X54950500Y-33734346D01*
X54950500Y-33729500D01*
X54970185Y-33662461D01*
X55022989Y-33616706D01*
X55074500Y-33605500D01*
X55726000Y-33605500D01*
X55793039Y-33625185D01*
X55838794Y-33677989D01*
X55850000Y-33729500D01*
X55850000Y-34050000D01*
X58349999Y-34050000D01*
X58349999Y-33729500D01*
X58369684Y-33662461D01*
X58422488Y-33616706D01*
X58473999Y-33605500D01*
X58823506Y-33605500D01*
X58890545Y-33625185D01*
X58936300Y-33677989D01*
X58937127Y-33683302D01*
X58951940Y-33700000D01*
X59576000Y-33700000D01*
X59584685Y-33702550D01*
X59593647Y-33701262D01*
X59617687Y-33712240D01*
X59643039Y-33719685D01*
X59648966Y-33726525D01*
X59657203Y-33730287D01*
X59671492Y-33752521D01*
X59688794Y-33772489D01*
X59691081Y-33783003D01*
X59694977Y-33789065D01*
X59700000Y-33824000D01*
X59700000Y-33976000D01*
X59680315Y-34043039D01*
X59627511Y-34088794D01*
X59576000Y-34100000D01*
X58951941Y-34100000D01*
X58960806Y-34173833D01*
X59017281Y-34317043D01*
X59110296Y-34439703D01*
X59220387Y-34523186D01*
X59261910Y-34579378D01*
X59266275Y-34646236D01*
X59266997Y-34646380D01*
X59266460Y-34649076D01*
X59266462Y-34649099D01*
X59266446Y-34649149D01*
X59249500Y-34734341D01*
X59249500Y-35065658D01*
X59264614Y-35141641D01*
X59264614Y-35141642D01*
X59295060Y-35187207D01*
X59322190Y-35227810D01*
X59373843Y-35262323D01*
X59408357Y-35285385D01*
X59408487Y-35285439D01*
X59408725Y-35285631D01*
X59418513Y-35292171D01*
X59417927Y-35293046D01*
X59462890Y-35329280D01*
X59484955Y-35395574D01*
X59467676Y-35463273D01*
X59416539Y-35510884D01*
X59408487Y-35514561D01*
X59408357Y-35514614D01*
X59322190Y-35572190D01*
X59264614Y-35658357D01*
X59264614Y-35658358D01*
X59249500Y-35734341D01*
X59249500Y-36065658D01*
X59264614Y-36141641D01*
X59264614Y-36141642D01*
X59295819Y-36188342D01*
X59322190Y-36227810D01*
X59361825Y-36254293D01*
X59408357Y-36285385D01*
X59484341Y-36300499D01*
X59484344Y-36300500D01*
X59484346Y-36300500D01*
X59915656Y-36300500D01*
X59915657Y-36300499D01*
X59991642Y-36285385D01*
X60077810Y-36227810D01*
X60135385Y-36141642D01*
X60150500Y-36065654D01*
X60150500Y-36065647D01*
X60151097Y-36059594D01*
X60152703Y-36059752D01*
X60170185Y-36000216D01*
X60186819Y-35979574D01*
X60451028Y-35715365D01*
X60720480Y-35445913D01*
X60739285Y-35413342D01*
X60773207Y-35354587D01*
X60800500Y-35252727D01*
X60800500Y-35252724D01*
X60800725Y-35251885D01*
X60837090Y-35192224D01*
X60899936Y-35161695D01*
X60969312Y-35169989D01*
X61023190Y-35214475D01*
X61044465Y-35281026D01*
X61044500Y-35283978D01*
X61044500Y-35825004D01*
X61049651Y-35870728D01*
X61089333Y-35953126D01*
X61089334Y-35953127D01*
X61160837Y-36010149D01*
X61227428Y-36025348D01*
X61249995Y-36030499D01*
X61250000Y-36030500D01*
X61450500Y-36030500D01*
X61517539Y-36050185D01*
X61563294Y-36102989D01*
X61574500Y-36154500D01*
X61574500Y-36256018D01*
X61603497Y-36364237D01*
X61659515Y-36461263D01*
X61738737Y-36540485D01*
X61835763Y-36596503D01*
X61943982Y-36625500D01*
X61943984Y-36625500D01*
X62056016Y-36625500D01*
X62056018Y-36625500D01*
X62164237Y-36596503D01*
X62261263Y-36540485D01*
X62340485Y-36461263D01*
X62396503Y-36364237D01*
X62425500Y-36256018D01*
X62425500Y-36154500D01*
X62445185Y-36087461D01*
X62497989Y-36041706D01*
X62549500Y-36030500D01*
X62750003Y-36030500D01*
X62750003Y-36030499D01*
X62795728Y-36025348D01*
X62878127Y-35985666D01*
X62935149Y-35914163D01*
X62955500Y-35825000D01*
X62955500Y-34675000D01*
X62942065Y-34601915D01*
X62938769Y-34596972D01*
X62917962Y-34530274D01*
X62930225Y-34474385D01*
X62935144Y-34464169D01*
X62935149Y-34464163D01*
X62955500Y-34375000D01*
X62955500Y-33375000D01*
X62950348Y-33329272D01*
X62946918Y-33322150D01*
X62910666Y-33246873D01*
X62839163Y-33189851D01*
X62750004Y-33169500D01*
X62750000Y-33169500D01*
X62574500Y-33169500D01*
X62507461Y-33149815D01*
X62461706Y-33097011D01*
X62450500Y-33045500D01*
X62450500Y-32593799D01*
X62470185Y-32526760D01*
X62518205Y-32483314D01*
X62521459Y-32481656D01*
X62629199Y-32426760D01*
X62782073Y-32315690D01*
X62915690Y-32182073D01*
X63026760Y-32029199D01*
X63112547Y-31860832D01*
X63170940Y-31681118D01*
X63175869Y-31650000D01*
X63200500Y-31494486D01*
X63200500Y-31305513D01*
X63170940Y-31118881D01*
X63128560Y-30988452D01*
X63112547Y-30939168D01*
X63112545Y-30939165D01*
X63112545Y-30939163D01*
X63035073Y-30787117D01*
X63026760Y-30770801D01*
X62915690Y-30617927D01*
X62782073Y-30484310D01*
X62629199Y-30373240D01*
X62460836Y-30287454D01*
X62281118Y-30229059D01*
X62094486Y-30199500D01*
X62094481Y-30199500D01*
X61905519Y-30199500D01*
X61905514Y-30199500D01*
X61868333Y-30205389D01*
X61799040Y-30196435D01*
X61761254Y-30170597D01*
X60637819Y-29047162D01*
X60604334Y-28985839D01*
X60601500Y-28959481D01*
X60601500Y-28663666D01*
X60621185Y-28596627D01*
X60673989Y-28550872D01*
X60743147Y-28540928D01*
X60806703Y-28569953D01*
X60843431Y-28625347D01*
X60887454Y-28760836D01*
X60972553Y-28927850D01*
X60973240Y-28929199D01*
X61084310Y-29082073D01*
X61217927Y-29215690D01*
X61370801Y-29326760D01*
X61450347Y-29367290D01*
X61539163Y-29412545D01*
X61539165Y-29412545D01*
X61539168Y-29412547D01*
X61607351Y-29434701D01*
X61718881Y-29470940D01*
X61905514Y-29500500D01*
X61905519Y-29500500D01*
X62094486Y-29500500D01*
X62281118Y-29470940D01*
X62314975Y-29459939D01*
X62460832Y-29412547D01*
X62629199Y-29326760D01*
X62782073Y-29215690D01*
X62915690Y-29082073D01*
X63026760Y-28929199D01*
X63112547Y-28760832D01*
X63170940Y-28581118D01*
X63174727Y-28557206D01*
X63200500Y-28394486D01*
X63200500Y-28205513D01*
X63170940Y-28018881D01*
X63112545Y-27839163D01*
X63026759Y-27670800D01*
X62997142Y-27630036D01*
X62915690Y-27517927D01*
X62782073Y-27384310D01*
X62629199Y-27273240D01*
X62605685Y-27261259D01*
X62460836Y-27187454D01*
X62281118Y-27129059D01*
X62094486Y-27099500D01*
X62094481Y-27099500D01*
X61905519Y-27099500D01*
X61905514Y-27099500D01*
X61718880Y-27129060D01*
X61718877Y-27129060D01*
X61587818Y-27171645D01*
X61517977Y-27173640D01*
X61458144Y-27137560D01*
X61427316Y-27074859D01*
X61425500Y-27053714D01*
X61425500Y-26943984D01*
X61425500Y-26943982D01*
X61396503Y-26835763D01*
X61340485Y-26738737D01*
X61261263Y-26659515D01*
X61164237Y-26603497D01*
X61056018Y-26574500D01*
X60943982Y-26574500D01*
X60835763Y-26603497D01*
X60835760Y-26603498D01*
X60738740Y-26659513D01*
X60738734Y-26659517D01*
X60659517Y-26738734D01*
X60659513Y-26738740D01*
X60603498Y-26835760D01*
X60603497Y-26835763D01*
X60574500Y-26943982D01*
X60574500Y-27056018D01*
X60603497Y-27164237D01*
X60659515Y-27261263D01*
X60659517Y-27261265D01*
X60663927Y-27265675D01*
X60672383Y-27280959D01*
X60684410Y-27292721D01*
X60692715Y-27317707D01*
X60697111Y-27325651D01*
X60699500Y-27336073D01*
X60699500Y-27339562D01*
X60705033Y-27360211D01*
X60705541Y-27362427D01*
X60703567Y-27395127D01*
X60702788Y-27427888D01*
X60701474Y-27429829D01*
X60701333Y-27432169D01*
X60681985Y-27458622D01*
X60678749Y-27463405D01*
X60721409Y-27464929D01*
X60769931Y-27494902D01*
X60900283Y-27625254D01*
X60933768Y-27686577D01*
X60928784Y-27756269D01*
X60923087Y-27769229D01*
X60887455Y-27839160D01*
X60843431Y-27974652D01*
X60834979Y-27987011D01*
X60831026Y-28001450D01*
X60815658Y-28015266D01*
X60803993Y-28032327D01*
X60790202Y-28038154D01*
X60779069Y-28048165D01*
X60758669Y-28051480D01*
X60739634Y-28059525D01*
X60724882Y-28056972D01*
X60710104Y-28059374D01*
X60691149Y-28051133D01*
X60670788Y-28047610D01*
X60659758Y-28037487D01*
X60646028Y-28031518D01*
X60634537Y-28014339D01*
X60619312Y-28000365D01*
X60614864Y-27984926D01*
X60607183Y-27973442D01*
X60602219Y-27941028D01*
X60601521Y-27938605D01*
X60601500Y-27937459D01*
X60601500Y-27782007D01*
X60600524Y-27777102D01*
X60574580Y-27646672D01*
X60567688Y-27630035D01*
X60560220Y-27560566D01*
X60584723Y-27511614D01*
X60562808Y-27507102D01*
X60530495Y-27501669D01*
X60528662Y-27500071D01*
X60526464Y-27499619D01*
X60512685Y-27486143D01*
X60481574Y-27459023D01*
X60445114Y-27404456D01*
X60186819Y-27146161D01*
X60153334Y-27084838D01*
X60150500Y-27058480D01*
X60150500Y-26591506D01*
X60134720Y-26491878D01*
X60134719Y-26491876D01*
X60134719Y-26491874D01*
X60073528Y-26371780D01*
X60073526Y-26371778D01*
X60073523Y-26371774D01*
X59978225Y-26276476D01*
X59978221Y-26276473D01*
X59978220Y-26276472D01*
X59858126Y-26215281D01*
X59858124Y-26215280D01*
X59858121Y-26215279D01*
X59758493Y-26199500D01*
X59758488Y-26199500D01*
X58894007Y-26199500D01*
X58826968Y-26179815D01*
X58781213Y-26127011D01*
X58771269Y-26093149D01*
X58765772Y-26054919D01*
X58764093Y-26043242D01*
X58759001Y-26018627D01*
X58715991Y-25937915D01*
X58670236Y-25885111D01*
X58670230Y-25885104D01*
X58652648Y-25867160D01*
X58652647Y-25867159D01*
X58652645Y-25867157D01*
X58652643Y-25867156D01*
X58652641Y-25867154D01*
X58572831Y-25822511D01*
X58572826Y-25822509D01*
X58505794Y-25802826D01*
X58505790Y-25802825D01*
X58505789Y-25802825D01*
X58447891Y-25794500D01*
X55752109Y-25794500D01*
X55752100Y-25794500D01*
X55712745Y-25798305D01*
X55712739Y-25798306D01*
X55666092Y-25807412D01*
X55660155Y-25808662D01*
X55577674Y-25848176D01*
X55522960Y-25891627D01*
X55504266Y-25908436D01*
X55456245Y-25986265D01*
X55456241Y-25986274D01*
X55433710Y-26052393D01*
X55433706Y-26052407D01*
X55427068Y-26076652D01*
X55425969Y-26085444D01*
X55423737Y-26085164D01*
X55408557Y-26140612D01*
X55356602Y-26187329D01*
X55303028Y-26199500D01*
X54441507Y-26199500D01*
X54341878Y-26215279D01*
X54221778Y-26276473D01*
X54221774Y-26276476D01*
X54135070Y-26363181D01*
X54108142Y-26377884D01*
X54082324Y-26394477D01*
X54076123Y-26395368D01*
X54073747Y-26396666D01*
X54047389Y-26399500D01*
X53974500Y-26399500D01*
X53907461Y-26379815D01*
X53861706Y-26327011D01*
X53850500Y-26275500D01*
X53850500Y-25945730D01*
X53847646Y-25915300D01*
X53847646Y-25915298D01*
X53810332Y-25808663D01*
X53802793Y-25787118D01*
X53722150Y-25677850D01*
X53612882Y-25597207D01*
X53612880Y-25597206D01*
X53484700Y-25552353D01*
X53454270Y-25549500D01*
X53454266Y-25549500D01*
X52695734Y-25549500D01*
X52695730Y-25549500D01*
X52665300Y-25552353D01*
X52665298Y-25552353D01*
X52537119Y-25597206D01*
X52537117Y-25597207D01*
X52427850Y-25677850D01*
X52347207Y-25787117D01*
X52347206Y-25787119D01*
X52302353Y-25915298D01*
X52302353Y-25915300D01*
X52299500Y-25945730D01*
X52299500Y-28254269D01*
X52302353Y-28284699D01*
X52302353Y-28284701D01*
X52347206Y-28412880D01*
X52347207Y-28412882D01*
X52427850Y-28522150D01*
X52537118Y-28602793D01*
X52551884Y-28607959D01*
X52608658Y-28648682D01*
X52634404Y-28713635D01*
X52620947Y-28782196D01*
X52572559Y-28832598D01*
X52551887Y-28842038D01*
X52537118Y-28847207D01*
X52537117Y-28847207D01*
X52537116Y-28847208D01*
X52427850Y-28927850D01*
X52347207Y-29037117D01*
X52347206Y-29037119D01*
X52302353Y-29165298D01*
X52302353Y-29165300D01*
X52299500Y-29195730D01*
X52299500Y-30604269D01*
X52302353Y-30634699D01*
X52302353Y-30634701D01*
X52347206Y-30762880D01*
X52347209Y-30762886D01*
X52386146Y-30815643D01*
X52427850Y-30872150D01*
X52537118Y-30952793D01*
X52579845Y-30967744D01*
X52665299Y-30997646D01*
X52695730Y-31000500D01*
X52771940Y-31000500D01*
X52838979Y-31020185D01*
X52884734Y-31072989D01*
X52894678Y-31142147D01*
X52865653Y-31205703D01*
X52835378Y-31231044D01*
X52820948Y-31239635D01*
X52816874Y-31240281D01*
X52696780Y-31301472D01*
X52666885Y-31331366D01*
X52653583Y-31339287D01*
X52634130Y-31344284D01*
X52616501Y-31353910D01*
X52600980Y-31352799D01*
X52585910Y-31356671D01*
X52566842Y-31350357D01*
X52546809Y-31348924D01*
X52534352Y-31339598D01*
X52519582Y-31334708D01*
X52506956Y-31319090D01*
X52490876Y-31307052D01*
X52484606Y-31297840D01*
X52422571Y-31197266D01*
X52341604Y-31116299D01*
X52258790Y-31050322D01*
X52158492Y-30988457D01*
X52158481Y-30988452D01*
X51997606Y-30935144D01*
X51898322Y-30925000D01*
X51875000Y-30925000D01*
X51875000Y-32903638D01*
X51855315Y-32970677D01*
X51838681Y-32991319D01*
X51825000Y-33005000D01*
X51825000Y-35874999D01*
X51831581Y-35874999D01*
X51902102Y-35868591D01*
X51902107Y-35868590D01*
X52064396Y-35818018D01*
X52211350Y-35729182D01*
X52278904Y-35711346D01*
X52345378Y-35732863D01*
X52389666Y-35786904D01*
X52399500Y-35835299D01*
X52399500Y-36670500D01*
X52379815Y-36737539D01*
X52327011Y-36783294D01*
X52275500Y-36794500D01*
X51565438Y-36794500D01*
X51534867Y-36802691D01*
X51489008Y-36814979D01*
X51489007Y-36814980D01*
X51439427Y-36843606D01*
X51439426Y-36843607D01*
X51420490Y-36854539D01*
X51420487Y-36854541D01*
X50012181Y-38262848D01*
X49950858Y-38296333D01*
X49881166Y-38291349D01*
X49825233Y-38249477D01*
X49800816Y-38184013D01*
X49800500Y-38175167D01*
X49800500Y-35995519D01*
X49820185Y-35928480D01*
X49872989Y-35882725D01*
X49935724Y-35872028D01*
X49968413Y-35874998D01*
X49968426Y-35874999D01*
X50475000Y-35874999D01*
X50481581Y-35874999D01*
X50552102Y-35868591D01*
X50552107Y-35868590D01*
X50714396Y-35818018D01*
X50835850Y-35744597D01*
X50903404Y-35726761D01*
X50964150Y-35744597D01*
X51085604Y-35818019D01*
X51085603Y-35818019D01*
X51247894Y-35868590D01*
X51247893Y-35868590D01*
X51318408Y-35874998D01*
X51318426Y-35874999D01*
X51324999Y-35874998D01*
X51325000Y-35874998D01*
X51325000Y-35150000D01*
X50475000Y-35150000D01*
X50475000Y-35874999D01*
X49968426Y-35874999D01*
X49974999Y-35874998D01*
X49975000Y-35874998D01*
X49975000Y-35024000D01*
X49994685Y-34956961D01*
X50047489Y-34911206D01*
X50099000Y-34900000D01*
X50225000Y-34900000D01*
X50225000Y-34774000D01*
X50244685Y-34706961D01*
X50297489Y-34661206D01*
X50349000Y-34650000D01*
X51325000Y-34650000D01*
X51325000Y-32396362D01*
X51344685Y-32329323D01*
X51361319Y-32308681D01*
X51375000Y-32295000D01*
X51375000Y-32150000D01*
X50349000Y-32150000D01*
X50281961Y-32130315D01*
X50236206Y-32077511D01*
X50225000Y-32026000D01*
X50225000Y-31900000D01*
X50099000Y-31900000D01*
X50031961Y-31880315D01*
X49986206Y-31827511D01*
X49975000Y-31776000D01*
X49975000Y-31430000D01*
X49965023Y-31420023D01*
X49931961Y-31410315D01*
X49886206Y-31357511D01*
X49875000Y-31306000D01*
X49875000Y-30795000D01*
X50375000Y-30795000D01*
X50384976Y-30804976D01*
X50418039Y-30814685D01*
X50463794Y-30867489D01*
X50475000Y-30919000D01*
X50475000Y-31650000D01*
X51375000Y-31650000D01*
X51375000Y-30924999D01*
X51351693Y-30925000D01*
X51351669Y-30925002D01*
X51298135Y-30930470D01*
X51229442Y-30917699D01*
X51178558Y-30869818D01*
X51161639Y-30802028D01*
X51167830Y-30768106D01*
X51189504Y-30702699D01*
X51189507Y-30702689D01*
X51199999Y-30599986D01*
X51200000Y-30599973D01*
X51200000Y-30150000D01*
X50375000Y-30150000D01*
X50375000Y-30795000D01*
X49875000Y-30795000D01*
X49875000Y-30150000D01*
X49050001Y-30150000D01*
X49050001Y-30599986D01*
X49060494Y-30702697D01*
X49115641Y-30869119D01*
X49115643Y-30869124D01*
X49207684Y-31018345D01*
X49331655Y-31142316D01*
X49331659Y-31142319D01*
X49348824Y-31152907D01*
X49395549Y-31204855D01*
X49406770Y-31273817D01*
X49399745Y-31302216D01*
X49356169Y-31417717D01*
X49337232Y-31442815D01*
X49319798Y-31468985D01*
X49315994Y-31470963D01*
X49314087Y-31473492D01*
X49303949Y-31477229D01*
X49272255Y-31493718D01*
X49268375Y-31494758D01*
X49257133Y-31494491D01*
X49248531Y-31497663D01*
X49231461Y-31493882D01*
X49198525Y-31493101D01*
X49184215Y-31483417D01*
X49180315Y-31482554D01*
X49174949Y-31477147D01*
X49140659Y-31453944D01*
X49125788Y-31431285D01*
X49103050Y-31386658D01*
X49103046Y-31386654D01*
X49103045Y-31386652D01*
X49013347Y-31296954D01*
X49013344Y-31296952D01*
X49013342Y-31296950D01*
X48936517Y-31257805D01*
X48900301Y-31239352D01*
X48806524Y-31224500D01*
X48343482Y-31224500D01*
X48262519Y-31237323D01*
X48249696Y-31239354D01*
X48136658Y-31296950D01*
X48136657Y-31296951D01*
X48136652Y-31296954D01*
X48046954Y-31386652D01*
X48046951Y-31386657D01*
X47989352Y-31499698D01*
X47974500Y-31593475D01*
X47974500Y-32206517D01*
X47982992Y-32260131D01*
X47989354Y-32300304D01*
X48046950Y-32413342D01*
X48046952Y-32413344D01*
X48046954Y-32413347D01*
X48136652Y-32503045D01*
X48136654Y-32503046D01*
X48136658Y-32503050D01*
X48208225Y-32539515D01*
X48259021Y-32587490D01*
X48275816Y-32655311D01*
X48253278Y-32721446D01*
X48208226Y-32760484D01*
X48136658Y-32796950D01*
X48136657Y-32796951D01*
X48136652Y-32796954D01*
X48046954Y-32886652D01*
X48046951Y-32886657D01*
X48046950Y-32886658D01*
X48028833Y-32922214D01*
X47989352Y-32999698D01*
X47974500Y-33093475D01*
X47974500Y-33706517D01*
X47983904Y-33765893D01*
X47989354Y-33800304D01*
X48046950Y-33913342D01*
X48046952Y-33913344D01*
X48046954Y-33913347D01*
X48136652Y-34003045D01*
X48136654Y-34003046D01*
X48136658Y-34003050D01*
X48208225Y-34039515D01*
X48259021Y-34087490D01*
X48275816Y-34155311D01*
X48253278Y-34221446D01*
X48208226Y-34260484D01*
X48136658Y-34296950D01*
X48136657Y-34296951D01*
X48136652Y-34296954D01*
X48046954Y-34386652D01*
X48046952Y-34386656D01*
X48046950Y-34386658D01*
X48043980Y-34392487D01*
X47989352Y-34499698D01*
X47989351Y-34499702D01*
X47987147Y-34513618D01*
X47957215Y-34576752D01*
X47897902Y-34613680D01*
X47828039Y-34612679D01*
X47776994Y-34581896D01*
X47665383Y-34470285D01*
X47665374Y-34470278D01*
X47526195Y-34387968D01*
X47526190Y-34387966D01*
X47370918Y-34342855D01*
X47370912Y-34342854D01*
X47350000Y-34341209D01*
X47350000Y-34996000D01*
X47330315Y-35063039D01*
X47277511Y-35108794D01*
X47226000Y-35120000D01*
X47100000Y-35120000D01*
X47100000Y-35246000D01*
X47080315Y-35313039D01*
X47027511Y-35358794D01*
X46976000Y-35370000D01*
X46295496Y-35370000D01*
X46337968Y-35516195D01*
X46420278Y-35655374D01*
X46420285Y-35655383D01*
X46534616Y-35769714D01*
X46540785Y-35774499D01*
X46539265Y-35776457D01*
X46539834Y-35777066D01*
X46551542Y-35782802D01*
X46563221Y-35802106D01*
X46578625Y-35818599D01*
X46581789Y-35832797D01*
X46587709Y-35842582D01*
X46589212Y-35866105D01*
X46591783Y-35877640D01*
X46591608Y-35884085D01*
X46589500Y-35900099D01*
X46589500Y-35961831D01*
X46589454Y-35963528D01*
X46579202Y-35995234D01*
X46569815Y-36027206D01*
X46568497Y-36028348D01*
X46567960Y-36030009D01*
X46542184Y-36051148D01*
X46517011Y-36072961D01*
X46515284Y-36073209D01*
X46513935Y-36074316D01*
X46480843Y-36078161D01*
X46447853Y-36082905D01*
X46446264Y-36082179D01*
X46444532Y-36082381D01*
X46414622Y-36067728D01*
X46384297Y-36053880D01*
X46382016Y-36051756D01*
X46381787Y-36051644D01*
X46381646Y-36051412D01*
X46377819Y-36047848D01*
X45962819Y-35632848D01*
X45929334Y-35571525D01*
X45926500Y-35545167D01*
X45926500Y-34911439D01*
X45923435Y-34900000D01*
X45915396Y-34870000D01*
X46295496Y-34870000D01*
X46850000Y-34870000D01*
X46850000Y-34341210D01*
X46849999Y-34341209D01*
X46829087Y-34342854D01*
X46829081Y-34342855D01*
X46673809Y-34387966D01*
X46673804Y-34387968D01*
X46534625Y-34470278D01*
X46534616Y-34470285D01*
X46420285Y-34584616D01*
X46420278Y-34584625D01*
X46337968Y-34723804D01*
X46295496Y-34870000D01*
X45915396Y-34870000D01*
X45906021Y-34835011D01*
X45900529Y-34825499D01*
X45866464Y-34766495D01*
X45866458Y-34766487D01*
X45611818Y-34511847D01*
X45578333Y-34450524D01*
X45575499Y-34424174D01*
X45575499Y-33993482D01*
X45560646Y-33899696D01*
X45503050Y-33786658D01*
X45503046Y-33786654D01*
X45503045Y-33786652D01*
X45413347Y-33696954D01*
X45413344Y-33696952D01*
X45413342Y-33696950D01*
X45336517Y-33657805D01*
X45300301Y-33639352D01*
X45206524Y-33624500D01*
X44593482Y-33624500D01*
X44512519Y-33637323D01*
X44499696Y-33639354D01*
X44386658Y-33696950D01*
X44386657Y-33696951D01*
X44386652Y-33696954D01*
X44296954Y-33786652D01*
X44296951Y-33786657D01*
X44239352Y-33899698D01*
X44224500Y-33993475D01*
X44224500Y-34456517D01*
X44233544Y-34513618D01*
X44239354Y-34550304D01*
X44296950Y-34663342D01*
X44296952Y-34663344D01*
X44296954Y-34663347D01*
X44386652Y-34753045D01*
X44386654Y-34753046D01*
X44386658Y-34753050D01*
X44499696Y-34810646D01*
X44499698Y-34810647D01*
X44593475Y-34825499D01*
X44593481Y-34825500D01*
X45024166Y-34825499D01*
X45053612Y-34834145D01*
X45083593Y-34840667D01*
X45088606Y-34844419D01*
X45091205Y-34845183D01*
X45111847Y-34861818D01*
X45187848Y-34937819D01*
X45221333Y-34999142D01*
X45216349Y-35068834D01*
X45174477Y-35124767D01*
X45109013Y-35149184D01*
X45100167Y-35149500D01*
X44593482Y-35149500D01*
X44512519Y-35162323D01*
X44499696Y-35164354D01*
X44386658Y-35221950D01*
X44386657Y-35221951D01*
X44386652Y-35221954D01*
X44296954Y-35311652D01*
X44296951Y-35311657D01*
X44296950Y-35311658D01*
X44287971Y-35329280D01*
X44239352Y-35424698D01*
X44224500Y-35518475D01*
X44224500Y-35981517D01*
X44232258Y-36030499D01*
X44239354Y-36075304D01*
X44296950Y-36188342D01*
X44296952Y-36188344D01*
X44296954Y-36188347D01*
X44386652Y-36278045D01*
X44386654Y-36278046D01*
X44386658Y-36278050D01*
X44499696Y-36335646D01*
X44499698Y-36335647D01*
X44593475Y-36350499D01*
X44593481Y-36350500D01*
X45024166Y-36350499D01*
X45091205Y-36370183D01*
X45111847Y-36386818D01*
X45289181Y-36564152D01*
X45303884Y-36591079D01*
X45320477Y-36616898D01*
X45321368Y-36623098D01*
X45322666Y-36625475D01*
X45325500Y-36651833D01*
X45325500Y-36675500D01*
X45305815Y-36742539D01*
X45253011Y-36788294D01*
X45201500Y-36799500D01*
X44593482Y-36799500D01*
X44512519Y-36812323D01*
X44499696Y-36814354D01*
X44386658Y-36871950D01*
X44386657Y-36871951D01*
X44386652Y-36871954D01*
X44296954Y-36961652D01*
X44296951Y-36961657D01*
X44239352Y-37074698D01*
X44224500Y-37168475D01*
X44224500Y-37631517D01*
X44234921Y-37697314D01*
X44239354Y-37725304D01*
X44296950Y-37838342D01*
X44386658Y-37928050D01*
X44386660Y-37928051D01*
X44386663Y-37928054D01*
X44394557Y-37933790D01*
X44392916Y-37936047D01*
X44406703Y-37942344D01*
X44417740Y-37959519D01*
X44432584Y-37973535D01*
X44436827Y-37989219D01*
X44444477Y-38001122D01*
X44449500Y-38036057D01*
X44449500Y-38113942D01*
X44429815Y-38180981D01*
X44393094Y-38214209D01*
X44394552Y-38216215D01*
X44381333Y-38225819D01*
X44315526Y-38249298D01*
X44308448Y-38249500D01*
X44074500Y-38249500D01*
X44007461Y-38229815D01*
X43961706Y-38177011D01*
X43950500Y-38125500D01*
X43950500Y-35535732D01*
X43947646Y-35505301D01*
X43947646Y-35505299D01*
X43902793Y-35377120D01*
X43902793Y-35377119D01*
X43862471Y-35322485D01*
X43822149Y-35267850D01*
X43748121Y-35213216D01*
X43712881Y-35187207D01*
X43712879Y-35187206D01*
X43584699Y-35142353D01*
X43554268Y-35139500D01*
X43554264Y-35139500D01*
X34545736Y-35139500D01*
X34545732Y-35139500D01*
X34515301Y-35142353D01*
X34515299Y-35142353D01*
X34387120Y-35187206D01*
X34277850Y-35267850D01*
X34197206Y-35377120D01*
X34152353Y-35505299D01*
X34152353Y-35505301D01*
X34149500Y-35535732D01*
X34149500Y-40165500D01*
X34129815Y-40232539D01*
X34077011Y-40278294D01*
X34025500Y-40289500D01*
X32460480Y-40289500D01*
X32393441Y-40269815D01*
X32359968Y-40233371D01*
X32358311Y-40234595D01*
X32352792Y-40227117D01*
X32272150Y-40117850D01*
X32162882Y-40037207D01*
X32162880Y-40037206D01*
X32034700Y-39992353D01*
X32004270Y-39989500D01*
X32004266Y-39989500D01*
X27795734Y-39989500D01*
X27795730Y-39989500D01*
X27765300Y-39992353D01*
X27765298Y-39992353D01*
X27637119Y-40037206D01*
X27637117Y-40037207D01*
X27527850Y-40117850D01*
X27447207Y-40227117D01*
X27447206Y-40227119D01*
X27402353Y-40355298D01*
X27402353Y-40355300D01*
X27399500Y-40385730D01*
X27399500Y-41094269D01*
X27402353Y-41124699D01*
X27402353Y-41124701D01*
X27447206Y-41252880D01*
X27447207Y-41252882D01*
X27527850Y-41362150D01*
X27637118Y-41442793D01*
X27679845Y-41457744D01*
X27765299Y-41487646D01*
X27795730Y-41490500D01*
X27795734Y-41490500D01*
X32004270Y-41490500D01*
X32034699Y-41487646D01*
X32034701Y-41487646D01*
X32098790Y-41465219D01*
X32162882Y-41442793D01*
X32272150Y-41362150D01*
X32352793Y-41252882D01*
X32352794Y-41252880D01*
X32358311Y-41245405D01*
X32360285Y-41246862D01*
X32399580Y-41206485D01*
X32460480Y-41190500D01*
X34025500Y-41190500D01*
X34092539Y-41210185D01*
X34138294Y-41262989D01*
X34149500Y-41314500D01*
X34149500Y-45944267D01*
X34152353Y-45974698D01*
X34152353Y-45974700D01*
X34197206Y-46102879D01*
X34197207Y-46102881D01*
X34212047Y-46122988D01*
X34277850Y-46212149D01*
X34311342Y-46236867D01*
X34387119Y-46292793D01*
X34429846Y-46307744D01*
X34515300Y-46337646D01*
X34545732Y-46340500D01*
X34545736Y-46340500D01*
X43554268Y-46340500D01*
X43584698Y-46337646D01*
X43584700Y-46337646D01*
X43661034Y-46310935D01*
X43712881Y-46292793D01*
X43822149Y-46212149D01*
X43902793Y-46102881D01*
X43926280Y-46035758D01*
X43947646Y-45974700D01*
X43947646Y-45974698D01*
X43950500Y-45944267D01*
X43950500Y-41214812D01*
X43970185Y-41147773D01*
X44022989Y-41102018D01*
X44092147Y-41092074D01*
X44155703Y-41121099D01*
X44162181Y-41127131D01*
X44190122Y-41155072D01*
X44335604Y-41243019D01*
X44335603Y-41243019D01*
X44497894Y-41293590D01*
X44497892Y-41293590D01*
X44568418Y-41299999D01*
X44649999Y-41299998D01*
X44650000Y-41299998D01*
X44650000Y-40650000D01*
X45150000Y-40650000D01*
X45150000Y-41299999D01*
X45231581Y-41299999D01*
X45302102Y-41293591D01*
X45302107Y-41293590D01*
X45464396Y-41243018D01*
X45609877Y-41155072D01*
X45654772Y-41110177D01*
X45716095Y-41076691D01*
X45785786Y-41081675D01*
X45841720Y-41123546D01*
X45854276Y-41148192D01*
X45855198Y-41147742D01*
X45910803Y-41261485D01*
X45993514Y-41344196D01*
X45993515Y-41344196D01*
X45993517Y-41344198D01*
X46098607Y-41395573D01*
X46132673Y-41400536D01*
X46166739Y-41405500D01*
X46166740Y-41405500D01*
X47833261Y-41405500D01*
X47855971Y-41402191D01*
X47901393Y-41395573D01*
X48006483Y-41344198D01*
X48089198Y-41261483D01*
X48140573Y-41156393D01*
X48150500Y-41088260D01*
X48150500Y-40721740D01*
X48140573Y-40653607D01*
X48089198Y-40548517D01*
X48089196Y-40548515D01*
X48089196Y-40548514D01*
X48006485Y-40465803D01*
X47901391Y-40414426D01*
X47833261Y-40404500D01*
X47833260Y-40404500D01*
X46166740Y-40404500D01*
X46166739Y-40404500D01*
X46098608Y-40414426D01*
X45993514Y-40465803D01*
X45910802Y-40548515D01*
X45899554Y-40571524D01*
X45895243Y-40580345D01*
X45895187Y-40580459D01*
X45848060Y-40632042D01*
X45783786Y-40650000D01*
X45150000Y-40650000D01*
X44650000Y-40650000D01*
X44650000Y-40524000D01*
X44669685Y-40456961D01*
X44722489Y-40411206D01*
X44774000Y-40400000D01*
X44900000Y-40400000D01*
X44900000Y-40274000D01*
X44919685Y-40206961D01*
X44972489Y-40161206D01*
X45024000Y-40150000D01*
X45874997Y-40150000D01*
X45902222Y-40122775D01*
X45963545Y-40089290D01*
X46033237Y-40094274D01*
X46044364Y-40099056D01*
X46098604Y-40125572D01*
X46098607Y-40125573D01*
X46166739Y-40135500D01*
X46166740Y-40135500D01*
X47833261Y-40135500D01*
X47855971Y-40132191D01*
X47901393Y-40125573D01*
X48006483Y-40074198D01*
X48089198Y-39991483D01*
X48140573Y-39886393D01*
X48150500Y-39818260D01*
X48150500Y-39451740D01*
X48148605Y-39438737D01*
X48140573Y-39383608D01*
X48138575Y-39379520D01*
X48089198Y-39278517D01*
X48089196Y-39278515D01*
X48089196Y-39278514D01*
X48006485Y-39195803D01*
X47988811Y-39187163D01*
X47907601Y-39147462D01*
X47901391Y-39144426D01*
X47833261Y-39134500D01*
X47833260Y-39134500D01*
X46166740Y-39134500D01*
X46166739Y-39134500D01*
X46098608Y-39144426D01*
X46089405Y-39147270D01*
X46088593Y-39144643D01*
X46068986Y-39147462D01*
X46036070Y-39153078D01*
X46034519Y-39152418D01*
X46032853Y-39152658D01*
X46002487Y-39138790D01*
X45971777Y-39125725D01*
X45970830Y-39124333D01*
X45969297Y-39123633D01*
X45951238Y-39095532D01*
X45932478Y-39067955D01*
X45932142Y-39065818D01*
X45931523Y-39064855D01*
X45926500Y-39029920D01*
X45926500Y-38970079D01*
X45946185Y-38903040D01*
X45998989Y-38857285D01*
X46068147Y-38847341D01*
X46089077Y-38853789D01*
X46089405Y-38852730D01*
X46098607Y-38855573D01*
X46166739Y-38865500D01*
X46166740Y-38865500D01*
X47833261Y-38865500D01*
X47855971Y-38862191D01*
X47901393Y-38855573D01*
X48006483Y-38804198D01*
X48006483Y-38804197D01*
X48015714Y-38799685D01*
X48016441Y-38801173D01*
X48071278Y-38782110D01*
X48127324Y-38795624D01*
X48128249Y-38793391D01*
X48135758Y-38796500D01*
X48135763Y-38796503D01*
X48243982Y-38825500D01*
X48243984Y-38825500D01*
X48356016Y-38825500D01*
X48356018Y-38825500D01*
X48464237Y-38796503D01*
X48561263Y-38740485D01*
X48640485Y-38661263D01*
X48696503Y-38564237D01*
X48725500Y-38456018D01*
X48725500Y-38343982D01*
X48696503Y-38235763D01*
X48640485Y-38138737D01*
X48636819Y-38135071D01*
X48603334Y-38073748D01*
X48600500Y-38047390D01*
X48600500Y-36460439D01*
X48600499Y-36460435D01*
X48596455Y-36445341D01*
X48596454Y-36445338D01*
X48594069Y-36436438D01*
X48580022Y-36384012D01*
X48540460Y-36315489D01*
X48539643Y-36314672D01*
X48535783Y-36305793D01*
X48533183Y-36285028D01*
X48525500Y-36256352D01*
X48525500Y-36243984D01*
X48525500Y-36243982D01*
X48496503Y-36135763D01*
X48440485Y-36038737D01*
X48361263Y-35959515D01*
X48264237Y-35903497D01*
X48156018Y-35874500D01*
X48156017Y-35874500D01*
X48150833Y-35874500D01*
X48102984Y-35864896D01*
X48080435Y-35855464D01*
X48064511Y-35839540D01*
X47995989Y-35799979D01*
X47919562Y-35779500D01*
X47898821Y-35779500D01*
X47875860Y-35769896D01*
X47867275Y-35762929D01*
X47856670Y-35759815D01*
X47840630Y-35741304D01*
X47821609Y-35725867D01*
X47818153Y-35715365D01*
X47810915Y-35707011D01*
X47807429Y-35682767D01*
X47799773Y-35659497D01*
X47802544Y-35648794D01*
X47800971Y-35637853D01*
X47816977Y-35592379D01*
X47862031Y-35516195D01*
X47868318Y-35494556D01*
X47905924Y-35435670D01*
X47969396Y-35406463D01*
X48038583Y-35416208D01*
X48075076Y-35441469D01*
X48136652Y-35503045D01*
X48136654Y-35503046D01*
X48136658Y-35503050D01*
X48233611Y-35552450D01*
X48249698Y-35560647D01*
X48343475Y-35575499D01*
X48343481Y-35575500D01*
X48774166Y-35575499D01*
X48841205Y-35595183D01*
X48861847Y-35611818D01*
X49163181Y-35913152D01*
X49196666Y-35974475D01*
X49199500Y-36000833D01*
X49199500Y-39347390D01*
X49179815Y-39414429D01*
X49163181Y-39435071D01*
X49159517Y-39438734D01*
X49159513Y-39438740D01*
X49103498Y-39535760D01*
X49103497Y-39535763D01*
X49074500Y-39643982D01*
X49074500Y-39649167D01*
X49054815Y-39716206D01*
X49038181Y-39736848D01*
X48984541Y-39790487D01*
X48984535Y-39790495D01*
X48944982Y-39859004D01*
X48944979Y-39859009D01*
X48924500Y-39935439D01*
X48924500Y-42420842D01*
X48904815Y-42487881D01*
X48852011Y-42533636D01*
X48782853Y-42543580D01*
X48748096Y-42533224D01*
X48635544Y-42480740D01*
X48588140Y-42474500D01*
X48261867Y-42474500D01*
X48246839Y-42476478D01*
X48214455Y-42480741D01*
X48214453Y-42480742D01*
X48214451Y-42480742D01*
X48110419Y-42529253D01*
X48101535Y-42535475D01*
X48100322Y-42533742D01*
X48051347Y-42560480D01*
X47981656Y-42555489D01*
X47949100Y-42534566D01*
X47948465Y-42535475D01*
X47939580Y-42529254D01*
X47939579Y-42529253D01*
X47835545Y-42480741D01*
X47835543Y-42480740D01*
X47835544Y-42480740D01*
X47788140Y-42474500D01*
X47461867Y-42474500D01*
X47446839Y-42476478D01*
X47414455Y-42480741D01*
X47414453Y-42480742D01*
X47414451Y-42480742D01*
X47310419Y-42529253D01*
X47301535Y-42535475D01*
X47300322Y-42533742D01*
X47251347Y-42560480D01*
X47181656Y-42555489D01*
X47149100Y-42534566D01*
X47148465Y-42535475D01*
X47139580Y-42529254D01*
X47139579Y-42529253D01*
X47035545Y-42480741D01*
X47035543Y-42480740D01*
X47035544Y-42480740D01*
X46988140Y-42474500D01*
X46661867Y-42474500D01*
X46646839Y-42476478D01*
X46614455Y-42480741D01*
X46614453Y-42480742D01*
X46614451Y-42480742D01*
X46510420Y-42529253D01*
X46429253Y-42610420D01*
X46380740Y-42714456D01*
X46374500Y-42761860D01*
X46374500Y-44088132D01*
X46374501Y-44088138D01*
X46380741Y-44135545D01*
X46380742Y-44135547D01*
X46380742Y-44135548D01*
X46419914Y-44219552D01*
X46429253Y-44239579D01*
X46510421Y-44320747D01*
X46549466Y-44338953D01*
X46556852Y-44342398D01*
X46592128Y-44367099D01*
X47235573Y-45010543D01*
X47809541Y-45584511D01*
X47865490Y-45640460D01*
X47865492Y-45640461D01*
X47865496Y-45640464D01*
X47901522Y-45661263D01*
X47934012Y-45680021D01*
X48010439Y-45700500D01*
X50372390Y-45700500D01*
X50439429Y-45720185D01*
X50460071Y-45736819D01*
X50463737Y-45740485D01*
X50560763Y-45796503D01*
X50667181Y-45825017D01*
X50726839Y-45861381D01*
X50757369Y-45924227D01*
X50749075Y-45993603D01*
X50742474Y-46006789D01*
X50725749Y-46035758D01*
X50725747Y-46035763D01*
X50696750Y-46143982D01*
X50696750Y-46256018D01*
X50721257Y-46347478D01*
X50725747Y-46364236D01*
X50725748Y-46364239D01*
X50731080Y-46373474D01*
X50781765Y-46461263D01*
X50781767Y-46461265D01*
X50785431Y-46464929D01*
X50818916Y-46526252D01*
X50821750Y-46552610D01*
X50821750Y-49026916D01*
X50802065Y-49093955D01*
X50785431Y-49114597D01*
X49107363Y-50792664D01*
X49068968Y-50818767D01*
X49053053Y-50825660D01*
X49014455Y-50830741D01*
X48910421Y-50879253D01*
X48895972Y-50893701D01*
X48874286Y-50903095D01*
X48862114Y-50904601D01*
X48851347Y-50910480D01*
X48828087Y-50908814D01*
X48804946Y-50911679D01*
X48793890Y-50906365D01*
X48781656Y-50905489D01*
X48750769Y-50885638D01*
X48748959Y-50884768D01*
X48748465Y-50885475D01*
X48744167Y-50882465D01*
X48741973Y-50881411D01*
X48741452Y-50880564D01*
X48739580Y-50879254D01*
X48739579Y-50879253D01*
X48635545Y-50830741D01*
X48635543Y-50830740D01*
X48635544Y-50830740D01*
X48588140Y-50824500D01*
X48261867Y-50824500D01*
X48246839Y-50826478D01*
X48214455Y-50830741D01*
X48214453Y-50830742D01*
X48214451Y-50830742D01*
X48110419Y-50879253D01*
X48101535Y-50885475D01*
X48100322Y-50883742D01*
X48051347Y-50910480D01*
X47981656Y-50905489D01*
X47949100Y-50884566D01*
X47948465Y-50885475D01*
X47939580Y-50879254D01*
X47939579Y-50879253D01*
X47835545Y-50830741D01*
X47835543Y-50830740D01*
X47835544Y-50830740D01*
X47788140Y-50824500D01*
X47461867Y-50824500D01*
X47446839Y-50826478D01*
X47414455Y-50830741D01*
X47414453Y-50830742D01*
X47414451Y-50830742D01*
X47310419Y-50879253D01*
X47301535Y-50885475D01*
X47300322Y-50883742D01*
X47251347Y-50910480D01*
X47181656Y-50905489D01*
X47149100Y-50884566D01*
X47148465Y-50885475D01*
X47139580Y-50879254D01*
X47139579Y-50879253D01*
X47035545Y-50830741D01*
X47035543Y-50830740D01*
X47035544Y-50830740D01*
X46988140Y-50824500D01*
X46803981Y-50824500D01*
X46736942Y-50804815D01*
X46691187Y-50752011D01*
X46681243Y-50682853D01*
X46684905Y-50665905D01*
X46689525Y-50650000D01*
X44730000Y-50650000D01*
X44730000Y-50726000D01*
X44710315Y-50793039D01*
X44657511Y-50838794D01*
X44606000Y-50850000D01*
X42650001Y-50850000D01*
X42650001Y-50873322D01*
X42660144Y-50972607D01*
X42713452Y-51133481D01*
X42713457Y-51133492D01*
X42802424Y-51277728D01*
X42802427Y-51277732D01*
X42922266Y-51397571D01*
X43022840Y-51459606D01*
X43069564Y-51511554D01*
X43080787Y-51580517D01*
X43052943Y-51644599D01*
X43045426Y-51652825D01*
X43026473Y-51671778D01*
X42965279Y-51791878D01*
X42949500Y-51891506D01*
X42949500Y-52408493D01*
X42965279Y-52508121D01*
X42965280Y-52508124D01*
X42965281Y-52508126D01*
X43026472Y-52628220D01*
X43121780Y-52723528D01*
X43131790Y-52728628D01*
X43182588Y-52776599D01*
X43199500Y-52839115D01*
X43199500Y-52843982D01*
X43199500Y-52956018D01*
X43222912Y-53043391D01*
X43228497Y-53064236D01*
X43228498Y-53064239D01*
X43247169Y-53096579D01*
X43284515Y-53161263D01*
X43363737Y-53240485D01*
X43408458Y-53266304D01*
X43411590Y-53268113D01*
X43459806Y-53318680D01*
X43473029Y-53387287D01*
X43447060Y-53452152D01*
X43390146Y-53492680D01*
X43349590Y-53499500D01*
X20003051Y-53499500D01*
X19996968Y-53499351D01*
X19976900Y-53498365D01*
X19663071Y-53482947D01*
X19650962Y-53481754D01*
X19323305Y-53433151D01*
X19311369Y-53430777D01*
X18990055Y-53350292D01*
X18978411Y-53346759D01*
X18666540Y-53235170D01*
X18655301Y-53230515D01*
X18355844Y-53088883D01*
X18345121Y-53083150D01*
X18107144Y-52940513D01*
X18061011Y-52912862D01*
X18050893Y-52906102D01*
X17784829Y-52708775D01*
X17775423Y-52701055D01*
X17711368Y-52642999D01*
X17529986Y-52478604D01*
X17521395Y-52470013D01*
X17298944Y-52224576D01*
X17291224Y-52215170D01*
X17093897Y-51949106D01*
X17087137Y-51938988D01*
X17075457Y-51919501D01*
X16916844Y-51654871D01*
X16911120Y-51644163D01*
X16769479Y-51344688D01*
X16764829Y-51333459D01*
X16760754Y-51322071D01*
X16685540Y-51111861D01*
X16653240Y-51021588D01*
X16649707Y-51009944D01*
X16637355Y-50960632D01*
X16569219Y-50688617D01*
X16566848Y-50676694D01*
X16565323Y-50666415D01*
X16518245Y-50349037D01*
X16517052Y-50336927D01*
X16517030Y-50336488D01*
X16500649Y-50003032D01*
X16500500Y-49996948D01*
X16500500Y-48875013D01*
X35825000Y-48875013D01*
X35825000Y-49425000D01*
X36741988Y-49425000D01*
X36709075Y-49482007D01*
X36675000Y-49609174D01*
X36675000Y-49740826D01*
X36709075Y-49867993D01*
X36741988Y-49925000D01*
X35825001Y-49925000D01*
X35825001Y-50474986D01*
X35835494Y-50577697D01*
X35890641Y-50744119D01*
X35890643Y-50744124D01*
X35982684Y-50893345D01*
X36106654Y-51017315D01*
X36255875Y-51109356D01*
X36255880Y-51109358D01*
X36422302Y-51164505D01*
X36422309Y-51164506D01*
X36525019Y-51174999D01*
X36924999Y-51174999D01*
X36925000Y-51174998D01*
X36925000Y-50108012D01*
X36982007Y-50140925D01*
X37109174Y-50175000D01*
X37240826Y-50175000D01*
X37367993Y-50140925D01*
X37425000Y-50108012D01*
X37425000Y-51174999D01*
X37824972Y-51174999D01*
X37824986Y-51174998D01*
X37927697Y-51164505D01*
X38094119Y-51109358D01*
X38094124Y-51109356D01*
X38243345Y-51017315D01*
X38367315Y-50893345D01*
X38459356Y-50744124D01*
X38459358Y-50744119D01*
X38514505Y-50577697D01*
X38514506Y-50577690D01*
X38524999Y-50474986D01*
X38524999Y-50403528D01*
X38544683Y-50336488D01*
X38597486Y-50290732D01*
X38666644Y-50280788D01*
X38730200Y-50309812D01*
X38752101Y-50334635D01*
X38859022Y-50494655D01*
X39005342Y-50640975D01*
X39005345Y-50640977D01*
X39177402Y-50755941D01*
X39368580Y-50835130D01*
X39571530Y-50875499D01*
X39571534Y-50875500D01*
X39571535Y-50875500D01*
X39778466Y-50875500D01*
X39778467Y-50875499D01*
X39981420Y-50835130D01*
X40172598Y-50755941D01*
X40344655Y-50640977D01*
X40490977Y-50494655D01*
X40605941Y-50322598D01*
X40685130Y-50131420D01*
X40696291Y-50075307D01*
X40728675Y-50013399D01*
X40789390Y-49978824D01*
X40817908Y-49975500D01*
X42571893Y-49975500D01*
X42638932Y-49995185D01*
X42684687Y-50047989D01*
X42694631Y-50117147D01*
X42689599Y-50138504D01*
X42660144Y-50227393D01*
X42650000Y-50326677D01*
X42650000Y-50350000D01*
X44070000Y-50350000D01*
X44070000Y-50274000D01*
X44089685Y-50206961D01*
X44142489Y-50161206D01*
X44194000Y-50150000D01*
X46689526Y-50150000D01*
X46689525Y-50149999D01*
X46653156Y-50024814D01*
X46653154Y-50024808D01*
X46572773Y-49888891D01*
X46572767Y-49888883D01*
X46461116Y-49777232D01*
X46454948Y-49772448D01*
X46455772Y-49771384D01*
X46413690Y-49726307D01*
X46400499Y-49670656D01*
X46400499Y-49436862D01*
X46394259Y-49389455D01*
X46345747Y-49285421D01*
X46345746Y-49285420D01*
X46345746Y-49285419D01*
X46339525Y-49276535D01*
X46341258Y-49275321D01*
X46314522Y-49226358D01*
X46319506Y-49156666D01*
X46340434Y-49124101D01*
X46339525Y-49123465D01*
X46345742Y-49114583D01*
X46345747Y-49114579D01*
X46394259Y-49010545D01*
X46400500Y-48963139D01*
X46400499Y-48636862D01*
X46394259Y-48589455D01*
X46345747Y-48485421D01*
X46345746Y-48485420D01*
X46345746Y-48485419D01*
X46339525Y-48476535D01*
X46341258Y-48475321D01*
X46314522Y-48426358D01*
X46319506Y-48356666D01*
X46340434Y-48324101D01*
X46339525Y-48323465D01*
X46345742Y-48314583D01*
X46345747Y-48314579D01*
X46394259Y-48210545D01*
X46400500Y-48163139D01*
X46400499Y-47836862D01*
X46394259Y-47789455D01*
X46345747Y-47685421D01*
X46345746Y-47685420D01*
X46345746Y-47685419D01*
X46339525Y-47676535D01*
X46341258Y-47675321D01*
X46314522Y-47626358D01*
X46319506Y-47556666D01*
X46340434Y-47524101D01*
X46339525Y-47523465D01*
X46345742Y-47514583D01*
X46345747Y-47514579D01*
X46394259Y-47410545D01*
X46400500Y-47363139D01*
X46400499Y-47036862D01*
X46394259Y-46989455D01*
X46345747Y-46885421D01*
X46345746Y-46885420D01*
X46345746Y-46885419D01*
X46339525Y-46876535D01*
X46341258Y-46875321D01*
X46314522Y-46826358D01*
X46319506Y-46756666D01*
X46340434Y-46724101D01*
X46339525Y-46723465D01*
X46345742Y-46714583D01*
X46345747Y-46714579D01*
X46394259Y-46610545D01*
X46400500Y-46563139D01*
X46400499Y-46236862D01*
X46394259Y-46189455D01*
X46345747Y-46085421D01*
X46345746Y-46085420D01*
X46345746Y-46085419D01*
X46339525Y-46076535D01*
X46341258Y-46075321D01*
X46314522Y-46026358D01*
X46319506Y-45956666D01*
X46340434Y-45924101D01*
X46339525Y-45923465D01*
X46345742Y-45914583D01*
X46345747Y-45914579D01*
X46394259Y-45810545D01*
X46400500Y-45763139D01*
X46400499Y-45436862D01*
X46394259Y-45389455D01*
X46345747Y-45285421D01*
X46345746Y-45285420D01*
X46345746Y-45285419D01*
X46339525Y-45276535D01*
X46341258Y-45275321D01*
X46314522Y-45226358D01*
X46319506Y-45156666D01*
X46340434Y-45124101D01*
X46339525Y-45123465D01*
X46345742Y-45114583D01*
X46345747Y-45114579D01*
X46394259Y-45010545D01*
X46400500Y-44963139D01*
X46400499Y-44636862D01*
X46394259Y-44589455D01*
X46345747Y-44485421D01*
X46264579Y-44404253D01*
X46244552Y-44394914D01*
X46244551Y-44394913D01*
X46160544Y-44355740D01*
X46113139Y-44349500D01*
X44786867Y-44349500D01*
X44771839Y-44351478D01*
X44739455Y-44355741D01*
X44739453Y-44355742D01*
X44739451Y-44355742D01*
X44635420Y-44404253D01*
X44554253Y-44485420D01*
X44505740Y-44589456D01*
X44499500Y-44636859D01*
X44499500Y-44963132D01*
X44499501Y-44963138D01*
X44505741Y-45010545D01*
X44505742Y-45010547D01*
X44505742Y-45010548D01*
X44554253Y-45114580D01*
X44560475Y-45123465D01*
X44558742Y-45124677D01*
X44585480Y-45173653D01*
X44580489Y-45243344D01*
X44559566Y-45275899D01*
X44560475Y-45276535D01*
X44554254Y-45285419D01*
X44505740Y-45389456D01*
X44499500Y-45436859D01*
X44499500Y-45763132D01*
X44499501Y-45763138D01*
X44505741Y-45810545D01*
X44505742Y-45810547D01*
X44505742Y-45810548D01*
X44554253Y-45914580D01*
X44560475Y-45923465D01*
X44558742Y-45924677D01*
X44585480Y-45973653D01*
X44580489Y-46043344D01*
X44559566Y-46075899D01*
X44560475Y-46076535D01*
X44554254Y-46085419D01*
X44505740Y-46189456D01*
X44499500Y-46236859D01*
X44499500Y-46563132D01*
X44499501Y-46563138D01*
X44505741Y-46610545D01*
X44505742Y-46610547D01*
X44505742Y-46610548D01*
X44554253Y-46714580D01*
X44560475Y-46723465D01*
X44558742Y-46724677D01*
X44585480Y-46773653D01*
X44580489Y-46843344D01*
X44559566Y-46875899D01*
X44560475Y-46876535D01*
X44554254Y-46885419D01*
X44505740Y-46989456D01*
X44499500Y-47036859D01*
X44499500Y-47363132D01*
X44499501Y-47363138D01*
X44505741Y-47410545D01*
X44505742Y-47410547D01*
X44505742Y-47410548D01*
X44554253Y-47514580D01*
X44560475Y-47523465D01*
X44558742Y-47524677D01*
X44585480Y-47573653D01*
X44580489Y-47643344D01*
X44559566Y-47675899D01*
X44560475Y-47676535D01*
X44554254Y-47685419D01*
X44505740Y-47789456D01*
X44499500Y-47836859D01*
X44499500Y-48163132D01*
X44499501Y-48163138D01*
X44505741Y-48210545D01*
X44505742Y-48210547D01*
X44505742Y-48210548D01*
X44554253Y-48314580D01*
X44560475Y-48323465D01*
X44558742Y-48324677D01*
X44585480Y-48373653D01*
X44580489Y-48443344D01*
X44559566Y-48475899D01*
X44560475Y-48476535D01*
X44554254Y-48485419D01*
X44505740Y-48589456D01*
X44499500Y-48636859D01*
X44499500Y-48963132D01*
X44499501Y-48963138D01*
X44505741Y-49010545D01*
X44505742Y-49010547D01*
X44505742Y-49010548D01*
X44554253Y-49114580D01*
X44560475Y-49123465D01*
X44558742Y-49124677D01*
X44585480Y-49173653D01*
X44580489Y-49243344D01*
X44570368Y-49264249D01*
X44562596Y-49277077D01*
X44554253Y-49285421D01*
X44543258Y-49308998D01*
X44539775Y-49314749D01*
X44518751Y-49333965D01*
X44499927Y-49355345D01*
X44493248Y-49357277D01*
X44488203Y-49361889D01*
X44461570Y-49366442D01*
X44433718Y-49374500D01*
X40817908Y-49374500D01*
X40750869Y-49354815D01*
X40705114Y-49302011D01*
X40696292Y-49274696D01*
X40685130Y-49218580D01*
X40605941Y-49027402D01*
X40490977Y-48855345D01*
X40490975Y-48855342D01*
X40344657Y-48709024D01*
X40228996Y-48631743D01*
X40172598Y-48594059D01*
X40161485Y-48589456D01*
X39981420Y-48514870D01*
X39981412Y-48514868D01*
X39778469Y-48474500D01*
X39778465Y-48474500D01*
X39571535Y-48474500D01*
X39571530Y-48474500D01*
X39368587Y-48514868D01*
X39368579Y-48514870D01*
X39177403Y-48594058D01*
X39005342Y-48709024D01*
X38859024Y-48855342D01*
X38786998Y-48963139D01*
X38755321Y-49010548D01*
X38752102Y-49015365D01*
X38698489Y-49060171D01*
X38629165Y-49068878D01*
X38566137Y-49038724D01*
X38529417Y-48979281D01*
X38524999Y-48946475D01*
X38524999Y-48875028D01*
X38524998Y-48875012D01*
X38514505Y-48772302D01*
X38459358Y-48605880D01*
X38459356Y-48605875D01*
X38367315Y-48456654D01*
X38243345Y-48332684D01*
X38094124Y-48240643D01*
X38094119Y-48240641D01*
X37927697Y-48185494D01*
X37927690Y-48185493D01*
X37824986Y-48175000D01*
X37425000Y-48175000D01*
X37425000Y-49241988D01*
X37367993Y-49209075D01*
X37240826Y-49175000D01*
X37109174Y-49175000D01*
X36982007Y-49209075D01*
X36925000Y-49241988D01*
X36925000Y-48175000D01*
X36525028Y-48175000D01*
X36525012Y-48175001D01*
X36422302Y-48185494D01*
X36255880Y-48240641D01*
X36255875Y-48240643D01*
X36106654Y-48332684D01*
X35982684Y-48456654D01*
X35890643Y-48605875D01*
X35890641Y-48605880D01*
X35835494Y-48772302D01*
X35835493Y-48772309D01*
X35825000Y-48875013D01*
X16500500Y-48875013D01*
X16500500Y-43629986D01*
X27100001Y-43629986D01*
X27110494Y-43732697D01*
X27165641Y-43899119D01*
X27165643Y-43899124D01*
X27257684Y-44048345D01*
X27381654Y-44172315D01*
X27530875Y-44264356D01*
X27530880Y-44264358D01*
X27697302Y-44319505D01*
X27697309Y-44319506D01*
X27800019Y-44329999D01*
X29649999Y-44329999D01*
X30150000Y-44329999D01*
X31999972Y-44329999D01*
X31999986Y-44329998D01*
X32102697Y-44319505D01*
X32269119Y-44264358D01*
X32269124Y-44264356D01*
X32418345Y-44172315D01*
X32542315Y-44048345D01*
X32634356Y-43899124D01*
X32634358Y-43899119D01*
X32689505Y-43732697D01*
X32689506Y-43732690D01*
X32699999Y-43629986D01*
X32700000Y-43629973D01*
X32700000Y-43530000D01*
X30150000Y-43530000D01*
X30150000Y-44329999D01*
X29649999Y-44329999D01*
X29650000Y-44329998D01*
X29650000Y-43530000D01*
X27100001Y-43530000D01*
X27100001Y-43629986D01*
X16500500Y-43629986D01*
X16500500Y-41146530D01*
X18799500Y-41146530D01*
X18799500Y-41353469D01*
X18839868Y-41556412D01*
X18839870Y-41556420D01*
X18919059Y-41747598D01*
X18927022Y-41759515D01*
X19034024Y-41919657D01*
X19180342Y-42065975D01*
X19180345Y-42065977D01*
X19352402Y-42180941D01*
X19543580Y-42260130D01*
X19706955Y-42292627D01*
X19746530Y-42300499D01*
X19746534Y-42300500D01*
X19746535Y-42300500D01*
X20253466Y-42300500D01*
X20253467Y-42300499D01*
X20456420Y-42260130D01*
X20577591Y-42209938D01*
X20625044Y-42200500D01*
X22806384Y-42200500D01*
X23775500Y-42200500D01*
X23842539Y-42220185D01*
X23888294Y-42272989D01*
X23899500Y-42324500D01*
X23899500Y-43054269D01*
X23902353Y-43084699D01*
X23902353Y-43084701D01*
X23940021Y-43192346D01*
X23947207Y-43212882D01*
X24027850Y-43322150D01*
X24137118Y-43402793D01*
X24179845Y-43417744D01*
X24265299Y-43447646D01*
X24295730Y-43450500D01*
X24295734Y-43450500D01*
X25704270Y-43450500D01*
X25734699Y-43447646D01*
X25734701Y-43447646D01*
X25798790Y-43425219D01*
X25862882Y-43402793D01*
X25972150Y-43322150D01*
X26052793Y-43212882D01*
X26078737Y-43138737D01*
X26097646Y-43084701D01*
X26097646Y-43084699D01*
X26100500Y-43054269D01*
X26100500Y-42930013D01*
X27100000Y-42930013D01*
X27100000Y-43030000D01*
X29650000Y-43030000D01*
X30150000Y-43030000D01*
X32699999Y-43030000D01*
X32699999Y-42930028D01*
X32699998Y-42930013D01*
X32689505Y-42827302D01*
X32634358Y-42660880D01*
X32634356Y-42660875D01*
X32542315Y-42511654D01*
X32418345Y-42387684D01*
X32269124Y-42295643D01*
X32269119Y-42295641D01*
X32102697Y-42240494D01*
X32102690Y-42240493D01*
X31999986Y-42230000D01*
X30150000Y-42230000D01*
X30150000Y-43030000D01*
X29650000Y-43030000D01*
X29650000Y-42230000D01*
X27800028Y-42230000D01*
X27800012Y-42230001D01*
X27697302Y-42240494D01*
X27530880Y-42295641D01*
X27530875Y-42295643D01*
X27381654Y-42387684D01*
X27257684Y-42511654D01*
X27165643Y-42660875D01*
X27165641Y-42660880D01*
X27110494Y-42827302D01*
X27110493Y-42827309D01*
X27100000Y-42930013D01*
X26100500Y-42930013D01*
X26100500Y-40945730D01*
X26097646Y-40915300D01*
X26097646Y-40915298D01*
X26062728Y-40815511D01*
X26052793Y-40787118D01*
X25972150Y-40677850D01*
X25862882Y-40597207D01*
X25862880Y-40597206D01*
X25734700Y-40552353D01*
X25704270Y-40549500D01*
X25704266Y-40549500D01*
X24945073Y-40549500D01*
X24878034Y-40529815D01*
X24857392Y-40513181D01*
X24855911Y-40511700D01*
X24855907Y-40511697D01*
X24700236Y-40407680D01*
X24700223Y-40407673D01*
X24580865Y-40358235D01*
X24580866Y-40358235D01*
X24573782Y-40355301D01*
X24527251Y-40336027D01*
X24435433Y-40317763D01*
X24431000Y-40316881D01*
X24430992Y-40316879D01*
X24343620Y-40299500D01*
X24343617Y-40299500D01*
X24343616Y-40299500D01*
X22993616Y-40299500D01*
X20625044Y-40299500D01*
X20577591Y-40290061D01*
X20456420Y-40239870D01*
X20456412Y-40239868D01*
X20253469Y-40199500D01*
X20253465Y-40199500D01*
X19746535Y-40199500D01*
X19746530Y-40199500D01*
X19543587Y-40239868D01*
X19543579Y-40239870D01*
X19352403Y-40319058D01*
X19180342Y-40434024D01*
X19034024Y-40580342D01*
X18919058Y-40752403D01*
X18839870Y-40943579D01*
X18839868Y-40943587D01*
X18799500Y-41146530D01*
X16500500Y-41146530D01*
X16500500Y-38095730D01*
X18799500Y-38095730D01*
X18799500Y-39404269D01*
X18802353Y-39434699D01*
X18802353Y-39434701D01*
X18845142Y-39556981D01*
X18847207Y-39562882D01*
X18927850Y-39672150D01*
X19037118Y-39752793D01*
X19046335Y-39756018D01*
X19165299Y-39797646D01*
X19195730Y-39800500D01*
X19195734Y-39800500D01*
X20804270Y-39800500D01*
X20834699Y-39797646D01*
X20834701Y-39797646D01*
X20898790Y-39775219D01*
X20962882Y-39752793D01*
X21072150Y-39672150D01*
X21152793Y-39562882D01*
X21152794Y-39562880D01*
X21158311Y-39555405D01*
X21160285Y-39556862D01*
X21199580Y-39516485D01*
X21260480Y-39500500D01*
X24323920Y-39500500D01*
X24454369Y-39474551D01*
X24468913Y-39471658D01*
X24483372Y-39465668D01*
X24497206Y-39459939D01*
X24544658Y-39450500D01*
X25704270Y-39450500D01*
X25734699Y-39447646D01*
X25734701Y-39447646D01*
X25798790Y-39425219D01*
X25862882Y-39402793D01*
X25972150Y-39322150D01*
X26052793Y-39212882D01*
X26080220Y-39134500D01*
X26097646Y-39084701D01*
X26097646Y-39084699D01*
X26099689Y-39062921D01*
X26125547Y-38998013D01*
X26182393Y-38957388D01*
X26223147Y-38950500D01*
X32004270Y-38950500D01*
X32034699Y-38947646D01*
X32034701Y-38947646D01*
X32098790Y-38925219D01*
X32162882Y-38902793D01*
X32272150Y-38822150D01*
X32352793Y-38712882D01*
X32375219Y-38648790D01*
X32397646Y-38584701D01*
X32397646Y-38584699D01*
X32400500Y-38554269D01*
X32400500Y-37845730D01*
X32397646Y-37815300D01*
X32397646Y-37815298D01*
X32357328Y-37700079D01*
X32352793Y-37687118D01*
X32272150Y-37577850D01*
X32162882Y-37497207D01*
X32162880Y-37497206D01*
X32034700Y-37452353D01*
X32004270Y-37449500D01*
X32004266Y-37449500D01*
X29973918Y-37449500D01*
X26224500Y-37449500D01*
X26157461Y-37429815D01*
X26111706Y-37377011D01*
X26100500Y-37325500D01*
X26100500Y-36945730D01*
X26097646Y-36915300D01*
X26097646Y-36915298D01*
X26057126Y-36799501D01*
X26052793Y-36787118D01*
X25972150Y-36677850D01*
X25862882Y-36597207D01*
X25862880Y-36597206D01*
X25734700Y-36552353D01*
X25704270Y-36549500D01*
X25704266Y-36549500D01*
X24295734Y-36549500D01*
X24295730Y-36549500D01*
X24265300Y-36552353D01*
X24265298Y-36552353D01*
X24137119Y-36597206D01*
X24137117Y-36597207D01*
X24027850Y-36677850D01*
X23947207Y-36787117D01*
X23947206Y-36787119D01*
X23902353Y-36915298D01*
X23902353Y-36915300D01*
X23899500Y-36945730D01*
X23899500Y-37875500D01*
X23879815Y-37942539D01*
X23827011Y-37988294D01*
X23775500Y-37999500D01*
X21260480Y-37999500D01*
X21193441Y-37979815D01*
X21159968Y-37943371D01*
X21158311Y-37944595D01*
X21152792Y-37937117D01*
X21072150Y-37827850D01*
X20962882Y-37747207D01*
X20962880Y-37747206D01*
X20834700Y-37702353D01*
X20804270Y-37699500D01*
X20804266Y-37699500D01*
X19195734Y-37699500D01*
X19195730Y-37699500D01*
X19165300Y-37702353D01*
X19165298Y-37702353D01*
X19037119Y-37747206D01*
X19037117Y-37747207D01*
X18927850Y-37827850D01*
X18847207Y-37937117D01*
X18847206Y-37937119D01*
X18802353Y-38065298D01*
X18802353Y-38065300D01*
X18799500Y-38095730D01*
X16500500Y-38095730D01*
X16500500Y-31146530D01*
X18799500Y-31146530D01*
X18799500Y-31353469D01*
X18839868Y-31556412D01*
X18839870Y-31556420D01*
X18915103Y-31738049D01*
X18919059Y-31747598D01*
X18944096Y-31785069D01*
X19034024Y-31919657D01*
X19180342Y-32065975D01*
X19180345Y-32065977D01*
X19352402Y-32180941D01*
X19543580Y-32260130D01*
X19726441Y-32296503D01*
X19746530Y-32300499D01*
X19746534Y-32300500D01*
X19746535Y-32300500D01*
X20253466Y-32300500D01*
X20253467Y-32300499D01*
X20456420Y-32260130D01*
X20577591Y-32209938D01*
X20625044Y-32200500D01*
X23775500Y-32200500D01*
X23842539Y-32220185D01*
X23888294Y-32272989D01*
X23899500Y-32324500D01*
X23899500Y-33054269D01*
X23902353Y-33084699D01*
X23902353Y-33084701D01*
X23939148Y-33189851D01*
X23947207Y-33212882D01*
X24027850Y-33322150D01*
X24137118Y-33402793D01*
X24179845Y-33417744D01*
X24265299Y-33447646D01*
X24295730Y-33450500D01*
X24295734Y-33450500D01*
X25704270Y-33450500D01*
X25734699Y-33447646D01*
X25734701Y-33447646D01*
X25798790Y-33425219D01*
X25862882Y-33402793D01*
X25972150Y-33322150D01*
X26052793Y-33212882D01*
X26078737Y-33138737D01*
X26097646Y-33084701D01*
X26097646Y-33084699D01*
X26100500Y-33054269D01*
X26100500Y-32149986D01*
X27100001Y-32149986D01*
X27110494Y-32252697D01*
X27165641Y-32419119D01*
X27165643Y-32419124D01*
X27257684Y-32568345D01*
X27381654Y-32692315D01*
X27530875Y-32784356D01*
X27530880Y-32784358D01*
X27697302Y-32839505D01*
X27697309Y-32839506D01*
X27800019Y-32849999D01*
X29649999Y-32849999D01*
X30150000Y-32849999D01*
X31999972Y-32849999D01*
X31999986Y-32849998D01*
X32102697Y-32839505D01*
X32269119Y-32784358D01*
X32269124Y-32784356D01*
X32418345Y-32692315D01*
X32542315Y-32568345D01*
X32634356Y-32419124D01*
X32634358Y-32419119D01*
X32689505Y-32252697D01*
X32689506Y-32252690D01*
X32699999Y-32149986D01*
X32700000Y-32149973D01*
X32700000Y-32050000D01*
X30150000Y-32050000D01*
X30150000Y-32849999D01*
X29649999Y-32849999D01*
X29650000Y-32849998D01*
X29650000Y-32050000D01*
X27100001Y-32050000D01*
X27100001Y-32149986D01*
X26100500Y-32149986D01*
X26100500Y-31450013D01*
X27100000Y-31450013D01*
X27100000Y-31550000D01*
X29650000Y-31550000D01*
X30150000Y-31550000D01*
X32699999Y-31550000D01*
X32699999Y-31450028D01*
X32699998Y-31450013D01*
X32689505Y-31347302D01*
X32634358Y-31180880D01*
X32634356Y-31180875D01*
X32542315Y-31031654D01*
X32418345Y-30907684D01*
X32269124Y-30815643D01*
X32269119Y-30815641D01*
X32102697Y-30760494D01*
X32102690Y-30760493D01*
X31999986Y-30750000D01*
X30150000Y-30750000D01*
X30150000Y-31550000D01*
X29650000Y-31550000D01*
X29650000Y-30750000D01*
X27800028Y-30750000D01*
X27800012Y-30750001D01*
X27697302Y-30760494D01*
X27530880Y-30815641D01*
X27530875Y-30815643D01*
X27381654Y-30907684D01*
X27257684Y-31031654D01*
X27165643Y-31180875D01*
X27165641Y-31180880D01*
X27110494Y-31347302D01*
X27110493Y-31347309D01*
X27100000Y-31450013D01*
X26100500Y-31450013D01*
X26100500Y-30945730D01*
X26097646Y-30915300D01*
X26097646Y-30915298D01*
X26052793Y-30787119D01*
X26052792Y-30787117D01*
X25972150Y-30677850D01*
X25862882Y-30597207D01*
X25862880Y-30597206D01*
X25734700Y-30552353D01*
X25704270Y-30549500D01*
X25704266Y-30549500D01*
X24945073Y-30549500D01*
X24878034Y-30529815D01*
X24857392Y-30513181D01*
X24855911Y-30511700D01*
X24855907Y-30511697D01*
X24700236Y-30407680D01*
X24700223Y-30407673D01*
X24578071Y-30357077D01*
X24578066Y-30357075D01*
X24570851Y-30354087D01*
X24527251Y-30336027D01*
X24435433Y-30317763D01*
X24431139Y-30316909D01*
X24431136Y-30316908D01*
X24343620Y-30299500D01*
X24343617Y-30299500D01*
X24343616Y-30299500D01*
X20625044Y-30299500D01*
X20577591Y-30290061D01*
X20456420Y-30239870D01*
X20456412Y-30239868D01*
X20253469Y-30199500D01*
X20253465Y-30199500D01*
X19746535Y-30199500D01*
X19746530Y-30199500D01*
X19543587Y-30239868D01*
X19543579Y-30239870D01*
X19352403Y-30319058D01*
X19180342Y-30434024D01*
X19034024Y-30580342D01*
X18919058Y-30752403D01*
X18839870Y-30943579D01*
X18839868Y-30943587D01*
X18799500Y-31146530D01*
X16500500Y-31146530D01*
X16500500Y-28095730D01*
X18799500Y-28095730D01*
X18799500Y-29404269D01*
X18802353Y-29434699D01*
X18802353Y-29434701D01*
X18847206Y-29562880D01*
X18847207Y-29562882D01*
X18927850Y-29672150D01*
X19037118Y-29752793D01*
X19073161Y-29765405D01*
X19165299Y-29797646D01*
X19195730Y-29800500D01*
X19195734Y-29800500D01*
X20804270Y-29800500D01*
X20834699Y-29797646D01*
X20834701Y-29797646D01*
X20905476Y-29772880D01*
X20962882Y-29752793D01*
X21072150Y-29672150D01*
X21152793Y-29562882D01*
X21152794Y-29562880D01*
X21158311Y-29555405D01*
X21160285Y-29556862D01*
X21199580Y-29516485D01*
X21260480Y-29500500D01*
X24323920Y-29500500D01*
X24421462Y-29481096D01*
X24468913Y-29471658D01*
X24483372Y-29465668D01*
X24497206Y-29459939D01*
X24544658Y-29450500D01*
X25704270Y-29450500D01*
X25734699Y-29447646D01*
X25734701Y-29447646D01*
X25798790Y-29425219D01*
X25862882Y-29402793D01*
X25972150Y-29322150D01*
X26052793Y-29212882D01*
X26093234Y-29097309D01*
X26097646Y-29084701D01*
X26097646Y-29084699D01*
X26100500Y-29054269D01*
X26100500Y-28905730D01*
X27399500Y-28905730D01*
X27399500Y-29614269D01*
X27402353Y-29644699D01*
X27402353Y-29644701D01*
X27447206Y-29772880D01*
X27447207Y-29772882D01*
X27527850Y-29882150D01*
X27637118Y-29962793D01*
X27679845Y-29977744D01*
X27765299Y-30007646D01*
X27795730Y-30010500D01*
X27795734Y-30010500D01*
X32004270Y-30010500D01*
X32034699Y-30007646D01*
X32034701Y-30007646D01*
X32098790Y-29985219D01*
X32162882Y-29962793D01*
X32272150Y-29882150D01*
X32352793Y-29772882D01*
X32352794Y-29772880D01*
X32358311Y-29765405D01*
X32360285Y-29766862D01*
X32399580Y-29726485D01*
X32460480Y-29710500D01*
X34025500Y-29710500D01*
X34092539Y-29730185D01*
X34138294Y-29782989D01*
X34149500Y-29834500D01*
X34149500Y-34464267D01*
X34152353Y-34494698D01*
X34152353Y-34494700D01*
X34197206Y-34622879D01*
X34277850Y-34732149D01*
X34324377Y-34766487D01*
X34387119Y-34812793D01*
X34423431Y-34825499D01*
X34515300Y-34857646D01*
X34545732Y-34860500D01*
X34545736Y-34860500D01*
X43554268Y-34860500D01*
X43584698Y-34857646D01*
X43584700Y-34857646D01*
X43651860Y-34834145D01*
X43712881Y-34812793D01*
X43822149Y-34732149D01*
X43902793Y-34622881D01*
X43928295Y-34550000D01*
X43947646Y-34494700D01*
X43947646Y-34494698D01*
X43950500Y-34464267D01*
X43950500Y-31799500D01*
X43970185Y-31732461D01*
X44022989Y-31686706D01*
X44074500Y-31675500D01*
X44257746Y-31675500D01*
X44284446Y-31683340D01*
X44311895Y-31687948D01*
X44320148Y-31693823D01*
X44324785Y-31695185D01*
X44341130Y-31707722D01*
X44343316Y-31709708D01*
X44386658Y-31753050D01*
X44396592Y-31758111D01*
X44408884Y-31769279D01*
X44418775Y-31785495D01*
X44432584Y-31798535D01*
X44437252Y-31815790D01*
X44445266Y-31828929D01*
X44444909Y-31844089D01*
X44449500Y-31861057D01*
X44449500Y-31938942D01*
X44429815Y-32005981D01*
X44393095Y-32039209D01*
X44394552Y-32041214D01*
X44386657Y-32046950D01*
X44296954Y-32136652D01*
X44296951Y-32136657D01*
X44239352Y-32249698D01*
X44224500Y-32343475D01*
X44224500Y-32806517D01*
X44229725Y-32839505D01*
X44239354Y-32900304D01*
X44296950Y-33013342D01*
X44296952Y-33013344D01*
X44296954Y-33013347D01*
X44386652Y-33103045D01*
X44386654Y-33103046D01*
X44386658Y-33103050D01*
X44495080Y-33158294D01*
X44499698Y-33160647D01*
X44593475Y-33175499D01*
X44593481Y-33175500D01*
X45206518Y-33175499D01*
X45300304Y-33160646D01*
X45413342Y-33103050D01*
X45503050Y-33013342D01*
X45560646Y-32900304D01*
X45560646Y-32900302D01*
X45560647Y-32900301D01*
X45575499Y-32806524D01*
X45575500Y-32806519D01*
X45575499Y-32343482D01*
X45560646Y-32249696D01*
X45503050Y-32136658D01*
X45503046Y-32136654D01*
X45503045Y-32136652D01*
X45413343Y-32046950D01*
X45405448Y-32041214D01*
X45407089Y-32038954D01*
X45393297Y-32032655D01*
X45382249Y-32015464D01*
X45367396Y-32001431D01*
X45363158Y-31985757D01*
X45355523Y-31973877D01*
X45350500Y-31938942D01*
X45350500Y-31861057D01*
X45370185Y-31794018D01*
X45406903Y-31760800D01*
X45405443Y-31758790D01*
X45413336Y-31753054D01*
X45413337Y-31753052D01*
X45413342Y-31753050D01*
X45503050Y-31663342D01*
X45560646Y-31550304D01*
X45560646Y-31550302D01*
X45560647Y-31550301D01*
X45573212Y-31470963D01*
X45575500Y-31456519D01*
X45575499Y-30993482D01*
X45560646Y-30899696D01*
X45503050Y-30786658D01*
X45503046Y-30786654D01*
X45503045Y-30786652D01*
X45413347Y-30696954D01*
X45413343Y-30696951D01*
X45413342Y-30696950D01*
X45411724Y-30696126D01*
X45364386Y-30672005D01*
X45313590Y-30624030D01*
X45296796Y-30556209D01*
X45319334Y-30490074D01*
X45374050Y-30446623D01*
X45383792Y-30443135D01*
X45464399Y-30418017D01*
X45609877Y-30330072D01*
X45730072Y-30209877D01*
X45818019Y-30064395D01*
X45868590Y-29902106D01*
X45875000Y-29831572D01*
X45875000Y-29825000D01*
X45024000Y-29825000D01*
X44956961Y-29805315D01*
X44911206Y-29752511D01*
X44900000Y-29701000D01*
X44900000Y-29575000D01*
X44774000Y-29575000D01*
X44706961Y-29555315D01*
X44661206Y-29502511D01*
X44650000Y-29451000D01*
X44650000Y-29325000D01*
X45150000Y-29325000D01*
X45874999Y-29325000D01*
X45874999Y-29318417D01*
X45868591Y-29247897D01*
X45868590Y-29247892D01*
X45818018Y-29085603D01*
X45730072Y-28940122D01*
X45609877Y-28819927D01*
X45464395Y-28731980D01*
X45464396Y-28731980D01*
X45302105Y-28681409D01*
X45302106Y-28681409D01*
X45231572Y-28675000D01*
X45150000Y-28675000D01*
X45150000Y-29325000D01*
X44650000Y-29325000D01*
X44650000Y-28675000D01*
X44649999Y-28674999D01*
X44568417Y-28675000D01*
X44497897Y-28681408D01*
X44497892Y-28681409D01*
X44335603Y-28731981D01*
X44190122Y-28819927D01*
X44190121Y-28819928D01*
X44162181Y-28847869D01*
X44100858Y-28881354D01*
X44031166Y-28876370D01*
X43975233Y-28834498D01*
X43950816Y-28769034D01*
X43950500Y-28760188D01*
X43950500Y-26199995D01*
X46444500Y-26199995D01*
X46444500Y-26200000D01*
X46444500Y-27200000D01*
X46445245Y-27217487D01*
X46473110Y-27304595D01*
X46475180Y-27311065D01*
X46476856Y-27380915D01*
X46468795Y-27402646D01*
X46464851Y-27410834D01*
X46444500Y-27499995D01*
X46444500Y-28650004D01*
X46449651Y-28695728D01*
X46489333Y-28778126D01*
X46489334Y-28778127D01*
X46560837Y-28835149D01*
X46616567Y-28847869D01*
X46649995Y-28855499D01*
X46650000Y-28855500D01*
X46850500Y-28855500D01*
X46917539Y-28875185D01*
X46963294Y-28927989D01*
X46974500Y-28979500D01*
X46974500Y-29056018D01*
X46981482Y-29082073D01*
X47003497Y-29164236D01*
X47003498Y-29164239D01*
X47004111Y-29165300D01*
X47059515Y-29261263D01*
X47138737Y-29340485D01*
X47235763Y-29396503D01*
X47343982Y-29425500D01*
X47343984Y-29425500D01*
X47456016Y-29425500D01*
X47456018Y-29425500D01*
X47564237Y-29396503D01*
X47661263Y-29340485D01*
X47740485Y-29261263D01*
X47775848Y-29200013D01*
X49050000Y-29200013D01*
X49050000Y-29650000D01*
X49875000Y-29650000D01*
X50375000Y-29650000D01*
X51199999Y-29650000D01*
X51199999Y-29200028D01*
X51199998Y-29200013D01*
X51189505Y-29097302D01*
X51134358Y-28930880D01*
X51134353Y-28930869D01*
X51047523Y-28790097D01*
X51029082Y-28722705D01*
X51047523Y-28659903D01*
X51134353Y-28519130D01*
X51134358Y-28519119D01*
X51189505Y-28352697D01*
X51189506Y-28352690D01*
X51199999Y-28249986D01*
X51200000Y-28249973D01*
X51200000Y-27350000D01*
X50375000Y-27350000D01*
X50375000Y-29650000D01*
X49875000Y-29650000D01*
X49875000Y-27350000D01*
X49050001Y-27350000D01*
X49050001Y-28249986D01*
X49060494Y-28352697D01*
X49115641Y-28519119D01*
X49115643Y-28519124D01*
X49202477Y-28659903D01*
X49220917Y-28727296D01*
X49202477Y-28790097D01*
X49115643Y-28930875D01*
X49115641Y-28930880D01*
X49060494Y-29097302D01*
X49060493Y-29097309D01*
X49050000Y-29200013D01*
X47775848Y-29200013D01*
X47796503Y-29164237D01*
X47825500Y-29056018D01*
X47825500Y-28970041D01*
X47826936Y-28960687D01*
X47837899Y-28937271D01*
X47845185Y-28912461D01*
X47852474Y-28906145D01*
X47856564Y-28897410D01*
X47878449Y-28883637D01*
X47897989Y-28866706D01*
X47909244Y-28864257D01*
X47915698Y-28860196D01*
X47927402Y-28860307D01*
X47949500Y-28855500D01*
X48150003Y-28855500D01*
X48150003Y-28855499D01*
X48195728Y-28850348D01*
X48278127Y-28810666D01*
X48335149Y-28739163D01*
X48355500Y-28650000D01*
X48355500Y-27500000D01*
X48342065Y-27426915D01*
X48338769Y-27421972D01*
X48317962Y-27355274D01*
X48330225Y-27299385D01*
X48335144Y-27289169D01*
X48335149Y-27289163D01*
X48355500Y-27200000D01*
X48355500Y-26200000D01*
X48350348Y-26154272D01*
X48342054Y-26137048D01*
X48310666Y-26071872D01*
X48286162Y-26052331D01*
X48286159Y-26052330D01*
X48239163Y-26014851D01*
X48182992Y-26002030D01*
X48170158Y-25995773D01*
X48154465Y-25981466D01*
X48135928Y-25971097D01*
X48129159Y-25958394D01*
X48119966Y-25950013D01*
X49050000Y-25950013D01*
X49050000Y-26850000D01*
X49875000Y-26850000D01*
X50375000Y-26850000D01*
X51199999Y-26850000D01*
X51199999Y-25950028D01*
X51199998Y-25950013D01*
X51189505Y-25847302D01*
X51134358Y-25680880D01*
X51134356Y-25680875D01*
X51042315Y-25531654D01*
X50918345Y-25407684D01*
X50769124Y-25315643D01*
X50769119Y-25315641D01*
X50602697Y-25260494D01*
X50602690Y-25260493D01*
X50499986Y-25250000D01*
X50375000Y-25250000D01*
X50375000Y-26850000D01*
X49875000Y-26850000D01*
X49875000Y-25250000D01*
X49750027Y-25250000D01*
X49750012Y-25250001D01*
X49647302Y-25260494D01*
X49480880Y-25315641D01*
X49480875Y-25315643D01*
X49331654Y-25407684D01*
X49207684Y-25531654D01*
X49115643Y-25680875D01*
X49115641Y-25680880D01*
X49060494Y-25847302D01*
X49060493Y-25847309D01*
X49050000Y-25950013D01*
X48119966Y-25950013D01*
X48118526Y-25948700D01*
X48113059Y-25928180D01*
X48103071Y-25909435D01*
X48100500Y-25884315D01*
X48100500Y-25041519D01*
X48120185Y-24974480D01*
X48136819Y-24953838D01*
X48846675Y-24243982D01*
X60074500Y-24243982D01*
X60074500Y-24356018D01*
X60103497Y-24464237D01*
X60159515Y-24561263D01*
X60238737Y-24640485D01*
X60335763Y-24696503D01*
X60443982Y-24725500D01*
X60449167Y-24725500D01*
X60516206Y-24745185D01*
X60536848Y-24761819D01*
X60765905Y-24990876D01*
X60799390Y-25052199D01*
X60800698Y-25097952D01*
X60799500Y-25105517D01*
X60799500Y-25294486D01*
X60829059Y-25481118D01*
X60887454Y-25660836D01*
X60951799Y-25787119D01*
X60973240Y-25829199D01*
X61084310Y-25982073D01*
X61217927Y-26115690D01*
X61370801Y-26226760D01*
X61450347Y-26267290D01*
X61539163Y-26312545D01*
X61539165Y-26312545D01*
X61539168Y-26312547D01*
X61609188Y-26335298D01*
X61718881Y-26370940D01*
X61905514Y-26400500D01*
X61905519Y-26400500D01*
X62094486Y-26400500D01*
X62281118Y-26370940D01*
X62297140Y-26365734D01*
X62460832Y-26312547D01*
X62629199Y-26226760D01*
X62782073Y-26115690D01*
X62915690Y-25982073D01*
X63026760Y-25829199D01*
X63112547Y-25660832D01*
X63170940Y-25481118D01*
X63182571Y-25407684D01*
X63200500Y-25294486D01*
X63200500Y-25105513D01*
X63170940Y-24918881D01*
X63112545Y-24739163D01*
X63026759Y-24570800D01*
X62915690Y-24417927D01*
X62782073Y-24284310D01*
X62629199Y-24173240D01*
X62460836Y-24087454D01*
X62281118Y-24029059D01*
X62094486Y-23999500D01*
X62094481Y-23999500D01*
X61905519Y-23999500D01*
X61905514Y-23999500D01*
X61718881Y-24029059D01*
X61539163Y-24087454D01*
X61370800Y-24173240D01*
X61217924Y-24284312D01*
X61151283Y-24350952D01*
X61143337Y-24355290D01*
X61137913Y-24362537D01*
X61113154Y-24371771D01*
X61089959Y-24384437D01*
X61080929Y-24383790D01*
X61072449Y-24386954D01*
X61046627Y-24381336D01*
X61020268Y-24379451D01*
X61011215Y-24373633D01*
X61004176Y-24372102D01*
X60975922Y-24350951D01*
X60961819Y-24336848D01*
X60928334Y-24275525D01*
X60925500Y-24249167D01*
X60925500Y-24243984D01*
X60925500Y-24243982D01*
X60896503Y-24135763D01*
X60840485Y-24038737D01*
X60761263Y-23959515D01*
X60664237Y-23903497D01*
X60556018Y-23874500D01*
X60443982Y-23874500D01*
X60335763Y-23903497D01*
X60335760Y-23903498D01*
X60238740Y-23959513D01*
X60238734Y-23959517D01*
X60159517Y-24038734D01*
X60159513Y-24038740D01*
X60103498Y-24135760D01*
X60103497Y-24135763D01*
X60074500Y-24243982D01*
X48846675Y-24243982D01*
X49853838Y-23236819D01*
X49915161Y-23203334D01*
X49941519Y-23200500D01*
X51568996Y-23200500D01*
X51660040Y-23182389D01*
X51704328Y-23173580D01*
X51768069Y-23147177D01*
X51831807Y-23120777D01*
X51831808Y-23120776D01*
X51831811Y-23120775D01*
X51946543Y-23044114D01*
X53399113Y-21591543D01*
X53471479Y-21483241D01*
X53475775Y-21476811D01*
X53506707Y-21402134D01*
X53528580Y-21349329D01*
X53533934Y-21322409D01*
X53555500Y-21213993D01*
X53555500Y-19138265D01*
X53575185Y-19071226D01*
X53583386Y-19059919D01*
X53694698Y-18923407D01*
X53788909Y-18743049D01*
X53844886Y-18547418D01*
X53855500Y-18428037D01*
X53855499Y-18311964D01*
X53844886Y-18192582D01*
X53796133Y-18022199D01*
X53788910Y-17996954D01*
X53788909Y-17996953D01*
X53788909Y-17996951D01*
X53694698Y-17816593D01*
X53613912Y-17717517D01*
X53566109Y-17658890D01*
X53420671Y-17540302D01*
X53408407Y-17530302D01*
X53228049Y-17436091D01*
X53228048Y-17436090D01*
X53228045Y-17436089D01*
X53110829Y-17402550D01*
X53032418Y-17380114D01*
X53032415Y-17380113D01*
X53032413Y-17380113D01*
X52971515Y-17374699D01*
X52913037Y-17369500D01*
X52913031Y-17369500D01*
X52796972Y-17369500D01*
X52796964Y-17369501D01*
X52677584Y-17380113D01*
X52481954Y-17436089D01*
X52391772Y-17483196D01*
X52301593Y-17530302D01*
X52301591Y-17530303D01*
X52301590Y-17530304D01*
X52143890Y-17658890D01*
X52015304Y-17816590D01*
X52015302Y-17816593D01*
X52004563Y-17837152D01*
X51921089Y-17996954D01*
X51885882Y-18120000D01*
X51872599Y-18166425D01*
X51865114Y-18192583D01*
X51865113Y-18192586D01*
X51854500Y-18311966D01*
X51854500Y-18428027D01*
X51854501Y-18428035D01*
X51865113Y-18547415D01*
X51921089Y-18743045D01*
X51921090Y-18743048D01*
X51921091Y-18743049D01*
X52015302Y-18923407D01*
X52126603Y-19059907D01*
X52153711Y-19124300D01*
X52154500Y-19138265D01*
X52154500Y-20803481D01*
X52134815Y-20870520D01*
X52118181Y-20891162D01*
X51246162Y-21763181D01*
X51184839Y-21796666D01*
X51158481Y-21799500D01*
X49531004Y-21799500D01*
X49395677Y-21826418D01*
X49395667Y-21826421D01*
X49268192Y-21879222D01*
X49153454Y-21955887D01*
X46855887Y-24253454D01*
X46835271Y-24284310D01*
X46779223Y-24368191D01*
X46726421Y-24495667D01*
X46726418Y-24495677D01*
X46699500Y-24631004D01*
X46699500Y-25878897D01*
X46679815Y-25945936D01*
X46627011Y-25991691D01*
X46609833Y-25998049D01*
X46604275Y-25999650D01*
X46521873Y-26039333D01*
X46464851Y-26110836D01*
X46444500Y-26199995D01*
X43950500Y-26199995D01*
X43950500Y-24055732D01*
X43947646Y-24025301D01*
X43947646Y-24025299D01*
X43905025Y-23903498D01*
X43902793Y-23897119D01*
X43862471Y-23842485D01*
X43822149Y-23787850D01*
X43748121Y-23733216D01*
X43712881Y-23707207D01*
X43712879Y-23707206D01*
X43584699Y-23662353D01*
X43554268Y-23659500D01*
X43554264Y-23659500D01*
X34545736Y-23659500D01*
X34545732Y-23659500D01*
X34515301Y-23662353D01*
X34515299Y-23662353D01*
X34387120Y-23707206D01*
X34277850Y-23787850D01*
X34197206Y-23897120D01*
X34152353Y-24025299D01*
X34152353Y-24025301D01*
X34149500Y-24055732D01*
X34149500Y-28685500D01*
X34129815Y-28752539D01*
X34077011Y-28798294D01*
X34025500Y-28809500D01*
X32460480Y-28809500D01*
X32393441Y-28789815D01*
X32359968Y-28753371D01*
X32358311Y-28754595D01*
X32341621Y-28731981D01*
X32272150Y-28637850D01*
X32162882Y-28557207D01*
X32162880Y-28557206D01*
X32034700Y-28512353D01*
X32004270Y-28509500D01*
X32004266Y-28509500D01*
X27795734Y-28509500D01*
X27795730Y-28509500D01*
X27765300Y-28512353D01*
X27765298Y-28512353D01*
X27637119Y-28557206D01*
X27637117Y-28557207D01*
X27527850Y-28637850D01*
X27447207Y-28747117D01*
X27447206Y-28747119D01*
X27402353Y-28875298D01*
X27402353Y-28875300D01*
X27399500Y-28905730D01*
X26100500Y-28905730D01*
X26100500Y-28012229D01*
X26120185Y-27945190D01*
X26136819Y-27924548D01*
X26554548Y-27506819D01*
X26615871Y-27473334D01*
X26642229Y-27470500D01*
X32004270Y-27470500D01*
X32034699Y-27467646D01*
X32034701Y-27467646D01*
X32098790Y-27445219D01*
X32162882Y-27422793D01*
X32272150Y-27342150D01*
X32352793Y-27232882D01*
X32383138Y-27146161D01*
X32397646Y-27104701D01*
X32397646Y-27104699D01*
X32400500Y-27074269D01*
X32400500Y-26365730D01*
X32397646Y-26335300D01*
X32397646Y-26335298D01*
X32355649Y-26215281D01*
X32352793Y-26207118D01*
X32272150Y-26097850D01*
X32162882Y-26017207D01*
X32162880Y-26017206D01*
X32034700Y-25972353D01*
X32004270Y-25969500D01*
X32004266Y-25969500D01*
X29973918Y-25969500D01*
X26353917Y-25969500D01*
X26206082Y-25969500D01*
X26206080Y-25969500D01*
X26061092Y-25998340D01*
X26061082Y-25998343D01*
X25924511Y-26054912D01*
X25924498Y-26054919D01*
X25801584Y-26137048D01*
X25801580Y-26137051D01*
X25425452Y-26513181D01*
X25364129Y-26546666D01*
X25337771Y-26549500D01*
X24295730Y-26549500D01*
X24265300Y-26552353D01*
X24265298Y-26552353D01*
X24137119Y-26597206D01*
X24137117Y-26597207D01*
X24027850Y-26677850D01*
X23947207Y-26787117D01*
X23947206Y-26787119D01*
X23902353Y-26915298D01*
X23902353Y-26915300D01*
X23899500Y-26945730D01*
X23899500Y-27875500D01*
X23879815Y-27942539D01*
X23827011Y-27988294D01*
X23775500Y-27999500D01*
X21260480Y-27999500D01*
X21193441Y-27979815D01*
X21159968Y-27943371D01*
X21158311Y-27944595D01*
X21122710Y-27896357D01*
X21072150Y-27827850D01*
X20962882Y-27747207D01*
X20962880Y-27747206D01*
X20834700Y-27702353D01*
X20804270Y-27699500D01*
X20804266Y-27699500D01*
X19195734Y-27699500D01*
X19195730Y-27699500D01*
X19165300Y-27702353D01*
X19165298Y-27702353D01*
X19037119Y-27747206D01*
X19037117Y-27747207D01*
X18927850Y-27827850D01*
X18847207Y-27937117D01*
X18847206Y-27937119D01*
X18802353Y-28065298D01*
X18802353Y-28065300D01*
X18799500Y-28095730D01*
X16500500Y-28095730D01*
X16500500Y-20003051D01*
X16500649Y-19996967D01*
X16503737Y-19934108D01*
X16517052Y-19663068D01*
X16518245Y-19650962D01*
X16526358Y-19596269D01*
X16566849Y-19323296D01*
X16569218Y-19311385D01*
X16649710Y-18990043D01*
X16653240Y-18978411D01*
X16692030Y-18870000D01*
X16764835Y-18666525D01*
X16769476Y-18655318D01*
X16911124Y-18355828D01*
X16916840Y-18345136D01*
X17087145Y-18060998D01*
X17093888Y-18050905D01*
X17291232Y-17784818D01*
X17298935Y-17775433D01*
X17521405Y-17529975D01*
X17529975Y-17521405D01*
X17775433Y-17298935D01*
X17784818Y-17291232D01*
X18050905Y-17093888D01*
X18060998Y-17087145D01*
X18345136Y-16916840D01*
X18355828Y-16911124D01*
X18655318Y-16769476D01*
X18666525Y-16764835D01*
X18978412Y-16653239D01*
X18990043Y-16649710D01*
X19311385Y-16569218D01*
X19323296Y-16566849D01*
X19650962Y-16518244D01*
X19663068Y-16517052D01*
X19996967Y-16500648D01*
X20003051Y-16500500D01*
X20065892Y-16500500D01*
X31209480Y-16500500D01*
X31276519Y-16520185D01*
G37*
%TD.AperFunction*%
%TA.AperFunction,Conductor*%
G36*
X44321925Y-52586758D02*
G01*
X44344655Y-52584804D01*
X44355960Y-52590767D01*
X44368657Y-52592263D01*
X44386276Y-52606758D01*
X44406454Y-52617402D01*
X44416658Y-52631754D01*
X44422613Y-52636653D01*
X44424654Y-52642999D01*
X44432426Y-52653931D01*
X44471776Y-52738316D01*
X44556684Y-52823224D01*
X44665513Y-52873972D01*
X44715099Y-52880500D01*
X45134900Y-52880499D01*
X45184487Y-52873972D01*
X45293316Y-52823224D01*
X45378224Y-52738316D01*
X45378224Y-52738315D01*
X45379721Y-52736819D01*
X45406648Y-52722115D01*
X45432467Y-52705523D01*
X45438667Y-52704631D01*
X45441044Y-52703334D01*
X45467402Y-52700500D01*
X45472390Y-52700500D01*
X45539429Y-52720185D01*
X45560071Y-52736819D01*
X45563737Y-52740485D01*
X45660763Y-52796503D01*
X45768982Y-52825500D01*
X45768984Y-52825500D01*
X45881016Y-52825500D01*
X45881018Y-52825500D01*
X45989237Y-52796503D01*
X46086263Y-52740485D01*
X46089929Y-52736819D01*
X46151252Y-52703334D01*
X46177610Y-52700500D01*
X46239560Y-52700500D01*
X46239562Y-52700500D01*
X46315989Y-52680021D01*
X46362732Y-52653033D01*
X46430631Y-52636560D01*
X46496658Y-52659412D01*
X46508314Y-52669272D01*
X46510419Y-52670745D01*
X46510421Y-52670747D01*
X46614455Y-52719259D01*
X46661861Y-52725500D01*
X46988138Y-52725499D01*
X47035545Y-52719259D01*
X47139579Y-52670747D01*
X47139581Y-52670745D01*
X47148465Y-52664525D01*
X47149678Y-52666258D01*
X47198642Y-52639522D01*
X47268334Y-52644506D01*
X47281871Y-52650498D01*
X47299025Y-52659351D01*
X47310421Y-52670747D01*
X47414455Y-52719259D01*
X47415319Y-52719372D01*
X47423314Y-52723499D01*
X47446866Y-52745977D01*
X47471287Y-52767479D01*
X47471993Y-52769957D01*
X47473859Y-52771738D01*
X47481520Y-52803381D01*
X47490439Y-52834673D01*
X47489933Y-52838130D01*
X47490300Y-52839646D01*
X47489280Y-52842585D01*
X47485520Y-52868284D01*
X47467854Y-52929089D01*
X47466209Y-52949999D01*
X47466210Y-52950000D01*
X48121000Y-52950000D01*
X48188039Y-52969685D01*
X48233794Y-53022489D01*
X48245000Y-53074000D01*
X48245000Y-53326000D01*
X48225315Y-53393039D01*
X48172511Y-53438794D01*
X48121000Y-53450000D01*
X47466210Y-53450000D01*
X47457267Y-53459674D01*
X47397304Y-53495539D01*
X47366213Y-53499500D01*
X43900410Y-53499500D01*
X43833371Y-53479815D01*
X43787616Y-53427011D01*
X43777672Y-53357853D01*
X43806697Y-53294297D01*
X43838410Y-53268113D01*
X43840212Y-53267072D01*
X43886263Y-53240485D01*
X43965485Y-53161263D01*
X44021503Y-53064237D01*
X44050500Y-52956018D01*
X44050500Y-52843982D01*
X44050500Y-52839115D01*
X44070185Y-52772076D01*
X44090929Y-52747508D01*
X44103292Y-52736228D01*
X44128220Y-52723528D01*
X44223528Y-52628220D01*
X44225127Y-52625081D01*
X44236474Y-52614730D01*
X44256975Y-52604726D01*
X44275042Y-52590791D01*
X44287779Y-52589695D01*
X44299267Y-52584090D01*
X44321925Y-52586758D01*
G37*
%TD.AperFunction*%
%TA.AperFunction,Conductor*%
G36*
X46285773Y-51135104D02*
G01*
X46344443Y-51173045D01*
X46373287Y-51236683D01*
X46374500Y-51253981D01*
X46374500Y-51749166D01*
X46354815Y-51816205D01*
X46338185Y-51836842D01*
X46249000Y-51926028D01*
X46172086Y-52002942D01*
X46110763Y-52036426D01*
X46041071Y-52031442D01*
X46022413Y-52022651D01*
X45989237Y-52003497D01*
X45881018Y-51974500D01*
X45812003Y-51974500D01*
X45744964Y-51954815D01*
X45699209Y-51902011D01*
X45689265Y-51832853D01*
X45692926Y-51815906D01*
X45729504Y-51690000D01*
X45049000Y-51690000D01*
X44981961Y-51670315D01*
X44936206Y-51617511D01*
X44925000Y-51566000D01*
X44925000Y-51314000D01*
X44944685Y-51246961D01*
X44997489Y-51201206D01*
X45049000Y-51190000D01*
X45735129Y-51190000D01*
X45778330Y-51157756D01*
X45821497Y-51150000D01*
X46138106Y-51150000D01*
X46138118Y-51149999D01*
X46173547Y-51147211D01*
X46215903Y-51134905D01*
X46285773Y-51135104D01*
G37*
%TD.AperFunction*%
%TA.AperFunction,Conductor*%
G36*
X53993039Y-46070184D02*
G01*
X54038794Y-46122988D01*
X54050000Y-46174499D01*
X54050000Y-46276000D01*
X54030315Y-46343039D01*
X53977511Y-46388794D01*
X53926000Y-46400000D01*
X53674000Y-46400000D01*
X53665314Y-46397449D01*
X53656353Y-46398738D01*
X53632312Y-46387759D01*
X53606961Y-46380315D01*
X53601033Y-46373474D01*
X53592797Y-46369713D01*
X53578507Y-46347478D01*
X53561206Y-46327511D01*
X53558918Y-46316996D01*
X53555023Y-46310935D01*
X53550000Y-46276000D01*
X53550000Y-46174499D01*
X53569685Y-46107460D01*
X53622489Y-46061705D01*
X53673997Y-46050499D01*
X53926001Y-46050499D01*
X53993039Y-46070184D01*
G37*
%TD.AperFunction*%
%TD*%
M02*
