%TF.GenerationSoftware,KiCad,Pcbnew,9.0.6-9.0.6~ubuntu22.04.1*%
%TF.CreationDate,2025-11-05T22:25:10+01:00*%
%TF.ProjectId,FliperKAd,466c6970-6572-44b4-9164-2e6b69636164,rev?*%
%TF.SameCoordinates,Original*%
%TF.FileFunction,Copper,L3,Inr*%
%TF.FilePolarity,Positive*%
%FSLAX46Y46*%
G04 Gerber Fmt 4.6, Leading zero omitted, Abs format (unit mm)*
G04 Created by KiCad (PCBNEW 9.0.6-9.0.6~ubuntu22.04.1) date 2025-11-05 22:25:10*
%MOMM*%
%LPD*%
G01*
G04 APERTURE LIST*
G04 Aperture macros list*
%AMRoundRect*
0 Rectangle with rounded corners*
0 $1 Rounding radius*
0 $2 $3 $4 $5 $6 $7 $8 $9 X,Y pos of 4 corners*
0 Add a 4 corners polygon primitive as box body*
4,1,4,$2,$3,$4,$5,$6,$7,$8,$9,$2,$3,0*
0 Add four circle primitives for the rounded corners*
1,1,$1+$1,$2,$3*
1,1,$1+$1,$4,$5*
1,1,$1+$1,$6,$7*
1,1,$1+$1,$8,$9*
0 Add four rect primitives between the rounded corners*
20,1,$1+$1,$2,$3,$4,$5,0*
20,1,$1+$1,$4,$5,$6,$7,0*
20,1,$1+$1,$6,$7,$8,$9,0*
20,1,$1+$1,$8,$9,$2,$3,0*%
G04 Aperture macros list end*
%TA.AperFunction,ComponentPad*%
%ADD10RoundRect,0.760000X1.140000X1.140000X-1.140000X1.140000X-1.140000X-1.140000X1.140000X-1.140000X0*%
%TD*%
%TA.AperFunction,ComponentPad*%
%ADD11C,4.000000*%
%TD*%
%TA.AperFunction,ComponentPad*%
%ADD12C,0.800000*%
%TD*%
%TA.AperFunction,ComponentPad*%
%ADD13C,6.400000*%
%TD*%
%TA.AperFunction,ComponentPad*%
%ADD14RoundRect,0.250000X-0.750000X0.600000X-0.750000X-0.600000X0.750000X-0.600000X0.750000X0.600000X0*%
%TD*%
%TA.AperFunction,ComponentPad*%
%ADD15O,2.000000X1.700000*%
%TD*%
%TA.AperFunction,ComponentPad*%
%ADD16RoundRect,0.800000X0.000010X0.000010X-0.000010X0.000010X-0.000010X-0.000010X0.000010X-0.000010X0*%
%TD*%
%TA.AperFunction,ComponentPad*%
%ADD17O,1.700000X2.000000*%
%TD*%
%TA.AperFunction,ComponentPad*%
%ADD18RoundRect,0.250000X-0.600000X-0.750000X0.600000X-0.750000X0.600000X0.750000X-0.600000X0.750000X0*%
%TD*%
%TA.AperFunction,ViaPad*%
%ADD19C,0.450000*%
%TD*%
G04 APERTURE END LIST*
D10*
%TO.N,GND*%
%TO.C,J2*%
X34000000Y-20000000D03*
D11*
%TO.N,+24V*%
X29000000Y-20000000D03*
%TD*%
D12*
%TO.N,GND*%
%TO.C,H1*%
X17600000Y-20000000D03*
X18302944Y-18302944D03*
X18302944Y-21697056D03*
X20000000Y-17600000D03*
D13*
X20000000Y-20000000D03*
D12*
X20000000Y-22400000D03*
X21697056Y-18302944D03*
X21697056Y-21697056D03*
X22400000Y-20000000D03*
%TD*%
%TO.N,GND*%
%TO.C,H2*%
X57600000Y-20000000D03*
X58302944Y-18302944D03*
X58302944Y-21697056D03*
X60000000Y-17600000D03*
D13*
X60000000Y-20000000D03*
D12*
X60000000Y-22400000D03*
X61697056Y-18302944D03*
X61697056Y-21697056D03*
X62400000Y-20000000D03*
%TD*%
D14*
%TO.N,Sortie-Sol\u00E9noideA*%
%TO.C,J3*%
X20000000Y-28750000D03*
D15*
%TO.N,+24V*%
X20000000Y-31250000D03*
%TD*%
D12*
%TO.N,GND*%
%TO.C,H3*%
X57600000Y-50000000D03*
X58302944Y-48302944D03*
X58302944Y-51697056D03*
X60000000Y-47600000D03*
D13*
X60000000Y-50000000D03*
D12*
X60000000Y-52400000D03*
X61697056Y-48302944D03*
X61697056Y-51697056D03*
X62400000Y-50000000D03*
%TD*%
D16*
%TO.N,+24V*%
%TO.C,U3*%
X47755000Y-18380000D03*
%TO.N,GND*%
X50300000Y-18370000D03*
%TO.N,/12test*%
X52855000Y-18370000D03*
%TD*%
D12*
%TO.N,GND*%
%TO.C,H4*%
X17600000Y-50000000D03*
X18302944Y-48302944D03*
X18302944Y-51697056D03*
X20000000Y-47600000D03*
D13*
X20000000Y-50000000D03*
D12*
X20000000Y-52400000D03*
X21697056Y-48302944D03*
X21697056Y-51697056D03*
X22400000Y-50000000D03*
%TD*%
D17*
%TO.N,Bouton_Actif*%
%TO.C,J1*%
X39675000Y-49675000D03*
D18*
%TO.N,GND*%
X37175000Y-49675000D03*
%TD*%
D14*
%TO.N,Sortie-Sol\u00E9noideB*%
%TO.C,J4*%
X20000000Y-38750000D03*
D15*
%TO.N,+24V*%
X20000000Y-41250000D03*
%TD*%
D19*
%TO.N,GND*%
X27300000Y-31800000D03*
X32500000Y-31800000D03*
X29900000Y-32600000D03*
X29900000Y-31000000D03*
X27300000Y-43300000D03*
X32500000Y-43300000D03*
X29900000Y-44100000D03*
X29900000Y-42500000D03*
X45600000Y-51500000D03*
X54700000Y-46600000D03*
%TO.N,+12V*%
X61000000Y-27000000D03*
%TO.N,+24V*%
X58000000Y-30000000D03*
X57000000Y-30000000D03*
X56000000Y-30000000D03*
X55000000Y-30000000D03*
X55000000Y-31000000D03*
X56000000Y-31000000D03*
X57000000Y-31000000D03*
X58000000Y-31000000D03*
X59000000Y-31000000D03*
X59000000Y-30000000D03*
X59000000Y-29000000D03*
X58000000Y-29000000D03*
X57000000Y-29000000D03*
X56000000Y-29000000D03*
X55000000Y-29000000D03*
%TO.N,NRST*%
X56000000Y-39000000D03*
X51122250Y-46200000D03*
%TO.N,USART2_RX*%
X60000000Y-37700000D03*
%TO.N,USART2_TX*%
X52500000Y-45800000D03*
X56100000Y-37700000D03*
%TO.N,USART2_RX*%
X52600000Y-46600000D03*
%TO.N,SYS_SWCLK*%
X56000000Y-42800000D03*
X50725000Y-45400000D03*
%TO.N,SYS_SWDIO*%
X55800000Y-43400000D03*
X51800000Y-44900000D03*
%TO.N,GND*%
X47100000Y-34500000D03*
%TO.N,/Test 3.3*%
X49400000Y-32700000D03*
%TO.N,Net-(U4-FSW)*%
X53800000Y-35900000D03*
X49400000Y-31900000D03*
%TO.N,Net-(U4-FB)*%
X49400000Y-33400000D03*
X52500000Y-33400000D03*
%TO.N,GND*%
X58300000Y-34300000D03*
X55900000Y-34300000D03*
X57100000Y-35500000D03*
X59200000Y-33900000D03*
%TO.N,+24V*%
X60500000Y-24300000D03*
X45400000Y-17225000D03*
X41600000Y-17225000D03*
X44200000Y-17225000D03*
X34900000Y-17225000D03*
X35900000Y-17225000D03*
X37100000Y-17225000D03*
X38300000Y-17225000D03*
%TO.N,GND*%
X46000000Y-20175000D03*
X45000000Y-20175000D03*
X44100000Y-20175000D03*
X36700000Y-20175000D03*
X37700000Y-20175000D03*
X38700000Y-20175000D03*
X41700000Y-20175000D03*
X53225000Y-51600000D03*
%TO.N,Com-SolB*%
X50800000Y-39700000D03*
X49500000Y-39700000D03*
%TO.N,GND*%
X44900000Y-28700000D03*
X44900000Y-41100000D03*
%TO.N,+24V*%
X22200000Y-31250000D03*
X22900000Y-31250000D03*
X22900000Y-41250000D03*
X22100000Y-41250000D03*
%TO.N,GND*%
X47400000Y-53100000D03*
%TO.N,+3.3V*%
X45825000Y-52400000D03*
X43625000Y-52900000D03*
%TO.N,GND*%
X44425000Y-50500000D03*
%TO.N,+3.3V*%
X53925000Y-42100000D03*
X55600000Y-46400000D03*
%TO.N,GND*%
X55200000Y-44800000D03*
%TO.N,+3.3V*%
X62000000Y-36200000D03*
%TO.N,/Test 3.3*%
X62000000Y-32900000D03*
X53900000Y-27100000D03*
%TO.N,+3.3V*%
X63040000Y-44040000D03*
%TO.N,GND*%
X63070000Y-42770000D03*
X63100000Y-41500000D03*
X63100000Y-39000000D03*
%TO.N,+12V*%
X47400000Y-29000000D03*
X48100000Y-36300000D03*
X48300000Y-38400000D03*
%TO.N,GND*%
X55200000Y-38400000D03*
X50900000Y-34100000D03*
X50900000Y-32600000D03*
X49300000Y-29900000D03*
X49200000Y-27100000D03*
%TD*%
%TA.AperFunction,Conductor*%
%TO.N,+3.3V*%
G36*
X56765929Y-35019685D02*
G01*
X56811684Y-35072489D01*
X56821628Y-35141647D01*
X56792603Y-35205203D01*
X56786571Y-35211681D01*
X56759517Y-35238734D01*
X56759513Y-35238740D01*
X56703498Y-35335760D01*
X56703497Y-35335763D01*
X56674500Y-35443982D01*
X56674500Y-35556018D01*
X56703497Y-35664237D01*
X56759515Y-35761263D01*
X56838737Y-35840485D01*
X56935763Y-35896503D01*
X57043982Y-35925500D01*
X57043984Y-35925500D01*
X57156016Y-35925500D01*
X57156018Y-35925500D01*
X57264237Y-35896503D01*
X57361263Y-35840485D01*
X57440485Y-35761263D01*
X57496503Y-35664237D01*
X57525500Y-35556018D01*
X57525500Y-35443982D01*
X57496503Y-35335763D01*
X57440485Y-35238737D01*
X57413429Y-35211681D01*
X57379944Y-35150358D01*
X57384928Y-35080666D01*
X57426800Y-35024733D01*
X57492264Y-35000316D01*
X57501110Y-35000000D01*
X63375500Y-35000000D01*
X63442539Y-35019685D01*
X63488294Y-35072489D01*
X63499500Y-35124000D01*
X63499500Y-38524552D01*
X63479815Y-38591591D01*
X63427011Y-38637346D01*
X63357853Y-38647290D01*
X63313500Y-38631939D01*
X63264239Y-38603498D01*
X63264238Y-38603497D01*
X63264237Y-38603497D01*
X63156018Y-38574500D01*
X63043982Y-38574500D01*
X62935763Y-38603497D01*
X62935760Y-38603498D01*
X62838740Y-38659513D01*
X62838734Y-38659517D01*
X62759517Y-38738734D01*
X62759513Y-38738740D01*
X62703498Y-38835760D01*
X62703497Y-38835763D01*
X62674500Y-38943982D01*
X62674500Y-39056018D01*
X62703497Y-39164237D01*
X62759515Y-39261263D01*
X62838737Y-39340485D01*
X62935763Y-39396503D01*
X63043982Y-39425500D01*
X63043984Y-39425500D01*
X63156016Y-39425500D01*
X63156018Y-39425500D01*
X63264237Y-39396503D01*
X63313500Y-39368060D01*
X63381398Y-39351587D01*
X63447426Y-39374439D01*
X63490617Y-39429359D01*
X63499500Y-39475447D01*
X63499500Y-41024552D01*
X63479815Y-41091591D01*
X63427011Y-41137346D01*
X63357853Y-41147290D01*
X63313500Y-41131939D01*
X63264239Y-41103498D01*
X63264238Y-41103497D01*
X63264237Y-41103497D01*
X63156018Y-41074500D01*
X63043982Y-41074500D01*
X62935763Y-41103497D01*
X62935760Y-41103498D01*
X62838740Y-41159513D01*
X62838734Y-41159517D01*
X62759517Y-41238734D01*
X62759513Y-41238740D01*
X62703498Y-41335760D01*
X62703497Y-41335763D01*
X62674500Y-41443982D01*
X62674500Y-41556018D01*
X62703497Y-41664237D01*
X62759515Y-41761263D01*
X62838737Y-41840485D01*
X62935763Y-41896503D01*
X63043982Y-41925500D01*
X63043984Y-41925500D01*
X63156016Y-41925500D01*
X63156018Y-41925500D01*
X63264237Y-41896503D01*
X63313500Y-41868060D01*
X63381398Y-41851587D01*
X63447426Y-41874439D01*
X63490617Y-41929359D01*
X63499500Y-41975447D01*
X63499500Y-42311872D01*
X63479815Y-42378911D01*
X63427011Y-42424666D01*
X63357853Y-42434610D01*
X63313500Y-42419259D01*
X63234239Y-42373498D01*
X63234238Y-42373497D01*
X63234237Y-42373497D01*
X63126018Y-42344500D01*
X63013982Y-42344500D01*
X62905763Y-42373497D01*
X62905760Y-42373498D01*
X62808740Y-42429513D01*
X62808734Y-42429517D01*
X62729517Y-42508734D01*
X62729513Y-42508740D01*
X62673498Y-42605760D01*
X62673497Y-42605763D01*
X62644500Y-42713982D01*
X62644500Y-42826018D01*
X62673497Y-42934237D01*
X62729515Y-43031263D01*
X62808737Y-43110485D01*
X62905763Y-43166503D01*
X63013982Y-43195500D01*
X63013984Y-43195500D01*
X63126016Y-43195500D01*
X63126018Y-43195500D01*
X63234237Y-43166503D01*
X63313501Y-43120739D01*
X63381400Y-43104267D01*
X63447427Y-43127119D01*
X63490617Y-43182040D01*
X63499500Y-43228127D01*
X63499500Y-48986003D01*
X63479815Y-49053042D01*
X63427011Y-49098797D01*
X63357853Y-49108741D01*
X63294297Y-49079716D01*
X63256839Y-49021998D01*
X63245920Y-48986003D01*
X63205582Y-48853024D01*
X63077723Y-48544346D01*
X62920224Y-48249685D01*
X62734601Y-47971882D01*
X62522643Y-47713610D01*
X62522642Y-47713609D01*
X62522638Y-47713604D01*
X62286395Y-47477361D01*
X62028123Y-47265403D01*
X62028122Y-47265402D01*
X62028118Y-47265399D01*
X61750315Y-47079776D01*
X61750310Y-47079773D01*
X61750303Y-47079769D01*
X61455661Y-46922280D01*
X61455656Y-46922278D01*
X61146977Y-46794418D01*
X60827241Y-46697428D01*
X60827230Y-46697425D01*
X60499565Y-46632250D01*
X60499548Y-46632247D01*
X60248108Y-46607483D01*
X60167056Y-46599500D01*
X59832944Y-46599500D01*
X59757982Y-46606883D01*
X59500451Y-46632247D01*
X59500434Y-46632250D01*
X59172769Y-46697425D01*
X59172758Y-46697428D01*
X58853022Y-46794418D01*
X58544343Y-46922278D01*
X58544338Y-46922280D01*
X58249696Y-47079769D01*
X58249678Y-47079780D01*
X57971890Y-47265393D01*
X57971876Y-47265403D01*
X57713604Y-47477361D01*
X57477361Y-47713604D01*
X57265403Y-47971876D01*
X57265393Y-47971890D01*
X57079780Y-48249678D01*
X57079769Y-48249696D01*
X56922280Y-48544338D01*
X56922278Y-48544343D01*
X56794418Y-48853022D01*
X56697428Y-49172758D01*
X56697425Y-49172769D01*
X56632250Y-49500434D01*
X56632247Y-49500451D01*
X56599500Y-49832947D01*
X56599500Y-50167052D01*
X56632247Y-50499548D01*
X56632250Y-50499565D01*
X56697425Y-50827230D01*
X56697428Y-50827241D01*
X56794418Y-51146977D01*
X56922278Y-51455656D01*
X56922280Y-51455661D01*
X57079769Y-51750303D01*
X57079780Y-51750321D01*
X57265393Y-52028109D01*
X57265403Y-52028123D01*
X57477361Y-52286395D01*
X57713604Y-52522638D01*
X57713609Y-52522642D01*
X57713610Y-52522643D01*
X57971882Y-52734601D01*
X58249685Y-52920224D01*
X58249694Y-52920229D01*
X58249696Y-52920230D01*
X58544338Y-53077719D01*
X58544340Y-53077719D01*
X58544346Y-53077723D01*
X58853024Y-53205582D01*
X59021999Y-53256839D01*
X59080437Y-53295137D01*
X59108893Y-53358949D01*
X59098333Y-53428016D01*
X59052109Y-53480409D01*
X58986003Y-53499500D01*
X47875448Y-53499500D01*
X47808409Y-53479815D01*
X47762654Y-53427011D01*
X47752710Y-53357853D01*
X47768061Y-53313500D01*
X47778663Y-53295137D01*
X47796503Y-53264237D01*
X47825500Y-53156018D01*
X47825500Y-53043982D01*
X47796503Y-52935763D01*
X47740485Y-52838737D01*
X47661263Y-52759515D01*
X47564237Y-52703497D01*
X47456018Y-52674500D01*
X47343982Y-52674500D01*
X47235763Y-52703497D01*
X47235760Y-52703498D01*
X47138740Y-52759513D01*
X47138734Y-52759517D01*
X47059517Y-52838734D01*
X47059513Y-52838740D01*
X47003498Y-52935760D01*
X47003497Y-52935763D01*
X46974500Y-53043982D01*
X46974500Y-53156018D01*
X46987781Y-53205581D01*
X47003497Y-53264236D01*
X47003498Y-53264239D01*
X47031939Y-53313500D01*
X47048412Y-53381400D01*
X47025559Y-53447427D01*
X46970638Y-53490618D01*
X46924552Y-53499500D01*
X43124000Y-53499500D01*
X43056961Y-53479815D01*
X43011206Y-53427011D01*
X43000000Y-53375500D01*
X43000000Y-51443982D01*
X45174500Y-51443982D01*
X45174500Y-51556018D01*
X45203497Y-51664237D01*
X45259515Y-51761263D01*
X45338737Y-51840485D01*
X45435763Y-51896503D01*
X45543982Y-51925500D01*
X45543984Y-51925500D01*
X45656016Y-51925500D01*
X45656018Y-51925500D01*
X45764237Y-51896503D01*
X45861263Y-51840485D01*
X45940485Y-51761263D01*
X45996503Y-51664237D01*
X46025500Y-51556018D01*
X46025500Y-51543982D01*
X52799500Y-51543982D01*
X52799500Y-51656018D01*
X52828497Y-51764237D01*
X52884515Y-51861263D01*
X52963737Y-51940485D01*
X53060763Y-51996503D01*
X53168982Y-52025500D01*
X53168984Y-52025500D01*
X53281016Y-52025500D01*
X53281018Y-52025500D01*
X53389237Y-51996503D01*
X53486263Y-51940485D01*
X53565485Y-51861263D01*
X53621503Y-51764237D01*
X53650500Y-51656018D01*
X53650500Y-51543982D01*
X53621503Y-51435763D01*
X53565485Y-51338737D01*
X53486263Y-51259515D01*
X53389237Y-51203497D01*
X53281018Y-51174500D01*
X53168982Y-51174500D01*
X53060763Y-51203497D01*
X53060760Y-51203498D01*
X52963740Y-51259513D01*
X52963734Y-51259517D01*
X52884517Y-51338734D01*
X52884513Y-51338740D01*
X52828498Y-51435760D01*
X52828497Y-51435763D01*
X52799500Y-51543982D01*
X46025500Y-51543982D01*
X46025500Y-51443982D01*
X45996503Y-51335763D01*
X45940485Y-51238737D01*
X45861263Y-51159515D01*
X45764237Y-51103497D01*
X45656018Y-51074500D01*
X45543982Y-51074500D01*
X45435763Y-51103497D01*
X45435760Y-51103498D01*
X45338740Y-51159513D01*
X45338734Y-51159517D01*
X45259517Y-51238734D01*
X45259513Y-51238740D01*
X45203498Y-51335760D01*
X45203497Y-51335763D01*
X45174500Y-51443982D01*
X43000000Y-51443982D01*
X43000000Y-50443982D01*
X43999500Y-50443982D01*
X43999500Y-50556018D01*
X44028497Y-50664237D01*
X44084515Y-50761263D01*
X44163737Y-50840485D01*
X44260763Y-50896503D01*
X44368982Y-50925500D01*
X44368984Y-50925500D01*
X44481016Y-50925500D01*
X44481018Y-50925500D01*
X44589237Y-50896503D01*
X44686263Y-50840485D01*
X44765485Y-50761263D01*
X44821503Y-50664237D01*
X44850500Y-50556018D01*
X44850500Y-50443982D01*
X44821503Y-50335763D01*
X44765485Y-50238737D01*
X44686263Y-50159515D01*
X44589237Y-50103497D01*
X44481018Y-50074500D01*
X44368982Y-50074500D01*
X44260763Y-50103497D01*
X44260760Y-50103498D01*
X44163740Y-50159513D01*
X44163734Y-50159517D01*
X44084517Y-50238734D01*
X44084513Y-50238740D01*
X44028498Y-50335760D01*
X44028497Y-50335763D01*
X43999500Y-50443982D01*
X43000000Y-50443982D01*
X43000000Y-45343982D01*
X50299500Y-45343982D01*
X50299500Y-45456018D01*
X50328497Y-45564237D01*
X50384515Y-45661263D01*
X50463737Y-45740485D01*
X50560763Y-45796503D01*
X50667181Y-45825017D01*
X50726839Y-45861381D01*
X50757369Y-45924227D01*
X50749075Y-45993603D01*
X50742474Y-46006789D01*
X50725749Y-46035758D01*
X50725747Y-46035763D01*
X50696750Y-46143982D01*
X50696750Y-46256018D01*
X50725747Y-46364237D01*
X50781765Y-46461263D01*
X50860987Y-46540485D01*
X50958013Y-46596503D01*
X51066232Y-46625500D01*
X51066234Y-46625500D01*
X51178266Y-46625500D01*
X51178268Y-46625500D01*
X51286487Y-46596503D01*
X51383513Y-46540485D01*
X51462735Y-46461263D01*
X51518753Y-46364237D01*
X51547750Y-46256018D01*
X51547750Y-46143982D01*
X51518753Y-46035763D01*
X51462735Y-45938737D01*
X51383513Y-45859515D01*
X51376450Y-45855437D01*
X51363346Y-45847871D01*
X51363342Y-45847869D01*
X51286487Y-45803497D01*
X51178268Y-45774500D01*
X51176690Y-45774500D01*
X51166799Y-45770612D01*
X51144507Y-45753306D01*
X51129209Y-45743982D01*
X52074500Y-45743982D01*
X52074500Y-45856018D01*
X52103497Y-45964237D01*
X52159515Y-46061263D01*
X52238737Y-46140485D01*
X52238740Y-46140487D01*
X52245186Y-46145433D01*
X52244194Y-46146725D01*
X52285858Y-46190413D01*
X52299086Y-46259019D01*
X52273124Y-46323886D01*
X52263333Y-46334919D01*
X52259516Y-46338735D01*
X52259513Y-46338740D01*
X52203498Y-46435760D01*
X52203497Y-46435763D01*
X52174500Y-46543982D01*
X52174500Y-46656018D01*
X52203497Y-46764237D01*
X52259515Y-46861263D01*
X52338737Y-46940485D01*
X52435763Y-46996503D01*
X52543982Y-47025500D01*
X52543984Y-47025500D01*
X52656016Y-47025500D01*
X52656018Y-47025500D01*
X52764237Y-46996503D01*
X52861263Y-46940485D01*
X52940485Y-46861263D01*
X52996503Y-46764237D01*
X53025500Y-46656018D01*
X53025500Y-46543982D01*
X54274500Y-46543982D01*
X54274500Y-46656018D01*
X54303497Y-46764237D01*
X54359515Y-46861263D01*
X54438737Y-46940485D01*
X54535763Y-46996503D01*
X54643982Y-47025500D01*
X54643984Y-47025500D01*
X54756016Y-47025500D01*
X54756018Y-47025500D01*
X54864237Y-46996503D01*
X54961263Y-46940485D01*
X55040485Y-46861263D01*
X55096503Y-46764237D01*
X55125500Y-46656018D01*
X55125500Y-46543982D01*
X55096503Y-46435763D01*
X55040485Y-46338737D01*
X54961263Y-46259515D01*
X54864237Y-46203497D01*
X54756018Y-46174500D01*
X54643982Y-46174500D01*
X54535763Y-46203497D01*
X54535760Y-46203498D01*
X54438740Y-46259513D01*
X54438734Y-46259517D01*
X54359517Y-46338734D01*
X54359513Y-46338740D01*
X54303498Y-46435760D01*
X54303497Y-46435763D01*
X54274500Y-46543982D01*
X53025500Y-46543982D01*
X52996503Y-46435763D01*
X52940485Y-46338737D01*
X52861263Y-46259515D01*
X52861260Y-46259513D01*
X52854814Y-46254567D01*
X52855804Y-46253276D01*
X52814138Y-46209580D01*
X52800913Y-46140974D01*
X52826879Y-46076108D01*
X52836659Y-46065088D01*
X52840485Y-46061263D01*
X52896503Y-45964237D01*
X52925500Y-45856018D01*
X52925500Y-45743982D01*
X52896503Y-45635763D01*
X52840485Y-45538737D01*
X52761263Y-45459515D01*
X52664237Y-45403497D01*
X52556018Y-45374500D01*
X52443982Y-45374500D01*
X52335763Y-45403497D01*
X52335760Y-45403498D01*
X52238740Y-45459513D01*
X52238734Y-45459517D01*
X52159517Y-45538734D01*
X52159513Y-45538740D01*
X52103498Y-45635760D01*
X52103497Y-45635763D01*
X52074500Y-45743982D01*
X51129209Y-45743982D01*
X51120409Y-45738618D01*
X51117274Y-45732166D01*
X51111608Y-45727767D01*
X51102210Y-45701154D01*
X51089880Y-45675771D01*
X51090731Y-45668648D01*
X51088343Y-45661884D01*
X51094824Y-45634414D01*
X51098175Y-45606395D01*
X51104344Y-45594071D01*
X51104389Y-45593882D01*
X51104485Y-45593788D01*
X51104777Y-45593207D01*
X51121503Y-45564237D01*
X51150500Y-45456018D01*
X51150500Y-45343982D01*
X51121503Y-45235763D01*
X51065485Y-45138737D01*
X50986263Y-45059515D01*
X50889237Y-45003497D01*
X50781018Y-44974500D01*
X50668982Y-44974500D01*
X50560763Y-45003497D01*
X50560760Y-45003498D01*
X50463740Y-45059513D01*
X50463734Y-45059517D01*
X50384517Y-45138734D01*
X50384513Y-45138740D01*
X50328498Y-45235760D01*
X50328497Y-45235763D01*
X50299500Y-45343982D01*
X43000000Y-45343982D01*
X43000000Y-44843982D01*
X51374500Y-44843982D01*
X51374500Y-44956018D01*
X51403497Y-45064237D01*
X51459515Y-45161263D01*
X51538737Y-45240485D01*
X51635763Y-45296503D01*
X51743982Y-45325500D01*
X51743984Y-45325500D01*
X51856016Y-45325500D01*
X51856018Y-45325500D01*
X51964237Y-45296503D01*
X52061263Y-45240485D01*
X52140485Y-45161263D01*
X52196503Y-45064237D01*
X52225500Y-44956018D01*
X52225500Y-44843982D01*
X52198705Y-44743982D01*
X54774500Y-44743982D01*
X54774500Y-44856018D01*
X54803497Y-44964237D01*
X54859515Y-45061263D01*
X54938737Y-45140485D01*
X55035763Y-45196503D01*
X55143982Y-45225500D01*
X55143984Y-45225500D01*
X55256016Y-45225500D01*
X55256018Y-45225500D01*
X55364237Y-45196503D01*
X55461263Y-45140485D01*
X55540485Y-45061263D01*
X55596503Y-44964237D01*
X55625500Y-44856018D01*
X55625500Y-44743982D01*
X55596503Y-44635763D01*
X55540485Y-44538737D01*
X55461263Y-44459515D01*
X55364237Y-44403497D01*
X55256018Y-44374500D01*
X55143982Y-44374500D01*
X55035763Y-44403497D01*
X55035760Y-44403498D01*
X54938740Y-44459513D01*
X54938734Y-44459517D01*
X54859517Y-44538734D01*
X54859513Y-44538740D01*
X54803498Y-44635760D01*
X54803497Y-44635763D01*
X54774500Y-44743982D01*
X52198705Y-44743982D01*
X52196503Y-44735763D01*
X52140485Y-44638737D01*
X52061263Y-44559515D01*
X51964237Y-44503497D01*
X51856018Y-44474500D01*
X51743982Y-44474500D01*
X51635763Y-44503497D01*
X51635760Y-44503498D01*
X51538740Y-44559513D01*
X51538734Y-44559517D01*
X51459517Y-44638734D01*
X51459513Y-44638740D01*
X51403498Y-44735760D01*
X51403497Y-44735763D01*
X51374500Y-44843982D01*
X43000000Y-44843982D01*
X43000000Y-43343982D01*
X55374500Y-43343982D01*
X55374500Y-43456018D01*
X55403497Y-43564237D01*
X55459515Y-43661263D01*
X55538737Y-43740485D01*
X55635763Y-43796503D01*
X55743982Y-43825500D01*
X55743984Y-43825500D01*
X55856016Y-43825500D01*
X55856018Y-43825500D01*
X55964237Y-43796503D01*
X56061263Y-43740485D01*
X56140485Y-43661263D01*
X56196503Y-43564237D01*
X56225500Y-43456018D01*
X56225500Y-43343982D01*
X56207695Y-43277532D01*
X56209358Y-43207687D01*
X56248520Y-43149825D01*
X56254822Y-43145449D01*
X56254812Y-43145435D01*
X56261256Y-43140488D01*
X56261263Y-43140485D01*
X56340485Y-43061263D01*
X56396503Y-42964237D01*
X56425500Y-42856018D01*
X56425500Y-42743982D01*
X56396503Y-42635763D01*
X56340485Y-42538737D01*
X56261263Y-42459515D01*
X56164237Y-42403497D01*
X56056018Y-42374500D01*
X55943982Y-42374500D01*
X55835763Y-42403497D01*
X55835760Y-42403498D01*
X55738740Y-42459513D01*
X55738734Y-42459517D01*
X55659517Y-42538734D01*
X55659513Y-42538740D01*
X55603498Y-42635760D01*
X55603497Y-42635763D01*
X55574500Y-42743982D01*
X55574500Y-42856017D01*
X55592304Y-42922464D01*
X55590641Y-42992314D01*
X55551478Y-43050176D01*
X55545175Y-43054553D01*
X55545186Y-43054567D01*
X55538734Y-43059517D01*
X55459517Y-43138734D01*
X55459513Y-43138740D01*
X55403498Y-43235760D01*
X55403497Y-43235763D01*
X55374500Y-43343982D01*
X43000000Y-43343982D01*
X43000000Y-41329500D01*
X43019685Y-41262461D01*
X43072489Y-41216706D01*
X43124000Y-41205500D01*
X44397993Y-41205500D01*
X44465032Y-41225185D01*
X44505380Y-41267499D01*
X44559515Y-41361263D01*
X44638737Y-41440485D01*
X44735763Y-41496503D01*
X44843982Y-41525500D01*
X44843984Y-41525500D01*
X44956016Y-41525500D01*
X44956018Y-41525500D01*
X45064237Y-41496503D01*
X45161263Y-41440485D01*
X45240485Y-41361263D01*
X45294619Y-41267499D01*
X45345186Y-41219284D01*
X45402006Y-41205500D01*
X48875991Y-41205500D01*
X48876000Y-41205500D01*
X48919684Y-41200803D01*
X48948875Y-41194452D01*
X48971174Y-41189602D01*
X48971190Y-41189598D01*
X48971195Y-41189597D01*
X48981373Y-41187110D01*
X49062085Y-41144100D01*
X49114889Y-41098345D01*
X49132843Y-41080754D01*
X49177490Y-41000937D01*
X49197175Y-40933898D01*
X49205500Y-40876000D01*
X49205500Y-40223198D01*
X49225185Y-40156159D01*
X49277989Y-40110404D01*
X49347147Y-40100460D01*
X49361572Y-40103418D01*
X49443982Y-40125500D01*
X49443985Y-40125500D01*
X49556016Y-40125500D01*
X49556018Y-40125500D01*
X49664237Y-40096503D01*
X49761263Y-40040485D01*
X49840485Y-39961263D01*
X49896503Y-39864237D01*
X49925500Y-39756018D01*
X49925500Y-39643982D01*
X50374500Y-39643982D01*
X50374500Y-39756018D01*
X50403497Y-39864237D01*
X50459515Y-39961263D01*
X50538737Y-40040485D01*
X50635763Y-40096503D01*
X50743982Y-40125500D01*
X50743984Y-40125500D01*
X50856016Y-40125500D01*
X50856018Y-40125500D01*
X50964237Y-40096503D01*
X51061263Y-40040485D01*
X51140485Y-39961263D01*
X51196503Y-39864237D01*
X51225500Y-39756018D01*
X51225500Y-39643982D01*
X51196503Y-39535763D01*
X51140485Y-39438737D01*
X51061263Y-39359515D01*
X50964237Y-39303497D01*
X50856018Y-39274500D01*
X50743982Y-39274500D01*
X50635763Y-39303497D01*
X50635760Y-39303498D01*
X50538740Y-39359513D01*
X50538734Y-39359517D01*
X50459517Y-39438734D01*
X50459513Y-39438740D01*
X50403498Y-39535760D01*
X50403497Y-39535763D01*
X50374500Y-39643982D01*
X49925500Y-39643982D01*
X49896503Y-39535763D01*
X49840485Y-39438737D01*
X49761263Y-39359515D01*
X49664237Y-39303497D01*
X49556018Y-39274500D01*
X49443982Y-39274500D01*
X49361593Y-39296576D01*
X49291743Y-39294913D01*
X49233881Y-39255750D01*
X49206377Y-39191522D01*
X49205500Y-39176801D01*
X49205500Y-38343982D01*
X54774500Y-38343982D01*
X54774500Y-38456018D01*
X54803497Y-38564237D01*
X54859515Y-38661263D01*
X54938737Y-38740485D01*
X55035763Y-38796503D01*
X55143982Y-38825500D01*
X55143984Y-38825500D01*
X55256016Y-38825500D01*
X55256018Y-38825500D01*
X55364237Y-38796503D01*
X55400476Y-38775580D01*
X55468373Y-38759108D01*
X55534400Y-38781960D01*
X55577591Y-38836881D01*
X55584233Y-38906434D01*
X55582249Y-38915059D01*
X55574500Y-38943977D01*
X55574500Y-38943982D01*
X55574500Y-39056018D01*
X55603497Y-39164237D01*
X55659515Y-39261263D01*
X55738737Y-39340485D01*
X55835763Y-39396503D01*
X55943982Y-39425500D01*
X55943984Y-39425500D01*
X56056016Y-39425500D01*
X56056018Y-39425500D01*
X56164237Y-39396503D01*
X56261263Y-39340485D01*
X56340485Y-39261263D01*
X56396503Y-39164237D01*
X56425500Y-39056018D01*
X56425500Y-38943982D01*
X56396503Y-38835763D01*
X56340485Y-38738737D01*
X56261263Y-38659515D01*
X56189421Y-38618037D01*
X56164239Y-38603498D01*
X56164238Y-38603497D01*
X56164237Y-38603497D01*
X56056018Y-38574500D01*
X55943982Y-38574500D01*
X55835763Y-38603497D01*
X55835758Y-38603499D01*
X55799523Y-38624419D01*
X55731623Y-38640890D01*
X55665596Y-38618037D01*
X55622407Y-38563115D01*
X55615766Y-38493562D01*
X55617751Y-38484936D01*
X55625500Y-38456018D01*
X55625500Y-38343982D01*
X55596503Y-38235763D01*
X55540485Y-38138737D01*
X55461263Y-38059515D01*
X55364237Y-38003497D01*
X55256018Y-37974500D01*
X55143982Y-37974500D01*
X55035763Y-38003497D01*
X55035760Y-38003498D01*
X54938740Y-38059513D01*
X54938734Y-38059517D01*
X54859517Y-38138734D01*
X54859513Y-38138740D01*
X54803498Y-38235760D01*
X54803497Y-38235763D01*
X54774500Y-38343982D01*
X49205500Y-38343982D01*
X49205500Y-37643982D01*
X55674500Y-37643982D01*
X55674500Y-37756018D01*
X55703497Y-37864237D01*
X55759515Y-37961263D01*
X55838737Y-38040485D01*
X55935763Y-38096503D01*
X56043982Y-38125500D01*
X56043984Y-38125500D01*
X56156016Y-38125500D01*
X56156018Y-38125500D01*
X56264237Y-38096503D01*
X56361263Y-38040485D01*
X56440485Y-37961263D01*
X56496503Y-37864237D01*
X56525500Y-37756018D01*
X56525500Y-37643982D01*
X59574500Y-37643982D01*
X59574500Y-37756018D01*
X59603497Y-37864237D01*
X59659515Y-37961263D01*
X59738737Y-38040485D01*
X59835763Y-38096503D01*
X59943982Y-38125500D01*
X59943984Y-38125500D01*
X60056016Y-38125500D01*
X60056018Y-38125500D01*
X60164237Y-38096503D01*
X60261263Y-38040485D01*
X60340485Y-37961263D01*
X60396503Y-37864237D01*
X60425500Y-37756018D01*
X60425500Y-37643982D01*
X60396503Y-37535763D01*
X60340485Y-37438737D01*
X60261263Y-37359515D01*
X60164237Y-37303497D01*
X60056018Y-37274500D01*
X59943982Y-37274500D01*
X59835763Y-37303497D01*
X59835760Y-37303498D01*
X59738740Y-37359513D01*
X59738734Y-37359517D01*
X59659517Y-37438734D01*
X59659513Y-37438740D01*
X59603498Y-37535760D01*
X59603497Y-37535763D01*
X59574500Y-37643982D01*
X56525500Y-37643982D01*
X56496503Y-37535763D01*
X56440485Y-37438737D01*
X56361263Y-37359515D01*
X56264237Y-37303497D01*
X56156018Y-37274500D01*
X56043982Y-37274500D01*
X55935763Y-37303497D01*
X55935760Y-37303498D01*
X55838740Y-37359513D01*
X55838734Y-37359517D01*
X55759517Y-37438734D01*
X55759513Y-37438740D01*
X55703498Y-37535760D01*
X55703497Y-37535763D01*
X55674500Y-37643982D01*
X49205500Y-37643982D01*
X49205500Y-35843982D01*
X53374500Y-35843982D01*
X53374500Y-35956018D01*
X53403497Y-36064237D01*
X53459515Y-36161263D01*
X53538737Y-36240485D01*
X53635763Y-36296503D01*
X53743982Y-36325500D01*
X53743984Y-36325500D01*
X53856016Y-36325500D01*
X53856018Y-36325500D01*
X53964237Y-36296503D01*
X54061263Y-36240485D01*
X54140485Y-36161263D01*
X54196503Y-36064237D01*
X54225500Y-35956018D01*
X54225500Y-35843982D01*
X54196503Y-35735763D01*
X54140485Y-35638737D01*
X54061263Y-35559515D01*
X53964237Y-35503497D01*
X53856018Y-35474500D01*
X53743982Y-35474500D01*
X53635763Y-35503497D01*
X53635760Y-35503498D01*
X53538740Y-35559513D01*
X53538734Y-35559517D01*
X53459517Y-35638734D01*
X53459513Y-35638740D01*
X53403498Y-35735760D01*
X53403497Y-35735763D01*
X53374500Y-35843982D01*
X49205500Y-35843982D01*
X49205500Y-35124000D01*
X49225185Y-35056961D01*
X49277989Y-35011206D01*
X49329500Y-35000000D01*
X56698890Y-35000000D01*
X56765929Y-35019685D01*
G37*
%TD.AperFunction*%
%TD*%
%TA.AperFunction,Conductor*%
%TO.N,+24V*%
G36*
X59053042Y-16520185D02*
G01*
X59098797Y-16572989D01*
X59108741Y-16642147D01*
X59079716Y-16705703D01*
X59021999Y-16743160D01*
X58952049Y-16764378D01*
X58853022Y-16794418D01*
X58544343Y-16922278D01*
X58544338Y-16922280D01*
X58249696Y-17079769D01*
X58249678Y-17079780D01*
X57971890Y-17265393D01*
X57971876Y-17265403D01*
X57713604Y-17477361D01*
X57477361Y-17713604D01*
X57265403Y-17971876D01*
X57265393Y-17971890D01*
X57079780Y-18249678D01*
X57079769Y-18249696D01*
X56922280Y-18544338D01*
X56922278Y-18544343D01*
X56794418Y-18853022D01*
X56697428Y-19172758D01*
X56697425Y-19172769D01*
X56632250Y-19500434D01*
X56632247Y-19500451D01*
X56599500Y-19832947D01*
X56599500Y-20167052D01*
X56632247Y-20499548D01*
X56632250Y-20499565D01*
X56697425Y-20827230D01*
X56697428Y-20827241D01*
X56794418Y-21146977D01*
X56922278Y-21455656D01*
X56922280Y-21455661D01*
X57079769Y-21750303D01*
X57079780Y-21750321D01*
X57265393Y-22028109D01*
X57265403Y-22028123D01*
X57477361Y-22286395D01*
X57713604Y-22522638D01*
X57713609Y-22522642D01*
X57713610Y-22522643D01*
X57971882Y-22734601D01*
X58249685Y-22920224D01*
X58249694Y-22920229D01*
X58249696Y-22920230D01*
X58544338Y-23077719D01*
X58544340Y-23077719D01*
X58544346Y-23077723D01*
X58853024Y-23205582D01*
X59172749Y-23302569D01*
X59172755Y-23302570D01*
X59172758Y-23302571D01*
X59172769Y-23302574D01*
X59378243Y-23343444D01*
X59500441Y-23367751D01*
X59832944Y-23400500D01*
X59832947Y-23400500D01*
X60167053Y-23400500D01*
X60167056Y-23400500D01*
X60499559Y-23367751D01*
X60661757Y-23335487D01*
X60827230Y-23302574D01*
X60827241Y-23302571D01*
X60827241Y-23302570D01*
X60827251Y-23302569D01*
X61146976Y-23205582D01*
X61455654Y-23077723D01*
X61750315Y-22920224D01*
X62028118Y-22734601D01*
X62286390Y-22522643D01*
X62522643Y-22286390D01*
X62734601Y-22028118D01*
X62920224Y-21750315D01*
X63077723Y-21455654D01*
X63205582Y-21146976D01*
X63256840Y-20977998D01*
X63295137Y-20919562D01*
X63358949Y-20891106D01*
X63428016Y-20901666D01*
X63480409Y-20947890D01*
X63499500Y-21013996D01*
X63499500Y-25670500D01*
X63479815Y-25737539D01*
X63427011Y-25783294D01*
X63375500Y-25794500D01*
X60529492Y-25794500D01*
X60485813Y-25799197D01*
X60434325Y-25810397D01*
X60424127Y-25812890D01*
X60424124Y-25812891D01*
X60343416Y-25855899D01*
X60343413Y-25855901D01*
X60290604Y-25901660D01*
X60272660Y-25919242D01*
X60272654Y-25919249D01*
X60228011Y-25999059D01*
X60228009Y-25999064D01*
X60208326Y-26066096D01*
X60208325Y-26066101D01*
X60208325Y-26066102D01*
X60200002Y-26123992D01*
X60200000Y-26124003D01*
X60200000Y-26000000D01*
X54000000Y-26000000D01*
X54000000Y-26124003D01*
X53999999Y-26123992D01*
X53995303Y-26080316D01*
X53991397Y-26062364D01*
X53984102Y-26028825D01*
X53983848Y-26027789D01*
X53981610Y-26018627D01*
X53938600Y-25937915D01*
X53892845Y-25885111D01*
X53892839Y-25885104D01*
X53875257Y-25867160D01*
X53875256Y-25867159D01*
X53875254Y-25867157D01*
X53875252Y-25867156D01*
X53875250Y-25867154D01*
X53795440Y-25822511D01*
X53795435Y-25822509D01*
X53728403Y-25802826D01*
X53728399Y-25802825D01*
X53728398Y-25802825D01*
X53670500Y-25794500D01*
X49329500Y-25794500D01*
X49329492Y-25794500D01*
X49285813Y-25799197D01*
X49234325Y-25810397D01*
X49224127Y-25812890D01*
X49224123Y-25812891D01*
X49160771Y-25846650D01*
X49092350Y-25860804D01*
X49041926Y-25845437D01*
X49000937Y-25822510D01*
X49000935Y-25822509D01*
X48933903Y-25802826D01*
X48933899Y-25802825D01*
X48933898Y-25802825D01*
X48876000Y-25794500D01*
X43124000Y-25794500D01*
X43123992Y-25794500D01*
X43080313Y-25799197D01*
X43028825Y-25810397D01*
X43018627Y-25812890D01*
X43018624Y-25812891D01*
X42937916Y-25855899D01*
X42937913Y-25855901D01*
X42885104Y-25901660D01*
X42867160Y-25919242D01*
X42867154Y-25919249D01*
X42822511Y-25999059D01*
X42822509Y-25999064D01*
X42802826Y-26066096D01*
X42802825Y-26066101D01*
X42802825Y-26066102D01*
X42794502Y-26123992D01*
X42794500Y-26124003D01*
X42794500Y-40876007D01*
X42799197Y-40919686D01*
X42810397Y-40971174D01*
X42812890Y-40981372D01*
X42812892Y-40981379D01*
X42846649Y-41044726D01*
X42860804Y-41113147D01*
X42845438Y-41163573D01*
X42822511Y-41204562D01*
X42822509Y-41204564D01*
X42802826Y-41271596D01*
X42802825Y-41271601D01*
X42802825Y-41271602D01*
X42794527Y-41329316D01*
X42794500Y-41329503D01*
X42794500Y-53375500D01*
X42774815Y-53442539D01*
X42722011Y-53488294D01*
X42670500Y-53499500D01*
X21013997Y-53499500D01*
X20946958Y-53479815D01*
X20901203Y-53427011D01*
X20891259Y-53357853D01*
X20920284Y-53294297D01*
X20978000Y-53256839D01*
X21146976Y-53205582D01*
X21455654Y-53077723D01*
X21750315Y-52920224D01*
X22028118Y-52734601D01*
X22286390Y-52522643D01*
X22522643Y-52286390D01*
X22734601Y-52028118D01*
X22920224Y-51750315D01*
X23077723Y-51455654D01*
X23205582Y-51146976D01*
X23302569Y-50827251D01*
X23302571Y-50827241D01*
X23302574Y-50827230D01*
X23350160Y-50587993D01*
X23367751Y-50499559D01*
X23400500Y-50167056D01*
X23400500Y-49832944D01*
X23367751Y-49500441D01*
X23343444Y-49378243D01*
X23302574Y-49172769D01*
X23302571Y-49172758D01*
X23302570Y-49172755D01*
X23302569Y-49172749D01*
X23210953Y-48870730D01*
X36124500Y-48870730D01*
X36124500Y-50479269D01*
X36127353Y-50509699D01*
X36127353Y-50509701D01*
X36172206Y-50637880D01*
X36172207Y-50637882D01*
X36252850Y-50747150D01*
X36362118Y-50827793D01*
X36383089Y-50835131D01*
X36490299Y-50872646D01*
X36520730Y-50875500D01*
X36520734Y-50875500D01*
X37829270Y-50875500D01*
X37859699Y-50872646D01*
X37859701Y-50872646D01*
X37923790Y-50850219D01*
X37987882Y-50827793D01*
X38097150Y-50747150D01*
X38177793Y-50637882D01*
X38200219Y-50573790D01*
X38222646Y-50509701D01*
X38222646Y-50509699D01*
X38225500Y-50479269D01*
X38225500Y-49421530D01*
X38624500Y-49421530D01*
X38624500Y-49928469D01*
X38664868Y-50131412D01*
X38664870Y-50131420D01*
X38691825Y-50196496D01*
X38744059Y-50322598D01*
X38801541Y-50408626D01*
X38859024Y-50494657D01*
X39005342Y-50640975D01*
X39005345Y-50640977D01*
X39177402Y-50755941D01*
X39368580Y-50835130D01*
X39557187Y-50872646D01*
X39571530Y-50875499D01*
X39571534Y-50875500D01*
X39571535Y-50875500D01*
X39778466Y-50875500D01*
X39778467Y-50875499D01*
X39981420Y-50835130D01*
X40172598Y-50755941D01*
X40344655Y-50640977D01*
X40490977Y-50494655D01*
X40605941Y-50322598D01*
X40685130Y-50131420D01*
X40725500Y-49928465D01*
X40725500Y-49421535D01*
X40685130Y-49218580D01*
X40605941Y-49027402D01*
X40490977Y-48855345D01*
X40490975Y-48855342D01*
X40344657Y-48709024D01*
X40258626Y-48651541D01*
X40172598Y-48594059D01*
X39981420Y-48514870D01*
X39981412Y-48514868D01*
X39778469Y-48474500D01*
X39778465Y-48474500D01*
X39571535Y-48474500D01*
X39571530Y-48474500D01*
X39368587Y-48514868D01*
X39368579Y-48514870D01*
X39177403Y-48594058D01*
X39005342Y-48709024D01*
X38859024Y-48855342D01*
X38744058Y-49027403D01*
X38664870Y-49218579D01*
X38664868Y-49218587D01*
X38624500Y-49421530D01*
X38225500Y-49421530D01*
X38225500Y-48870730D01*
X38222646Y-48840300D01*
X38222646Y-48840298D01*
X38177793Y-48712119D01*
X38177792Y-48712117D01*
X38097150Y-48602850D01*
X37987882Y-48522207D01*
X37987880Y-48522206D01*
X37859700Y-48477353D01*
X37829270Y-48474500D01*
X37829266Y-48474500D01*
X36520734Y-48474500D01*
X36520730Y-48474500D01*
X36490300Y-48477353D01*
X36490298Y-48477353D01*
X36362119Y-48522206D01*
X36362117Y-48522207D01*
X36252850Y-48602850D01*
X36172207Y-48712117D01*
X36172206Y-48712119D01*
X36127353Y-48840298D01*
X36127353Y-48840300D01*
X36124500Y-48870730D01*
X23210953Y-48870730D01*
X23205582Y-48853024D01*
X23077723Y-48544346D01*
X22920224Y-48249685D01*
X22734601Y-47971882D01*
X22522643Y-47713610D01*
X22522642Y-47713609D01*
X22522638Y-47713604D01*
X22286395Y-47477361D01*
X22028123Y-47265403D01*
X22028122Y-47265402D01*
X22028118Y-47265399D01*
X21750315Y-47079776D01*
X21750310Y-47079773D01*
X21750303Y-47079769D01*
X21455661Y-46922280D01*
X21455656Y-46922278D01*
X21146977Y-46794418D01*
X20827241Y-46697428D01*
X20827230Y-46697425D01*
X20499565Y-46632250D01*
X20499548Y-46632247D01*
X20248108Y-46607483D01*
X20167056Y-46599500D01*
X19832944Y-46599500D01*
X19757982Y-46606883D01*
X19500451Y-46632247D01*
X19500434Y-46632250D01*
X19172769Y-46697425D01*
X19172758Y-46697428D01*
X18853022Y-46794418D01*
X18544343Y-46922278D01*
X18544338Y-46922280D01*
X18249696Y-47079769D01*
X18249678Y-47079780D01*
X17971890Y-47265393D01*
X17971876Y-47265403D01*
X17713604Y-47477361D01*
X17477361Y-47713604D01*
X17265403Y-47971876D01*
X17265393Y-47971890D01*
X17079780Y-48249678D01*
X17079769Y-48249696D01*
X16922280Y-48544338D01*
X16922278Y-48544343D01*
X16794418Y-48853022D01*
X16779007Y-48903828D01*
X16754080Y-48986003D01*
X16743161Y-49021998D01*
X16704863Y-49080437D01*
X16641051Y-49108893D01*
X16571984Y-49098333D01*
X16519591Y-49052109D01*
X16500500Y-48986003D01*
X16500500Y-44043982D01*
X29474500Y-44043982D01*
X29474500Y-44156018D01*
X29503497Y-44264237D01*
X29559515Y-44361263D01*
X29638737Y-44440485D01*
X29735763Y-44496503D01*
X29843982Y-44525500D01*
X29843984Y-44525500D01*
X29956016Y-44525500D01*
X29956018Y-44525500D01*
X30064237Y-44496503D01*
X30161263Y-44440485D01*
X30240485Y-44361263D01*
X30296503Y-44264237D01*
X30325500Y-44156018D01*
X30325500Y-44043982D01*
X30296503Y-43935763D01*
X30240485Y-43838737D01*
X30161263Y-43759515D01*
X30064237Y-43703497D01*
X29956018Y-43674500D01*
X29843982Y-43674500D01*
X29735763Y-43703497D01*
X29735760Y-43703498D01*
X29638740Y-43759513D01*
X29638734Y-43759517D01*
X29559517Y-43838734D01*
X29559513Y-43838740D01*
X29503498Y-43935760D01*
X29503497Y-43935763D01*
X29474500Y-44043982D01*
X16500500Y-44043982D01*
X16500500Y-43243982D01*
X26874500Y-43243982D01*
X26874500Y-43356018D01*
X26903497Y-43464237D01*
X26959515Y-43561263D01*
X27038737Y-43640485D01*
X27135763Y-43696503D01*
X27243982Y-43725500D01*
X27243984Y-43725500D01*
X27356016Y-43725500D01*
X27356018Y-43725500D01*
X27464237Y-43696503D01*
X27561263Y-43640485D01*
X27640485Y-43561263D01*
X27696503Y-43464237D01*
X27725500Y-43356018D01*
X27725500Y-43243982D01*
X32074500Y-43243982D01*
X32074500Y-43356018D01*
X32103497Y-43464237D01*
X32159515Y-43561263D01*
X32238737Y-43640485D01*
X32335763Y-43696503D01*
X32443982Y-43725500D01*
X32443984Y-43725500D01*
X32556016Y-43725500D01*
X32556018Y-43725500D01*
X32664237Y-43696503D01*
X32761263Y-43640485D01*
X32840485Y-43561263D01*
X32896503Y-43464237D01*
X32925500Y-43356018D01*
X32925500Y-43243982D01*
X32896503Y-43135763D01*
X32840485Y-43038737D01*
X32761263Y-42959515D01*
X32664237Y-42903497D01*
X32556018Y-42874500D01*
X32443982Y-42874500D01*
X32335763Y-42903497D01*
X32335760Y-42903498D01*
X32238740Y-42959513D01*
X32238734Y-42959517D01*
X32159517Y-43038734D01*
X32159513Y-43038740D01*
X32103498Y-43135760D01*
X32103497Y-43135763D01*
X32074500Y-43243982D01*
X27725500Y-43243982D01*
X27696503Y-43135763D01*
X27640485Y-43038737D01*
X27561263Y-42959515D01*
X27464237Y-42903497D01*
X27356018Y-42874500D01*
X27243982Y-42874500D01*
X27135763Y-42903497D01*
X27135760Y-42903498D01*
X27038740Y-42959513D01*
X27038734Y-42959517D01*
X26959517Y-43038734D01*
X26959513Y-43038740D01*
X26903498Y-43135760D01*
X26903497Y-43135763D01*
X26874500Y-43243982D01*
X16500500Y-43243982D01*
X16500500Y-42443982D01*
X29474500Y-42443982D01*
X29474500Y-42556018D01*
X29503497Y-42664237D01*
X29559515Y-42761263D01*
X29638737Y-42840485D01*
X29735763Y-42896503D01*
X29843982Y-42925500D01*
X29843984Y-42925500D01*
X29956016Y-42925500D01*
X29956018Y-42925500D01*
X30064237Y-42896503D01*
X30161263Y-42840485D01*
X30240485Y-42761263D01*
X30296503Y-42664237D01*
X30325500Y-42556018D01*
X30325500Y-42443982D01*
X30296503Y-42335763D01*
X30240485Y-42238737D01*
X30161263Y-42159515D01*
X30064237Y-42103497D01*
X29956018Y-42074500D01*
X29843982Y-42074500D01*
X29735763Y-42103497D01*
X29735760Y-42103498D01*
X29638740Y-42159513D01*
X29638734Y-42159517D01*
X29559517Y-42238734D01*
X29559513Y-42238740D01*
X29503498Y-42335760D01*
X29503497Y-42335763D01*
X29474500Y-42443982D01*
X16500500Y-42443982D01*
X16500500Y-38095730D01*
X18799500Y-38095730D01*
X18799500Y-39404269D01*
X18802353Y-39434699D01*
X18802353Y-39434701D01*
X18847206Y-39562880D01*
X18847207Y-39562882D01*
X18927850Y-39672150D01*
X19037118Y-39752793D01*
X19079845Y-39767744D01*
X19165299Y-39797646D01*
X19195730Y-39800500D01*
X19195734Y-39800500D01*
X20804270Y-39800500D01*
X20834699Y-39797646D01*
X20834701Y-39797646D01*
X20898790Y-39775219D01*
X20962882Y-39752793D01*
X21072150Y-39672150D01*
X21152793Y-39562882D01*
X21175219Y-39498790D01*
X21197646Y-39434701D01*
X21197646Y-39434699D01*
X21200500Y-39404269D01*
X21200500Y-38095730D01*
X21197646Y-38065300D01*
X21197646Y-38065298D01*
X21152793Y-37937119D01*
X21152792Y-37937117D01*
X21072150Y-37827850D01*
X20962882Y-37747207D01*
X20962880Y-37747206D01*
X20834700Y-37702353D01*
X20804270Y-37699500D01*
X20804266Y-37699500D01*
X19195734Y-37699500D01*
X19195730Y-37699500D01*
X19165300Y-37702353D01*
X19165298Y-37702353D01*
X19037119Y-37747206D01*
X19037117Y-37747207D01*
X18927850Y-37827850D01*
X18847207Y-37937117D01*
X18847206Y-37937119D01*
X18802353Y-38065298D01*
X18802353Y-38065300D01*
X18799500Y-38095730D01*
X16500500Y-38095730D01*
X16500500Y-32543982D01*
X29474500Y-32543982D01*
X29474500Y-32656018D01*
X29503497Y-32764237D01*
X29559515Y-32861263D01*
X29638737Y-32940485D01*
X29735763Y-32996503D01*
X29843982Y-33025500D01*
X29843984Y-33025500D01*
X29956016Y-33025500D01*
X29956018Y-33025500D01*
X30064237Y-32996503D01*
X30161263Y-32940485D01*
X30240485Y-32861263D01*
X30296503Y-32764237D01*
X30325500Y-32656018D01*
X30325500Y-32543982D01*
X30296503Y-32435763D01*
X30240485Y-32338737D01*
X30161263Y-32259515D01*
X30064237Y-32203497D01*
X29956018Y-32174500D01*
X29843982Y-32174500D01*
X29735763Y-32203497D01*
X29735760Y-32203498D01*
X29638740Y-32259513D01*
X29638734Y-32259517D01*
X29559517Y-32338734D01*
X29559513Y-32338740D01*
X29503498Y-32435760D01*
X29503497Y-32435763D01*
X29474500Y-32543982D01*
X16500500Y-32543982D01*
X16500500Y-31743982D01*
X26874500Y-31743982D01*
X26874500Y-31856018D01*
X26903497Y-31964237D01*
X26959515Y-32061263D01*
X27038737Y-32140485D01*
X27135763Y-32196503D01*
X27243982Y-32225500D01*
X27243984Y-32225500D01*
X27356016Y-32225500D01*
X27356018Y-32225500D01*
X27464237Y-32196503D01*
X27561263Y-32140485D01*
X27640485Y-32061263D01*
X27696503Y-31964237D01*
X27725500Y-31856018D01*
X27725500Y-31743982D01*
X32074500Y-31743982D01*
X32074500Y-31856018D01*
X32103497Y-31964237D01*
X32159515Y-32061263D01*
X32238737Y-32140485D01*
X32335763Y-32196503D01*
X32443982Y-32225500D01*
X32443984Y-32225500D01*
X32556016Y-32225500D01*
X32556018Y-32225500D01*
X32664237Y-32196503D01*
X32761263Y-32140485D01*
X32840485Y-32061263D01*
X32896503Y-31964237D01*
X32925500Y-31856018D01*
X32925500Y-31743982D01*
X32896503Y-31635763D01*
X32840485Y-31538737D01*
X32761263Y-31459515D01*
X32664237Y-31403497D01*
X32556018Y-31374500D01*
X32443982Y-31374500D01*
X32335763Y-31403497D01*
X32335760Y-31403498D01*
X32238740Y-31459513D01*
X32238734Y-31459517D01*
X32159517Y-31538734D01*
X32159513Y-31538740D01*
X32103498Y-31635760D01*
X32103497Y-31635763D01*
X32074500Y-31743982D01*
X27725500Y-31743982D01*
X27696503Y-31635763D01*
X27640485Y-31538737D01*
X27561263Y-31459515D01*
X27464237Y-31403497D01*
X27356018Y-31374500D01*
X27243982Y-31374500D01*
X27135763Y-31403497D01*
X27135760Y-31403498D01*
X27038740Y-31459513D01*
X27038734Y-31459517D01*
X26959517Y-31538734D01*
X26959513Y-31538740D01*
X26903498Y-31635760D01*
X26903497Y-31635763D01*
X26874500Y-31743982D01*
X16500500Y-31743982D01*
X16500500Y-30943982D01*
X29474500Y-30943982D01*
X29474500Y-31056018D01*
X29503497Y-31164237D01*
X29559515Y-31261263D01*
X29638737Y-31340485D01*
X29735763Y-31396503D01*
X29843982Y-31425500D01*
X29843984Y-31425500D01*
X29956016Y-31425500D01*
X29956018Y-31425500D01*
X30064237Y-31396503D01*
X30161263Y-31340485D01*
X30240485Y-31261263D01*
X30296503Y-31164237D01*
X30325500Y-31056018D01*
X30325500Y-30943982D01*
X30296503Y-30835763D01*
X30240485Y-30738737D01*
X30161263Y-30659515D01*
X30064237Y-30603497D01*
X29956018Y-30574500D01*
X29843982Y-30574500D01*
X29735763Y-30603497D01*
X29735760Y-30603498D01*
X29638740Y-30659513D01*
X29638734Y-30659517D01*
X29559517Y-30738734D01*
X29559513Y-30738740D01*
X29503498Y-30835760D01*
X29503497Y-30835763D01*
X29474500Y-30943982D01*
X16500500Y-30943982D01*
X16500500Y-28095730D01*
X18799500Y-28095730D01*
X18799500Y-29404269D01*
X18802353Y-29434699D01*
X18802353Y-29434701D01*
X18847206Y-29562880D01*
X18847207Y-29562882D01*
X18927850Y-29672150D01*
X19037118Y-29752793D01*
X19079845Y-29767744D01*
X19165299Y-29797646D01*
X19195730Y-29800500D01*
X19195734Y-29800500D01*
X20804270Y-29800500D01*
X20834699Y-29797646D01*
X20834701Y-29797646D01*
X20898790Y-29775219D01*
X20962882Y-29752793D01*
X21072150Y-29672150D01*
X21152793Y-29562882D01*
X21175219Y-29498790D01*
X21197646Y-29434701D01*
X21197646Y-29434699D01*
X21200500Y-29404269D01*
X21200500Y-28095730D01*
X21197646Y-28065300D01*
X21197646Y-28065298D01*
X21152793Y-27937119D01*
X21152792Y-27937117D01*
X21072150Y-27827850D01*
X20962882Y-27747207D01*
X20962880Y-27747206D01*
X20834700Y-27702353D01*
X20804270Y-27699500D01*
X20804266Y-27699500D01*
X19195734Y-27699500D01*
X19195730Y-27699500D01*
X19165300Y-27702353D01*
X19165298Y-27702353D01*
X19037119Y-27747206D01*
X19037117Y-27747207D01*
X18927850Y-27827850D01*
X18847207Y-27937117D01*
X18847206Y-27937119D01*
X18802353Y-28065298D01*
X18802353Y-28065300D01*
X18799500Y-28095730D01*
X16500500Y-28095730D01*
X16500500Y-21013996D01*
X16520185Y-20946957D01*
X16572989Y-20901202D01*
X16642147Y-20891258D01*
X16705703Y-20920283D01*
X16743159Y-20977998D01*
X16779398Y-21097463D01*
X16794418Y-21146977D01*
X16922278Y-21455656D01*
X16922280Y-21455661D01*
X17079769Y-21750303D01*
X17079780Y-21750321D01*
X17265393Y-22028109D01*
X17265403Y-22028123D01*
X17477361Y-22286395D01*
X17713604Y-22522638D01*
X17713609Y-22522642D01*
X17713610Y-22522643D01*
X17971882Y-22734601D01*
X18249685Y-22920224D01*
X18249694Y-22920229D01*
X18249696Y-22920230D01*
X18544338Y-23077719D01*
X18544340Y-23077719D01*
X18544346Y-23077723D01*
X18853024Y-23205582D01*
X19172749Y-23302569D01*
X19172755Y-23302570D01*
X19172758Y-23302571D01*
X19172769Y-23302574D01*
X19378243Y-23343444D01*
X19500441Y-23367751D01*
X19832944Y-23400500D01*
X19832947Y-23400500D01*
X20167053Y-23400500D01*
X20167056Y-23400500D01*
X20499559Y-23367751D01*
X20661757Y-23335487D01*
X20827230Y-23302574D01*
X20827241Y-23302571D01*
X20827241Y-23302570D01*
X20827251Y-23302569D01*
X21146976Y-23205582D01*
X21455654Y-23077723D01*
X21750315Y-22920224D01*
X22028118Y-22734601D01*
X22286390Y-22522643D01*
X22522643Y-22286390D01*
X22734601Y-22028118D01*
X22920224Y-21750315D01*
X23077723Y-21455654D01*
X23205582Y-21146976D01*
X23302569Y-20827251D01*
X23302571Y-20827241D01*
X23302574Y-20827230D01*
X23335487Y-20661757D01*
X23367751Y-20499559D01*
X23400500Y-20167056D01*
X23400500Y-19832944D01*
X23367751Y-19500441D01*
X23339793Y-19359885D01*
X23302574Y-19172769D01*
X23302571Y-19172758D01*
X23302570Y-19172755D01*
X23302569Y-19172749D01*
X23205582Y-18853024D01*
X23185397Y-18804293D01*
X31899500Y-18804293D01*
X31899500Y-21195706D01*
X31909689Y-21310320D01*
X31963428Y-21498133D01*
X31963429Y-21498134D01*
X32053874Y-21671282D01*
X32101623Y-21729841D01*
X32177321Y-21822678D01*
X32253020Y-21884402D01*
X32328718Y-21946126D01*
X32501866Y-22036571D01*
X32689675Y-22090310D01*
X32804290Y-22100500D01*
X32804296Y-22100500D01*
X35195704Y-22100500D01*
X35195710Y-22100500D01*
X35310325Y-22090310D01*
X35498134Y-22036571D01*
X35671282Y-21946126D01*
X35822678Y-21822678D01*
X35946126Y-21671282D01*
X36036571Y-21498134D01*
X36090310Y-21310325D01*
X36100500Y-21195710D01*
X36100500Y-20450409D01*
X36120185Y-20383370D01*
X36172989Y-20337615D01*
X36242147Y-20327671D01*
X36305703Y-20356696D01*
X36331884Y-20388406D01*
X36359515Y-20436263D01*
X36438737Y-20515485D01*
X36535763Y-20571503D01*
X36643982Y-20600500D01*
X36643984Y-20600500D01*
X36756016Y-20600500D01*
X36756018Y-20600500D01*
X36864237Y-20571503D01*
X36961263Y-20515485D01*
X37040485Y-20436263D01*
X37092613Y-20345973D01*
X37143180Y-20297759D01*
X37211787Y-20284535D01*
X37276651Y-20310503D01*
X37307385Y-20345972D01*
X37359515Y-20436263D01*
X37438737Y-20515485D01*
X37535763Y-20571503D01*
X37643982Y-20600500D01*
X37643984Y-20600500D01*
X37756016Y-20600500D01*
X37756018Y-20600500D01*
X37864237Y-20571503D01*
X37961263Y-20515485D01*
X38040485Y-20436263D01*
X38092613Y-20345973D01*
X38143180Y-20297759D01*
X38211787Y-20284535D01*
X38276651Y-20310503D01*
X38307385Y-20345972D01*
X38359515Y-20436263D01*
X38438737Y-20515485D01*
X38535763Y-20571503D01*
X38643982Y-20600500D01*
X38643984Y-20600500D01*
X38756016Y-20600500D01*
X38756018Y-20600500D01*
X38864237Y-20571503D01*
X38961263Y-20515485D01*
X39040485Y-20436263D01*
X39096503Y-20339237D01*
X39125500Y-20231018D01*
X39125500Y-20118982D01*
X41274500Y-20118982D01*
X41274500Y-20231018D01*
X41303063Y-20337615D01*
X41303497Y-20339236D01*
X41303498Y-20339239D01*
X41313577Y-20356696D01*
X41359515Y-20436263D01*
X41438737Y-20515485D01*
X41535763Y-20571503D01*
X41643982Y-20600500D01*
X41643984Y-20600500D01*
X41756016Y-20600500D01*
X41756018Y-20600500D01*
X41864237Y-20571503D01*
X41961263Y-20515485D01*
X42040485Y-20436263D01*
X42096503Y-20339237D01*
X42125500Y-20231018D01*
X42125500Y-20118982D01*
X43674500Y-20118982D01*
X43674500Y-20231018D01*
X43703063Y-20337615D01*
X43703497Y-20339236D01*
X43703498Y-20339239D01*
X43713577Y-20356696D01*
X43759515Y-20436263D01*
X43838737Y-20515485D01*
X43935763Y-20571503D01*
X44043982Y-20600500D01*
X44043984Y-20600500D01*
X44156016Y-20600500D01*
X44156018Y-20600500D01*
X44264237Y-20571503D01*
X44361263Y-20515485D01*
X44440485Y-20436263D01*
X44442613Y-20432576D01*
X44445220Y-20430090D01*
X44445433Y-20429814D01*
X44445476Y-20429847D01*
X44493179Y-20384362D01*
X44561786Y-20371138D01*
X44626651Y-20397106D01*
X44657386Y-20432576D01*
X44659515Y-20436263D01*
X44738737Y-20515485D01*
X44835763Y-20571503D01*
X44943982Y-20600500D01*
X44943984Y-20600500D01*
X45056016Y-20600500D01*
X45056018Y-20600500D01*
X45164237Y-20571503D01*
X45261263Y-20515485D01*
X45340485Y-20436263D01*
X45392613Y-20345973D01*
X45443180Y-20297759D01*
X45511787Y-20284535D01*
X45576651Y-20310503D01*
X45607385Y-20345972D01*
X45659515Y-20436263D01*
X45738737Y-20515485D01*
X45835763Y-20571503D01*
X45943982Y-20600500D01*
X45943984Y-20600500D01*
X46056016Y-20600500D01*
X46056018Y-20600500D01*
X46164237Y-20571503D01*
X46261263Y-20515485D01*
X46340485Y-20436263D01*
X46396503Y-20339237D01*
X46425500Y-20231018D01*
X46425500Y-20118982D01*
X46396503Y-20010763D01*
X46340485Y-19913737D01*
X46261263Y-19834515D01*
X46164237Y-19778497D01*
X46056018Y-19749500D01*
X45943982Y-19749500D01*
X45835763Y-19778497D01*
X45835760Y-19778498D01*
X45738740Y-19834513D01*
X45738734Y-19834517D01*
X45659517Y-19913734D01*
X45659513Y-19913740D01*
X45607387Y-20004025D01*
X45556820Y-20052241D01*
X45488213Y-20065463D01*
X45423348Y-20039495D01*
X45392613Y-20004025D01*
X45344189Y-19920153D01*
X45340485Y-19913737D01*
X45261263Y-19834515D01*
X45164237Y-19778497D01*
X45056018Y-19749500D01*
X44943982Y-19749500D01*
X44835763Y-19778497D01*
X44835760Y-19778498D01*
X44738740Y-19834513D01*
X44738734Y-19834517D01*
X44659517Y-19913734D01*
X44659513Y-19913740D01*
X44657385Y-19917426D01*
X44654776Y-19919913D01*
X44654567Y-19920186D01*
X44654524Y-19920153D01*
X44606816Y-19965640D01*
X44538209Y-19978860D01*
X44473345Y-19952890D01*
X44442615Y-19917426D01*
X44442244Y-19916784D01*
X44440485Y-19913737D01*
X44361263Y-19834515D01*
X44264237Y-19778497D01*
X44156018Y-19749500D01*
X44043982Y-19749500D01*
X43935763Y-19778497D01*
X43935760Y-19778498D01*
X43838740Y-19834513D01*
X43838734Y-19834517D01*
X43759517Y-19913734D01*
X43759513Y-19913740D01*
X43703498Y-20010760D01*
X43703497Y-20010763D01*
X43674500Y-20118982D01*
X42125500Y-20118982D01*
X42096503Y-20010763D01*
X42040485Y-19913737D01*
X41961263Y-19834515D01*
X41864237Y-19778497D01*
X41756018Y-19749500D01*
X41643982Y-19749500D01*
X41535763Y-19778497D01*
X41535760Y-19778498D01*
X41438740Y-19834513D01*
X41438734Y-19834517D01*
X41359517Y-19913734D01*
X41359513Y-19913740D01*
X41303498Y-20010760D01*
X41303497Y-20010763D01*
X41274500Y-20118982D01*
X39125500Y-20118982D01*
X39096503Y-20010763D01*
X39040485Y-19913737D01*
X38961263Y-19834515D01*
X38864237Y-19778497D01*
X38756018Y-19749500D01*
X38643982Y-19749500D01*
X38535763Y-19778497D01*
X38535760Y-19778498D01*
X38438740Y-19834513D01*
X38438734Y-19834517D01*
X38359517Y-19913734D01*
X38359513Y-19913740D01*
X38307387Y-20004025D01*
X38256820Y-20052241D01*
X38188213Y-20065463D01*
X38123348Y-20039495D01*
X38092613Y-20004025D01*
X38044189Y-19920153D01*
X38040485Y-19913737D01*
X37961263Y-19834515D01*
X37864237Y-19778497D01*
X37756018Y-19749500D01*
X37643982Y-19749500D01*
X37535763Y-19778497D01*
X37535760Y-19778498D01*
X37438740Y-19834513D01*
X37438734Y-19834517D01*
X37359517Y-19913734D01*
X37359513Y-19913740D01*
X37307387Y-20004025D01*
X37256820Y-20052241D01*
X37188213Y-20065463D01*
X37123348Y-20039495D01*
X37092613Y-20004025D01*
X37044189Y-19920153D01*
X37040485Y-19913737D01*
X36961263Y-19834515D01*
X36864237Y-19778497D01*
X36756018Y-19749500D01*
X36643982Y-19749500D01*
X36535763Y-19778497D01*
X36535760Y-19778498D01*
X36438740Y-19834513D01*
X36438734Y-19834517D01*
X36359517Y-19913734D01*
X36359513Y-19913740D01*
X36331887Y-19961590D01*
X36281320Y-20009806D01*
X36212713Y-20023029D01*
X36147848Y-19997060D01*
X36107320Y-19940146D01*
X36100500Y-19899590D01*
X36100500Y-18804296D01*
X36100500Y-18804290D01*
X36090310Y-18689675D01*
X36036571Y-18501866D01*
X35946126Y-18328718D01*
X35932466Y-18311966D01*
X49299500Y-18311966D01*
X49299500Y-18428027D01*
X49299501Y-18428035D01*
X49310113Y-18547415D01*
X49366089Y-18743045D01*
X49366090Y-18743048D01*
X49366091Y-18743049D01*
X49460302Y-18923407D01*
X49460304Y-18923409D01*
X49588890Y-19081109D01*
X49682803Y-19157684D01*
X49746593Y-19209698D01*
X49926951Y-19303909D01*
X50122582Y-19359886D01*
X50241963Y-19370500D01*
X50358036Y-19370499D01*
X50477418Y-19359886D01*
X50673049Y-19303909D01*
X50853407Y-19209698D01*
X51011109Y-19081109D01*
X51139698Y-18923407D01*
X51233909Y-18743049D01*
X51289886Y-18547418D01*
X51300500Y-18428037D01*
X51300499Y-18311966D01*
X51854500Y-18311966D01*
X51854500Y-18428027D01*
X51854501Y-18428035D01*
X51865113Y-18547415D01*
X51921089Y-18743045D01*
X51921090Y-18743048D01*
X51921091Y-18743049D01*
X52015302Y-18923407D01*
X52015304Y-18923409D01*
X52143890Y-19081109D01*
X52237803Y-19157684D01*
X52301593Y-19209698D01*
X52481951Y-19303909D01*
X52677582Y-19359886D01*
X52796963Y-19370500D01*
X52913036Y-19370499D01*
X53032418Y-19359886D01*
X53228049Y-19303909D01*
X53408407Y-19209698D01*
X53566109Y-19081109D01*
X53694698Y-18923407D01*
X53788909Y-18743049D01*
X53844886Y-18547418D01*
X53855500Y-18428037D01*
X53855499Y-18311964D01*
X53844886Y-18192582D01*
X53788909Y-17996951D01*
X53694698Y-17816593D01*
X53642684Y-17752803D01*
X53566109Y-17658890D01*
X53408409Y-17530304D01*
X53408410Y-17530304D01*
X53408407Y-17530302D01*
X53228049Y-17436091D01*
X53228048Y-17436090D01*
X53228045Y-17436089D01*
X53110829Y-17402550D01*
X53032418Y-17380114D01*
X53032415Y-17380113D01*
X53032413Y-17380113D01*
X52971515Y-17374699D01*
X52913037Y-17369500D01*
X52913031Y-17369500D01*
X52796972Y-17369500D01*
X52796964Y-17369501D01*
X52677584Y-17380113D01*
X52481954Y-17436089D01*
X52391772Y-17483196D01*
X52301593Y-17530302D01*
X52301591Y-17530303D01*
X52301590Y-17530304D01*
X52143890Y-17658890D01*
X52015304Y-17816590D01*
X51921089Y-17996954D01*
X51904803Y-18053874D01*
X51869481Y-18177322D01*
X51865114Y-18192583D01*
X51865113Y-18192586D01*
X51854500Y-18311966D01*
X51300499Y-18311966D01*
X51300499Y-18311964D01*
X51289886Y-18192582D01*
X51233909Y-17996951D01*
X51139698Y-17816593D01*
X51087684Y-17752803D01*
X51011109Y-17658890D01*
X50853409Y-17530304D01*
X50853410Y-17530304D01*
X50853407Y-17530302D01*
X50673049Y-17436091D01*
X50673048Y-17436090D01*
X50673045Y-17436089D01*
X50555829Y-17402550D01*
X50477418Y-17380114D01*
X50477415Y-17380113D01*
X50477413Y-17380113D01*
X50416515Y-17374699D01*
X50358037Y-17369500D01*
X50358031Y-17369500D01*
X50241972Y-17369500D01*
X50241964Y-17369501D01*
X50122584Y-17380113D01*
X49926954Y-17436089D01*
X49836772Y-17483196D01*
X49746593Y-17530302D01*
X49746591Y-17530303D01*
X49746590Y-17530304D01*
X49588890Y-17658890D01*
X49460304Y-17816590D01*
X49366089Y-17996954D01*
X49349803Y-18053874D01*
X49314481Y-18177322D01*
X49310114Y-18192583D01*
X49310113Y-18192586D01*
X49299500Y-18311966D01*
X35932466Y-18311966D01*
X35881677Y-18249678D01*
X35822678Y-18177321D01*
X35729841Y-18101623D01*
X35671282Y-18053874D01*
X35656458Y-18046131D01*
X35498133Y-17963428D01*
X35380992Y-17929910D01*
X35310325Y-17909690D01*
X35310322Y-17909689D01*
X35310320Y-17909689D01*
X35240443Y-17903477D01*
X35195710Y-17899500D01*
X32804290Y-17899500D01*
X32770740Y-17902482D01*
X32689679Y-17909689D01*
X32689675Y-17909689D01*
X32689675Y-17909690D01*
X32665959Y-17916475D01*
X32501866Y-17963428D01*
X32328719Y-18053873D01*
X32177321Y-18177321D01*
X32053873Y-18328719D01*
X31963428Y-18501866D01*
X31909689Y-18689679D01*
X31899500Y-18804293D01*
X23185397Y-18804293D01*
X23077723Y-18544346D01*
X23015549Y-18428027D01*
X22920230Y-18249696D01*
X22920229Y-18249694D01*
X22920224Y-18249685D01*
X22734601Y-17971882D01*
X22522643Y-17713610D01*
X22522642Y-17713609D01*
X22522638Y-17713604D01*
X22286395Y-17477361D01*
X22028123Y-17265403D01*
X22028122Y-17265402D01*
X22028118Y-17265399D01*
X21750315Y-17079776D01*
X21750310Y-17079773D01*
X21750303Y-17079769D01*
X21455661Y-16922280D01*
X21455656Y-16922278D01*
X21146977Y-16794418D01*
X21056208Y-16766884D01*
X20978000Y-16743160D01*
X20919563Y-16704863D01*
X20891107Y-16641051D01*
X20901667Y-16571984D01*
X20947891Y-16519591D01*
X21013997Y-16500500D01*
X58986003Y-16500500D01*
X59053042Y-16520185D01*
G37*
%TD.AperFunction*%
%TA.AperFunction,Conductor*%
G36*
X59722505Y-33400020D02*
G01*
X59710995Y-33400363D01*
X59696256Y-33401241D01*
X59627586Y-33417468D01*
X59627584Y-33417468D01*
X59627583Y-33417469D01*
X59602965Y-33428011D01*
X59563366Y-33444968D01*
X59563362Y-33444969D01*
X59563355Y-33444973D01*
X59541337Y-33456040D01*
X59540893Y-33456264D01*
X59509282Y-33485796D01*
X59446856Y-33517176D01*
X59377374Y-33509825D01*
X59365996Y-33504226D01*
X59364239Y-33503498D01*
X59364237Y-33503497D01*
X59256018Y-33474500D01*
X59143982Y-33474500D01*
X59035763Y-33503497D01*
X59028253Y-33506608D01*
X59027254Y-33504196D01*
X58971938Y-33517612D01*
X58905912Y-33494756D01*
X58889274Y-33480535D01*
X58881558Y-33472660D01*
X58881557Y-33472659D01*
X58881555Y-33472657D01*
X58881553Y-33472656D01*
X58881551Y-33472654D01*
X58801741Y-33428011D01*
X58801736Y-33428009D01*
X58734704Y-33408326D01*
X58734700Y-33408325D01*
X58734699Y-33408325D01*
X58676801Y-33400000D01*
X59723199Y-33400000D01*
X59722505Y-33400020D01*
G37*
%TD.AperFunction*%
%TA.AperFunction,Conductor*%
G36*
X60202846Y-26750009D02*
G01*
X60209646Y-26790448D01*
X60209780Y-26791240D01*
X60209781Y-26791244D01*
X60209782Y-26791246D01*
X60229548Y-26838740D01*
X60244921Y-26875680D01*
X60280296Y-26925360D01*
X60303146Y-26991388D01*
X60286671Y-27059287D01*
X60277790Y-27072603D01*
X60272656Y-27079316D01*
X60228011Y-27159129D01*
X60228009Y-27159134D01*
X60208326Y-27226166D01*
X60208325Y-27226171D01*
X60208325Y-27226172D01*
X60202852Y-27264239D01*
X60200000Y-27284073D01*
X60200000Y-26715935D01*
X60202846Y-26750009D01*
G37*
%TD.AperFunction*%
%TD*%
%TA.AperFunction,Conductor*%
%TO.N,+24V*%
G36*
X60143039Y-26019685D02*
G01*
X60188794Y-26072489D01*
X60200000Y-26124000D01*
X60200000Y-33276000D01*
X60180315Y-33343039D01*
X60127511Y-33388794D01*
X60076000Y-33400000D01*
X54124000Y-33400000D01*
X54056961Y-33380315D01*
X54011206Y-33327511D01*
X54000000Y-33276000D01*
X54000000Y-27605181D01*
X54019685Y-27538142D01*
X54062000Y-27497794D01*
X54064235Y-27496503D01*
X54064237Y-27496503D01*
X54161263Y-27440485D01*
X54240485Y-27361263D01*
X54296503Y-27264237D01*
X54325500Y-27156018D01*
X54325500Y-27043982D01*
X54296503Y-26935763D01*
X54240485Y-26838737D01*
X54161263Y-26759515D01*
X54159125Y-26758280D01*
X54061999Y-26702203D01*
X54013784Y-26651636D01*
X54000000Y-26594817D01*
X54000000Y-26124000D01*
X54019685Y-26056961D01*
X54072489Y-26011206D01*
X54124000Y-26000000D01*
X60076000Y-26000000D01*
X60143039Y-26019685D01*
G37*
%TD.AperFunction*%
%TD*%
%TA.AperFunction,Conductor*%
%TO.N,/Test 3.3*%
G36*
X53737539Y-26019685D02*
G01*
X53783294Y-26072489D01*
X53794500Y-26124000D01*
X53794500Y-26594816D01*
X53800292Y-26643264D01*
X53814076Y-26700080D01*
X53818255Y-26714873D01*
X53865056Y-26793446D01*
X53913270Y-26844012D01*
X53959244Y-26880169D01*
X53959246Y-26880170D01*
X54020949Y-26915795D01*
X54046627Y-26935499D01*
X54064500Y-26953372D01*
X54084207Y-26979055D01*
X54096844Y-27000944D01*
X54109229Y-27030843D01*
X54115774Y-27055268D01*
X54120000Y-27087361D01*
X54120000Y-27112637D01*
X54115774Y-27144731D01*
X54112750Y-27156018D01*
X54109230Y-27169154D01*
X54096844Y-27199054D01*
X54084207Y-27220943D01*
X54064500Y-27246626D01*
X54046628Y-27264498D01*
X54020948Y-27284204D01*
X53967068Y-27315312D01*
X53967010Y-27315342D01*
X53956852Y-27321210D01*
X53956834Y-27321221D01*
X53939368Y-27331305D01*
X53936274Y-27336356D01*
X53927401Y-27343666D01*
X53920185Y-27349069D01*
X53920184Y-27349070D01*
X53877866Y-27389421D01*
X53867158Y-27400424D01*
X53867154Y-27400429D01*
X53822512Y-27480240D01*
X53822509Y-27480245D01*
X53802826Y-27547277D01*
X53794500Y-27605184D01*
X53794500Y-33276007D01*
X53799197Y-33319686D01*
X53810397Y-33371174D01*
X53812342Y-33379133D01*
X53812890Y-33381373D01*
X53852666Y-33456017D01*
X53855899Y-33462083D01*
X53855901Y-33462086D01*
X53901660Y-33514895D01*
X53919242Y-33532839D01*
X53919246Y-33532843D01*
X53919247Y-33532844D01*
X53919249Y-33532845D01*
X53999059Y-33577488D01*
X53999063Y-33577490D01*
X54066102Y-33597175D01*
X54124000Y-33605500D01*
X58676801Y-33605500D01*
X58743840Y-33625185D01*
X58789595Y-33677989D01*
X58799539Y-33747147D01*
X58796576Y-33761593D01*
X58774500Y-33843982D01*
X58774500Y-33873390D01*
X58754815Y-33940429D01*
X58702011Y-33986184D01*
X58632853Y-33996128D01*
X58569297Y-33967103D01*
X58562819Y-33961071D01*
X58561265Y-33959517D01*
X58561263Y-33959515D01*
X58464237Y-33903497D01*
X58356018Y-33874500D01*
X58243982Y-33874500D01*
X58135763Y-33903497D01*
X58135760Y-33903498D01*
X58038740Y-33959513D01*
X58038734Y-33959517D01*
X57959517Y-34038734D01*
X57959513Y-34038740D01*
X57903498Y-34135760D01*
X57903497Y-34135763D01*
X57874500Y-34243982D01*
X57874500Y-34356018D01*
X57903497Y-34464237D01*
X57959515Y-34561263D01*
X57959517Y-34561265D01*
X57981071Y-34582819D01*
X58014556Y-34644142D01*
X58009572Y-34713834D01*
X57967700Y-34769767D01*
X57902236Y-34794184D01*
X57893390Y-34794500D01*
X57501106Y-34794500D01*
X57497442Y-34794565D01*
X57493774Y-34794631D01*
X57484928Y-34794947D01*
X57484923Y-34794947D01*
X57420451Y-34807772D01*
X57354989Y-34832188D01*
X57332017Y-34842395D01*
X57332014Y-34842397D01*
X57262294Y-34901575D01*
X57262288Y-34901581D01*
X57225808Y-34950312D01*
X57222152Y-34953048D01*
X57220255Y-34957203D01*
X57194437Y-34973794D01*
X57169874Y-34992182D01*
X57164246Y-34993197D01*
X57161477Y-34994977D01*
X57126542Y-35000000D01*
X57074503Y-35000000D01*
X57007464Y-34980315D01*
X56972613Y-34942496D01*
X56970930Y-34943653D01*
X56966992Y-34937919D01*
X56966990Y-34937915D01*
X56921235Y-34885111D01*
X56921229Y-34885104D01*
X56903647Y-34867160D01*
X56903646Y-34867159D01*
X56903644Y-34867157D01*
X56903642Y-34867156D01*
X56903640Y-34867154D01*
X56823830Y-34822511D01*
X56823825Y-34822509D01*
X56756793Y-34802826D01*
X56756789Y-34802825D01*
X56756788Y-34802825D01*
X56698890Y-34794500D01*
X56306610Y-34794500D01*
X56239571Y-34774815D01*
X56193816Y-34722011D01*
X56183872Y-34652853D01*
X56212897Y-34589297D01*
X56218929Y-34582819D01*
X56240485Y-34561263D01*
X56296503Y-34464237D01*
X56325500Y-34356018D01*
X56325500Y-34243982D01*
X56296503Y-34135763D01*
X56240485Y-34038737D01*
X56161263Y-33959515D01*
X56064237Y-33903497D01*
X55956018Y-33874500D01*
X55843982Y-33874500D01*
X55735763Y-33903497D01*
X55735760Y-33903498D01*
X55638740Y-33959513D01*
X55638734Y-33959517D01*
X55559517Y-34038734D01*
X55559513Y-34038740D01*
X55503498Y-34135760D01*
X55503497Y-34135763D01*
X55474500Y-34243982D01*
X55474500Y-34356018D01*
X55503497Y-34464237D01*
X55559515Y-34561263D01*
X55559517Y-34561265D01*
X55581071Y-34582819D01*
X55614556Y-34644142D01*
X55609572Y-34713834D01*
X55567700Y-34769767D01*
X55502236Y-34794184D01*
X55493390Y-34794500D01*
X49329500Y-34794500D01*
X49262461Y-34774815D01*
X49216706Y-34722011D01*
X49205500Y-34670500D01*
X49205500Y-34043982D01*
X50474500Y-34043982D01*
X50474500Y-34156018D01*
X50503497Y-34264237D01*
X50559515Y-34361263D01*
X50638737Y-34440485D01*
X50735763Y-34496503D01*
X50843982Y-34525500D01*
X50843984Y-34525500D01*
X50956016Y-34525500D01*
X50956018Y-34525500D01*
X51064237Y-34496503D01*
X51161263Y-34440485D01*
X51240485Y-34361263D01*
X51296503Y-34264237D01*
X51325500Y-34156018D01*
X51325500Y-34043982D01*
X51296503Y-33935763D01*
X51240485Y-33838737D01*
X51161263Y-33759515D01*
X51064237Y-33703497D01*
X50956018Y-33674500D01*
X50843982Y-33674500D01*
X50735763Y-33703497D01*
X50735760Y-33703498D01*
X50638740Y-33759513D01*
X50638734Y-33759517D01*
X50559517Y-33838734D01*
X50559513Y-33838740D01*
X50503498Y-33935760D01*
X50503497Y-33935763D01*
X50474500Y-34043982D01*
X49205500Y-34043982D01*
X49205500Y-33948663D01*
X49225185Y-33881624D01*
X49277989Y-33835869D01*
X49335855Y-33827198D01*
X49335855Y-33825500D01*
X49456016Y-33825500D01*
X49456018Y-33825500D01*
X49564237Y-33796503D01*
X49661263Y-33740485D01*
X49740485Y-33661263D01*
X49796503Y-33564237D01*
X49825500Y-33456018D01*
X49825500Y-33343982D01*
X52074500Y-33343982D01*
X52074500Y-33456018D01*
X52103497Y-33564237D01*
X52159515Y-33661263D01*
X52238737Y-33740485D01*
X52335763Y-33796503D01*
X52443982Y-33825500D01*
X52443984Y-33825500D01*
X52556016Y-33825500D01*
X52556018Y-33825500D01*
X52664237Y-33796503D01*
X52761263Y-33740485D01*
X52840485Y-33661263D01*
X52896503Y-33564237D01*
X52925500Y-33456018D01*
X52925500Y-33343982D01*
X52896503Y-33235763D01*
X52840485Y-33138737D01*
X52761263Y-33059515D01*
X52664237Y-33003497D01*
X52556018Y-32974500D01*
X52443982Y-32974500D01*
X52335763Y-33003497D01*
X52335760Y-33003498D01*
X52238740Y-33059513D01*
X52238734Y-33059517D01*
X52159517Y-33138734D01*
X52159513Y-33138740D01*
X52103498Y-33235760D01*
X52103497Y-33235763D01*
X52074500Y-33343982D01*
X49825500Y-33343982D01*
X49796503Y-33235763D01*
X49740485Y-33138737D01*
X49661263Y-33059515D01*
X49564237Y-33003497D01*
X49456018Y-32974500D01*
X49343982Y-32974500D01*
X49335855Y-32974500D01*
X49335855Y-32974379D01*
X49332852Y-32975371D01*
X49304643Y-32968101D01*
X49275856Y-32963611D01*
X49271208Y-32959485D01*
X49265192Y-32957935D01*
X49245390Y-32936568D01*
X49223603Y-32917228D01*
X49220853Y-32910090D01*
X49217700Y-32906688D01*
X49213389Y-32890716D01*
X49206632Y-32873175D01*
X49205428Y-32866412D01*
X49203742Y-32840688D01*
X49199517Y-32808595D01*
X49194273Y-32782230D01*
X49182851Y-32739603D01*
X49181920Y-32734372D01*
X49182348Y-32730473D01*
X49180000Y-32712637D01*
X49180000Y-32687361D01*
X49184225Y-32655267D01*
X49194273Y-32617769D01*
X49199517Y-32591404D01*
X49203742Y-32559311D01*
X49204747Y-32543982D01*
X50474500Y-32543982D01*
X50474500Y-32656018D01*
X50503497Y-32764237D01*
X50559515Y-32861263D01*
X50638737Y-32940485D01*
X50735763Y-32996503D01*
X50843982Y-33025500D01*
X50843984Y-33025500D01*
X50956016Y-33025500D01*
X50956018Y-33025500D01*
X51064237Y-32996503D01*
X51161263Y-32940485D01*
X51240485Y-32861263D01*
X51296503Y-32764237D01*
X51325500Y-32656018D01*
X51325500Y-32543982D01*
X51296503Y-32435763D01*
X51240485Y-32338737D01*
X51161263Y-32259515D01*
X51064237Y-32203497D01*
X50956018Y-32174500D01*
X50843982Y-32174500D01*
X50735763Y-32203497D01*
X50735760Y-32203498D01*
X50638740Y-32259513D01*
X50638734Y-32259517D01*
X50559517Y-32338734D01*
X50559513Y-32338740D01*
X50503498Y-32435760D01*
X50503497Y-32435763D01*
X50474500Y-32543982D01*
X49204747Y-32543982D01*
X49205500Y-32532489D01*
X49205500Y-32448600D01*
X49215741Y-32413788D01*
X49225185Y-32381624D01*
X49225208Y-32381603D01*
X49225218Y-32381571D01*
X49252690Y-32357790D01*
X49277989Y-32335869D01*
X49278020Y-32335864D01*
X49278045Y-32335843D01*
X49280728Y-32335458D01*
X49335855Y-32327198D01*
X49335855Y-32325500D01*
X49456016Y-32325500D01*
X49456018Y-32325500D01*
X49564237Y-32296503D01*
X49661263Y-32240485D01*
X49740485Y-32161263D01*
X49796503Y-32064237D01*
X49825500Y-31956018D01*
X49825500Y-31843982D01*
X49796503Y-31735763D01*
X49740485Y-31638737D01*
X49661263Y-31559515D01*
X49564237Y-31503497D01*
X49456018Y-31474500D01*
X49343982Y-31474500D01*
X49335855Y-31474500D01*
X49335855Y-31472744D01*
X49276639Y-31463504D01*
X49224388Y-31417119D01*
X49205500Y-31351336D01*
X49205500Y-30449500D01*
X49225185Y-30382461D01*
X49277989Y-30336706D01*
X49329500Y-30325500D01*
X49356016Y-30325500D01*
X49356018Y-30325500D01*
X49464237Y-30296503D01*
X49561263Y-30240485D01*
X49640485Y-30161263D01*
X49696503Y-30064237D01*
X49725500Y-29956018D01*
X49725500Y-29843982D01*
X49696503Y-29735763D01*
X49640485Y-29638737D01*
X49561263Y-29559515D01*
X49464237Y-29503497D01*
X49356018Y-29474500D01*
X49329500Y-29474500D01*
X49262461Y-29454815D01*
X49216706Y-29402011D01*
X49205500Y-29350500D01*
X49205500Y-27634184D01*
X49225185Y-27567145D01*
X49277989Y-27521390D01*
X49297400Y-27514411D01*
X49364237Y-27496503D01*
X49461263Y-27440485D01*
X49540485Y-27361263D01*
X49596503Y-27264237D01*
X49625500Y-27156018D01*
X49625500Y-27043982D01*
X49596503Y-26935763D01*
X49540485Y-26838737D01*
X49461263Y-26759515D01*
X49364239Y-26703498D01*
X49364238Y-26703497D01*
X49325379Y-26693085D01*
X49297405Y-26685589D01*
X49237746Y-26649225D01*
X49207217Y-26586377D01*
X49205500Y-26565815D01*
X49205500Y-26124000D01*
X49225185Y-26056961D01*
X49277989Y-26011206D01*
X49329500Y-26000000D01*
X53670500Y-26000000D01*
X53737539Y-26019685D01*
G37*
%TD.AperFunction*%
%TA.AperFunction,Conductor*%
G36*
X63442539Y-26019685D02*
G01*
X63488294Y-26072489D01*
X63499500Y-26124000D01*
X63499500Y-34670500D01*
X63479815Y-34737539D01*
X63427011Y-34783294D01*
X63375500Y-34794500D01*
X58706610Y-34794500D01*
X58639571Y-34774815D01*
X58593816Y-34722011D01*
X58583872Y-34652853D01*
X58612897Y-34589297D01*
X58618929Y-34582819D01*
X58640485Y-34561263D01*
X58696503Y-34464237D01*
X58725500Y-34356018D01*
X58725500Y-34326610D01*
X58745185Y-34259571D01*
X58797989Y-34213816D01*
X58867147Y-34203872D01*
X58930703Y-34232897D01*
X58937181Y-34238929D01*
X58938737Y-34240485D01*
X59035763Y-34296503D01*
X59143982Y-34325500D01*
X59143984Y-34325500D01*
X59256016Y-34325500D01*
X59256018Y-34325500D01*
X59364237Y-34296503D01*
X59461263Y-34240485D01*
X59540485Y-34161263D01*
X59596503Y-34064237D01*
X59625500Y-33956018D01*
X59625500Y-33843982D01*
X59603424Y-33761592D01*
X59605087Y-33691743D01*
X59644250Y-33633881D01*
X59708478Y-33606377D01*
X59723199Y-33605500D01*
X60075991Y-33605500D01*
X60076000Y-33605500D01*
X60119684Y-33600803D01*
X60148875Y-33594452D01*
X60171174Y-33589602D01*
X60171190Y-33589598D01*
X60171195Y-33589597D01*
X60181373Y-33587110D01*
X60262085Y-33544100D01*
X60314889Y-33498345D01*
X60332843Y-33480754D01*
X60377490Y-33400937D01*
X60397175Y-33333898D01*
X60405500Y-33276000D01*
X60405500Y-27284070D01*
X60425185Y-27217031D01*
X60477989Y-27171276D01*
X60547147Y-27161332D01*
X60610703Y-27190357D01*
X60636886Y-27222069D01*
X60659515Y-27261263D01*
X60738737Y-27340485D01*
X60835763Y-27396503D01*
X60943982Y-27425500D01*
X60943984Y-27425500D01*
X61056016Y-27425500D01*
X61056018Y-27425500D01*
X61164237Y-27396503D01*
X61261263Y-27340485D01*
X61340485Y-27261263D01*
X61396503Y-27164237D01*
X61425500Y-27056018D01*
X61425500Y-26943982D01*
X61396503Y-26835763D01*
X61340485Y-26738737D01*
X61261263Y-26659515D01*
X61164237Y-26603497D01*
X61056018Y-26574500D01*
X60943982Y-26574500D01*
X60835763Y-26603497D01*
X60835760Y-26603498D01*
X60738740Y-26659513D01*
X60738734Y-26659517D01*
X60659517Y-26738734D01*
X60659515Y-26738737D01*
X60636887Y-26777930D01*
X60586319Y-26826145D01*
X60517712Y-26839367D01*
X60452847Y-26813399D01*
X60412320Y-26756484D01*
X60405500Y-26715929D01*
X60405500Y-26124000D01*
X60425185Y-26056961D01*
X60477989Y-26011206D01*
X60529500Y-26000000D01*
X63375500Y-26000000D01*
X63442539Y-26019685D01*
G37*
%TD.AperFunction*%
%TD*%
%TA.AperFunction,Conductor*%
%TO.N,+12V*%
G36*
X48943039Y-26019685D02*
G01*
X48988794Y-26072489D01*
X49000000Y-26124000D01*
X49000000Y-26652553D01*
X48980315Y-26719592D01*
X48944528Y-26753717D01*
X48945182Y-26754569D01*
X48938740Y-26759511D01*
X48859514Y-26838738D01*
X48859513Y-26838740D01*
X48803498Y-26935760D01*
X48803497Y-26935763D01*
X48774500Y-27043982D01*
X48774500Y-27156018D01*
X48803497Y-27264237D01*
X48859515Y-27361263D01*
X48938737Y-27440485D01*
X48938739Y-27440486D01*
X48945188Y-27445435D01*
X48944267Y-27446634D01*
X48986210Y-27490614D01*
X49000000Y-27547446D01*
X49000000Y-29546890D01*
X48980315Y-29613929D01*
X48963681Y-29634571D01*
X48959517Y-29638734D01*
X48959513Y-29638740D01*
X48903498Y-29735760D01*
X48903497Y-29735763D01*
X48874500Y-29843982D01*
X48874500Y-29956018D01*
X48903497Y-30064237D01*
X48959515Y-30161263D01*
X48959517Y-30161265D01*
X48963681Y-30165429D01*
X48997166Y-30226752D01*
X49000000Y-30253110D01*
X49000000Y-31732489D01*
X48995775Y-31764582D01*
X48974500Y-31843982D01*
X48974500Y-31956017D01*
X48995775Y-32035417D01*
X49000000Y-32067510D01*
X49000000Y-32532489D01*
X48995775Y-32564582D01*
X48974500Y-32643982D01*
X48974500Y-32756017D01*
X48995775Y-32835417D01*
X49000000Y-32867510D01*
X49000000Y-33232489D01*
X48995775Y-33264582D01*
X48974500Y-33343982D01*
X48974500Y-33456017D01*
X48995775Y-33535417D01*
X49000000Y-33567510D01*
X49000000Y-40876000D01*
X48980315Y-40943039D01*
X48927511Y-40988794D01*
X48876000Y-41000000D01*
X45405182Y-41000000D01*
X45338143Y-40980315D01*
X45297795Y-40938000D01*
X45261999Y-40876000D01*
X45240485Y-40838737D01*
X45161263Y-40759515D01*
X45064237Y-40703497D01*
X44956018Y-40674500D01*
X44843982Y-40674500D01*
X44735763Y-40703497D01*
X44735760Y-40703498D01*
X44638740Y-40759513D01*
X44638734Y-40759517D01*
X44559517Y-40838734D01*
X44559513Y-40838740D01*
X44502205Y-40938000D01*
X44451638Y-40986216D01*
X44394818Y-41000000D01*
X43124000Y-41000000D01*
X43056961Y-40980315D01*
X43011206Y-40927511D01*
X43000000Y-40876000D01*
X43000000Y-34443982D01*
X46674500Y-34443982D01*
X46674500Y-34556018D01*
X46703497Y-34664237D01*
X46759515Y-34761263D01*
X46838737Y-34840485D01*
X46935763Y-34896503D01*
X47043982Y-34925500D01*
X47043984Y-34925500D01*
X47156016Y-34925500D01*
X47156018Y-34925500D01*
X47264237Y-34896503D01*
X47361263Y-34840485D01*
X47440485Y-34761263D01*
X47496503Y-34664237D01*
X47525500Y-34556018D01*
X47525500Y-34443982D01*
X47496503Y-34335763D01*
X47440485Y-34238737D01*
X47361263Y-34159515D01*
X47264237Y-34103497D01*
X47156018Y-34074500D01*
X47043982Y-34074500D01*
X46935763Y-34103497D01*
X46935760Y-34103498D01*
X46838740Y-34159513D01*
X46838734Y-34159517D01*
X46759517Y-34238734D01*
X46759513Y-34238740D01*
X46703498Y-34335760D01*
X46703497Y-34335763D01*
X46674500Y-34443982D01*
X43000000Y-34443982D01*
X43000000Y-28643982D01*
X44474500Y-28643982D01*
X44474500Y-28756018D01*
X44503497Y-28864237D01*
X44559515Y-28961263D01*
X44638737Y-29040485D01*
X44735763Y-29096503D01*
X44843982Y-29125500D01*
X44843984Y-29125500D01*
X44956016Y-29125500D01*
X44956018Y-29125500D01*
X45064237Y-29096503D01*
X45161263Y-29040485D01*
X45240485Y-28961263D01*
X45296503Y-28864237D01*
X45325500Y-28756018D01*
X45325500Y-28643982D01*
X45296503Y-28535763D01*
X45240485Y-28438737D01*
X45161263Y-28359515D01*
X45064237Y-28303497D01*
X44956018Y-28274500D01*
X44843982Y-28274500D01*
X44735763Y-28303497D01*
X44735760Y-28303498D01*
X44638740Y-28359513D01*
X44638734Y-28359517D01*
X44559517Y-28438734D01*
X44559513Y-28438740D01*
X44503498Y-28535760D01*
X44503497Y-28535763D01*
X44474500Y-28643982D01*
X43000000Y-28643982D01*
X43000000Y-26124000D01*
X43019685Y-26056961D01*
X43072489Y-26011206D01*
X43124000Y-26000000D01*
X48876000Y-26000000D01*
X48943039Y-26019685D01*
G37*
%TD.AperFunction*%
%TD*%
M02*
