%TF.GenerationSoftware,KiCad,Pcbnew,9.0.6-9.0.6~ubuntu22.04.1*%
%TF.CreationDate,2025-11-05T22:25:10+01:00*%
%TF.ProjectId,FliperKAd,466c6970-6572-44b4-9164-2e6b69636164,rev?*%
%TF.SameCoordinates,Original*%
%TF.FileFunction,Legend,Top*%
%TF.FilePolarity,Positive*%
%FSLAX46Y46*%
G04 Gerber Fmt 4.6, Leading zero omitted, Abs format (unit mm)*
G04 Created by KiCad (PCBNEW 9.0.6-9.0.6~ubuntu22.04.1) date 2025-11-05 22:25:10*
%MOMM*%
%LPD*%
G01*
G04 APERTURE LIST*
%ADD10C,0.100000*%
%ADD11C,0.200000*%
%ADD12C,0.080000*%
%ADD13C,0.150000*%
%ADD14C,0.120000*%
G04 APERTURE END LIST*
D10*
X58861027Y-23771284D02*
X58884836Y-23747475D01*
X58884836Y-23747475D02*
X58932455Y-23723665D01*
X58932455Y-23723665D02*
X59051503Y-23723665D01*
X59051503Y-23723665D02*
X59099122Y-23747475D01*
X59099122Y-23747475D02*
X59122931Y-23771284D01*
X59122931Y-23771284D02*
X59146741Y-23818903D01*
X59146741Y-23818903D02*
X59146741Y-23866522D01*
X59146741Y-23866522D02*
X59122931Y-23937951D01*
X59122931Y-23937951D02*
X58837217Y-24223665D01*
X58837217Y-24223665D02*
X59146741Y-24223665D01*
X59575312Y-23890332D02*
X59575312Y-24223665D01*
X59456264Y-23699856D02*
X59337217Y-24056998D01*
X59337217Y-24056998D02*
X59646740Y-24056998D01*
X59765788Y-23723665D02*
X59932454Y-24223665D01*
X59932454Y-24223665D02*
X60099121Y-23723665D01*
X59146741Y-25028637D02*
X58861027Y-25028637D01*
X59003884Y-25028637D02*
X59003884Y-24528637D01*
X59003884Y-24528637D02*
X58956265Y-24600066D01*
X58956265Y-24600066D02*
X58908646Y-24647685D01*
X58908646Y-24647685D02*
X58861027Y-24671494D01*
X59337217Y-24576256D02*
X59361026Y-24552447D01*
X59361026Y-24552447D02*
X59408645Y-24528637D01*
X59408645Y-24528637D02*
X59527693Y-24528637D01*
X59527693Y-24528637D02*
X59575312Y-24552447D01*
X59575312Y-24552447D02*
X59599121Y-24576256D01*
X59599121Y-24576256D02*
X59622931Y-24623875D01*
X59622931Y-24623875D02*
X59622931Y-24671494D01*
X59622931Y-24671494D02*
X59599121Y-24742923D01*
X59599121Y-24742923D02*
X59313407Y-25028637D01*
X59313407Y-25028637D02*
X59622931Y-25028637D01*
X59765788Y-24528637D02*
X59932454Y-25028637D01*
X59932454Y-25028637D02*
X60099121Y-24528637D01*
X58837217Y-25333609D02*
X59146741Y-25333609D01*
X59146741Y-25333609D02*
X58980074Y-25524085D01*
X58980074Y-25524085D02*
X59051503Y-25524085D01*
X59051503Y-25524085D02*
X59099122Y-25547895D01*
X59099122Y-25547895D02*
X59122931Y-25571704D01*
X59122931Y-25571704D02*
X59146741Y-25619323D01*
X59146741Y-25619323D02*
X59146741Y-25738371D01*
X59146741Y-25738371D02*
X59122931Y-25785990D01*
X59122931Y-25785990D02*
X59099122Y-25809800D01*
X59099122Y-25809800D02*
X59051503Y-25833609D01*
X59051503Y-25833609D02*
X58908646Y-25833609D01*
X58908646Y-25833609D02*
X58861027Y-25809800D01*
X58861027Y-25809800D02*
X58837217Y-25785990D01*
X59289598Y-25333609D02*
X59456264Y-25833609D01*
X59456264Y-25833609D02*
X59622931Y-25333609D01*
X59741978Y-25333609D02*
X60051502Y-25333609D01*
X60051502Y-25333609D02*
X59884835Y-25524085D01*
X59884835Y-25524085D02*
X59956264Y-25524085D01*
X59956264Y-25524085D02*
X60003883Y-25547895D01*
X60003883Y-25547895D02*
X60027692Y-25571704D01*
X60027692Y-25571704D02*
X60051502Y-25619323D01*
X60051502Y-25619323D02*
X60051502Y-25738371D01*
X60051502Y-25738371D02*
X60027692Y-25785990D01*
X60027692Y-25785990D02*
X60003883Y-25809800D01*
X60003883Y-25809800D02*
X59956264Y-25833609D01*
X59956264Y-25833609D02*
X59813407Y-25833609D01*
X59813407Y-25833609D02*
X59765788Y-25809800D01*
X59765788Y-25809800D02*
X59741978Y-25785990D01*
D11*
X26269673Y-48947331D02*
X26269673Y-47947331D01*
X26269673Y-47947331D02*
X26507768Y-47947331D01*
X26507768Y-47947331D02*
X26650625Y-47994950D01*
X26650625Y-47994950D02*
X26745863Y-48090188D01*
X26745863Y-48090188D02*
X26793482Y-48185426D01*
X26793482Y-48185426D02*
X26841101Y-48375902D01*
X26841101Y-48375902D02*
X26841101Y-48518759D01*
X26841101Y-48518759D02*
X26793482Y-48709235D01*
X26793482Y-48709235D02*
X26745863Y-48804473D01*
X26745863Y-48804473D02*
X26650625Y-48899712D01*
X26650625Y-48899712D02*
X26507768Y-48947331D01*
X26507768Y-48947331D02*
X26269673Y-48947331D01*
X27269673Y-48947331D02*
X27269673Y-48280664D01*
X27269673Y-48471140D02*
X27317292Y-48375902D01*
X27317292Y-48375902D02*
X27364911Y-48328283D01*
X27364911Y-48328283D02*
X27460149Y-48280664D01*
X27460149Y-48280664D02*
X27555387Y-48280664D01*
X27888721Y-48947331D02*
X27888721Y-48280664D01*
X27888721Y-47947331D02*
X27841102Y-47994950D01*
X27841102Y-47994950D02*
X27888721Y-48042569D01*
X27888721Y-48042569D02*
X27936340Y-47994950D01*
X27936340Y-47994950D02*
X27888721Y-47947331D01*
X27888721Y-47947331D02*
X27888721Y-48042569D01*
X28269673Y-48280664D02*
X28507768Y-48947331D01*
X28507768Y-48947331D02*
X28745863Y-48280664D01*
X29507768Y-48899712D02*
X29412530Y-48947331D01*
X29412530Y-48947331D02*
X29222054Y-48947331D01*
X29222054Y-48947331D02*
X29126816Y-48899712D01*
X29126816Y-48899712D02*
X29079197Y-48804473D01*
X29079197Y-48804473D02*
X29079197Y-48423521D01*
X29079197Y-48423521D02*
X29126816Y-48328283D01*
X29126816Y-48328283D02*
X29222054Y-48280664D01*
X29222054Y-48280664D02*
X29412530Y-48280664D01*
X29412530Y-48280664D02*
X29507768Y-48328283D01*
X29507768Y-48328283D02*
X29555387Y-48423521D01*
X29555387Y-48423521D02*
X29555387Y-48518759D01*
X29555387Y-48518759D02*
X29079197Y-48613997D01*
X29983959Y-48947331D02*
X29983959Y-48280664D01*
X29983959Y-48471140D02*
X30031578Y-48375902D01*
X30031578Y-48375902D02*
X30079197Y-48328283D01*
X30079197Y-48328283D02*
X30174435Y-48280664D01*
X30174435Y-48280664D02*
X30269673Y-48280664D01*
X26222054Y-50509656D02*
X26364911Y-50557275D01*
X26364911Y-50557275D02*
X26603006Y-50557275D01*
X26603006Y-50557275D02*
X26698244Y-50509656D01*
X26698244Y-50509656D02*
X26745863Y-50462036D01*
X26745863Y-50462036D02*
X26793482Y-50366798D01*
X26793482Y-50366798D02*
X26793482Y-50271560D01*
X26793482Y-50271560D02*
X26745863Y-50176322D01*
X26745863Y-50176322D02*
X26698244Y-50128703D01*
X26698244Y-50128703D02*
X26603006Y-50081084D01*
X26603006Y-50081084D02*
X26412530Y-50033465D01*
X26412530Y-50033465D02*
X26317292Y-49985846D01*
X26317292Y-49985846D02*
X26269673Y-49938227D01*
X26269673Y-49938227D02*
X26222054Y-49842989D01*
X26222054Y-49842989D02*
X26222054Y-49747751D01*
X26222054Y-49747751D02*
X26269673Y-49652513D01*
X26269673Y-49652513D02*
X26317292Y-49604894D01*
X26317292Y-49604894D02*
X26412530Y-49557275D01*
X26412530Y-49557275D02*
X26650625Y-49557275D01*
X26650625Y-49557275D02*
X26793482Y-49604894D01*
X27364911Y-50557275D02*
X27269673Y-50509656D01*
X27269673Y-50509656D02*
X27222054Y-50462036D01*
X27222054Y-50462036D02*
X27174435Y-50366798D01*
X27174435Y-50366798D02*
X27174435Y-50081084D01*
X27174435Y-50081084D02*
X27222054Y-49985846D01*
X27222054Y-49985846D02*
X27269673Y-49938227D01*
X27269673Y-49938227D02*
X27364911Y-49890608D01*
X27364911Y-49890608D02*
X27507768Y-49890608D01*
X27507768Y-49890608D02*
X27603006Y-49938227D01*
X27603006Y-49938227D02*
X27650625Y-49985846D01*
X27650625Y-49985846D02*
X27698244Y-50081084D01*
X27698244Y-50081084D02*
X27698244Y-50366798D01*
X27698244Y-50366798D02*
X27650625Y-50462036D01*
X27650625Y-50462036D02*
X27603006Y-50509656D01*
X27603006Y-50509656D02*
X27507768Y-50557275D01*
X27507768Y-50557275D02*
X27364911Y-50557275D01*
X28269673Y-50557275D02*
X28174435Y-50509656D01*
X28174435Y-50509656D02*
X28126816Y-50414417D01*
X28126816Y-50414417D02*
X28126816Y-49557275D01*
X29031578Y-50509656D02*
X28936340Y-50557275D01*
X28936340Y-50557275D02*
X28745864Y-50557275D01*
X28745864Y-50557275D02*
X28650626Y-50509656D01*
X28650626Y-50509656D02*
X28603007Y-50414417D01*
X28603007Y-50414417D02*
X28603007Y-50033465D01*
X28603007Y-50033465D02*
X28650626Y-49938227D01*
X28650626Y-49938227D02*
X28745864Y-49890608D01*
X28745864Y-49890608D02*
X28936340Y-49890608D01*
X28936340Y-49890608D02*
X29031578Y-49938227D01*
X29031578Y-49938227D02*
X29079197Y-50033465D01*
X29079197Y-50033465D02*
X29079197Y-50128703D01*
X29079197Y-50128703D02*
X28603007Y-50223941D01*
X28936340Y-49509656D02*
X28793483Y-49652513D01*
X29507769Y-49890608D02*
X29507769Y-50557275D01*
X29507769Y-49985846D02*
X29555388Y-49938227D01*
X29555388Y-49938227D02*
X29650626Y-49890608D01*
X29650626Y-49890608D02*
X29793483Y-49890608D01*
X29793483Y-49890608D02*
X29888721Y-49938227D01*
X29888721Y-49938227D02*
X29936340Y-50033465D01*
X29936340Y-50033465D02*
X29936340Y-50557275D01*
X30555388Y-50557275D02*
X30460150Y-50509656D01*
X30460150Y-50509656D02*
X30412531Y-50462036D01*
X30412531Y-50462036D02*
X30364912Y-50366798D01*
X30364912Y-50366798D02*
X30364912Y-50081084D01*
X30364912Y-50081084D02*
X30412531Y-49985846D01*
X30412531Y-49985846D02*
X30460150Y-49938227D01*
X30460150Y-49938227D02*
X30555388Y-49890608D01*
X30555388Y-49890608D02*
X30698245Y-49890608D01*
X30698245Y-49890608D02*
X30793483Y-49938227D01*
X30793483Y-49938227D02*
X30841102Y-49985846D01*
X30841102Y-49985846D02*
X30888721Y-50081084D01*
X30888721Y-50081084D02*
X30888721Y-50366798D01*
X30888721Y-50366798D02*
X30841102Y-50462036D01*
X30841102Y-50462036D02*
X30793483Y-50509656D01*
X30793483Y-50509656D02*
X30698245Y-50557275D01*
X30698245Y-50557275D02*
X30555388Y-50557275D01*
X31317293Y-50557275D02*
X31317293Y-49890608D01*
X31317293Y-49557275D02*
X31269674Y-49604894D01*
X31269674Y-49604894D02*
X31317293Y-49652513D01*
X31317293Y-49652513D02*
X31364912Y-49604894D01*
X31364912Y-49604894D02*
X31317293Y-49557275D01*
X31317293Y-49557275D02*
X31317293Y-49652513D01*
X32222054Y-50557275D02*
X32222054Y-49557275D01*
X32222054Y-50509656D02*
X32126816Y-50557275D01*
X32126816Y-50557275D02*
X31936340Y-50557275D01*
X31936340Y-50557275D02*
X31841102Y-50509656D01*
X31841102Y-50509656D02*
X31793483Y-50462036D01*
X31793483Y-50462036D02*
X31745864Y-50366798D01*
X31745864Y-50366798D02*
X31745864Y-50081084D01*
X31745864Y-50081084D02*
X31793483Y-49985846D01*
X31793483Y-49985846D02*
X31841102Y-49938227D01*
X31841102Y-49938227D02*
X31936340Y-49890608D01*
X31936340Y-49890608D02*
X32126816Y-49890608D01*
X32126816Y-49890608D02*
X32222054Y-49938227D01*
X33079197Y-50509656D02*
X32983959Y-50557275D01*
X32983959Y-50557275D02*
X32793483Y-50557275D01*
X32793483Y-50557275D02*
X32698245Y-50509656D01*
X32698245Y-50509656D02*
X32650626Y-50414417D01*
X32650626Y-50414417D02*
X32650626Y-50033465D01*
X32650626Y-50033465D02*
X32698245Y-49938227D01*
X32698245Y-49938227D02*
X32793483Y-49890608D01*
X32793483Y-49890608D02*
X32983959Y-49890608D01*
X32983959Y-49890608D02*
X33079197Y-49938227D01*
X33079197Y-49938227D02*
X33126816Y-50033465D01*
X33126816Y-50033465D02*
X33126816Y-50128703D01*
X33126816Y-50128703D02*
X32650626Y-50223941D01*
X26603006Y-51643409D02*
X26269673Y-51643409D01*
X26269673Y-52167219D02*
X26269673Y-51167219D01*
X26269673Y-51167219D02*
X26745863Y-51167219D01*
X27269673Y-52167219D02*
X27174435Y-52119600D01*
X27174435Y-52119600D02*
X27126816Y-52024361D01*
X27126816Y-52024361D02*
X27126816Y-51167219D01*
X27650626Y-52167219D02*
X27650626Y-51500552D01*
X27650626Y-51167219D02*
X27603007Y-51214838D01*
X27603007Y-51214838D02*
X27650626Y-51262457D01*
X27650626Y-51262457D02*
X27698245Y-51214838D01*
X27698245Y-51214838D02*
X27650626Y-51167219D01*
X27650626Y-51167219D02*
X27650626Y-51262457D01*
X28126816Y-51500552D02*
X28126816Y-52500552D01*
X28126816Y-51548171D02*
X28222054Y-51500552D01*
X28222054Y-51500552D02*
X28412530Y-51500552D01*
X28412530Y-51500552D02*
X28507768Y-51548171D01*
X28507768Y-51548171D02*
X28555387Y-51595790D01*
X28555387Y-51595790D02*
X28603006Y-51691028D01*
X28603006Y-51691028D02*
X28603006Y-51976742D01*
X28603006Y-51976742D02*
X28555387Y-52071980D01*
X28555387Y-52071980D02*
X28507768Y-52119600D01*
X28507768Y-52119600D02*
X28412530Y-52167219D01*
X28412530Y-52167219D02*
X28222054Y-52167219D01*
X28222054Y-52167219D02*
X28126816Y-52119600D01*
X29031578Y-51500552D02*
X29031578Y-52500552D01*
X29031578Y-51548171D02*
X29126816Y-51500552D01*
X29126816Y-51500552D02*
X29317292Y-51500552D01*
X29317292Y-51500552D02*
X29412530Y-51548171D01*
X29412530Y-51548171D02*
X29460149Y-51595790D01*
X29460149Y-51595790D02*
X29507768Y-51691028D01*
X29507768Y-51691028D02*
X29507768Y-51976742D01*
X29507768Y-51976742D02*
X29460149Y-52071980D01*
X29460149Y-52071980D02*
X29412530Y-52119600D01*
X29412530Y-52119600D02*
X29317292Y-52167219D01*
X29317292Y-52167219D02*
X29126816Y-52167219D01*
X29126816Y-52167219D02*
X29031578Y-52119600D01*
X30317292Y-52119600D02*
X30222054Y-52167219D01*
X30222054Y-52167219D02*
X30031578Y-52167219D01*
X30031578Y-52167219D02*
X29936340Y-52119600D01*
X29936340Y-52119600D02*
X29888721Y-52024361D01*
X29888721Y-52024361D02*
X29888721Y-51643409D01*
X29888721Y-51643409D02*
X29936340Y-51548171D01*
X29936340Y-51548171D02*
X30031578Y-51500552D01*
X30031578Y-51500552D02*
X30222054Y-51500552D01*
X30222054Y-51500552D02*
X30317292Y-51548171D01*
X30317292Y-51548171D02*
X30364911Y-51643409D01*
X30364911Y-51643409D02*
X30364911Y-51738647D01*
X30364911Y-51738647D02*
X29888721Y-51833885D01*
X30793483Y-52167219D02*
X30793483Y-51500552D01*
X30793483Y-51691028D02*
X30841102Y-51595790D01*
X30841102Y-51595790D02*
X30888721Y-51548171D01*
X30888721Y-51548171D02*
X30983959Y-51500552D01*
X30983959Y-51500552D02*
X31079197Y-51500552D01*
D12*
X56952149Y-50269047D02*
X56452149Y-50269047D01*
X56452149Y-50269047D02*
X56452149Y-50149999D01*
X56452149Y-50149999D02*
X56475959Y-50078571D01*
X56475959Y-50078571D02*
X56523578Y-50030952D01*
X56523578Y-50030952D02*
X56571197Y-50007142D01*
X56571197Y-50007142D02*
X56666435Y-49983333D01*
X56666435Y-49983333D02*
X56737863Y-49983333D01*
X56737863Y-49983333D02*
X56833101Y-50007142D01*
X56833101Y-50007142D02*
X56880720Y-50030952D01*
X56880720Y-50030952D02*
X56928340Y-50078571D01*
X56928340Y-50078571D02*
X56952149Y-50149999D01*
X56952149Y-50149999D02*
X56952149Y-50269047D01*
X56452149Y-49816666D02*
X56452149Y-49507142D01*
X56452149Y-49507142D02*
X56642625Y-49673809D01*
X56642625Y-49673809D02*
X56642625Y-49602380D01*
X56642625Y-49602380D02*
X56666435Y-49554761D01*
X56666435Y-49554761D02*
X56690244Y-49530952D01*
X56690244Y-49530952D02*
X56737863Y-49507142D01*
X56737863Y-49507142D02*
X56856911Y-49507142D01*
X56856911Y-49507142D02*
X56904530Y-49530952D01*
X56904530Y-49530952D02*
X56928340Y-49554761D01*
X56928340Y-49554761D02*
X56952149Y-49602380D01*
X56952149Y-49602380D02*
X56952149Y-49745237D01*
X56952149Y-49745237D02*
X56928340Y-49792856D01*
X56928340Y-49792856D02*
X56904530Y-49816666D01*
X46878571Y-32127149D02*
X46711905Y-31889054D01*
X46592857Y-32127149D02*
X46592857Y-31627149D01*
X46592857Y-31627149D02*
X46783333Y-31627149D01*
X46783333Y-31627149D02*
X46830952Y-31650959D01*
X46830952Y-31650959D02*
X46854762Y-31674768D01*
X46854762Y-31674768D02*
X46878571Y-31722387D01*
X46878571Y-31722387D02*
X46878571Y-31793816D01*
X46878571Y-31793816D02*
X46854762Y-31841435D01*
X46854762Y-31841435D02*
X46830952Y-31865244D01*
X46830952Y-31865244D02*
X46783333Y-31889054D01*
X46783333Y-31889054D02*
X46592857Y-31889054D01*
X47354762Y-32127149D02*
X47069048Y-32127149D01*
X47211905Y-32127149D02*
X47211905Y-31627149D01*
X47211905Y-31627149D02*
X47164286Y-31698578D01*
X47164286Y-31698578D02*
X47116667Y-31746197D01*
X47116667Y-31746197D02*
X47069048Y-31770006D01*
X47664285Y-31627149D02*
X47711904Y-31627149D01*
X47711904Y-31627149D02*
X47759523Y-31650959D01*
X47759523Y-31650959D02*
X47783333Y-31674768D01*
X47783333Y-31674768D02*
X47807142Y-31722387D01*
X47807142Y-31722387D02*
X47830952Y-31817625D01*
X47830952Y-31817625D02*
X47830952Y-31936673D01*
X47830952Y-31936673D02*
X47807142Y-32031911D01*
X47807142Y-32031911D02*
X47783333Y-32079530D01*
X47783333Y-32079530D02*
X47759523Y-32103340D01*
X47759523Y-32103340D02*
X47711904Y-32127149D01*
X47711904Y-32127149D02*
X47664285Y-32127149D01*
X47664285Y-32127149D02*
X47616666Y-32103340D01*
X47616666Y-32103340D02*
X47592857Y-32079530D01*
X47592857Y-32079530D02*
X47569047Y-32031911D01*
X47569047Y-32031911D02*
X47545238Y-31936673D01*
X47545238Y-31936673D02*
X47545238Y-31817625D01*
X47545238Y-31817625D02*
X47569047Y-31722387D01*
X47569047Y-31722387D02*
X47592857Y-31674768D01*
X47592857Y-31674768D02*
X47616666Y-31650959D01*
X47616666Y-31650959D02*
X47664285Y-31627149D01*
X55278571Y-32079530D02*
X55254762Y-32103340D01*
X55254762Y-32103340D02*
X55183333Y-32127149D01*
X55183333Y-32127149D02*
X55135714Y-32127149D01*
X55135714Y-32127149D02*
X55064286Y-32103340D01*
X55064286Y-32103340D02*
X55016667Y-32055720D01*
X55016667Y-32055720D02*
X54992857Y-32008101D01*
X54992857Y-32008101D02*
X54969048Y-31912863D01*
X54969048Y-31912863D02*
X54969048Y-31841435D01*
X54969048Y-31841435D02*
X54992857Y-31746197D01*
X54992857Y-31746197D02*
X55016667Y-31698578D01*
X55016667Y-31698578D02*
X55064286Y-31650959D01*
X55064286Y-31650959D02*
X55135714Y-31627149D01*
X55135714Y-31627149D02*
X55183333Y-31627149D01*
X55183333Y-31627149D02*
X55254762Y-31650959D01*
X55254762Y-31650959D02*
X55278571Y-31674768D01*
X55754762Y-32127149D02*
X55469048Y-32127149D01*
X55611905Y-32127149D02*
X55611905Y-31627149D01*
X55611905Y-31627149D02*
X55564286Y-31698578D01*
X55564286Y-31698578D02*
X55516667Y-31746197D01*
X55516667Y-31746197D02*
X55469048Y-31770006D01*
X55945238Y-31674768D02*
X55969047Y-31650959D01*
X55969047Y-31650959D02*
X56016666Y-31627149D01*
X56016666Y-31627149D02*
X56135714Y-31627149D01*
X56135714Y-31627149D02*
X56183333Y-31650959D01*
X56183333Y-31650959D02*
X56207142Y-31674768D01*
X56207142Y-31674768D02*
X56230952Y-31722387D01*
X56230952Y-31722387D02*
X56230952Y-31770006D01*
X56230952Y-31770006D02*
X56207142Y-31841435D01*
X56207142Y-31841435D02*
X55921428Y-32127149D01*
X55921428Y-32127149D02*
X56230952Y-32127149D01*
X48516666Y-30079530D02*
X48492857Y-30103340D01*
X48492857Y-30103340D02*
X48421428Y-30127149D01*
X48421428Y-30127149D02*
X48373809Y-30127149D01*
X48373809Y-30127149D02*
X48302381Y-30103340D01*
X48302381Y-30103340D02*
X48254762Y-30055720D01*
X48254762Y-30055720D02*
X48230952Y-30008101D01*
X48230952Y-30008101D02*
X48207143Y-29912863D01*
X48207143Y-29912863D02*
X48207143Y-29841435D01*
X48207143Y-29841435D02*
X48230952Y-29746197D01*
X48230952Y-29746197D02*
X48254762Y-29698578D01*
X48254762Y-29698578D02*
X48302381Y-29650959D01*
X48302381Y-29650959D02*
X48373809Y-29627149D01*
X48373809Y-29627149D02*
X48421428Y-29627149D01*
X48421428Y-29627149D02*
X48492857Y-29650959D01*
X48492857Y-29650959D02*
X48516666Y-29674768D01*
X48802381Y-29841435D02*
X48754762Y-29817625D01*
X48754762Y-29817625D02*
X48730952Y-29793816D01*
X48730952Y-29793816D02*
X48707143Y-29746197D01*
X48707143Y-29746197D02*
X48707143Y-29722387D01*
X48707143Y-29722387D02*
X48730952Y-29674768D01*
X48730952Y-29674768D02*
X48754762Y-29650959D01*
X48754762Y-29650959D02*
X48802381Y-29627149D01*
X48802381Y-29627149D02*
X48897619Y-29627149D01*
X48897619Y-29627149D02*
X48945238Y-29650959D01*
X48945238Y-29650959D02*
X48969047Y-29674768D01*
X48969047Y-29674768D02*
X48992857Y-29722387D01*
X48992857Y-29722387D02*
X48992857Y-29746197D01*
X48992857Y-29746197D02*
X48969047Y-29793816D01*
X48969047Y-29793816D02*
X48945238Y-29817625D01*
X48945238Y-29817625D02*
X48897619Y-29841435D01*
X48897619Y-29841435D02*
X48802381Y-29841435D01*
X48802381Y-29841435D02*
X48754762Y-29865244D01*
X48754762Y-29865244D02*
X48730952Y-29889054D01*
X48730952Y-29889054D02*
X48707143Y-29936673D01*
X48707143Y-29936673D02*
X48707143Y-30031911D01*
X48707143Y-30031911D02*
X48730952Y-30079530D01*
X48730952Y-30079530D02*
X48754762Y-30103340D01*
X48754762Y-30103340D02*
X48802381Y-30127149D01*
X48802381Y-30127149D02*
X48897619Y-30127149D01*
X48897619Y-30127149D02*
X48945238Y-30103340D01*
X48945238Y-30103340D02*
X48969047Y-30079530D01*
X48969047Y-30079530D02*
X48992857Y-30031911D01*
X48992857Y-30031911D02*
X48992857Y-29936673D01*
X48992857Y-29936673D02*
X48969047Y-29889054D01*
X48969047Y-29889054D02*
X48945238Y-29865244D01*
X48945238Y-29865244D02*
X48897619Y-29841435D01*
X46479530Y-34583333D02*
X46503340Y-34607142D01*
X46503340Y-34607142D02*
X46527149Y-34678571D01*
X46527149Y-34678571D02*
X46527149Y-34726190D01*
X46527149Y-34726190D02*
X46503340Y-34797618D01*
X46503340Y-34797618D02*
X46455720Y-34845237D01*
X46455720Y-34845237D02*
X46408101Y-34869047D01*
X46408101Y-34869047D02*
X46312863Y-34892856D01*
X46312863Y-34892856D02*
X46241435Y-34892856D01*
X46241435Y-34892856D02*
X46146197Y-34869047D01*
X46146197Y-34869047D02*
X46098578Y-34845237D01*
X46098578Y-34845237D02*
X46050959Y-34797618D01*
X46050959Y-34797618D02*
X46027149Y-34726190D01*
X46027149Y-34726190D02*
X46027149Y-34678571D01*
X46027149Y-34678571D02*
X46050959Y-34607142D01*
X46050959Y-34607142D02*
X46074768Y-34583333D01*
X46027149Y-34416666D02*
X46027149Y-34083333D01*
X46027149Y-34083333D02*
X46527149Y-34297618D01*
X50041666Y-53379530D02*
X50017857Y-53403340D01*
X50017857Y-53403340D02*
X49946428Y-53427149D01*
X49946428Y-53427149D02*
X49898809Y-53427149D01*
X49898809Y-53427149D02*
X49827381Y-53403340D01*
X49827381Y-53403340D02*
X49779762Y-53355720D01*
X49779762Y-53355720D02*
X49755952Y-53308101D01*
X49755952Y-53308101D02*
X49732143Y-53212863D01*
X49732143Y-53212863D02*
X49732143Y-53141435D01*
X49732143Y-53141435D02*
X49755952Y-53046197D01*
X49755952Y-53046197D02*
X49779762Y-52998578D01*
X49779762Y-52998578D02*
X49827381Y-52950959D01*
X49827381Y-52950959D02*
X49898809Y-52927149D01*
X49898809Y-52927149D02*
X49946428Y-52927149D01*
X49946428Y-52927149D02*
X50017857Y-52950959D01*
X50017857Y-52950959D02*
X50041666Y-52974768D01*
X50470238Y-52927149D02*
X50375000Y-52927149D01*
X50375000Y-52927149D02*
X50327381Y-52950959D01*
X50327381Y-52950959D02*
X50303571Y-52974768D01*
X50303571Y-52974768D02*
X50255952Y-53046197D01*
X50255952Y-53046197D02*
X50232143Y-53141435D01*
X50232143Y-53141435D02*
X50232143Y-53331911D01*
X50232143Y-53331911D02*
X50255952Y-53379530D01*
X50255952Y-53379530D02*
X50279762Y-53403340D01*
X50279762Y-53403340D02*
X50327381Y-53427149D01*
X50327381Y-53427149D02*
X50422619Y-53427149D01*
X50422619Y-53427149D02*
X50470238Y-53403340D01*
X50470238Y-53403340D02*
X50494047Y-53379530D01*
X50494047Y-53379530D02*
X50517857Y-53331911D01*
X50517857Y-53331911D02*
X50517857Y-53212863D01*
X50517857Y-53212863D02*
X50494047Y-53165244D01*
X50494047Y-53165244D02*
X50470238Y-53141435D01*
X50470238Y-53141435D02*
X50422619Y-53117625D01*
X50422619Y-53117625D02*
X50327381Y-53117625D01*
X50327381Y-53117625D02*
X50279762Y-53141435D01*
X50279762Y-53141435D02*
X50255952Y-53165244D01*
X50255952Y-53165244D02*
X50232143Y-53212863D01*
X55216666Y-35127149D02*
X55050000Y-34889054D01*
X54930952Y-35127149D02*
X54930952Y-34627149D01*
X54930952Y-34627149D02*
X55121428Y-34627149D01*
X55121428Y-34627149D02*
X55169047Y-34650959D01*
X55169047Y-34650959D02*
X55192857Y-34674768D01*
X55192857Y-34674768D02*
X55216666Y-34722387D01*
X55216666Y-34722387D02*
X55216666Y-34793816D01*
X55216666Y-34793816D02*
X55192857Y-34841435D01*
X55192857Y-34841435D02*
X55169047Y-34865244D01*
X55169047Y-34865244D02*
X55121428Y-34889054D01*
X55121428Y-34889054D02*
X54930952Y-34889054D01*
X55383333Y-34627149D02*
X55692857Y-34627149D01*
X55692857Y-34627149D02*
X55526190Y-34817625D01*
X55526190Y-34817625D02*
X55597619Y-34817625D01*
X55597619Y-34817625D02*
X55645238Y-34841435D01*
X55645238Y-34841435D02*
X55669047Y-34865244D01*
X55669047Y-34865244D02*
X55692857Y-34912863D01*
X55692857Y-34912863D02*
X55692857Y-35031911D01*
X55692857Y-35031911D02*
X55669047Y-35079530D01*
X55669047Y-35079530D02*
X55645238Y-35103340D01*
X55645238Y-35103340D02*
X55597619Y-35127149D01*
X55597619Y-35127149D02*
X55454762Y-35127149D01*
X55454762Y-35127149D02*
X55407143Y-35103340D01*
X55407143Y-35103340D02*
X55383333Y-35079530D01*
X47316666Y-34227149D02*
X47150000Y-33989054D01*
X47030952Y-34227149D02*
X47030952Y-33727149D01*
X47030952Y-33727149D02*
X47221428Y-33727149D01*
X47221428Y-33727149D02*
X47269047Y-33750959D01*
X47269047Y-33750959D02*
X47292857Y-33774768D01*
X47292857Y-33774768D02*
X47316666Y-33822387D01*
X47316666Y-33822387D02*
X47316666Y-33893816D01*
X47316666Y-33893816D02*
X47292857Y-33941435D01*
X47292857Y-33941435D02*
X47269047Y-33965244D01*
X47269047Y-33965244D02*
X47221428Y-33989054D01*
X47221428Y-33989054D02*
X47030952Y-33989054D01*
X47745238Y-33893816D02*
X47745238Y-34227149D01*
X47626190Y-33703340D02*
X47507143Y-34060482D01*
X47507143Y-34060482D02*
X47816666Y-34060482D01*
X56404530Y-47483333D02*
X56428340Y-47507142D01*
X56428340Y-47507142D02*
X56452149Y-47578571D01*
X56452149Y-47578571D02*
X56452149Y-47626190D01*
X56452149Y-47626190D02*
X56428340Y-47697618D01*
X56428340Y-47697618D02*
X56380720Y-47745237D01*
X56380720Y-47745237D02*
X56333101Y-47769047D01*
X56333101Y-47769047D02*
X56237863Y-47792856D01*
X56237863Y-47792856D02*
X56166435Y-47792856D01*
X56166435Y-47792856D02*
X56071197Y-47769047D01*
X56071197Y-47769047D02*
X56023578Y-47745237D01*
X56023578Y-47745237D02*
X55975959Y-47697618D01*
X55975959Y-47697618D02*
X55952149Y-47626190D01*
X55952149Y-47626190D02*
X55952149Y-47578571D01*
X55952149Y-47578571D02*
X55975959Y-47507142D01*
X55975959Y-47507142D02*
X55999768Y-47483333D01*
X55952149Y-47030952D02*
X55952149Y-47269047D01*
X55952149Y-47269047D02*
X56190244Y-47292856D01*
X56190244Y-47292856D02*
X56166435Y-47269047D01*
X56166435Y-47269047D02*
X56142625Y-47221428D01*
X56142625Y-47221428D02*
X56142625Y-47102380D01*
X56142625Y-47102380D02*
X56166435Y-47054761D01*
X56166435Y-47054761D02*
X56190244Y-47030952D01*
X56190244Y-47030952D02*
X56237863Y-47007142D01*
X56237863Y-47007142D02*
X56356911Y-47007142D01*
X56356911Y-47007142D02*
X56404530Y-47030952D01*
X56404530Y-47030952D02*
X56428340Y-47054761D01*
X56428340Y-47054761D02*
X56452149Y-47102380D01*
X56452149Y-47102380D02*
X56452149Y-47221428D01*
X56452149Y-47221428D02*
X56428340Y-47269047D01*
X56428340Y-47269047D02*
X56404530Y-47292856D01*
X54904530Y-43283333D02*
X54928340Y-43307142D01*
X54928340Y-43307142D02*
X54952149Y-43378571D01*
X54952149Y-43378571D02*
X54952149Y-43426190D01*
X54952149Y-43426190D02*
X54928340Y-43497618D01*
X54928340Y-43497618D02*
X54880720Y-43545237D01*
X54880720Y-43545237D02*
X54833101Y-43569047D01*
X54833101Y-43569047D02*
X54737863Y-43592856D01*
X54737863Y-43592856D02*
X54666435Y-43592856D01*
X54666435Y-43592856D02*
X54571197Y-43569047D01*
X54571197Y-43569047D02*
X54523578Y-43545237D01*
X54523578Y-43545237D02*
X54475959Y-43497618D01*
X54475959Y-43497618D02*
X54452149Y-43426190D01*
X54452149Y-43426190D02*
X54452149Y-43378571D01*
X54452149Y-43378571D02*
X54475959Y-43307142D01*
X54475959Y-43307142D02*
X54499768Y-43283333D01*
X54452149Y-43116666D02*
X54452149Y-42807142D01*
X54452149Y-42807142D02*
X54642625Y-42973809D01*
X54642625Y-42973809D02*
X54642625Y-42902380D01*
X54642625Y-42902380D02*
X54666435Y-42854761D01*
X54666435Y-42854761D02*
X54690244Y-42830952D01*
X54690244Y-42830952D02*
X54737863Y-42807142D01*
X54737863Y-42807142D02*
X54856911Y-42807142D01*
X54856911Y-42807142D02*
X54904530Y-42830952D01*
X54904530Y-42830952D02*
X54928340Y-42854761D01*
X54928340Y-42854761D02*
X54952149Y-42902380D01*
X54952149Y-42902380D02*
X54952149Y-43045237D01*
X54952149Y-43045237D02*
X54928340Y-43092856D01*
X54928340Y-43092856D02*
X54904530Y-43116666D01*
X44841666Y-53579530D02*
X44817857Y-53603340D01*
X44817857Y-53603340D02*
X44746428Y-53627149D01*
X44746428Y-53627149D02*
X44698809Y-53627149D01*
X44698809Y-53627149D02*
X44627381Y-53603340D01*
X44627381Y-53603340D02*
X44579762Y-53555720D01*
X44579762Y-53555720D02*
X44555952Y-53508101D01*
X44555952Y-53508101D02*
X44532143Y-53412863D01*
X44532143Y-53412863D02*
X44532143Y-53341435D01*
X44532143Y-53341435D02*
X44555952Y-53246197D01*
X44555952Y-53246197D02*
X44579762Y-53198578D01*
X44579762Y-53198578D02*
X44627381Y-53150959D01*
X44627381Y-53150959D02*
X44698809Y-53127149D01*
X44698809Y-53127149D02*
X44746428Y-53127149D01*
X44746428Y-53127149D02*
X44817857Y-53150959D01*
X44817857Y-53150959D02*
X44841666Y-53174768D01*
X45032143Y-53174768D02*
X45055952Y-53150959D01*
X45055952Y-53150959D02*
X45103571Y-53127149D01*
X45103571Y-53127149D02*
X45222619Y-53127149D01*
X45222619Y-53127149D02*
X45270238Y-53150959D01*
X45270238Y-53150959D02*
X45294047Y-53174768D01*
X45294047Y-53174768D02*
X45317857Y-53222387D01*
X45317857Y-53222387D02*
X45317857Y-53270006D01*
X45317857Y-53270006D02*
X45294047Y-53341435D01*
X45294047Y-53341435D02*
X45008333Y-53627149D01*
X45008333Y-53627149D02*
X45317857Y-53627149D01*
X43541666Y-53579530D02*
X43517857Y-53603340D01*
X43517857Y-53603340D02*
X43446428Y-53627149D01*
X43446428Y-53627149D02*
X43398809Y-53627149D01*
X43398809Y-53627149D02*
X43327381Y-53603340D01*
X43327381Y-53603340D02*
X43279762Y-53555720D01*
X43279762Y-53555720D02*
X43255952Y-53508101D01*
X43255952Y-53508101D02*
X43232143Y-53412863D01*
X43232143Y-53412863D02*
X43232143Y-53341435D01*
X43232143Y-53341435D02*
X43255952Y-53246197D01*
X43255952Y-53246197D02*
X43279762Y-53198578D01*
X43279762Y-53198578D02*
X43327381Y-53150959D01*
X43327381Y-53150959D02*
X43398809Y-53127149D01*
X43398809Y-53127149D02*
X43446428Y-53127149D01*
X43446428Y-53127149D02*
X43517857Y-53150959D01*
X43517857Y-53150959D02*
X43541666Y-53174768D01*
X44017857Y-53627149D02*
X43732143Y-53627149D01*
X43875000Y-53627149D02*
X43875000Y-53127149D01*
X43875000Y-53127149D02*
X43827381Y-53198578D01*
X43827381Y-53198578D02*
X43779762Y-53246197D01*
X43779762Y-53246197D02*
X43732143Y-53270006D01*
X55216666Y-33627149D02*
X55050000Y-33389054D01*
X54930952Y-33627149D02*
X54930952Y-33127149D01*
X54930952Y-33127149D02*
X55121428Y-33127149D01*
X55121428Y-33127149D02*
X55169047Y-33150959D01*
X55169047Y-33150959D02*
X55192857Y-33174768D01*
X55192857Y-33174768D02*
X55216666Y-33222387D01*
X55216666Y-33222387D02*
X55216666Y-33293816D01*
X55216666Y-33293816D02*
X55192857Y-33341435D01*
X55192857Y-33341435D02*
X55169047Y-33365244D01*
X55169047Y-33365244D02*
X55121428Y-33389054D01*
X55121428Y-33389054D02*
X54930952Y-33389054D01*
X55454762Y-33627149D02*
X55550000Y-33627149D01*
X55550000Y-33627149D02*
X55597619Y-33603340D01*
X55597619Y-33603340D02*
X55621428Y-33579530D01*
X55621428Y-33579530D02*
X55669047Y-33508101D01*
X55669047Y-33508101D02*
X55692857Y-33412863D01*
X55692857Y-33412863D02*
X55692857Y-33222387D01*
X55692857Y-33222387D02*
X55669047Y-33174768D01*
X55669047Y-33174768D02*
X55645238Y-33150959D01*
X55645238Y-33150959D02*
X55597619Y-33127149D01*
X55597619Y-33127149D02*
X55502381Y-33127149D01*
X55502381Y-33127149D02*
X55454762Y-33150959D01*
X55454762Y-33150959D02*
X55430952Y-33174768D01*
X55430952Y-33174768D02*
X55407143Y-33222387D01*
X55407143Y-33222387D02*
X55407143Y-33341435D01*
X55407143Y-33341435D02*
X55430952Y-33389054D01*
X55430952Y-33389054D02*
X55454762Y-33412863D01*
X55454762Y-33412863D02*
X55502381Y-33436673D01*
X55502381Y-33436673D02*
X55597619Y-33436673D01*
X55597619Y-33436673D02*
X55645238Y-33412863D01*
X55645238Y-33412863D02*
X55669047Y-33389054D01*
X55669047Y-33389054D02*
X55692857Y-33341435D01*
X47316666Y-33227149D02*
X47150000Y-32989054D01*
X47030952Y-33227149D02*
X47030952Y-32727149D01*
X47030952Y-32727149D02*
X47221428Y-32727149D01*
X47221428Y-32727149D02*
X47269047Y-32750959D01*
X47269047Y-32750959D02*
X47292857Y-32774768D01*
X47292857Y-32774768D02*
X47316666Y-32822387D01*
X47316666Y-32822387D02*
X47316666Y-32893816D01*
X47316666Y-32893816D02*
X47292857Y-32941435D01*
X47292857Y-32941435D02*
X47269047Y-32965244D01*
X47269047Y-32965244D02*
X47221428Y-32989054D01*
X47221428Y-32989054D02*
X47030952Y-32989054D01*
X47602381Y-32941435D02*
X47554762Y-32917625D01*
X47554762Y-32917625D02*
X47530952Y-32893816D01*
X47530952Y-32893816D02*
X47507143Y-32846197D01*
X47507143Y-32846197D02*
X47507143Y-32822387D01*
X47507143Y-32822387D02*
X47530952Y-32774768D01*
X47530952Y-32774768D02*
X47554762Y-32750959D01*
X47554762Y-32750959D02*
X47602381Y-32727149D01*
X47602381Y-32727149D02*
X47697619Y-32727149D01*
X47697619Y-32727149D02*
X47745238Y-32750959D01*
X47745238Y-32750959D02*
X47769047Y-32774768D01*
X47769047Y-32774768D02*
X47792857Y-32822387D01*
X47792857Y-32822387D02*
X47792857Y-32846197D01*
X47792857Y-32846197D02*
X47769047Y-32893816D01*
X47769047Y-32893816D02*
X47745238Y-32917625D01*
X47745238Y-32917625D02*
X47697619Y-32941435D01*
X47697619Y-32941435D02*
X47602381Y-32941435D01*
X47602381Y-32941435D02*
X47554762Y-32965244D01*
X47554762Y-32965244D02*
X47530952Y-32989054D01*
X47530952Y-32989054D02*
X47507143Y-33036673D01*
X47507143Y-33036673D02*
X47507143Y-33131911D01*
X47507143Y-33131911D02*
X47530952Y-33179530D01*
X47530952Y-33179530D02*
X47554762Y-33203340D01*
X47554762Y-33203340D02*
X47602381Y-33227149D01*
X47602381Y-33227149D02*
X47697619Y-33227149D01*
X47697619Y-33227149D02*
X47745238Y-33203340D01*
X47745238Y-33203340D02*
X47769047Y-33179530D01*
X47769047Y-33179530D02*
X47792857Y-33131911D01*
X47792857Y-33131911D02*
X47792857Y-33036673D01*
X47792857Y-33036673D02*
X47769047Y-32989054D01*
X47769047Y-32989054D02*
X47745238Y-32965244D01*
X47745238Y-32965244D02*
X47697619Y-32941435D01*
X56719047Y-25327149D02*
X56719047Y-25731911D01*
X56719047Y-25731911D02*
X56742857Y-25779530D01*
X56742857Y-25779530D02*
X56766666Y-25803340D01*
X56766666Y-25803340D02*
X56814285Y-25827149D01*
X56814285Y-25827149D02*
X56909523Y-25827149D01*
X56909523Y-25827149D02*
X56957142Y-25803340D01*
X56957142Y-25803340D02*
X56980952Y-25779530D01*
X56980952Y-25779530D02*
X57004761Y-25731911D01*
X57004761Y-25731911D02*
X57004761Y-25327149D01*
X57457143Y-25493816D02*
X57457143Y-25827149D01*
X57338095Y-25303340D02*
X57219048Y-25660482D01*
X57219048Y-25660482D02*
X57528571Y-25660482D01*
X48716666Y-25979530D02*
X48692857Y-26003340D01*
X48692857Y-26003340D02*
X48621428Y-26027149D01*
X48621428Y-26027149D02*
X48573809Y-26027149D01*
X48573809Y-26027149D02*
X48502381Y-26003340D01*
X48502381Y-26003340D02*
X48454762Y-25955720D01*
X48454762Y-25955720D02*
X48430952Y-25908101D01*
X48430952Y-25908101D02*
X48407143Y-25812863D01*
X48407143Y-25812863D02*
X48407143Y-25741435D01*
X48407143Y-25741435D02*
X48430952Y-25646197D01*
X48430952Y-25646197D02*
X48454762Y-25598578D01*
X48454762Y-25598578D02*
X48502381Y-25550959D01*
X48502381Y-25550959D02*
X48573809Y-25527149D01*
X48573809Y-25527149D02*
X48621428Y-25527149D01*
X48621428Y-25527149D02*
X48692857Y-25550959D01*
X48692857Y-25550959D02*
X48716666Y-25574768D01*
X48954762Y-26027149D02*
X49050000Y-26027149D01*
X49050000Y-26027149D02*
X49097619Y-26003340D01*
X49097619Y-26003340D02*
X49121428Y-25979530D01*
X49121428Y-25979530D02*
X49169047Y-25908101D01*
X49169047Y-25908101D02*
X49192857Y-25812863D01*
X49192857Y-25812863D02*
X49192857Y-25622387D01*
X49192857Y-25622387D02*
X49169047Y-25574768D01*
X49169047Y-25574768D02*
X49145238Y-25550959D01*
X49145238Y-25550959D02*
X49097619Y-25527149D01*
X49097619Y-25527149D02*
X49002381Y-25527149D01*
X49002381Y-25527149D02*
X48954762Y-25550959D01*
X48954762Y-25550959D02*
X48930952Y-25574768D01*
X48930952Y-25574768D02*
X48907143Y-25622387D01*
X48907143Y-25622387D02*
X48907143Y-25741435D01*
X48907143Y-25741435D02*
X48930952Y-25789054D01*
X48930952Y-25789054D02*
X48954762Y-25812863D01*
X48954762Y-25812863D02*
X49002381Y-25836673D01*
X49002381Y-25836673D02*
X49097619Y-25836673D01*
X49097619Y-25836673D02*
X49145238Y-25812863D01*
X49145238Y-25812863D02*
X49169047Y-25789054D01*
X49169047Y-25789054D02*
X49192857Y-25741435D01*
X42578571Y-21679530D02*
X42554762Y-21703340D01*
X42554762Y-21703340D02*
X42483333Y-21727149D01*
X42483333Y-21727149D02*
X42435714Y-21727149D01*
X42435714Y-21727149D02*
X42364286Y-21703340D01*
X42364286Y-21703340D02*
X42316667Y-21655720D01*
X42316667Y-21655720D02*
X42292857Y-21608101D01*
X42292857Y-21608101D02*
X42269048Y-21512863D01*
X42269048Y-21512863D02*
X42269048Y-21441435D01*
X42269048Y-21441435D02*
X42292857Y-21346197D01*
X42292857Y-21346197D02*
X42316667Y-21298578D01*
X42316667Y-21298578D02*
X42364286Y-21250959D01*
X42364286Y-21250959D02*
X42435714Y-21227149D01*
X42435714Y-21227149D02*
X42483333Y-21227149D01*
X42483333Y-21227149D02*
X42554762Y-21250959D01*
X42554762Y-21250959D02*
X42578571Y-21274768D01*
X43054762Y-21727149D02*
X42769048Y-21727149D01*
X42911905Y-21727149D02*
X42911905Y-21227149D01*
X42911905Y-21227149D02*
X42864286Y-21298578D01*
X42864286Y-21298578D02*
X42816667Y-21346197D01*
X42816667Y-21346197D02*
X42769048Y-21370006D01*
X43530952Y-21727149D02*
X43245238Y-21727149D01*
X43388095Y-21727149D02*
X43388095Y-21227149D01*
X43388095Y-21227149D02*
X43340476Y-21298578D01*
X43340476Y-21298578D02*
X43292857Y-21346197D01*
X43292857Y-21346197D02*
X43245238Y-21370006D01*
X39978571Y-21679530D02*
X39954762Y-21703340D01*
X39954762Y-21703340D02*
X39883333Y-21727149D01*
X39883333Y-21727149D02*
X39835714Y-21727149D01*
X39835714Y-21727149D02*
X39764286Y-21703340D01*
X39764286Y-21703340D02*
X39716667Y-21655720D01*
X39716667Y-21655720D02*
X39692857Y-21608101D01*
X39692857Y-21608101D02*
X39669048Y-21512863D01*
X39669048Y-21512863D02*
X39669048Y-21441435D01*
X39669048Y-21441435D02*
X39692857Y-21346197D01*
X39692857Y-21346197D02*
X39716667Y-21298578D01*
X39716667Y-21298578D02*
X39764286Y-21250959D01*
X39764286Y-21250959D02*
X39835714Y-21227149D01*
X39835714Y-21227149D02*
X39883333Y-21227149D01*
X39883333Y-21227149D02*
X39954762Y-21250959D01*
X39954762Y-21250959D02*
X39978571Y-21274768D01*
X40454762Y-21727149D02*
X40169048Y-21727149D01*
X40311905Y-21727149D02*
X40311905Y-21227149D01*
X40311905Y-21227149D02*
X40264286Y-21298578D01*
X40264286Y-21298578D02*
X40216667Y-21346197D01*
X40216667Y-21346197D02*
X40169048Y-21370006D01*
X40764285Y-21227149D02*
X40811904Y-21227149D01*
X40811904Y-21227149D02*
X40859523Y-21250959D01*
X40859523Y-21250959D02*
X40883333Y-21274768D01*
X40883333Y-21274768D02*
X40907142Y-21322387D01*
X40907142Y-21322387D02*
X40930952Y-21417625D01*
X40930952Y-21417625D02*
X40930952Y-21536673D01*
X40930952Y-21536673D02*
X40907142Y-21631911D01*
X40907142Y-21631911D02*
X40883333Y-21679530D01*
X40883333Y-21679530D02*
X40859523Y-21703340D01*
X40859523Y-21703340D02*
X40811904Y-21727149D01*
X40811904Y-21727149D02*
X40764285Y-21727149D01*
X40764285Y-21727149D02*
X40716666Y-21703340D01*
X40716666Y-21703340D02*
X40692857Y-21679530D01*
X40692857Y-21679530D02*
X40669047Y-21631911D01*
X40669047Y-21631911D02*
X40645238Y-21536673D01*
X40645238Y-21536673D02*
X40645238Y-21417625D01*
X40645238Y-21417625D02*
X40669047Y-21322387D01*
X40669047Y-21322387D02*
X40692857Y-21274768D01*
X40692857Y-21274768D02*
X40716666Y-21250959D01*
X40716666Y-21250959D02*
X40764285Y-21227149D01*
X46719047Y-41727149D02*
X46719047Y-42131911D01*
X46719047Y-42131911D02*
X46742857Y-42179530D01*
X46742857Y-42179530D02*
X46766666Y-42203340D01*
X46766666Y-42203340D02*
X46814285Y-42227149D01*
X46814285Y-42227149D02*
X46909523Y-42227149D01*
X46909523Y-42227149D02*
X46957142Y-42203340D01*
X46957142Y-42203340D02*
X46980952Y-42179530D01*
X46980952Y-42179530D02*
X47004761Y-42131911D01*
X47004761Y-42131911D02*
X47004761Y-41727149D01*
X47219048Y-41774768D02*
X47242857Y-41750959D01*
X47242857Y-41750959D02*
X47290476Y-41727149D01*
X47290476Y-41727149D02*
X47409524Y-41727149D01*
X47409524Y-41727149D02*
X47457143Y-41750959D01*
X47457143Y-41750959D02*
X47480952Y-41774768D01*
X47480952Y-41774768D02*
X47504762Y-41822387D01*
X47504762Y-41822387D02*
X47504762Y-41870006D01*
X47504762Y-41870006D02*
X47480952Y-41941435D01*
X47480952Y-41941435D02*
X47195238Y-42227149D01*
X47195238Y-42227149D02*
X47504762Y-42227149D01*
X32052380Y-24574768D02*
X32004761Y-24550959D01*
X32004761Y-24550959D02*
X31957142Y-24503340D01*
X31957142Y-24503340D02*
X31885714Y-24431911D01*
X31885714Y-24431911D02*
X31838095Y-24408101D01*
X31838095Y-24408101D02*
X31790476Y-24408101D01*
X31814285Y-24527149D02*
X31766666Y-24503340D01*
X31766666Y-24503340D02*
X31719047Y-24455720D01*
X31719047Y-24455720D02*
X31695238Y-24360482D01*
X31695238Y-24360482D02*
X31695238Y-24193816D01*
X31695238Y-24193816D02*
X31719047Y-24098578D01*
X31719047Y-24098578D02*
X31766666Y-24050959D01*
X31766666Y-24050959D02*
X31814285Y-24027149D01*
X31814285Y-24027149D02*
X31909523Y-24027149D01*
X31909523Y-24027149D02*
X31957142Y-24050959D01*
X31957142Y-24050959D02*
X32004761Y-24098578D01*
X32004761Y-24098578D02*
X32028571Y-24193816D01*
X32028571Y-24193816D02*
X32028571Y-24360482D01*
X32028571Y-24360482D02*
X32004761Y-24455720D01*
X32004761Y-24455720D02*
X31957142Y-24503340D01*
X31957142Y-24503340D02*
X31909523Y-24527149D01*
X31909523Y-24527149D02*
X31814285Y-24527149D01*
X32219048Y-24074768D02*
X32242857Y-24050959D01*
X32242857Y-24050959D02*
X32290476Y-24027149D01*
X32290476Y-24027149D02*
X32409524Y-24027149D01*
X32409524Y-24027149D02*
X32457143Y-24050959D01*
X32457143Y-24050959D02*
X32480952Y-24074768D01*
X32480952Y-24074768D02*
X32504762Y-24122387D01*
X32504762Y-24122387D02*
X32504762Y-24170006D01*
X32504762Y-24170006D02*
X32480952Y-24241435D01*
X32480952Y-24241435D02*
X32195238Y-24527149D01*
X32195238Y-24527149D02*
X32504762Y-24527149D01*
X32052380Y-36074768D02*
X32004761Y-36050959D01*
X32004761Y-36050959D02*
X31957142Y-36003340D01*
X31957142Y-36003340D02*
X31885714Y-35931911D01*
X31885714Y-35931911D02*
X31838095Y-35908101D01*
X31838095Y-35908101D02*
X31790476Y-35908101D01*
X31814285Y-36027149D02*
X31766666Y-36003340D01*
X31766666Y-36003340D02*
X31719047Y-35955720D01*
X31719047Y-35955720D02*
X31695238Y-35860482D01*
X31695238Y-35860482D02*
X31695238Y-35693816D01*
X31695238Y-35693816D02*
X31719047Y-35598578D01*
X31719047Y-35598578D02*
X31766666Y-35550959D01*
X31766666Y-35550959D02*
X31814285Y-35527149D01*
X31814285Y-35527149D02*
X31909523Y-35527149D01*
X31909523Y-35527149D02*
X31957142Y-35550959D01*
X31957142Y-35550959D02*
X32004761Y-35598578D01*
X32004761Y-35598578D02*
X32028571Y-35693816D01*
X32028571Y-35693816D02*
X32028571Y-35860482D01*
X32028571Y-35860482D02*
X32004761Y-35955720D01*
X32004761Y-35955720D02*
X31957142Y-36003340D01*
X31957142Y-36003340D02*
X31909523Y-36027149D01*
X31909523Y-36027149D02*
X31814285Y-36027149D01*
X32504762Y-36027149D02*
X32219048Y-36027149D01*
X32361905Y-36027149D02*
X32361905Y-35527149D01*
X32361905Y-35527149D02*
X32314286Y-35598578D01*
X32314286Y-35598578D02*
X32266667Y-35646197D01*
X32266667Y-35646197D02*
X32219048Y-35670006D01*
X24833333Y-17227149D02*
X24833333Y-17584292D01*
X24833333Y-17584292D02*
X24809524Y-17655720D01*
X24809524Y-17655720D02*
X24761905Y-17703340D01*
X24761905Y-17703340D02*
X24690476Y-17727149D01*
X24690476Y-17727149D02*
X24642857Y-17727149D01*
X25047619Y-17274768D02*
X25071428Y-17250959D01*
X25071428Y-17250959D02*
X25119047Y-17227149D01*
X25119047Y-17227149D02*
X25238095Y-17227149D01*
X25238095Y-17227149D02*
X25285714Y-17250959D01*
X25285714Y-17250959D02*
X25309523Y-17274768D01*
X25309523Y-17274768D02*
X25333333Y-17322387D01*
X25333333Y-17322387D02*
X25333333Y-17370006D01*
X25333333Y-17370006D02*
X25309523Y-17441435D01*
X25309523Y-17441435D02*
X25023809Y-17727149D01*
X25023809Y-17727149D02*
X25333333Y-17727149D01*
D13*
X24428571Y-20114700D02*
X25571429Y-20114700D01*
X25000000Y-20686128D02*
X25000000Y-19543271D01*
X37428571Y-20114700D02*
X38571429Y-20114700D01*
D12*
X22333333Y-25227149D02*
X22333333Y-25584292D01*
X22333333Y-25584292D02*
X22309524Y-25655720D01*
X22309524Y-25655720D02*
X22261905Y-25703340D01*
X22261905Y-25703340D02*
X22190476Y-25727149D01*
X22190476Y-25727149D02*
X22142857Y-25727149D01*
X22523809Y-25227149D02*
X22833333Y-25227149D01*
X22833333Y-25227149D02*
X22666666Y-25417625D01*
X22666666Y-25417625D02*
X22738095Y-25417625D01*
X22738095Y-25417625D02*
X22785714Y-25441435D01*
X22785714Y-25441435D02*
X22809523Y-25465244D01*
X22809523Y-25465244D02*
X22833333Y-25512863D01*
X22833333Y-25512863D02*
X22833333Y-25631911D01*
X22833333Y-25631911D02*
X22809523Y-25679530D01*
X22809523Y-25679530D02*
X22785714Y-25703340D01*
X22785714Y-25703340D02*
X22738095Y-25727149D01*
X22738095Y-25727149D02*
X22595238Y-25727149D01*
X22595238Y-25727149D02*
X22547619Y-25703340D01*
X22547619Y-25703340D02*
X22523809Y-25679530D01*
X24630952Y-36427149D02*
X24630952Y-35927149D01*
X24630952Y-35927149D02*
X24750000Y-35927149D01*
X24750000Y-35927149D02*
X24821428Y-35950959D01*
X24821428Y-35950959D02*
X24869047Y-35998578D01*
X24869047Y-35998578D02*
X24892857Y-36046197D01*
X24892857Y-36046197D02*
X24916666Y-36141435D01*
X24916666Y-36141435D02*
X24916666Y-36212863D01*
X24916666Y-36212863D02*
X24892857Y-36308101D01*
X24892857Y-36308101D02*
X24869047Y-36355720D01*
X24869047Y-36355720D02*
X24821428Y-36403340D01*
X24821428Y-36403340D02*
X24750000Y-36427149D01*
X24750000Y-36427149D02*
X24630952Y-36427149D01*
X25107143Y-35974768D02*
X25130952Y-35950959D01*
X25130952Y-35950959D02*
X25178571Y-35927149D01*
X25178571Y-35927149D02*
X25297619Y-35927149D01*
X25297619Y-35927149D02*
X25345238Y-35950959D01*
X25345238Y-35950959D02*
X25369047Y-35974768D01*
X25369047Y-35974768D02*
X25392857Y-36022387D01*
X25392857Y-36022387D02*
X25392857Y-36070006D01*
X25392857Y-36070006D02*
X25369047Y-36141435D01*
X25369047Y-36141435D02*
X25083333Y-36427149D01*
X25083333Y-36427149D02*
X25392857Y-36427149D01*
X45427149Y-27816666D02*
X45784292Y-27816666D01*
X45784292Y-27816666D02*
X45855720Y-27840475D01*
X45855720Y-27840475D02*
X45903340Y-27888094D01*
X45903340Y-27888094D02*
X45927149Y-27959523D01*
X45927149Y-27959523D02*
X45927149Y-28007142D01*
X45927149Y-27578571D02*
X45427149Y-27578571D01*
X45427149Y-27578571D02*
X45427149Y-27388095D01*
X45427149Y-27388095D02*
X45450959Y-27340476D01*
X45450959Y-27340476D02*
X45474768Y-27316666D01*
X45474768Y-27316666D02*
X45522387Y-27292857D01*
X45522387Y-27292857D02*
X45593816Y-27292857D01*
X45593816Y-27292857D02*
X45641435Y-27316666D01*
X45641435Y-27316666D02*
X45665244Y-27340476D01*
X45665244Y-27340476D02*
X45689054Y-27388095D01*
X45689054Y-27388095D02*
X45689054Y-27578571D01*
X45474768Y-27102380D02*
X45450959Y-27078571D01*
X45450959Y-27078571D02*
X45427149Y-27030952D01*
X45427149Y-27030952D02*
X45427149Y-26911904D01*
X45427149Y-26911904D02*
X45450959Y-26864285D01*
X45450959Y-26864285D02*
X45474768Y-26840476D01*
X45474768Y-26840476D02*
X45522387Y-26816666D01*
X45522387Y-26816666D02*
X45570006Y-26816666D01*
X45570006Y-26816666D02*
X45641435Y-26840476D01*
X45641435Y-26840476D02*
X45927149Y-27126190D01*
X45927149Y-27126190D02*
X45927149Y-26816666D01*
X44816666Y-41827149D02*
X44650000Y-41589054D01*
X44530952Y-41827149D02*
X44530952Y-41327149D01*
X44530952Y-41327149D02*
X44721428Y-41327149D01*
X44721428Y-41327149D02*
X44769047Y-41350959D01*
X44769047Y-41350959D02*
X44792857Y-41374768D01*
X44792857Y-41374768D02*
X44816666Y-41422387D01*
X44816666Y-41422387D02*
X44816666Y-41493816D01*
X44816666Y-41493816D02*
X44792857Y-41541435D01*
X44792857Y-41541435D02*
X44769047Y-41565244D01*
X44769047Y-41565244D02*
X44721428Y-41589054D01*
X44721428Y-41589054D02*
X44530952Y-41589054D01*
X45007143Y-41374768D02*
X45030952Y-41350959D01*
X45030952Y-41350959D02*
X45078571Y-41327149D01*
X45078571Y-41327149D02*
X45197619Y-41327149D01*
X45197619Y-41327149D02*
X45245238Y-41350959D01*
X45245238Y-41350959D02*
X45269047Y-41374768D01*
X45269047Y-41374768D02*
X45292857Y-41422387D01*
X45292857Y-41422387D02*
X45292857Y-41470006D01*
X45292857Y-41470006D02*
X45269047Y-41541435D01*
X45269047Y-41541435D02*
X44983333Y-41827149D01*
X44983333Y-41827149D02*
X45292857Y-41827149D01*
X56619047Y-16427149D02*
X56619047Y-16831911D01*
X56619047Y-16831911D02*
X56642857Y-16879530D01*
X56642857Y-16879530D02*
X56666666Y-16903340D01*
X56666666Y-16903340D02*
X56714285Y-16927149D01*
X56714285Y-16927149D02*
X56809523Y-16927149D01*
X56809523Y-16927149D02*
X56857142Y-16903340D01*
X56857142Y-16903340D02*
X56880952Y-16879530D01*
X56880952Y-16879530D02*
X56904761Y-16831911D01*
X56904761Y-16831911D02*
X56904761Y-16427149D01*
X57095238Y-16427149D02*
X57404762Y-16427149D01*
X57404762Y-16427149D02*
X57238095Y-16617625D01*
X57238095Y-16617625D02*
X57309524Y-16617625D01*
X57309524Y-16617625D02*
X57357143Y-16641435D01*
X57357143Y-16641435D02*
X57380952Y-16665244D01*
X57380952Y-16665244D02*
X57404762Y-16712863D01*
X57404762Y-16712863D02*
X57404762Y-16831911D01*
X57404762Y-16831911D02*
X57380952Y-16879530D01*
X57380952Y-16879530D02*
X57357143Y-16903340D01*
X57357143Y-16903340D02*
X57309524Y-16927149D01*
X57309524Y-16927149D02*
X57166667Y-16927149D01*
X57166667Y-16927149D02*
X57119048Y-16903340D01*
X57119048Y-16903340D02*
X57095238Y-16879530D01*
X46044047Y-52927149D02*
X46044047Y-53331911D01*
X46044047Y-53331911D02*
X46067857Y-53379530D01*
X46067857Y-53379530D02*
X46091666Y-53403340D01*
X46091666Y-53403340D02*
X46139285Y-53427149D01*
X46139285Y-53427149D02*
X46234523Y-53427149D01*
X46234523Y-53427149D02*
X46282142Y-53403340D01*
X46282142Y-53403340D02*
X46305952Y-53379530D01*
X46305952Y-53379530D02*
X46329761Y-53331911D01*
X46329761Y-53331911D02*
X46329761Y-52927149D01*
X46829762Y-53427149D02*
X46544048Y-53427149D01*
X46686905Y-53427149D02*
X46686905Y-52927149D01*
X46686905Y-52927149D02*
X46639286Y-52998578D01*
X46639286Y-52998578D02*
X46591667Y-53046197D01*
X46591667Y-53046197D02*
X46544048Y-53070006D01*
X46227149Y-33483333D02*
X45989054Y-33649999D01*
X46227149Y-33769047D02*
X45727149Y-33769047D01*
X45727149Y-33769047D02*
X45727149Y-33578571D01*
X45727149Y-33578571D02*
X45750959Y-33530952D01*
X45750959Y-33530952D02*
X45774768Y-33507142D01*
X45774768Y-33507142D02*
X45822387Y-33483333D01*
X45822387Y-33483333D02*
X45893816Y-33483333D01*
X45893816Y-33483333D02*
X45941435Y-33507142D01*
X45941435Y-33507142D02*
X45965244Y-33530952D01*
X45965244Y-33530952D02*
X45989054Y-33578571D01*
X45989054Y-33578571D02*
X45989054Y-33769047D01*
X45727149Y-33030952D02*
X45727149Y-33269047D01*
X45727149Y-33269047D02*
X45965244Y-33292856D01*
X45965244Y-33292856D02*
X45941435Y-33269047D01*
X45941435Y-33269047D02*
X45917625Y-33221428D01*
X45917625Y-33221428D02*
X45917625Y-33102380D01*
X45917625Y-33102380D02*
X45941435Y-33054761D01*
X45941435Y-33054761D02*
X45965244Y-33030952D01*
X45965244Y-33030952D02*
X46012863Y-33007142D01*
X46012863Y-33007142D02*
X46131911Y-33007142D01*
X46131911Y-33007142D02*
X46179530Y-33030952D01*
X46179530Y-33030952D02*
X46203340Y-33054761D01*
X46203340Y-33054761D02*
X46227149Y-33102380D01*
X46227149Y-33102380D02*
X46227149Y-33221428D01*
X46227149Y-33221428D02*
X46203340Y-33269047D01*
X46203340Y-33269047D02*
X46179530Y-33292856D01*
X41658333Y-46527149D02*
X41658333Y-46884292D01*
X41658333Y-46884292D02*
X41634524Y-46955720D01*
X41634524Y-46955720D02*
X41586905Y-47003340D01*
X41586905Y-47003340D02*
X41515476Y-47027149D01*
X41515476Y-47027149D02*
X41467857Y-47027149D01*
X42158333Y-47027149D02*
X41872619Y-47027149D01*
X42015476Y-47027149D02*
X42015476Y-46527149D01*
X42015476Y-46527149D02*
X41967857Y-46598578D01*
X41967857Y-46598578D02*
X41920238Y-46646197D01*
X41920238Y-46646197D02*
X41872619Y-46670006D01*
X22333333Y-35227149D02*
X22333333Y-35584292D01*
X22333333Y-35584292D02*
X22309524Y-35655720D01*
X22309524Y-35655720D02*
X22261905Y-35703340D01*
X22261905Y-35703340D02*
X22190476Y-35727149D01*
X22190476Y-35727149D02*
X22142857Y-35727149D01*
X22785714Y-35393816D02*
X22785714Y-35727149D01*
X22666666Y-35203340D02*
X22547619Y-35560482D01*
X22547619Y-35560482D02*
X22857142Y-35560482D01*
X24630952Y-26427149D02*
X24630952Y-25927149D01*
X24630952Y-25927149D02*
X24750000Y-25927149D01*
X24750000Y-25927149D02*
X24821428Y-25950959D01*
X24821428Y-25950959D02*
X24869047Y-25998578D01*
X24869047Y-25998578D02*
X24892857Y-26046197D01*
X24892857Y-26046197D02*
X24916666Y-26141435D01*
X24916666Y-26141435D02*
X24916666Y-26212863D01*
X24916666Y-26212863D02*
X24892857Y-26308101D01*
X24892857Y-26308101D02*
X24869047Y-26355720D01*
X24869047Y-26355720D02*
X24821428Y-26403340D01*
X24821428Y-26403340D02*
X24750000Y-26427149D01*
X24750000Y-26427149D02*
X24630952Y-26427149D01*
X25392857Y-26427149D02*
X25107143Y-26427149D01*
X25250000Y-26427149D02*
X25250000Y-25927149D01*
X25250000Y-25927149D02*
X25202381Y-25998578D01*
X25202381Y-25998578D02*
X25154762Y-26046197D01*
X25154762Y-26046197D02*
X25107143Y-26070006D01*
X46227149Y-30483333D02*
X45989054Y-30649999D01*
X46227149Y-30769047D02*
X45727149Y-30769047D01*
X45727149Y-30769047D02*
X45727149Y-30578571D01*
X45727149Y-30578571D02*
X45750959Y-30530952D01*
X45750959Y-30530952D02*
X45774768Y-30507142D01*
X45774768Y-30507142D02*
X45822387Y-30483333D01*
X45822387Y-30483333D02*
X45893816Y-30483333D01*
X45893816Y-30483333D02*
X45941435Y-30507142D01*
X45941435Y-30507142D02*
X45965244Y-30530952D01*
X45965244Y-30530952D02*
X45989054Y-30578571D01*
X45989054Y-30578571D02*
X45989054Y-30769047D01*
X45727149Y-30054761D02*
X45727149Y-30149999D01*
X45727149Y-30149999D02*
X45750959Y-30197618D01*
X45750959Y-30197618D02*
X45774768Y-30221428D01*
X45774768Y-30221428D02*
X45846197Y-30269047D01*
X45846197Y-30269047D02*
X45941435Y-30292856D01*
X45941435Y-30292856D02*
X46131911Y-30292856D01*
X46131911Y-30292856D02*
X46179530Y-30269047D01*
X46179530Y-30269047D02*
X46203340Y-30245237D01*
X46203340Y-30245237D02*
X46227149Y-30197618D01*
X46227149Y-30197618D02*
X46227149Y-30102380D01*
X46227149Y-30102380D02*
X46203340Y-30054761D01*
X46203340Y-30054761D02*
X46179530Y-30030952D01*
X46179530Y-30030952D02*
X46131911Y-30007142D01*
X46131911Y-30007142D02*
X46012863Y-30007142D01*
X46012863Y-30007142D02*
X45965244Y-30030952D01*
X45965244Y-30030952D02*
X45941435Y-30054761D01*
X45941435Y-30054761D02*
X45917625Y-30102380D01*
X45917625Y-30102380D02*
X45917625Y-30197618D01*
X45917625Y-30197618D02*
X45941435Y-30245237D01*
X45941435Y-30245237D02*
X45965244Y-30269047D01*
X45965244Y-30269047D02*
X46012863Y-30292856D01*
X46227149Y-35683333D02*
X45989054Y-35849999D01*
X46227149Y-35969047D02*
X45727149Y-35969047D01*
X45727149Y-35969047D02*
X45727149Y-35778571D01*
X45727149Y-35778571D02*
X45750959Y-35730952D01*
X45750959Y-35730952D02*
X45774768Y-35707142D01*
X45774768Y-35707142D02*
X45822387Y-35683333D01*
X45822387Y-35683333D02*
X45893816Y-35683333D01*
X45893816Y-35683333D02*
X45941435Y-35707142D01*
X45941435Y-35707142D02*
X45965244Y-35730952D01*
X45965244Y-35730952D02*
X45989054Y-35778571D01*
X45989054Y-35778571D02*
X45989054Y-35969047D01*
X46227149Y-35207142D02*
X46227149Y-35492856D01*
X46227149Y-35349999D02*
X45727149Y-35349999D01*
X45727149Y-35349999D02*
X45798578Y-35397618D01*
X45798578Y-35397618D02*
X45846197Y-35445237D01*
X45846197Y-35445237D02*
X45870006Y-35492856D01*
D14*
%TO.C,D3*%
X56335000Y-51372500D02*
X56335000Y-49087500D01*
X54865000Y-51372500D02*
X56335000Y-51372500D01*
X54865000Y-49087500D02*
X54865000Y-51372500D01*
%TO.C,R10*%
X49162742Y-32422500D02*
X49637258Y-32422500D01*
X49162742Y-31377500D02*
X49637258Y-31377500D01*
%TO.C,C12*%
X52540580Y-32410000D02*
X52259420Y-32410000D01*
X52540580Y-31390000D02*
X52259420Y-31390000D01*
%TO.C,C8*%
X52311252Y-28990000D02*
X50888748Y-28990000D01*
X52311252Y-30810000D02*
X50888748Y-30810000D01*
%TO.C,TP3*%
X63200000Y-28300000D02*
G75*
G02*
X60800000Y-28300000I-1200000J0D01*
G01*
X60800000Y-28300000D02*
G75*
G02*
X63200000Y-28300000I1200000J0D01*
G01*
%TO.C,C7*%
X46740000Y-35707836D02*
X46740000Y-35492164D01*
X47460000Y-35707836D02*
X47460000Y-35492164D01*
%TO.C,C6*%
X48832836Y-52840000D02*
X48617164Y-52840000D01*
X48832836Y-53560000D02*
X48617164Y-53560000D01*
%TO.C,R3*%
X52637258Y-34377500D02*
X52162742Y-34377500D01*
X52637258Y-35422500D02*
X52162742Y-35422500D01*
%TO.C,R4*%
X49162742Y-34377500D02*
X49637258Y-34377500D01*
X49162742Y-35422500D02*
X49637258Y-35422500D01*
%TO.C,C5*%
X55065000Y-47292164D02*
X55065000Y-47507836D01*
X55785000Y-47292164D02*
X55785000Y-47507836D01*
%TO.C,C3*%
X53565000Y-43112164D02*
X53565000Y-43327836D01*
X54285000Y-43112164D02*
X54285000Y-43327836D01*
%TO.C,C2*%
X45285000Y-52027836D02*
X45285000Y-51812164D01*
X44565000Y-52027836D02*
X44565000Y-51812164D01*
%TO.C,C1*%
X44135000Y-51515580D02*
X44135000Y-51234420D01*
X43115000Y-51515580D02*
X43115000Y-51234420D01*
%TO.C,R9*%
X52637258Y-33922500D02*
X52162742Y-33922500D01*
X52637258Y-32877500D02*
X52162742Y-32877500D01*
%TO.C,R8*%
X49637258Y-33922500D02*
X49162742Y-33922500D01*
X49637258Y-32877500D02*
X49162742Y-32877500D01*
%TO.C,U4*%
D10*
X54100000Y-36250000D02*
X60100000Y-36250000D01*
X60100000Y-26250000D01*
X54100000Y-26250000D01*
X54100000Y-36250000D01*
X56200000Y-35250000D02*
X56100000Y-35150000D01*
X56100000Y-35250000D02*
X56200000Y-35250000D01*
X56100000Y-35150000D02*
X56100000Y-35250000D01*
D14*
%TO.C,C9*%
X52311252Y-25740000D02*
X50888748Y-25740000D01*
X52311252Y-28460000D02*
X50888748Y-28460000D01*
%TO.C,C11*%
X43810000Y-17988748D02*
X43810000Y-19411252D01*
X41990000Y-17988748D02*
X41990000Y-19411252D01*
%TO.C,C10*%
X41210000Y-17988748D02*
X41210000Y-19411252D01*
X39390000Y-17988748D02*
X39390000Y-19411252D01*
%TO.C,U2*%
X53260000Y-42210000D02*
X47740000Y-42210000D01*
X53260000Y-41465000D02*
X53260000Y-42210000D01*
X53260000Y-35790000D02*
X53260000Y-36535000D01*
X47740000Y-42210000D02*
X47740000Y-41465000D01*
X47740000Y-36535000D02*
X47740000Y-35790000D01*
X47740000Y-35790000D02*
X53260000Y-35790000D01*
X54340000Y-41940000D02*
X53660000Y-41940000D01*
X54000000Y-41470000D01*
X54340000Y-41940000D01*
G36*
X54340000Y-41940000D02*
G01*
X53660000Y-41940000D01*
X54000000Y-41470000D01*
X54340000Y-41940000D01*
G37*
%TO.C,Q2*%
X32725000Y-34460000D02*
X32725000Y-32650000D01*
X34090000Y-34460000D02*
X32725000Y-34460000D01*
X32725000Y-24060000D02*
X32725000Y-25870000D01*
X34090000Y-24060000D02*
X32725000Y-24060000D01*
X29900000Y-25910000D02*
X29560000Y-25440000D01*
X30240000Y-25440000D01*
X29900000Y-25910000D01*
G36*
X29900000Y-25910000D02*
G01*
X29560000Y-25440000D01*
X30240000Y-25440000D01*
X29900000Y-25910000D01*
G37*
%TO.C,Q1*%
X29900000Y-37390000D02*
X29560000Y-36920000D01*
X30240000Y-36920000D01*
X29900000Y-37390000D01*
G36*
X29900000Y-37390000D02*
G01*
X29560000Y-36920000D01*
X30240000Y-36920000D01*
X29900000Y-37390000D01*
G37*
X34090000Y-35540000D02*
X32725000Y-35540000D01*
X32725000Y-35540000D02*
X32725000Y-37350000D01*
X34090000Y-45940000D02*
X32725000Y-45940000D01*
X32725000Y-45940000D02*
X32725000Y-44130000D01*
%TO.C,J2*%
X36710000Y-21410000D02*
X36710000Y-18590000D01*
X36710000Y-21410000D02*
X35010000Y-22710000D01*
X36710000Y-18590000D02*
X35010000Y-17290000D01*
X35010000Y-22710000D02*
X26290000Y-22710000D01*
X35010000Y-17290000D02*
X26290000Y-17290000D01*
X26290000Y-22710000D02*
X26290000Y-17290000D01*
%TO.C,TP1*%
X63200000Y-31400000D02*
G75*
G02*
X60800000Y-31400000I-1200000J0D01*
G01*
X60800000Y-31400000D02*
G75*
G02*
X63200000Y-31400000I1200000J0D01*
G01*
%TO.C,J3*%
X16490000Y-26190000D02*
X16490000Y-33810000D01*
X16490000Y-33810000D02*
X22460000Y-33810000D01*
X17250000Y-26950000D02*
X17250000Y-30000000D01*
X17250000Y-33050000D02*
X17250000Y-30000000D01*
X20200000Y-26200000D02*
X20200000Y-26950000D01*
X20200000Y-26950000D02*
X17250000Y-26950000D01*
X20200000Y-33050000D02*
X17250000Y-33050000D01*
X20200000Y-33800000D02*
X20200000Y-33050000D01*
X21700000Y-26200000D02*
X21700000Y-28000000D01*
X21700000Y-28000000D02*
X22450000Y-28000000D01*
X21700000Y-29500000D02*
X21700000Y-30500000D01*
X21700000Y-30500000D02*
X22450000Y-30500000D01*
X21700000Y-32000000D02*
X21700000Y-33800000D01*
X21700000Y-33800000D02*
X22450000Y-33800000D01*
X22450000Y-26200000D02*
X21700000Y-26200000D01*
X22450000Y-28000000D02*
X22450000Y-26200000D01*
X22450000Y-29500000D02*
X21700000Y-29500000D01*
X22450000Y-30500000D02*
X22450000Y-29500000D01*
X22450000Y-32000000D02*
X21700000Y-32000000D01*
X22450000Y-33800000D02*
X22450000Y-32000000D01*
X22460000Y-26190000D02*
X16490000Y-26190000D01*
X22460000Y-33810000D02*
X22460000Y-26190000D01*
X22750000Y-25900000D02*
X21500000Y-25900000D01*
X22750000Y-27150000D02*
X22750000Y-25900000D01*
%TO.C,D2*%
X26650000Y-43510000D02*
X26650000Y-38000000D01*
X23350000Y-43510000D02*
X26650000Y-43510000D01*
X23350000Y-43510000D02*
X23350000Y-38000000D01*
%TO.C,JP2*%
X48400000Y-28825000D02*
X46400000Y-28825000D01*
X48400000Y-26025000D02*
X48400000Y-28825000D01*
X46400000Y-28825000D02*
X46400000Y-26025000D01*
X46400000Y-26025000D02*
X48400000Y-26025000D01*
%TO.C,JP1*%
X63000000Y-36000000D02*
X61000000Y-36000000D01*
X63000000Y-33200000D02*
X63000000Y-36000000D01*
X61000000Y-36000000D02*
X61000000Y-33200000D01*
X61000000Y-33200000D02*
X63000000Y-33200000D01*
%TO.C,R2*%
X45422500Y-39337742D02*
X45422500Y-39812258D01*
X44377500Y-39337742D02*
X44377500Y-39812258D01*
%TO.C,J5*%
X62690000Y-45990000D02*
X61415000Y-45990000D01*
X61415000Y-46055000D02*
X61415000Y-45990000D01*
X61415000Y-46055000D02*
X57785000Y-46055000D01*
X61415000Y-37010000D02*
X61415000Y-36945000D01*
X61415000Y-36945000D02*
X57785000Y-36945000D01*
X57785000Y-46055000D02*
X57785000Y-45990000D01*
X57785000Y-37010000D02*
X57785000Y-36945000D01*
%TO.C,U3*%
D10*
X56315000Y-25390000D02*
X44285000Y-25390000D01*
X44285000Y-16390000D01*
X56315000Y-16390000D01*
X56315000Y-25390000D01*
D14*
%TO.C,U1*%
X46015000Y-43990000D02*
X46315000Y-43990000D01*
X46015000Y-44290000D02*
X46015000Y-43990000D01*
X46015000Y-50910000D02*
X46015000Y-51210000D01*
X46015000Y-51210000D02*
X46315000Y-51210000D01*
X53235000Y-43990000D02*
X52935000Y-43990000D01*
X53235000Y-44290000D02*
X53235000Y-43990000D01*
X53235000Y-50910000D02*
X53235000Y-51210000D01*
X53235000Y-51210000D02*
X52935000Y-51210000D01*
X46315000Y-51812500D02*
X45845000Y-52152500D01*
X45845000Y-51472500D01*
X46315000Y-51812500D01*
G36*
X46315000Y-51812500D02*
G01*
X45845000Y-52152500D01*
X45845000Y-51472500D01*
X46315000Y-51812500D01*
G37*
%TO.C,R5*%
X45422500Y-33162742D02*
X45422500Y-33637258D01*
X44377500Y-33162742D02*
X44377500Y-33637258D01*
%TO.C,J1*%
X34325000Y-46925000D02*
X34325000Y-48175000D01*
X34615000Y-47215000D02*
X34615000Y-53185000D01*
X34615000Y-53185000D02*
X42235000Y-53185000D01*
X34625000Y-47225000D02*
X34625000Y-47975000D01*
X34625000Y-47975000D02*
X36425000Y-47975000D01*
X34625000Y-49475000D02*
X35375000Y-49475000D01*
X35375000Y-49475000D02*
X35375000Y-52425000D01*
X35375000Y-52425000D02*
X38425000Y-52425000D01*
X35575000Y-46925000D02*
X34325000Y-46925000D01*
X36425000Y-47225000D02*
X34625000Y-47225000D01*
X36425000Y-47975000D02*
X36425000Y-47225000D01*
X37925000Y-47225000D02*
X37925000Y-47975000D01*
X37925000Y-47975000D02*
X38925000Y-47975000D01*
X38925000Y-47225000D02*
X37925000Y-47225000D01*
X38925000Y-47975000D02*
X38925000Y-47225000D01*
X40425000Y-47225000D02*
X40425000Y-47975000D01*
X40425000Y-47975000D02*
X42225000Y-47975000D01*
X41475000Y-49475000D02*
X41475000Y-52425000D01*
X41475000Y-52425000D02*
X38425000Y-52425000D01*
X42225000Y-47225000D02*
X40425000Y-47225000D01*
X42225000Y-47975000D02*
X42225000Y-47225000D01*
X42225000Y-49475000D02*
X41475000Y-49475000D01*
X42235000Y-47215000D02*
X34615000Y-47215000D01*
X42235000Y-53185000D02*
X42235000Y-47215000D01*
%TO.C,J4*%
X16490000Y-36190000D02*
X16490000Y-43810000D01*
X16490000Y-43810000D02*
X22460000Y-43810000D01*
X17250000Y-36950000D02*
X17250000Y-40000000D01*
X17250000Y-43050000D02*
X17250000Y-40000000D01*
X20200000Y-36200000D02*
X20200000Y-36950000D01*
X20200000Y-36950000D02*
X17250000Y-36950000D01*
X20200000Y-43050000D02*
X17250000Y-43050000D01*
X20200000Y-43800000D02*
X20200000Y-43050000D01*
X21700000Y-36200000D02*
X21700000Y-38000000D01*
X21700000Y-38000000D02*
X22450000Y-38000000D01*
X21700000Y-39500000D02*
X21700000Y-40500000D01*
X21700000Y-40500000D02*
X22450000Y-40500000D01*
X21700000Y-42000000D02*
X21700000Y-43800000D01*
X21700000Y-43800000D02*
X22450000Y-43800000D01*
X22450000Y-36200000D02*
X21700000Y-36200000D01*
X22450000Y-38000000D02*
X22450000Y-36200000D01*
X22450000Y-39500000D02*
X21700000Y-39500000D01*
X22450000Y-40500000D02*
X22450000Y-39500000D01*
X22450000Y-42000000D02*
X21700000Y-42000000D01*
X22450000Y-43800000D02*
X22450000Y-42000000D01*
X22460000Y-36190000D02*
X16490000Y-36190000D01*
X22460000Y-43810000D02*
X22460000Y-36190000D01*
X22750000Y-35900000D02*
X21500000Y-35900000D01*
X22750000Y-37150000D02*
X22750000Y-35900000D01*
%TO.C,D1*%
X26650000Y-33510000D02*
X26650000Y-28000000D01*
X23350000Y-33510000D02*
X26650000Y-33510000D01*
X23350000Y-33510000D02*
X23350000Y-28000000D01*
%TO.C,TP2*%
X63200000Y-25200000D02*
G75*
G02*
X60800000Y-25200000I-1200000J0D01*
G01*
X60800000Y-25200000D02*
G75*
G02*
X63200000Y-25200000I1200000J0D01*
G01*
%TO.C,R6*%
X44377500Y-30637258D02*
X44377500Y-30162742D01*
X45422500Y-30637258D02*
X45422500Y-30162742D01*
%TO.C,R1*%
X44377500Y-36812258D02*
X44377500Y-36337742D01*
X45422500Y-36812258D02*
X45422500Y-36337742D01*
%TO.C,R7*%
X55037258Y-51677500D02*
X54562742Y-51677500D01*
X55037258Y-52722500D02*
X54562742Y-52722500D01*
%TD*%
M02*
