%TF.GenerationSoftware,KiCad,Pcbnew,9.0.4*%
%TF.CreationDate,2025-11-05T15:34:37+01:00*%
%TF.ProjectId,FliperKAd,466c6970-6572-44b4-9164-2e6b69636164,rev?*%
%TF.SameCoordinates,Original*%
%TF.FileFunction,Copper,L1,Top*%
%TF.FilePolarity,Positive*%
%FSLAX46Y46*%
G04 Gerber Fmt 4.6, Leading zero omitted, Abs format (unit mm)*
G04 Created by KiCad (PCBNEW 9.0.4) date 2025-11-05 15:34:37*
%MOMM*%
%LPD*%
G01*
G04 APERTURE LIST*
G04 Aperture macros list*
%AMRoundRect*
0 Rectangle with rounded corners*
0 $1 Rounding radius*
0 $2 $3 $4 $5 $6 $7 $8 $9 X,Y pos of 4 corners*
0 Add a 4 corners polygon primitive as box body*
4,1,4,$2,$3,$4,$5,$6,$7,$8,$9,$2,$3,0*
0 Add four circle primitives for the rounded corners*
1,1,$1+$1,$2,$3*
1,1,$1+$1,$4,$5*
1,1,$1+$1,$6,$7*
1,1,$1+$1,$8,$9*
0 Add four rect primitives between the rounded corners*
20,1,$1+$1,$2,$3,$4,$5,0*
20,1,$1+$1,$4,$5,$6,$7,0*
20,1,$1+$1,$6,$7,$8,$9,0*
20,1,$1+$1,$8,$9,$2,$3,0*%
%AMFreePoly0*
4,1,6,1.000000,0.000000,0.500000,-0.750000,-0.500000,-0.750000,-0.500000,0.750000,0.500000,0.750000,1.000000,0.000000,1.000000,0.000000,$1*%
%AMFreePoly1*
4,1,6,0.500000,-0.750000,-0.650000,-0.750000,-0.150000,0.000000,-0.650000,0.750000,0.500000,0.750000,0.500000,-0.750000,0.500000,-0.750000,$1*%
G04 Aperture macros list end*
%TA.AperFunction,SMDPad,CuDef*%
%ADD10RoundRect,0.200000X0.275000X-0.200000X0.275000X0.200000X-0.275000X0.200000X-0.275000X-0.200000X0*%
%TD*%
%TA.AperFunction,SMDPad,CuDef*%
%ADD11RoundRect,0.225000X-0.250000X0.225000X-0.250000X-0.225000X0.250000X-0.225000X0.250000X0.225000X0*%
%TD*%
%TA.AperFunction,SMDPad,CuDef*%
%ADD12RoundRect,0.250000X-0.300000X2.050000X-0.300000X-2.050000X0.300000X-2.050000X0.300000X2.050000X0*%
%TD*%
%TA.AperFunction,SMDPad,CuDef*%
%ADD13RoundRect,0.250002X-5.149998X4.449998X-5.149998X-4.449998X5.149998X-4.449998X5.149998X4.449998X0*%
%TD*%
%TA.AperFunction,SMDPad,CuDef*%
%ADD14RoundRect,0.140000X-0.140000X-0.170000X0.140000X-0.170000X0.140000X0.170000X-0.140000X0.170000X0*%
%TD*%
%TA.AperFunction,ComponentPad*%
%ADD15C,0.800000*%
%TD*%
%TA.AperFunction,ComponentPad*%
%ADD16C,6.400000*%
%TD*%
%TA.AperFunction,SMDPad,CuDef*%
%ADD17RoundRect,0.225000X0.250000X-0.225000X0.250000X0.225000X-0.250000X0.225000X-0.250000X-0.225000X0*%
%TD*%
%TA.AperFunction,ComponentPad*%
%ADD18RoundRect,0.250000X-0.600000X-0.750000X0.600000X-0.750000X0.600000X0.750000X-0.600000X0.750000X0*%
%TD*%
%TA.AperFunction,ComponentPad*%
%ADD19O,1.700000X2.000000*%
%TD*%
%TA.AperFunction,SMDPad,CuDef*%
%ADD20RoundRect,0.218750X-0.256250X0.218750X-0.256250X-0.218750X0.256250X-0.218750X0.256250X0.218750X0*%
%TD*%
%TA.AperFunction,SMDPad,CuDef*%
%ADD21RoundRect,0.225000X-0.225000X-0.250000X0.225000X-0.250000X0.225000X0.250000X-0.225000X0.250000X0*%
%TD*%
%TA.AperFunction,SMDPad,CuDef*%
%ADD22RoundRect,0.200000X-0.275000X0.200000X-0.275000X-0.200000X0.275000X-0.200000X0.275000X0.200000X0*%
%TD*%
%TA.AperFunction,SMDPad,CuDef*%
%ADD23C,2.000000*%
%TD*%
%TA.AperFunction,ComponentPad*%
%ADD24RoundRect,0.250000X-0.750000X0.600000X-0.750000X-0.600000X0.750000X-0.600000X0.750000X0.600000X0*%
%TD*%
%TA.AperFunction,ComponentPad*%
%ADD25O,2.000000X1.700000*%
%TD*%
%TA.AperFunction,SMDPad,CuDef*%
%ADD26RoundRect,0.250000X-0.650000X1.000000X-0.650000X-1.000000X0.650000X-1.000000X0.650000X1.000000X0*%
%TD*%
%TA.AperFunction,SMDPad,CuDef*%
%ADD27FreePoly0,90.000000*%
%TD*%
%TA.AperFunction,SMDPad,CuDef*%
%ADD28FreePoly1,90.000000*%
%TD*%
%TA.AperFunction,SMDPad,CuDef*%
%ADD29RoundRect,0.200000X0.200000X0.275000X-0.200000X0.275000X-0.200000X-0.275000X0.200000X-0.275000X0*%
%TD*%
%TA.AperFunction,SMDPad,CuDef*%
%ADD30RoundRect,0.140000X-0.170000X0.140000X-0.170000X-0.140000X0.170000X-0.140000X0.170000X0.140000X0*%
%TD*%
%TA.AperFunction,SMDPad,CuDef*%
%ADD31RoundRect,0.218750X0.256250X-0.218750X0.256250X0.218750X-0.256250X0.218750X-0.256250X-0.218750X0*%
%TD*%
%TA.AperFunction,SMDPad,CuDef*%
%ADD32R,2.400000X0.740000*%
%TD*%
%TA.AperFunction,ComponentPad*%
%ADD33RoundRect,0.800000X0.000010X0.000010X-0.000010X0.000010X-0.000010X-0.000010X0.000010X-0.000010X0*%
%TD*%
%TA.AperFunction,SMDPad,CuDef*%
%ADD34RoundRect,0.125000X0.125000X-0.625000X0.125000X0.625000X-0.125000X0.625000X-0.125000X-0.625000X0*%
%TD*%
%TA.AperFunction,SMDPad,CuDef*%
%ADD35RoundRect,0.125000X0.625000X-0.125000X0.625000X0.125000X-0.625000X0.125000X-0.625000X-0.125000X0*%
%TD*%
%TA.AperFunction,SMDPad,CuDef*%
%ADD36RoundRect,0.117000X1.023000X-0.273000X1.023000X0.273000X-1.023000X0.273000X-1.023000X-0.273000X0*%
%TD*%
%TA.AperFunction,SMDPad,CuDef*%
%ADD37RoundRect,0.200000X-0.200000X-0.275000X0.200000X-0.275000X0.200000X0.275000X-0.200000X0.275000X0*%
%TD*%
%TA.AperFunction,ComponentPad*%
%ADD38RoundRect,0.250000X0.600000X0.750000X-0.600000X0.750000X-0.600000X-0.750000X0.600000X-0.750000X0*%
%TD*%
%TA.AperFunction,SMDPad,CuDef*%
%ADD39RoundRect,0.060000X0.190000X-0.140000X0.190000X0.140000X-0.190000X0.140000X-0.190000X-0.140000X0*%
%TD*%
%TA.AperFunction,SMDPad,CuDef*%
%ADD40RoundRect,0.225000X0.525000X-0.525000X0.525000X0.525000X-0.525000X0.525000X-0.525000X-0.525000X0*%
%TD*%
%TA.AperFunction,SMDPad,CuDef*%
%ADD41RoundRect,0.225000X0.225000X0.250000X-0.225000X0.250000X-0.225000X-0.250000X0.225000X-0.250000X0*%
%TD*%
%TA.AperFunction,ViaPad*%
%ADD42C,0.800000*%
%TD*%
%TA.AperFunction,Conductor*%
%ADD43C,0.500000*%
%TD*%
%TA.AperFunction,Conductor*%
%ADD44C,0.200000*%
%TD*%
%TA.AperFunction,Conductor*%
%ADD45C,0.300000*%
%TD*%
G04 APERTURE END LIST*
D10*
%TO.P,R8,1*%
%TO.N,Com-SolA*%
X208000000Y-70825000D03*
%TO.P,R8,2*%
%TO.N,GND*%
X208000000Y-69175000D03*
%TD*%
D11*
%TO.P,C2,1*%
%TO.N,+24V*%
X217500000Y-88975000D03*
%TO.P,C2,2*%
%TO.N,GND*%
X217500000Y-90525000D03*
%TD*%
%TO.P,C6,1*%
%TO.N,+3.3VA*%
X216500000Y-78225000D03*
%TO.P,C6,2*%
%TO.N,GND*%
X216500000Y-79775000D03*
%TD*%
D12*
%TO.P,Q2,1,D*%
%TO.N,Sortie-Sol\u00E9noideB*%
X207540000Y-97000000D03*
%TO.P,Q2,2,G*%
%TO.N,Net-(Q2-G)*%
X205000000Y-97000000D03*
%TO.P,Q2,3,S*%
%TO.N,GND*%
X202460000Y-97000000D03*
D13*
%TO.P,Q2,4*%
%TO.N,N/C*%
X205000000Y-106150000D03*
%TD*%
D14*
%TO.P,C10,1*%
%TO.N,+3.3V*%
X202520000Y-83250000D03*
%TO.P,C10,2*%
%TO.N,GND*%
X203480000Y-83250000D03*
%TD*%
D15*
%TO.P,H1,1,1*%
%TO.N,GND*%
X182600000Y-66900000D03*
X183302944Y-65202944D03*
X183302944Y-68597056D03*
X185000000Y-64500000D03*
D16*
X185000000Y-66900000D03*
D15*
X185000000Y-69300000D03*
X186697056Y-65202944D03*
X186697056Y-68597056D03*
X187400000Y-66900000D03*
%TD*%
D11*
%TO.P,C4,1*%
%TO.N,/Test 3.3*%
X217500000Y-84475000D03*
%TO.P,C4,2*%
%TO.N,GND*%
X217500000Y-86025000D03*
%TD*%
D17*
%TO.P,C12,1*%
%TO.N,Net-(C12-Pad1)*%
X217400000Y-98375000D03*
%TO.P,C12,2*%
%TO.N,GND*%
X217400000Y-96825000D03*
%TD*%
D18*
%TO.P,J5,1,Pin_1*%
%TO.N,+24V*%
X208500000Y-119250000D03*
D19*
%TO.P,J5,2,Pin_2*%
%TO.N,GND*%
X211000000Y-119250000D03*
%TD*%
D10*
%TO.P,R1,1*%
%TO.N,/LED_Stat*%
X213000000Y-68862500D03*
%TO.P,R1,2*%
%TO.N,GND*%
X213000000Y-67212500D03*
%TD*%
D20*
%TO.P,D1,1,K*%
%TO.N,/LED_Stat*%
X213000000Y-71212500D03*
%TO.P,D1,2,A*%
%TO.N,LED_Status*%
X213000000Y-72787500D03*
%TD*%
D21*
%TO.P,C3,1*%
%TO.N,Net-(U3-VCC)*%
X221000000Y-93500000D03*
%TO.P,C3,2*%
%TO.N,GND*%
X222550000Y-93500000D03*
%TD*%
D22*
%TO.P,R3,1*%
%TO.N,Net-(U3-FB)*%
X217500000Y-91925000D03*
%TO.P,R3,2*%
%TO.N,GND*%
X217500000Y-93575000D03*
%TD*%
D23*
%TO.P,TP2,1,1*%
%TO.N,/Test 3.3*%
X226770000Y-81260000D03*
%TD*%
D15*
%TO.P,H2,1,1*%
%TO.N,GND*%
X218600000Y-66900000D03*
X219302944Y-65202944D03*
X219302944Y-68597056D03*
X221000000Y-64500000D03*
D16*
X221000000Y-66900000D03*
D15*
X221000000Y-69300000D03*
X222697056Y-65202944D03*
X222697056Y-68597056D03*
X223400000Y-66900000D03*
%TD*%
D24*
%TO.P,J3,1,Pin_1*%
%TO.N,+24V*%
X181025000Y-75250000D03*
D25*
%TO.P,J3,2,Pin_2*%
%TO.N,Sortie-Sol\u00E9noideA*%
X181025000Y-77750000D03*
%TD*%
D26*
%TO.P,D3,1,K*%
%TO.N,+24V*%
X185800000Y-88000000D03*
%TO.P,D3,2,A*%
%TO.N,Sortie-Sol\u00E9noideB*%
X185800000Y-92000000D03*
%TD*%
D27*
%TO.P,JP2,1,A*%
%TO.N,/12test*%
X222800000Y-100925000D03*
D28*
%TO.P,JP2,2,B*%
%TO.N,+12V*%
X222800000Y-99475000D03*
%TD*%
D27*
%TO.P,JP1,1,A*%
%TO.N,/Test 3.3*%
X223750000Y-78975000D03*
D28*
%TO.P,JP1,2,B*%
%TO.N,+3.3V*%
X223750000Y-77525000D03*
%TD*%
D17*
%TO.P,C5,1*%
%TO.N,+24V*%
X217400000Y-101375000D03*
%TO.P,C5,2*%
%TO.N,Net-(C12-Pad1)*%
X217400000Y-99825000D03*
%TD*%
D12*
%TO.P,Q1,1,D*%
%TO.N,Sortie-Sol\u00E9noideA*%
X194080000Y-97000000D03*
%TO.P,Q1,2,G*%
%TO.N,Net-(Q1-G)*%
X191540000Y-97000000D03*
%TO.P,Q1,3,S*%
%TO.N,GND*%
X189000000Y-97000000D03*
D13*
%TO.P,Q1,4*%
%TO.N,N/C*%
X191540000Y-106150000D03*
%TD*%
D29*
%TO.P,R7,1*%
%TO.N,Com-SolB*%
X200825000Y-74000000D03*
%TO.P,R7,2*%
%TO.N,GND*%
X199175000Y-74000000D03*
%TD*%
D30*
%TO.P,C8,1*%
%TO.N,+3.3VA*%
X218000000Y-78250000D03*
%TO.P,C8,2*%
%TO.N,GND*%
X218000000Y-79210000D03*
%TD*%
D31*
%TO.P,L2,1*%
%TO.N,+3.3VA*%
X219250000Y-78287500D03*
%TO.P,L2,2*%
%TO.N,+3.3V*%
X219250000Y-76712500D03*
%TD*%
D15*
%TO.P,H3,1,1*%
%TO.N,GND*%
X218600000Y-116250000D03*
X219302944Y-114552944D03*
X219302944Y-117947056D03*
X221000000Y-113850000D03*
D16*
X221000000Y-116250000D03*
D15*
X221000000Y-118650000D03*
X222697056Y-114552944D03*
X222697056Y-117947056D03*
X223400000Y-116250000D03*
%TD*%
D10*
%TO.P,R12,1*%
%TO.N,Net-(Q2-G)*%
X190000000Y-66825000D03*
%TO.P,R12,2*%
%TO.N,GND*%
X190000000Y-65175000D03*
%TD*%
D23*
%TO.P,TP3,1,1*%
%TO.N,+12V*%
X226200000Y-97200000D03*
%TD*%
D21*
%TO.P,C1,1*%
%TO.N,+12V*%
X225425000Y-99600000D03*
%TO.P,C1,2*%
%TO.N,GND*%
X226975000Y-99600000D03*
%TD*%
D32*
%TO.P,J2,1,NC*%
%TO.N,unconnected-(J2-NC-Pad1)*%
X195050000Y-76190000D03*
%TO.P,J2,2,NC*%
%TO.N,unconnected-(J2-NC-Pad2)*%
X198950000Y-76190000D03*
%TO.P,J2,3,VCC*%
%TO.N,+3.3V*%
X195050000Y-77460000D03*
%TO.P,J2,4,JTMS/SWDIO*%
%TO.N,SYS_SWDIO*%
X198950000Y-77460000D03*
%TO.P,J2,5,GND*%
%TO.N,GND*%
X195050000Y-78730000D03*
%TO.P,J2,6,JCLK/SWCLK*%
%TO.N,SYS_SWCLK*%
X198950000Y-78730000D03*
%TO.P,J2,7,GND*%
%TO.N,GND*%
X195050000Y-80000000D03*
%TO.P,J2,8,JTDO/SWO*%
%TO.N,unconnected-(J2-JTDO{slash}SWO-Pad8)*%
X198950000Y-80000000D03*
%TO.P,J2,9,JRCLK/NC*%
%TO.N,unconnected-(J2-JRCLK{slash}NC-Pad9)*%
X195050000Y-81270000D03*
%TO.P,J2,10,JTDI/NC*%
%TO.N,unconnected-(J2-JTDI{slash}NC-Pad10)*%
X198950000Y-81270000D03*
%TO.P,J2,11,GNDDetect*%
%TO.N,GND*%
X195050000Y-82540000D03*
%TO.P,J2,12,~{RST}*%
%TO.N,NRST*%
X198950000Y-82540000D03*
%TO.P,J2,13,VCP_RX*%
%TO.N,USART2_RX*%
X195050000Y-83810000D03*
%TO.P,J2,14,VCP_TX*%
%TO.N,USART2_TX*%
X198950000Y-83810000D03*
%TD*%
D33*
%TO.P,U5,1,Vin*%
%TO.N,+24V*%
X217750000Y-104480000D03*
%TO.P,U5,2,Gnd*%
%TO.N,GND*%
X220295000Y-104470000D03*
%TO.P,U5,3,Vout*%
%TO.N,/12test*%
X222850000Y-104470000D03*
%TD*%
D15*
%TO.P,H4,1,1*%
%TO.N,GND*%
X182600000Y-116250000D03*
X183302944Y-114552944D03*
X183302944Y-117947056D03*
X185000000Y-113850000D03*
D16*
X185000000Y-116250000D03*
D15*
X185000000Y-118650000D03*
X186697056Y-114552944D03*
X186697056Y-117947056D03*
X187400000Y-116250000D03*
%TD*%
D34*
%TO.P,U1,1,VDD*%
%TO.N,+3.3V*%
X207200000Y-84175000D03*
%TO.P,U1,2,PF0*%
%TO.N,unconnected-(U1-PF0-Pad2)*%
X208000000Y-84175000D03*
%TO.P,U1,3,PF1*%
%TO.N,unconnected-(U1-PF1-Pad3)*%
X208800000Y-84175000D03*
%TO.P,U1,4,PG10*%
%TO.N,NRST*%
X209600000Y-84175000D03*
%TO.P,U1,5,PA0*%
%TO.N,unconnected-(U1-PA0-Pad5)*%
X210400000Y-84175000D03*
%TO.P,U1,6,PA1*%
%TO.N,unconnected-(U1-PA1-Pad6)*%
X211200000Y-84175000D03*
%TO.P,U1,7,PA2*%
%TO.N,USART2_TX*%
X212000000Y-84175000D03*
%TO.P,U1,8,PA3*%
%TO.N,USART2_RX*%
X212800000Y-84175000D03*
D35*
%TO.P,U1,9,PA4*%
%TO.N,unconnected-(U1-PA4-Pad9)*%
X214175000Y-82800000D03*
%TO.P,U1,10,PA5*%
%TO.N,unconnected-(U1-PA5-Pad10)*%
X214175000Y-82000000D03*
%TO.P,U1,11,PA6*%
%TO.N,unconnected-(U1-PA6-Pad11)*%
X214175000Y-81200000D03*
%TO.P,U1,12,PA7*%
%TO.N,unconnected-(U1-PA7-Pad12)*%
X214175000Y-80400000D03*
%TO.P,U1,13,PB0*%
%TO.N,unconnected-(U1-PB0-Pad13)*%
X214175000Y-79600000D03*
%TO.P,U1,14,VSSA*%
%TO.N,GND*%
X214175000Y-78800000D03*
%TO.P,U1,15,VDDA*%
%TO.N,+3.3VA*%
X214175000Y-78000000D03*
%TO.P,U1,16,VSS*%
%TO.N,GND*%
X214175000Y-77200000D03*
D34*
%TO.P,U1,17,VDD*%
%TO.N,+3.3V*%
X212800000Y-75825000D03*
%TO.P,U1,18,PA8*%
%TO.N,LED_Status*%
X212000000Y-75825000D03*
%TO.P,U1,19,PA9*%
%TO.N,Bouton_Actif*%
X211200000Y-75825000D03*
%TO.P,U1,20,PA10*%
%TO.N,Com-SolA*%
X210400000Y-75825000D03*
%TO.P,U1,21,PA11*%
%TO.N,Com-SolB*%
X209600000Y-75825000D03*
%TO.P,U1,22,PA12*%
%TO.N,unconnected-(U1-PA12-Pad22)*%
X208800000Y-75825000D03*
%TO.P,U1,23,PA13*%
%TO.N,SYS_SWDIO*%
X208000000Y-75825000D03*
%TO.P,U1,24,PA14*%
%TO.N,SYS_SWCLK*%
X207200000Y-75825000D03*
D35*
%TO.P,U1,25,PA15*%
%TO.N,unconnected-(U1-PA15-Pad25)*%
X205825000Y-77200000D03*
%TO.P,U1,26,PB3*%
%TO.N,unconnected-(U1-PB3-Pad26)*%
X205825000Y-78000000D03*
%TO.P,U1,27,PB4*%
%TO.N,unconnected-(U1-PB4-Pad27)*%
X205825000Y-78800000D03*
%TO.P,U1,28,PB5*%
%TO.N,unconnected-(U1-PB5-Pad28)*%
X205825000Y-79600000D03*
%TO.P,U1,29,PB6*%
%TO.N,unconnected-(U1-PB6-Pad29)*%
X205825000Y-80400000D03*
%TO.P,U1,30,PB7*%
%TO.N,unconnected-(U1-PB7-Pad30)*%
X205825000Y-81200000D03*
%TO.P,U1,31,PB8*%
%TO.N,unconnected-(U1-PB8-Pad31)*%
X205825000Y-82000000D03*
%TO.P,U1,32,VSS*%
%TO.N,GND*%
X205825000Y-82800000D03*
%TD*%
D21*
%TO.P,C7,1*%
%TO.N,+3.3V*%
X202225000Y-81000000D03*
%TO.P,C7,2*%
%TO.N,GND*%
X203775000Y-81000000D03*
%TD*%
D14*
%TO.P,C9,1*%
%TO.N,+3.3V*%
X202520000Y-82250000D03*
%TO.P,C9,2*%
%TO.N,GND*%
X203480000Y-82250000D03*
%TD*%
D36*
%TO.P,U4,1,NC*%
%TO.N,unconnected-(U4-NC-Pad1)*%
X204490000Y-71620000D03*
%TO.P,U4,2,INA*%
%TO.N,Com-SolA*%
X204500000Y-70350000D03*
%TO.P,U4,3,GND*%
%TO.N,GND*%
X204520000Y-69080000D03*
%TO.P,U4,4,INB*%
%TO.N,Com-SolB*%
X204530000Y-67810000D03*
%TO.P,U4,5,OUTB*%
%TO.N,Com-MOSB*%
X199030000Y-67810000D03*
%TO.P,U4,6,Vs*%
%TO.N,+12V*%
X199020000Y-69080000D03*
%TO.P,U4,7,OUTA*%
%TO.N,Com-MOSA*%
X199000000Y-70350000D03*
%TO.P,U4,8,NC*%
%TO.N,unconnected-(U4-NC-Pad8)*%
X198990000Y-71620000D03*
%TD*%
D37*
%TO.P,R10,1*%
%TO.N,Net-(Q1-G)*%
X192175000Y-71000000D03*
%TO.P,R10,2*%
%TO.N,Com-MOSA*%
X193825000Y-71000000D03*
%TD*%
D38*
%TO.P,J1,1,Pin_1*%
%TO.N,Bouton_Actif*%
X210000000Y-62900000D03*
D19*
%TO.P,J1,2,Pin_2*%
%TO.N,GND*%
X207500000Y-62900000D03*
%TD*%
D24*
%TO.P,J4,1,Pin_1*%
%TO.N,+24V*%
X181025000Y-88450000D03*
D25*
%TO.P,J4,2,Pin_2*%
%TO.N,Sortie-Sol\u00E9noideB*%
X181025000Y-90950000D03*
%TD*%
D22*
%TO.P,R5,1*%
%TO.N,Net-(U3-FSW)*%
X219000000Y-94175000D03*
%TO.P,R5,2*%
%TO.N,GND*%
X219000000Y-95825000D03*
%TD*%
D39*
%TO.P,U3,1,FSW*%
%TO.N,Net-(U3-FSW)*%
X218900000Y-92150000D03*
%TO.P,U3,2,FB*%
%TO.N,Net-(U3-FB)*%
X218900000Y-91150000D03*
%TO.P,U3,3,VCC*%
%TO.N,Net-(U3-VCC)*%
X218900000Y-90150000D03*
%TO.P,U3,4,Vin*%
%TO.N,+24V*%
X218900000Y-89150000D03*
%TO.P,U3,5,Vin*%
X218900000Y-88150000D03*
D40*
%TO.P,U3,6,Vout*%
%TO.N,/Test 3.3*%
X219400000Y-83400000D03*
%TO.P,U3,7,Vout*%
X223600000Y-83400000D03*
D39*
%TO.P,U3,8,DNC*%
%TO.N,unconnected-(U3-DNC-Pad8)*%
X224100000Y-88150000D03*
%TO.P,U3,9,Vin*%
%TO.N,+24V*%
X224100000Y-89150000D03*
%TO.P,U3,10,AGND*%
%TO.N,GND*%
X224100000Y-90150000D03*
%TO.P,U3,11,PG*%
%TO.N,unconnected-(U3-PG-Pad11)*%
X224100000Y-91150000D03*
%TO.P,U3,12,EN*%
%TO.N,+24V*%
X224100000Y-92150000D03*
D40*
%TO.P,U3,13,PGND*%
%TO.N,GND*%
X221500000Y-90550000D03*
%TD*%
D26*
%TO.P,D2,1,K*%
%TO.N,+24V*%
X185800000Y-75000000D03*
%TO.P,D2,2,A*%
%TO.N,Sortie-Sol\u00E9noideA*%
X185800000Y-79000000D03*
%TD*%
D23*
%TO.P,TP1,1,1*%
%TO.N,+24V*%
X210400000Y-91200000D03*
%TD*%
D10*
%TO.P,R9,1*%
%TO.N,Net-(Q1-G)*%
X192000000Y-66825000D03*
%TO.P,R9,2*%
%TO.N,GND*%
X192000000Y-65175000D03*
%TD*%
D22*
%TO.P,R4,1*%
%TO.N,/Test 3.3*%
X215500000Y-84425000D03*
%TO.P,R4,2*%
%TO.N,Net-(U3-FB)*%
X215500000Y-86075000D03*
%TD*%
D41*
%TO.P,C11,1*%
%TO.N,NRST*%
X209775000Y-86000000D03*
%TO.P,C11,2*%
%TO.N,GND*%
X208225000Y-86000000D03*
%TD*%
D37*
%TO.P,R11,1*%
%TO.N,Net-(Q2-G)*%
X192175000Y-69000000D03*
%TO.P,R11,2*%
%TO.N,Com-MOSB*%
X193825000Y-69000000D03*
%TD*%
D42*
%TO.N,+24V*%
X225000000Y-92000000D03*
X223000000Y-88000000D03*
X213000000Y-96400000D03*
%TO.N,GND*%
X221780000Y-86025000D03*
X227000000Y-85000000D03*
X210600000Y-96400000D03*
X196000000Y-86000000D03*
X199000000Y-86000000D03*
X227000000Y-91000000D03*
X202200000Y-78400000D03*
X227000000Y-65000000D03*
X190000000Y-64000000D03*
X210000000Y-79900000D03*
X213000000Y-114000000D03*
X223000000Y-72000000D03*
X218100000Y-81400000D03*
X227000000Y-114000000D03*
X189000000Y-93800000D03*
X203000000Y-61000000D03*
X227000000Y-69000000D03*
X227000000Y-88000000D03*
X215000000Y-61000000D03*
X202000000Y-120000000D03*
X205000000Y-84000000D03*
X222300000Y-92100000D03*
X196000000Y-74000000D03*
X227000000Y-72000000D03*
X203000000Y-64000000D03*
X219000000Y-72000000D03*
X227000000Y-111000000D03*
X192000000Y-86000000D03*
X216000000Y-77000000D03*
X216000000Y-112000000D03*
X207800000Y-77800000D03*
X227000000Y-118000000D03*
X223000000Y-61000000D03*
X216000000Y-96000000D03*
X206000000Y-86000000D03*
X216000000Y-119000000D03*
X227000000Y-76000000D03*
X219000000Y-61000000D03*
X215000000Y-72000000D03*
X216000000Y-116000000D03*
X215000000Y-69000000D03*
X192000000Y-81000000D03*
X198000000Y-121000000D03*
X215000000Y-65000000D03*
%TO.N,+3.3V*%
X192300000Y-77400000D03*
X207600000Y-82400000D03*
%TO.N,+12V*%
X222800000Y-97200000D03*
X197000000Y-69000000D03*
%TD*%
D43*
%TO.N,+24V*%
X209675000Y-112675000D02*
X210725000Y-111625000D01*
X225000000Y-92000000D02*
X224250000Y-92000000D01*
X181725000Y-75950000D02*
X181025000Y-75250000D01*
X185800000Y-75000000D02*
X185800000Y-75150000D01*
X213000000Y-101000000D02*
X213000000Y-109350000D01*
X213000000Y-96400000D02*
X213000000Y-98800000D01*
X185000000Y-75950000D02*
X181725000Y-75950000D01*
X217750000Y-104480000D02*
X214035000Y-100765000D01*
X211200000Y-91200000D02*
X213000000Y-93000000D01*
X214035000Y-100765000D02*
X213000000Y-99730000D01*
X208500000Y-113850000D02*
X209675000Y-112675000D01*
X179474000Y-86899000D02*
X179474000Y-76801000D01*
X181025000Y-88450000D02*
X179474000Y-90001000D01*
X218325000Y-88150000D02*
X217500000Y-88975000D01*
X223000000Y-88299999D02*
X223850001Y-89150000D01*
X213000000Y-109350000D02*
X210725000Y-111625000D01*
X181025000Y-88450000D02*
X179474000Y-86899000D01*
X213000000Y-98800000D02*
X213000000Y-101000000D01*
X218050000Y-88300000D02*
X218900000Y-88300000D01*
X187325288Y-112675000D02*
X209675000Y-112675000D01*
X217675000Y-89150000D02*
X217500000Y-88975000D01*
X218900000Y-89150000D02*
X217675000Y-89150000D01*
X179474000Y-90001000D02*
X179474000Y-104823712D01*
X179474000Y-76801000D02*
X181025000Y-75250000D01*
X217500000Y-88975000D02*
X217025000Y-88975000D01*
X213000000Y-93000000D02*
X213000000Y-96400000D01*
X223850001Y-89150000D02*
X224100000Y-89150000D01*
X223000000Y-88000000D02*
X223000000Y-88299999D01*
X179474000Y-104823712D02*
X187325288Y-112675000D01*
X208500000Y-119250000D02*
X208500000Y-113850000D01*
X181525000Y-88950000D02*
X181025000Y-88450000D01*
X185800000Y-75150000D02*
X185000000Y-75950000D01*
X218900000Y-88150000D02*
X218325000Y-88150000D01*
X185000000Y-88950000D02*
X181525000Y-88950000D01*
X210400000Y-91200000D02*
X211200000Y-91200000D01*
X217400000Y-101375000D02*
X214645000Y-101375000D01*
X224250000Y-92000000D02*
X224100000Y-92150000D01*
X214645000Y-101375000D02*
X214035000Y-100765000D01*
X217025000Y-88975000D02*
X213000000Y-93000000D01*
X213000000Y-99730000D02*
X213000000Y-98800000D01*
%TO.N,GND*%
X203480000Y-82350000D02*
X203930000Y-82800000D01*
X216000000Y-94000000D02*
X216000000Y-96000000D01*
X205825000Y-82800000D02*
X205825000Y-83175000D01*
X217400000Y-96825000D02*
X216825000Y-96825000D01*
X202200000Y-78400000D02*
X203000000Y-79200000D01*
X215200000Y-78800000D02*
X215900000Y-79500000D01*
X193299000Y-82191000D02*
X193299000Y-80051000D01*
X214175000Y-77200000D02*
X215800000Y-77200000D01*
X206000000Y-86000000D02*
X208225000Y-86000000D01*
X216425000Y-93575000D02*
X216000000Y-94000000D01*
X218000000Y-81300000D02*
X218100000Y-81400000D01*
X217435000Y-79775000D02*
X218000000Y-79210000D01*
X212800000Y-78800000D02*
X212760000Y-78840000D01*
X221500000Y-91300000D02*
X222300000Y-92100000D01*
X214175000Y-78800000D02*
X215200000Y-78800000D01*
X218000000Y-79210000D02*
X218000000Y-81300000D01*
X216000000Y-91550000D02*
X216000000Y-94000000D01*
X203100000Y-79200000D02*
X203775000Y-79875000D01*
X217025000Y-90525000D02*
X216000000Y-91550000D01*
X193350000Y-80000000D02*
X195050000Y-80000000D01*
X195050000Y-82540000D02*
X193648000Y-82540000D01*
X203480000Y-82250000D02*
X203480000Y-82350000D01*
X221500000Y-90550000D02*
X221500000Y-91300000D01*
X216825000Y-96825000D02*
X216000000Y-96000000D01*
X222550000Y-93500000D02*
X222300000Y-93250000D01*
X224349999Y-90150000D02*
X224100000Y-90150000D01*
X223170746Y-86025000D02*
X224901000Y-87755254D01*
X221780000Y-86025000D02*
X223170746Y-86025000D01*
X205825000Y-83175000D02*
X205000000Y-84000000D01*
X205825000Y-82800000D02*
X203930000Y-82800000D01*
X203000000Y-79200000D02*
X203100000Y-79200000D01*
X217500000Y-93575000D02*
X216425000Y-93575000D01*
X217500000Y-90525000D02*
X217025000Y-90525000D01*
X216500000Y-79775000D02*
X217435000Y-79775000D01*
X222300000Y-93250000D02*
X222300000Y-92100000D01*
X224901000Y-87755254D02*
X224901000Y-89598999D01*
D44*
X194220000Y-80000000D02*
X195050000Y-80000000D01*
D43*
X193299000Y-80051000D02*
X193350000Y-80000000D01*
X224901000Y-89598999D02*
X224349999Y-90150000D01*
X214175000Y-78800000D02*
X212800000Y-78800000D01*
X216225000Y-79500000D02*
X216500000Y-79775000D01*
X215900000Y-79500000D02*
X216225000Y-79500000D01*
X203930000Y-82800000D02*
X203480000Y-83250000D01*
X215800000Y-77200000D02*
X216000000Y-77000000D01*
X195050000Y-78730000D02*
X195050000Y-80000000D01*
X217500000Y-86025000D02*
X221780000Y-86025000D01*
X190000000Y-64000000D02*
X190000000Y-65175000D01*
X203480000Y-82250000D02*
X203480000Y-81295000D01*
X193648000Y-82540000D02*
X193299000Y-82191000D01*
X203775000Y-79875000D02*
X203775000Y-81000000D01*
X203480000Y-81295000D02*
X203775000Y-81000000D01*
D45*
%TO.N,Net-(U3-VCC)*%
X218900000Y-90150000D02*
X218954326Y-90150000D01*
X218954326Y-90150000D02*
X221000000Y-92195674D01*
X221000000Y-92195674D02*
X221000000Y-93500000D01*
D43*
%TO.N,+3.3V*%
X210874000Y-77126000D02*
X212600000Y-77126000D01*
X207200000Y-84175000D02*
X206375000Y-85000000D01*
X207200000Y-84175000D02*
X207200000Y-82800000D01*
X207200000Y-82800000D02*
X207600000Y-82400000D01*
X202520000Y-83250000D02*
X202520000Y-82250000D01*
X202520000Y-83581102D02*
X202520000Y-83250000D01*
X207600000Y-82400000D02*
X207600000Y-80400000D01*
X195050000Y-77460000D02*
X192360000Y-77460000D01*
X203938898Y-85000000D02*
X202520000Y-83581102D01*
X212600000Y-77126000D02*
X212800000Y-76926000D01*
X206375000Y-85000000D02*
X203938898Y-85000000D01*
X192360000Y-77460000D02*
X192300000Y-77400000D01*
X212800000Y-76926000D02*
X212800000Y-75825000D01*
X202520000Y-81295000D02*
X202225000Y-81000000D01*
X202520000Y-82250000D02*
X202520000Y-81295000D01*
X207600000Y-80400000D02*
X210874000Y-77126000D01*
D44*
X212800000Y-75825000D02*
X212875000Y-75750000D01*
D43*
X223043403Y-76712500D02*
X223750000Y-77419097D01*
X218362500Y-75825000D02*
X212800000Y-75825000D01*
X219250000Y-76712500D02*
X218362500Y-75825000D01*
X219250000Y-76712500D02*
X223043403Y-76712500D01*
D45*
%TO.N,+3.3VA*%
X216275000Y-78000000D02*
X216500000Y-78225000D01*
X217975000Y-78225000D02*
X218000000Y-78250000D01*
X214175000Y-78000000D02*
X216275000Y-78000000D01*
X219212500Y-78250000D02*
X219250000Y-78287500D01*
X218000000Y-78250000D02*
X219212500Y-78250000D01*
X216500000Y-78225000D02*
X217975000Y-78225000D01*
%TO.N,NRST*%
X204873534Y-86926000D02*
X208849000Y-86926000D01*
X200487534Y-82540000D02*
X204873534Y-86926000D01*
D44*
X209600000Y-85825000D02*
X209600000Y-84175000D01*
D45*
X208849000Y-86926000D02*
X209775000Y-86000000D01*
X198950000Y-82540000D02*
X200487534Y-82540000D01*
D44*
X209775000Y-86000000D02*
X209600000Y-85825000D01*
D45*
%TO.N,/LED_Stat*%
X213000000Y-68862500D02*
X213000000Y-71212500D01*
%TO.N,LED_Status*%
X212000000Y-73787500D02*
X212000000Y-75825000D01*
X213000000Y-72787500D02*
X212000000Y-73787500D01*
%TO.N,Bouton_Actif*%
X210000000Y-73430000D02*
X210000000Y-62900000D01*
X211200000Y-75825000D02*
X211200000Y-74630000D01*
X211200000Y-74630000D02*
X210000000Y-73430000D01*
%TO.N,SYS_SWDIO*%
X208000000Y-75825000D02*
X208000000Y-75056950D01*
X207567050Y-74624000D02*
X203286000Y-74624000D01*
X208000000Y-75056950D02*
X207567050Y-74624000D01*
X203286000Y-74624000D02*
X200450000Y-77460000D01*
X200450000Y-77460000D02*
X198950000Y-77460000D01*
D44*
X199780000Y-77460000D02*
X198950000Y-77460000D01*
D45*
%TO.N,SYS_SWCLK*%
X206600000Y-75225000D02*
X207200000Y-75825000D01*
X198950000Y-78730000D02*
X200340000Y-78730000D01*
X203845000Y-75225000D02*
X206600000Y-75225000D01*
X200340000Y-78730000D02*
X203845000Y-75225000D01*
%TO.N,USART2_RX*%
X209910184Y-88152000D02*
X199392000Y-88152000D01*
X212800000Y-84175000D02*
X212800000Y-85262184D01*
X199392000Y-88152000D02*
X195050000Y-83810000D01*
X212800000Y-85262184D02*
X209910184Y-88152000D01*
%TO.N,USART2_TX*%
X202691000Y-87551000D02*
X198950000Y-83810000D01*
X212000000Y-84175000D02*
X212000000Y-85212242D01*
X209661242Y-87551000D02*
X202691000Y-87551000D01*
X212000000Y-85212242D02*
X209661242Y-87551000D01*
%TO.N,Net-(U3-FB)*%
X223061242Y-94426000D02*
X223580000Y-93907242D01*
X218960000Y-91150000D02*
X220099000Y-92289000D01*
X223151000Y-92255326D02*
X223151000Y-90188758D01*
X223580000Y-92684326D02*
X223151000Y-92255326D01*
X220099000Y-92289000D02*
X220099000Y-94036242D01*
X218750000Y-91150000D02*
X218900000Y-91150000D01*
X218900000Y-91150000D02*
X218960000Y-91150000D01*
X220099000Y-94036242D02*
X220488758Y-94426000D01*
X219888242Y-86926000D02*
X216351000Y-86926000D01*
X217500000Y-91925000D02*
X217975000Y-91925000D01*
X217975000Y-91925000D02*
X218750000Y-91150000D01*
X223151000Y-90188758D02*
X219888242Y-86926000D01*
X223580000Y-93907242D02*
X223580000Y-92684326D01*
X220488758Y-94426000D02*
X223061242Y-94426000D01*
X216351000Y-86926000D02*
X215500000Y-86075000D01*
%TO.N,Net-(U3-FSW)*%
X218900000Y-94075000D02*
X219000000Y-94175000D01*
X218900000Y-92150000D02*
X218900000Y-94075000D01*
%TO.N,Sortie-Sol\u00E9noideA*%
X194080000Y-99300000D02*
X193629000Y-99751000D01*
X187800000Y-80850000D02*
X185000000Y-78050000D01*
X194080000Y-97000000D02*
X194080000Y-99300000D01*
X188402708Y-99751000D02*
X187800000Y-99148292D01*
X193629000Y-99751000D02*
X188402708Y-99751000D01*
X181325000Y-78050000D02*
X181025000Y-77750000D01*
X185000000Y-78050000D02*
X181325000Y-78050000D01*
X187800000Y-99148292D02*
X187800000Y-80850000D01*
%TO.N,Sortie-Sol\u00E9noideB*%
X188153766Y-100352000D02*
X206488000Y-100352000D01*
X206488000Y-100352000D02*
X207540000Y-99300000D01*
X181125000Y-91050000D02*
X181025000Y-90950000D01*
X181025000Y-90950000D02*
X184750000Y-90950000D01*
X185800000Y-91850000D02*
X185000000Y-91050000D01*
X185800000Y-92000000D02*
X185800000Y-97998234D01*
X185800000Y-92000000D02*
X185800000Y-91850000D01*
X207540000Y-99300000D02*
X207540000Y-97000000D01*
X185800000Y-97998234D02*
X188153766Y-100352000D01*
X184750000Y-90950000D02*
X185800000Y-92000000D01*
%TO.N,Net-(C12-Pad1)*%
X217400000Y-99825000D02*
X217400000Y-98375000D01*
%TO.N,/Test 3.3*%
X217500000Y-84475000D02*
X218325000Y-84475000D01*
X223600000Y-83400000D02*
X223600000Y-79125000D01*
X223600000Y-79125000D02*
X223750000Y-78975000D01*
X224630000Y-83400000D02*
X226770000Y-81260000D01*
X223600000Y-83400000D02*
X224630000Y-83400000D01*
X219400000Y-83400000D02*
X223600000Y-83400000D01*
X217450000Y-84425000D02*
X217500000Y-84475000D01*
X215500000Y-84425000D02*
X217450000Y-84425000D01*
X218325000Y-84475000D02*
X219400000Y-83400000D01*
%TO.N,Net-(Q1-G)*%
X192000000Y-66825000D02*
X190926000Y-65751000D01*
X189074000Y-92234000D02*
X191540000Y-94700000D01*
X190926000Y-65751000D02*
X190926000Y-63562902D01*
X201000000Y-72000000D02*
X201000000Y-67000000D01*
X190926000Y-63562902D02*
X190863098Y-63500000D01*
X197175000Y-66825000D02*
X192000000Y-66825000D01*
X198000000Y-66000000D02*
X197175000Y-66825000D01*
X189500000Y-63000000D02*
X189074000Y-63426000D01*
X191540000Y-94700000D02*
X191540000Y-97000000D01*
X189074000Y-63426000D02*
X189074000Y-92234000D01*
X190863098Y-63363098D02*
X190500000Y-63000000D01*
X193636000Y-72461000D02*
X200539000Y-72461000D01*
X190863098Y-63500000D02*
X190863098Y-63363098D01*
X200539000Y-72461000D02*
X201000000Y-72000000D01*
X200000000Y-66000000D02*
X198000000Y-66000000D01*
X190500000Y-63000000D02*
X189500000Y-63000000D01*
X192175000Y-71000000D02*
X193636000Y-72461000D01*
X201000000Y-67000000D02*
X200000000Y-66000000D01*
%TO.N,Net-(Q2-G)*%
X203045504Y-94249000D02*
X204549000Y-94249000D01*
X205000000Y-94700000D02*
X205000000Y-97000000D01*
X191000000Y-82203496D02*
X203045504Y-94249000D01*
X191000000Y-69000000D02*
X191000000Y-82203496D01*
X190000000Y-68000000D02*
X191000000Y-69000000D01*
X204549000Y-94249000D02*
X205000000Y-94700000D01*
X190000000Y-66825000D02*
X190000000Y-68000000D01*
X191000000Y-69000000D02*
X192175000Y-69000000D01*
D43*
%TO.N,+12V*%
X225194097Y-99369097D02*
X222800000Y-99369097D01*
X222800000Y-98000000D02*
X222800000Y-99369097D01*
X223600000Y-97200000D02*
X222800000Y-98000000D01*
X226200000Y-97200000D02*
X223600000Y-97200000D01*
X198940000Y-69000000D02*
X199020000Y-69080000D01*
X222800000Y-97200000D02*
X222800000Y-98000000D01*
X225425000Y-99600000D02*
X225194097Y-99369097D01*
X197000000Y-69000000D02*
X198940000Y-69000000D01*
D45*
%TO.N,Com-SolB*%
X203687484Y-67810000D02*
X202000000Y-69497484D01*
X208566050Y-74023000D02*
X209600000Y-75056950D01*
X202000000Y-73000000D02*
X203023000Y-74023000D01*
X209600000Y-75056950D02*
X209600000Y-75825000D01*
X204530000Y-67810000D02*
X203687484Y-67810000D01*
X200825000Y-74000000D02*
X201000000Y-74000000D01*
X202000000Y-69497484D02*
X202000000Y-73000000D01*
X201000000Y-74000000D02*
X202000000Y-73000000D01*
X203023000Y-74023000D02*
X208566050Y-74023000D01*
%TO.N,Com-SolA*%
X208196496Y-72803504D02*
X210400000Y-75007008D01*
X208000000Y-72607008D02*
X208196496Y-72803504D01*
X208000000Y-70825000D02*
X208000000Y-72607008D01*
X210400000Y-75007008D02*
X210400000Y-75825000D01*
X204500000Y-70350000D02*
X205742992Y-70350000D01*
X205742992Y-70350000D02*
X208196496Y-72803504D01*
%TO.N,Com-MOSA*%
X194475000Y-70350000D02*
X199000000Y-70350000D01*
X193825000Y-71000000D02*
X194475000Y-70350000D01*
%TO.N,Com-MOSB*%
X193825000Y-69000000D02*
X195015000Y-67810000D01*
X195015000Y-67810000D02*
X199030000Y-67810000D01*
%TO.N,/12test*%
X222800000Y-100925000D02*
X222800000Y-104420000D01*
X222800000Y-104420000D02*
X222850000Y-104470000D01*
%TD*%
%TA.AperFunction,Conductor*%
%TO.N,GND*%
G36*
X214630726Y-83556737D02*
G01*
X214652815Y-83558317D01*
X214663598Y-83566389D01*
X214676520Y-83570184D01*
X214691019Y-83586917D01*
X214708748Y-83600189D01*
X214713455Y-83612809D01*
X214722275Y-83622988D01*
X214725426Y-83644905D01*
X214733165Y-83665653D01*
X214730302Y-83678813D01*
X214732219Y-83692146D01*
X214723019Y-83712289D01*
X214718313Y-83733926D01*
X214705044Y-83751651D01*
X214703194Y-83755702D01*
X214697162Y-83762180D01*
X214669531Y-83789810D01*
X214669530Y-83789811D01*
X214581522Y-83935393D01*
X214530913Y-84097807D01*
X214524500Y-84168386D01*
X214524500Y-84681613D01*
X214530913Y-84752192D01*
X214581522Y-84914606D01*
X214669530Y-85060188D01*
X214771661Y-85162319D01*
X214805146Y-85223642D01*
X214800162Y-85293334D01*
X214771661Y-85337681D01*
X214669531Y-85439810D01*
X214669530Y-85439811D01*
X214581522Y-85585393D01*
X214530913Y-85747807D01*
X214524500Y-85818386D01*
X214524500Y-86331613D01*
X214530913Y-86402192D01*
X214530913Y-86402194D01*
X214530914Y-86402196D01*
X214549396Y-86461508D01*
X214581522Y-86564606D01*
X214669530Y-86710188D01*
X214789811Y-86830469D01*
X214789813Y-86830470D01*
X214789815Y-86830472D01*
X214935394Y-86918478D01*
X215097804Y-86969086D01*
X215168384Y-86975500D01*
X215429192Y-86975500D01*
X215496231Y-86995185D01*
X215516873Y-87011819D01*
X215936325Y-87431272D01*
X215936328Y-87431275D01*
X216021149Y-87487950D01*
X216021148Y-87487950D01*
X216042871Y-87502464D01*
X216042872Y-87502464D01*
X216042873Y-87502465D01*
X216161256Y-87551501D01*
X216161260Y-87551501D01*
X216161261Y-87551502D01*
X216286928Y-87576500D01*
X216286931Y-87576500D01*
X216415069Y-87576500D01*
X217412770Y-87576500D01*
X217479809Y-87596185D01*
X217525564Y-87648989D01*
X217535508Y-87718147D01*
X217513437Y-87772902D01*
X217507560Y-87781072D01*
X217467049Y-87821584D01*
X217384916Y-87944505D01*
X217377988Y-87961228D01*
X217369593Y-87972902D01*
X217352908Y-87985895D01*
X217339635Y-88002364D01*
X217325892Y-88006936D01*
X217314469Y-88015833D01*
X217293406Y-88017744D01*
X217273338Y-88024421D01*
X217268928Y-88024500D01*
X217201663Y-88024500D01*
X217201644Y-88024501D01*
X217102292Y-88034650D01*
X217102289Y-88034651D01*
X216941305Y-88087996D01*
X216941294Y-88088001D01*
X216796959Y-88177029D01*
X216677026Y-88296961D01*
X216675859Y-88298438D01*
X216674215Y-88299954D01*
X216673743Y-88301041D01*
X216647487Y-88324626D01*
X216587373Y-88364794D01*
X216587372Y-88364794D01*
X216546585Y-88392047D01*
X216546581Y-88392050D01*
X213087680Y-91850950D01*
X213026357Y-91884435D01*
X212956665Y-91879451D01*
X212912318Y-91850950D01*
X212403120Y-91341752D01*
X211862245Y-90800877D01*
X211831998Y-90751518D01*
X211790568Y-90624008D01*
X211790568Y-90624007D01*
X211706465Y-90458947D01*
X211683343Y-90413567D01*
X211544517Y-90222490D01*
X211377510Y-90055483D01*
X211186433Y-89916657D01*
X211140257Y-89893129D01*
X210975996Y-89809433D01*
X210751368Y-89736446D01*
X210518097Y-89699500D01*
X210518092Y-89699500D01*
X210281908Y-89699500D01*
X210281903Y-89699500D01*
X210048631Y-89736446D01*
X209824003Y-89809433D01*
X209613566Y-89916657D01*
X209535661Y-89973259D01*
X209422490Y-90055483D01*
X209422488Y-90055485D01*
X209422487Y-90055485D01*
X209255485Y-90222487D01*
X209255485Y-90222488D01*
X209255483Y-90222490D01*
X209215508Y-90277511D01*
X209116657Y-90413566D01*
X209009433Y-90624003D01*
X208936446Y-90848631D01*
X208899500Y-91081902D01*
X208899500Y-91318097D01*
X208936446Y-91551368D01*
X209009433Y-91775996D01*
X209078377Y-91911304D01*
X209116657Y-91986433D01*
X209255483Y-92177510D01*
X209422490Y-92344517D01*
X209613567Y-92483343D01*
X209712991Y-92534002D01*
X209824003Y-92590566D01*
X209824005Y-92590566D01*
X209824008Y-92590568D01*
X209928387Y-92624483D01*
X210048631Y-92663553D01*
X210281903Y-92700500D01*
X210281908Y-92700500D01*
X210518097Y-92700500D01*
X210751368Y-92663553D01*
X210797176Y-92648669D01*
X210975992Y-92590568D01*
X211186433Y-92483343D01*
X211237177Y-92446474D01*
X211302982Y-92422994D01*
X211371036Y-92438819D01*
X211397744Y-92459111D01*
X212213181Y-93274548D01*
X212246666Y-93335871D01*
X212249500Y-93362229D01*
X212249500Y-95864729D01*
X212229815Y-95931768D01*
X212228602Y-95933620D01*
X212201988Y-95973449D01*
X212201987Y-95973452D01*
X212134106Y-96137332D01*
X212134103Y-96137341D01*
X212099500Y-96311304D01*
X212099500Y-96488695D01*
X212134103Y-96662658D01*
X212134106Y-96662667D01*
X212201984Y-96826542D01*
X212201985Y-96826543D01*
X212201987Y-96826547D01*
X212216744Y-96848632D01*
X212228602Y-96866378D01*
X212249480Y-96933055D01*
X212249500Y-96935269D01*
X212249500Y-108987769D01*
X212229815Y-109054808D01*
X212213181Y-109075450D01*
X211112180Y-110176451D01*
X211050857Y-110209936D01*
X210981165Y-110204952D01*
X210925232Y-110163080D01*
X210900815Y-110097616D01*
X210900499Y-110088770D01*
X210900499Y-101650000D01*
X210900498Y-101649983D01*
X210889999Y-101547204D01*
X210889998Y-101547201D01*
X210849505Y-101425002D01*
X210834814Y-101380667D01*
X210742711Y-101231345D01*
X210618655Y-101107289D01*
X210469333Y-101015186D01*
X210302796Y-100960001D01*
X210302794Y-100960000D01*
X210200014Y-100949500D01*
X210200007Y-100949500D01*
X207109809Y-100949500D01*
X207042770Y-100929815D01*
X206997015Y-100877011D01*
X206987071Y-100807853D01*
X207016096Y-100744297D01*
X207022128Y-100737819D01*
X207762339Y-99997606D01*
X207937842Y-99822102D01*
X207986517Y-99792079D01*
X207992792Y-99789999D01*
X207992797Y-99789999D01*
X208159334Y-99734814D01*
X208308656Y-99642712D01*
X208432712Y-99518656D01*
X208524814Y-99369334D01*
X208579999Y-99202797D01*
X208590500Y-99100009D01*
X208590499Y-94899992D01*
X208579999Y-94797203D01*
X208524814Y-94630666D01*
X208432712Y-94481344D01*
X208308656Y-94357288D01*
X208160075Y-94265643D01*
X208159336Y-94265187D01*
X208159331Y-94265185D01*
X208157862Y-94264698D01*
X207992797Y-94210001D01*
X207992795Y-94210000D01*
X207890010Y-94199500D01*
X207189998Y-94199500D01*
X207189980Y-94199501D01*
X207087203Y-94210000D01*
X207087200Y-94210001D01*
X206920668Y-94265185D01*
X206920663Y-94265187D01*
X206771342Y-94357289D01*
X206647289Y-94481342D01*
X206555187Y-94630663D01*
X206555185Y-94630668D01*
X206551675Y-94641260D01*
X206500001Y-94797203D01*
X206500001Y-94797204D01*
X206500000Y-94797204D01*
X206489500Y-94899983D01*
X206489500Y-99100001D01*
X206489501Y-99100018D01*
X206500000Y-99202796D01*
X206500001Y-99202799D01*
X206530016Y-99293377D01*
X206532418Y-99363205D01*
X206499991Y-99420062D01*
X206254873Y-99665181D01*
X206227945Y-99679884D01*
X206202127Y-99696477D01*
X206195926Y-99697368D01*
X206193550Y-99698666D01*
X206167192Y-99701500D01*
X206002107Y-99701500D01*
X205935068Y-99681815D01*
X205889313Y-99629011D01*
X205879369Y-99559853D01*
X205896566Y-99512406D01*
X205984814Y-99369334D01*
X206039999Y-99202797D01*
X206050500Y-99100009D01*
X206050499Y-94899992D01*
X206039999Y-94797203D01*
X205984814Y-94630666D01*
X205892712Y-94481344D01*
X205768656Y-94357288D01*
X205620075Y-94265643D01*
X205619336Y-94265187D01*
X205619331Y-94265185D01*
X205446518Y-94207920D01*
X205397841Y-94177895D01*
X204963674Y-93743727D01*
X204963673Y-93743726D01*
X204963669Y-93743723D01*
X204857127Y-93672535D01*
X204829834Y-93661230D01*
X204738744Y-93623499D01*
X204738738Y-93623497D01*
X204613071Y-93598500D01*
X204613069Y-93598500D01*
X203366311Y-93598500D01*
X203299272Y-93578815D01*
X203278630Y-93562181D01*
X194608630Y-84892180D01*
X194575145Y-84830857D01*
X194580129Y-84761165D01*
X194622001Y-84705232D01*
X194687465Y-84680815D01*
X194696311Y-84680499D01*
X194949191Y-84680499D01*
X195016230Y-84700184D01*
X195036872Y-84716818D01*
X198977324Y-88657271D01*
X198977327Y-88657274D01*
X199017002Y-88683784D01*
X199043749Y-88701655D01*
X199083873Y-88728465D01*
X199202256Y-88777501D01*
X199202260Y-88777501D01*
X199202261Y-88777502D01*
X199327928Y-88802500D01*
X199327931Y-88802500D01*
X209974255Y-88802500D01*
X210058799Y-88785682D01*
X210099928Y-88777501D01*
X210218311Y-88728465D01*
X210258434Y-88701656D01*
X210324853Y-88657277D01*
X213305277Y-85676853D01*
X213376465Y-85570311D01*
X213425501Y-85451928D01*
X213425984Y-85449499D01*
X213450500Y-85326253D01*
X213450500Y-85174129D01*
X213467767Y-85111010D01*
X213503618Y-85050390D01*
X213547709Y-84898627D01*
X213550500Y-84863163D01*
X213550499Y-83674498D01*
X213570184Y-83607460D01*
X213622987Y-83561705D01*
X213674499Y-83550499D01*
X214609481Y-83550499D01*
X214630726Y-83556737D01*
G37*
%TD.AperFunction*%
%TA.AperFunction,Conductor*%
G36*
X189929703Y-68850095D02*
G01*
X189936181Y-68856127D01*
X190313181Y-69233127D01*
X190346666Y-69294450D01*
X190349500Y-69320808D01*
X190349500Y-82267565D01*
X190365949Y-82350256D01*
X190374499Y-82393240D01*
X190418720Y-82500000D01*
X190423535Y-82511623D01*
X190494723Y-82618165D01*
X190494726Y-82618169D01*
X190494727Y-82618170D01*
X201925051Y-94048493D01*
X201958536Y-94109816D01*
X201953552Y-94179508D01*
X201911680Y-94235441D01*
X201876375Y-94253880D01*
X201840878Y-94265642D01*
X201840875Y-94265643D01*
X201691654Y-94357684D01*
X201567684Y-94481654D01*
X201475643Y-94630875D01*
X201475641Y-94630880D01*
X201420494Y-94797302D01*
X201420493Y-94797309D01*
X201410000Y-94900013D01*
X201410000Y-96750000D01*
X203509999Y-96750000D01*
X203509999Y-95023500D01*
X203512549Y-95014814D01*
X203511261Y-95005853D01*
X203522239Y-94981812D01*
X203529684Y-94956461D01*
X203536524Y-94950533D01*
X203540286Y-94942297D01*
X203562520Y-94928007D01*
X203582488Y-94910706D01*
X203593002Y-94908418D01*
X203599064Y-94904523D01*
X203633999Y-94899500D01*
X203825500Y-94899500D01*
X203892539Y-94919185D01*
X203938294Y-94971989D01*
X203949500Y-95023500D01*
X203949500Y-99100001D01*
X203949501Y-99100018D01*
X203960000Y-99202796D01*
X203960001Y-99202799D01*
X204008779Y-99350000D01*
X204015186Y-99369334D01*
X204103432Y-99512405D01*
X204121872Y-99579796D01*
X204100949Y-99646459D01*
X204047307Y-99691229D01*
X203997893Y-99701500D01*
X203461520Y-99701500D01*
X203394481Y-99681815D01*
X203348726Y-99629011D01*
X203338782Y-99559853D01*
X203355981Y-99512403D01*
X203444356Y-99369124D01*
X203444358Y-99369119D01*
X203499505Y-99202697D01*
X203499506Y-99202690D01*
X203509999Y-99099986D01*
X203510000Y-99099973D01*
X203510000Y-97250000D01*
X201410001Y-97250000D01*
X201410001Y-99099986D01*
X201420494Y-99202697D01*
X201475641Y-99369119D01*
X201475643Y-99369124D01*
X201564019Y-99512403D01*
X201582459Y-99579796D01*
X201561536Y-99646459D01*
X201507895Y-99691229D01*
X201458480Y-99701500D01*
X195082107Y-99701500D01*
X195015068Y-99681815D01*
X194969313Y-99629011D01*
X194959369Y-99559853D01*
X194976566Y-99512406D01*
X195064814Y-99369334D01*
X195119999Y-99202797D01*
X195130500Y-99100009D01*
X195130499Y-94899992D01*
X195119999Y-94797203D01*
X195064814Y-94630666D01*
X194972712Y-94481344D01*
X194848656Y-94357288D01*
X194700075Y-94265643D01*
X194699336Y-94265187D01*
X194699331Y-94265185D01*
X194697862Y-94264698D01*
X194532797Y-94210001D01*
X194532795Y-94210000D01*
X194430010Y-94199500D01*
X193729998Y-94199500D01*
X193729980Y-94199501D01*
X193627203Y-94210000D01*
X193627200Y-94210001D01*
X193460668Y-94265185D01*
X193460663Y-94265187D01*
X193311342Y-94357289D01*
X193187289Y-94481342D01*
X193095187Y-94630663D01*
X193095185Y-94630668D01*
X193091675Y-94641260D01*
X193040001Y-94797203D01*
X193040001Y-94797204D01*
X193040000Y-94797204D01*
X193029500Y-94899983D01*
X193029500Y-94899991D01*
X193029500Y-96980315D01*
X193029501Y-98976500D01*
X193026950Y-98985185D01*
X193028239Y-98994147D01*
X193017260Y-99018187D01*
X193009816Y-99043539D01*
X193002975Y-99049466D01*
X192999214Y-99057703D01*
X192976979Y-99071992D01*
X192957012Y-99089294D01*
X192946497Y-99091581D01*
X192940436Y-99095477D01*
X192905501Y-99100500D01*
X192714500Y-99100500D01*
X192647461Y-99080815D01*
X192601706Y-99028011D01*
X192590500Y-98976500D01*
X192590499Y-94899998D01*
X192590498Y-94899981D01*
X192579999Y-94797203D01*
X192579998Y-94797200D01*
X192565774Y-94754276D01*
X192524814Y-94630666D01*
X192432712Y-94481344D01*
X192308656Y-94357288D01*
X192160075Y-94265643D01*
X192159336Y-94265187D01*
X192159331Y-94265185D01*
X191986518Y-94207920D01*
X191937841Y-94177895D01*
X189760819Y-92000873D01*
X189727334Y-91939550D01*
X189724500Y-91913192D01*
X189724500Y-68943808D01*
X189744185Y-68876769D01*
X189796989Y-68831014D01*
X189866147Y-68821070D01*
X189929703Y-68850095D01*
G37*
%TD.AperFunction*%
%TA.AperFunction,Conductor*%
G36*
X188655703Y-92736095D02*
G01*
X188662181Y-92742127D01*
X190499991Y-94579937D01*
X190533476Y-94641260D01*
X190530016Y-94706622D01*
X190500001Y-94797201D01*
X190489500Y-94899983D01*
X190489500Y-94899991D01*
X190489500Y-96980315D01*
X190489501Y-98976500D01*
X190486950Y-98985185D01*
X190488239Y-98994147D01*
X190477260Y-99018187D01*
X190469816Y-99043539D01*
X190462975Y-99049466D01*
X190459214Y-99057703D01*
X190436979Y-99071992D01*
X190417012Y-99089294D01*
X190406497Y-99091581D01*
X190400436Y-99095477D01*
X190365501Y-99100500D01*
X190174000Y-99100500D01*
X190106961Y-99080815D01*
X190061206Y-99028011D01*
X190050000Y-98976500D01*
X190050000Y-97250000D01*
X189124000Y-97250000D01*
X189056961Y-97230315D01*
X189011206Y-97177511D01*
X189000000Y-97126000D01*
X189000000Y-97000000D01*
X188874000Y-97000000D01*
X188806961Y-96980315D01*
X188761206Y-96927511D01*
X188750000Y-96876000D01*
X188750000Y-96750000D01*
X189250000Y-96750000D01*
X190049999Y-96750000D01*
X190049999Y-94900028D01*
X190049998Y-94900013D01*
X190039505Y-94797302D01*
X189984358Y-94630880D01*
X189984356Y-94630875D01*
X189892315Y-94481654D01*
X189768345Y-94357684D01*
X189619124Y-94265643D01*
X189619119Y-94265641D01*
X189452697Y-94210494D01*
X189452690Y-94210493D01*
X189349986Y-94200000D01*
X189250000Y-94200000D01*
X189250000Y-96750000D01*
X188750000Y-96750000D01*
X188750000Y-94199999D01*
X188650028Y-94200000D01*
X188650009Y-94200001D01*
X188587101Y-94206428D01*
X188518408Y-94193658D01*
X188467524Y-94145777D01*
X188450500Y-94083070D01*
X188450500Y-92829808D01*
X188470185Y-92762769D01*
X188522989Y-92717014D01*
X188592147Y-92707070D01*
X188655703Y-92736095D01*
G37*
%TD.AperFunction*%
%TA.AperFunction,Conductor*%
G36*
X222467366Y-91768547D02*
G01*
X222498559Y-91831067D01*
X222500500Y-91852923D01*
X222500500Y-92319395D01*
X222512105Y-92377735D01*
X222512282Y-92378704D01*
X222508721Y-92412549D01*
X222505693Y-92446400D01*
X222505078Y-92447191D01*
X222504973Y-92448190D01*
X222483682Y-92474734D01*
X222462830Y-92501577D01*
X222461884Y-92501910D01*
X222461256Y-92502694D01*
X222428981Y-92513518D01*
X222396941Y-92524822D01*
X222395133Y-92524870D01*
X222395013Y-92524911D01*
X222394879Y-92524877D01*
X222390304Y-92525000D01*
X222276693Y-92525000D01*
X222276676Y-92525001D01*
X222177392Y-92535144D01*
X222016518Y-92588452D01*
X222016507Y-92588457D01*
X221872271Y-92677424D01*
X221872264Y-92677430D01*
X221863028Y-92686665D01*
X221855085Y-92691001D01*
X221849663Y-92698245D01*
X221824900Y-92707480D01*
X221801703Y-92720146D01*
X221792676Y-92719499D01*
X221784199Y-92722662D01*
X221758375Y-92717044D01*
X221732011Y-92715157D01*
X221722961Y-92709340D01*
X221715926Y-92707810D01*
X221687672Y-92686659D01*
X221686819Y-92685806D01*
X221653334Y-92624483D01*
X221650500Y-92598125D01*
X221650500Y-92131602D01*
X221625502Y-92005935D01*
X221625501Y-92005934D01*
X221625501Y-92005930D01*
X221611218Y-91971450D01*
X221603751Y-91901981D01*
X221635027Y-91839502D01*
X221695116Y-91803850D01*
X221725781Y-91799999D01*
X222073308Y-91799999D01*
X222073322Y-91799998D01*
X222172607Y-91789855D01*
X222337496Y-91735217D01*
X222407324Y-91732815D01*
X222467366Y-91768547D01*
G37*
%TD.AperFunction*%
%TA.AperFunction,Conductor*%
G36*
X191788002Y-71953981D02*
G01*
X191792147Y-71953386D01*
X191811388Y-71957738D01*
X191847804Y-71969086D01*
X191918384Y-71975500D01*
X192179192Y-71975500D01*
X192246231Y-71995185D01*
X192266873Y-72011819D01*
X193221325Y-72966272D01*
X193221328Y-72966275D01*
X193308467Y-73024499D01*
X193308468Y-73024499D01*
X193308469Y-73024500D01*
X193327873Y-73037465D01*
X193446256Y-73086501D01*
X193446260Y-73086501D01*
X193446261Y-73086502D01*
X193571928Y-73111500D01*
X193571931Y-73111500D01*
X198308051Y-73111500D01*
X198375090Y-73131185D01*
X198420845Y-73183989D01*
X198430789Y-73253147D01*
X198414168Y-73299650D01*
X198331980Y-73435604D01*
X198281409Y-73597893D01*
X198275000Y-73668427D01*
X198275000Y-73750000D01*
X199051000Y-73750000D01*
X199118039Y-73769685D01*
X199163794Y-73822489D01*
X199175000Y-73874000D01*
X199175000Y-74000000D01*
X199301000Y-74000000D01*
X199368039Y-74019685D01*
X199413794Y-74072489D01*
X199425000Y-74124000D01*
X199425000Y-74974999D01*
X199431581Y-74974999D01*
X199502102Y-74968591D01*
X199502107Y-74968590D01*
X199664396Y-74918018D01*
X199809877Y-74830072D01*
X199809878Y-74830071D01*
X199911963Y-74727985D01*
X199973286Y-74694499D01*
X200042977Y-74699483D01*
X200087326Y-74727984D01*
X200189811Y-74830469D01*
X200189813Y-74830470D01*
X200189815Y-74830472D01*
X200335394Y-74918478D01*
X200497804Y-74969086D01*
X200568384Y-74975500D01*
X200568387Y-74975500D01*
X201081613Y-74975500D01*
X201081616Y-74975500D01*
X201152196Y-74969086D01*
X201314606Y-74918478D01*
X201460185Y-74830472D01*
X201580472Y-74710185D01*
X201668478Y-74564606D01*
X201719086Y-74402196D01*
X201725500Y-74331616D01*
X201725500Y-74245808D01*
X201734144Y-74216367D01*
X201740668Y-74186381D01*
X201744422Y-74181365D01*
X201745185Y-74178769D01*
X201761819Y-74158127D01*
X201912319Y-74007627D01*
X201973642Y-73974142D01*
X202043334Y-73979126D01*
X202087681Y-74007627D01*
X202447372Y-74367318D01*
X202480857Y-74428641D01*
X202475873Y-74498333D01*
X202447372Y-74542680D01*
X200862180Y-76127873D01*
X200800857Y-76161358D01*
X200731165Y-76156374D01*
X200675232Y-76114502D01*
X200650815Y-76049038D01*
X200650499Y-76040192D01*
X200650499Y-75772129D01*
X200650498Y-75772123D01*
X200650497Y-75772116D01*
X200644091Y-75712517D01*
X200593796Y-75577669D01*
X200593795Y-75577668D01*
X200593793Y-75577664D01*
X200507547Y-75462455D01*
X200507544Y-75462452D01*
X200392335Y-75376206D01*
X200392328Y-75376202D01*
X200257482Y-75325908D01*
X200257483Y-75325908D01*
X200197883Y-75319501D01*
X200197881Y-75319500D01*
X200197873Y-75319500D01*
X200197864Y-75319500D01*
X197702129Y-75319500D01*
X197702123Y-75319501D01*
X197642516Y-75325908D01*
X197507671Y-75376202D01*
X197507664Y-75376206D01*
X197392455Y-75462452D01*
X197392452Y-75462455D01*
X197306206Y-75577664D01*
X197306202Y-75577671D01*
X197255908Y-75712517D01*
X197251361Y-75754815D01*
X197249501Y-75772123D01*
X197249500Y-75772135D01*
X197249500Y-76607870D01*
X197249501Y-76607876D01*
X197255908Y-76667483D01*
X197298496Y-76781667D01*
X197303480Y-76851359D01*
X197298496Y-76868333D01*
X197255908Y-76982516D01*
X197249501Y-77042116D01*
X197249501Y-77042123D01*
X197249500Y-77042135D01*
X197249500Y-77877870D01*
X197249501Y-77877876D01*
X197255908Y-77937483D01*
X197298496Y-78051667D01*
X197303480Y-78121359D01*
X197298496Y-78138333D01*
X197255908Y-78252516D01*
X197249501Y-78312116D01*
X197249500Y-78312135D01*
X197249500Y-79147870D01*
X197249501Y-79147876D01*
X197255908Y-79207483D01*
X197298496Y-79321667D01*
X197303480Y-79391359D01*
X197298496Y-79408333D01*
X197255908Y-79522516D01*
X197249501Y-79582116D01*
X197249501Y-79582123D01*
X197249500Y-79582135D01*
X197249500Y-80417870D01*
X197249501Y-80417876D01*
X197255908Y-80477483D01*
X197298496Y-80591667D01*
X197303480Y-80661359D01*
X197298496Y-80678333D01*
X197255908Y-80792516D01*
X197251385Y-80834594D01*
X197249501Y-80852123D01*
X197249500Y-80852135D01*
X197249500Y-81687870D01*
X197249501Y-81687876D01*
X197255908Y-81747483D01*
X197298496Y-81861667D01*
X197303480Y-81931359D01*
X197298496Y-81948333D01*
X197255908Y-82062516D01*
X197249501Y-82122116D01*
X197249500Y-82122135D01*
X197249500Y-82957870D01*
X197249501Y-82957876D01*
X197255908Y-83017483D01*
X197298496Y-83131667D01*
X197303480Y-83201359D01*
X197298496Y-83218333D01*
X197255908Y-83332516D01*
X197250497Y-83382853D01*
X197249501Y-83392123D01*
X197249500Y-83392135D01*
X197249500Y-84227870D01*
X197249501Y-84227876D01*
X197255908Y-84287483D01*
X197306202Y-84422328D01*
X197306206Y-84422335D01*
X197392452Y-84537544D01*
X197392455Y-84537547D01*
X197507664Y-84623793D01*
X197507671Y-84623797D01*
X197642517Y-84674091D01*
X197642516Y-84674091D01*
X197649444Y-84674835D01*
X197702127Y-84680500D01*
X198849191Y-84680499D01*
X198916230Y-84700184D01*
X198936872Y-84716818D01*
X201509873Y-87289819D01*
X201543358Y-87351142D01*
X201538374Y-87420834D01*
X201496502Y-87476767D01*
X201431038Y-87501184D01*
X201422192Y-87501500D01*
X199712808Y-87501500D01*
X199645769Y-87481815D01*
X199625127Y-87465181D01*
X196719850Y-84559904D01*
X196686365Y-84498581D01*
X196691349Y-84428889D01*
X196693793Y-84422333D01*
X196693796Y-84422331D01*
X196744091Y-84287483D01*
X196750500Y-84227873D01*
X196750499Y-83392128D01*
X196744091Y-83332517D01*
X196701235Y-83217616D01*
X196696252Y-83147927D01*
X196701236Y-83130951D01*
X196743597Y-83017376D01*
X196743598Y-83017372D01*
X196749999Y-82957844D01*
X196750000Y-82957827D01*
X196750000Y-82790000D01*
X193350000Y-82790000D01*
X193350000Y-82957844D01*
X193356401Y-83017372D01*
X193356403Y-83017379D01*
X193398763Y-83130952D01*
X193400432Y-83154296D01*
X193406554Y-83176887D01*
X193403274Y-83194033D01*
X193403747Y-83200644D01*
X193400799Y-83211709D01*
X193399853Y-83214694D01*
X193355909Y-83332517D01*
X193352490Y-83364310D01*
X193348746Y-83376140D01*
X193335891Y-83395248D01*
X193327079Y-83416523D01*
X193316759Y-83423687D01*
X193309747Y-83434112D01*
X193288603Y-83443236D01*
X193269686Y-83456371D01*
X193257130Y-83456819D01*
X193245596Y-83461797D01*
X193222875Y-83458042D01*
X193199861Y-83458864D01*
X193188418Y-83452348D01*
X193176661Y-83450405D01*
X193162452Y-83437561D01*
X193142847Y-83426397D01*
X191686819Y-81970369D01*
X191653334Y-81909046D01*
X191650500Y-81882688D01*
X191650500Y-80852127D01*
X193349500Y-80852127D01*
X193349500Y-80865018D01*
X193349500Y-80865019D01*
X193349500Y-81687870D01*
X193349501Y-81687876D01*
X193355908Y-81747483D01*
X193398763Y-81862381D01*
X193403747Y-81932073D01*
X193398763Y-81949047D01*
X193356403Y-82062620D01*
X193356401Y-82062627D01*
X193350000Y-82122155D01*
X193350000Y-82290000D01*
X196750000Y-82290000D01*
X196750000Y-82122172D01*
X196749999Y-82122155D01*
X196743598Y-82062627D01*
X196743597Y-82062623D01*
X196701236Y-81949049D01*
X196696252Y-81879357D01*
X196701232Y-81862391D01*
X196744091Y-81747483D01*
X196750500Y-81687873D01*
X196750499Y-80852128D01*
X196744091Y-80792517D01*
X196701235Y-80677616D01*
X196696252Y-80607927D01*
X196701236Y-80590951D01*
X196743597Y-80477376D01*
X196743598Y-80477372D01*
X196749999Y-80417844D01*
X196750000Y-80417827D01*
X196750000Y-80250000D01*
X193350000Y-80250000D01*
X193350000Y-80417844D01*
X193356401Y-80477372D01*
X193356403Y-80477379D01*
X193398763Y-80590952D01*
X193400232Y-80611502D01*
X193406541Y-80631118D01*
X193403488Y-80657026D01*
X193403747Y-80660644D01*
X193402603Y-80664539D01*
X193402411Y-80666170D01*
X193400861Y-80671992D01*
X193355909Y-80792517D01*
X193349500Y-80852127D01*
X191650500Y-80852127D01*
X191650500Y-79147844D01*
X193350000Y-79147844D01*
X193356401Y-79207372D01*
X193356403Y-79207380D01*
X193399029Y-79321667D01*
X193404013Y-79391359D01*
X193399029Y-79408333D01*
X193356403Y-79522619D01*
X193356401Y-79522627D01*
X193350000Y-79582155D01*
X193350000Y-79750000D01*
X194800000Y-79750000D01*
X195300000Y-79750000D01*
X196750000Y-79750000D01*
X196750000Y-79582172D01*
X196749999Y-79582155D01*
X196743598Y-79522627D01*
X196743597Y-79522623D01*
X196700969Y-79408334D01*
X196695985Y-79338643D01*
X196700969Y-79321666D01*
X196743597Y-79207376D01*
X196743598Y-79207372D01*
X196749999Y-79147844D01*
X196750000Y-79147827D01*
X196750000Y-78980000D01*
X195300000Y-78980000D01*
X195300000Y-79750000D01*
X194800000Y-79750000D01*
X194800000Y-78980000D01*
X193350000Y-78980000D01*
X193350000Y-79147844D01*
X191650500Y-79147844D01*
X191650500Y-78281028D01*
X191670185Y-78213989D01*
X191722989Y-78168234D01*
X191792147Y-78158290D01*
X191843391Y-78177926D01*
X191873453Y-78198013D01*
X191873455Y-78198013D01*
X191873459Y-78198016D01*
X191996363Y-78248923D01*
X192037334Y-78265894D01*
X192037336Y-78265894D01*
X192037341Y-78265896D01*
X192211304Y-78300499D01*
X192211307Y-78300500D01*
X192211309Y-78300500D01*
X192388693Y-78300500D01*
X192388694Y-78300499D01*
X192562666Y-78265894D01*
X192673613Y-78219938D01*
X192721064Y-78210500D01*
X193226000Y-78210500D01*
X193293039Y-78230185D01*
X193338794Y-78282989D01*
X193350000Y-78334500D01*
X193350000Y-78480000D01*
X196750000Y-78480000D01*
X196750000Y-78312172D01*
X196749999Y-78312155D01*
X196743598Y-78252627D01*
X196743597Y-78252623D01*
X196701236Y-78139049D01*
X196696252Y-78069357D01*
X196701232Y-78052391D01*
X196744091Y-77937483D01*
X196750500Y-77877873D01*
X196750499Y-77042128D01*
X196744091Y-76982517D01*
X196742844Y-76979174D01*
X196701503Y-76868333D01*
X196696519Y-76798642D01*
X196701503Y-76781667D01*
X196703616Y-76776001D01*
X196744091Y-76667483D01*
X196750500Y-76607873D01*
X196750499Y-75772128D01*
X196744091Y-75712517D01*
X196693796Y-75577669D01*
X196693795Y-75577668D01*
X196693793Y-75577664D01*
X196607547Y-75462455D01*
X196607544Y-75462452D01*
X196492335Y-75376206D01*
X196492328Y-75376202D01*
X196357482Y-75325908D01*
X196357483Y-75325908D01*
X196297883Y-75319501D01*
X196297881Y-75319500D01*
X196297873Y-75319500D01*
X196297864Y-75319500D01*
X193802129Y-75319500D01*
X193802123Y-75319501D01*
X193742516Y-75325908D01*
X193607671Y-75376202D01*
X193607664Y-75376206D01*
X193492455Y-75462452D01*
X193492452Y-75462455D01*
X193406206Y-75577664D01*
X193406202Y-75577671D01*
X193355908Y-75712517D01*
X193351361Y-75754815D01*
X193349501Y-75772123D01*
X193349500Y-75772135D01*
X193349501Y-76585500D01*
X193329817Y-76652539D01*
X193277013Y-76698294D01*
X193225501Y-76709500D01*
X192925066Y-76709500D01*
X192858027Y-76689815D01*
X192856175Y-76688602D01*
X192726552Y-76601990D01*
X192726540Y-76601983D01*
X192562667Y-76534106D01*
X192562658Y-76534103D01*
X192388694Y-76499500D01*
X192388691Y-76499500D01*
X192211309Y-76499500D01*
X192211306Y-76499500D01*
X192037341Y-76534103D01*
X192037332Y-76534106D01*
X191873459Y-76601983D01*
X191873441Y-76601993D01*
X191843390Y-76622073D01*
X191776713Y-76642951D01*
X191709333Y-76624466D01*
X191662643Y-76572487D01*
X191650500Y-76518971D01*
X191650500Y-74331582D01*
X198275001Y-74331582D01*
X198281408Y-74402102D01*
X198281409Y-74402107D01*
X198331981Y-74564396D01*
X198419927Y-74709877D01*
X198540122Y-74830072D01*
X198685604Y-74918019D01*
X198685603Y-74918019D01*
X198847894Y-74968590D01*
X198847893Y-74968590D01*
X198918408Y-74974998D01*
X198918426Y-74974999D01*
X198924999Y-74974998D01*
X198925000Y-74974998D01*
X198925000Y-74250000D01*
X198275001Y-74250000D01*
X198275001Y-74331582D01*
X191650500Y-74331582D01*
X191650500Y-72076124D01*
X191658222Y-72049824D01*
X191662570Y-72022761D01*
X191667924Y-72016783D01*
X191670185Y-72009085D01*
X191690895Y-71991139D01*
X191709188Y-71970718D01*
X191716925Y-71968583D01*
X191722989Y-71963330D01*
X191750117Y-71959429D01*
X191776543Y-71952141D01*
X191788002Y-71953981D01*
G37*
%TD.AperFunction*%
%TA.AperFunction,Conductor*%
G36*
X207199362Y-85433521D02*
G01*
X207227395Y-85438540D01*
X207232456Y-85443239D01*
X207239079Y-85445184D01*
X207257722Y-85466699D01*
X207278596Y-85486081D01*
X207280313Y-85492770D01*
X207284834Y-85497988D01*
X207288886Y-85526171D01*
X207295967Y-85553757D01*
X207294239Y-85563403D01*
X207294778Y-85567146D01*
X207289747Y-85588499D01*
X207285144Y-85602389D01*
X207285144Y-85602391D01*
X207275000Y-85701677D01*
X207275000Y-85750000D01*
X208101000Y-85750000D01*
X208168039Y-85769685D01*
X208213794Y-85822489D01*
X208225000Y-85874000D01*
X208225000Y-86126000D01*
X208205315Y-86193039D01*
X208152511Y-86238794D01*
X208101000Y-86250000D01*
X207266007Y-86250000D01*
X207224497Y-86272666D01*
X207198139Y-86275500D01*
X205194342Y-86275500D01*
X205127303Y-86255815D01*
X205106661Y-86239181D01*
X204829661Y-85962181D01*
X204796176Y-85900858D01*
X204801160Y-85831166D01*
X204843032Y-85775233D01*
X204908496Y-85750816D01*
X204917342Y-85750500D01*
X206448920Y-85750500D01*
X206546462Y-85731096D01*
X206593913Y-85721658D01*
X206730495Y-85665084D01*
X206787625Y-85626911D01*
X206853416Y-85582952D01*
X206974550Y-85461816D01*
X207035871Y-85428333D01*
X207062221Y-85425499D01*
X207172041Y-85425499D01*
X207199362Y-85433521D01*
G37*
%TD.AperFunction*%
%TA.AperFunction,Conductor*%
G36*
X204519458Y-81866583D02*
G01*
X204564228Y-81920225D01*
X204574500Y-81969639D01*
X204574500Y-82188149D01*
X204574501Y-82188175D01*
X204577290Y-82223624D01*
X204618742Y-82366303D01*
X204618742Y-82435491D01*
X204585475Y-82550000D01*
X204689048Y-82550000D01*
X204756087Y-82569685D01*
X204776730Y-82586320D01*
X204813574Y-82623165D01*
X204813583Y-82623172D01*
X204859904Y-82650566D01*
X204949610Y-82703618D01*
X205101373Y-82747709D01*
X205136837Y-82750500D01*
X205724142Y-82750499D01*
X205750572Y-82753349D01*
X205977435Y-82802850D01*
X205996833Y-82813458D01*
X206018039Y-82819685D01*
X206026882Y-82829891D01*
X206038737Y-82836374D01*
X206049320Y-82855786D01*
X206063794Y-82872489D01*
X206067356Y-82888866D01*
X206072183Y-82897718D01*
X206071460Y-82907729D01*
X206075000Y-82924000D01*
X206075000Y-83550000D01*
X206325500Y-83550000D01*
X206334185Y-83552550D01*
X206343147Y-83551262D01*
X206367187Y-83562240D01*
X206392539Y-83569685D01*
X206398466Y-83576525D01*
X206406703Y-83580287D01*
X206420992Y-83602521D01*
X206438294Y-83622489D01*
X206440581Y-83633003D01*
X206444477Y-83639065D01*
X206449500Y-83674000D01*
X206449500Y-83812770D01*
X206429815Y-83879809D01*
X206413181Y-83900451D01*
X206100451Y-84213181D01*
X206039128Y-84246666D01*
X206012770Y-84249500D01*
X204301128Y-84249500D01*
X204234089Y-84229815D01*
X204213447Y-84213181D01*
X204060362Y-84060096D01*
X204026877Y-83998773D01*
X204031861Y-83929081D01*
X204060363Y-83884733D01*
X204129714Y-83815383D01*
X204129721Y-83815374D01*
X204212031Y-83676195D01*
X204212033Y-83676190D01*
X204257144Y-83520918D01*
X204257145Y-83520912D01*
X204258790Y-83500000D01*
X203604000Y-83500000D01*
X203536961Y-83480315D01*
X203491206Y-83427511D01*
X203480000Y-83376000D01*
X203480000Y-83250000D01*
X203424500Y-83250000D01*
X203357461Y-83230315D01*
X203311706Y-83177511D01*
X203300500Y-83126000D01*
X203300500Y-83050000D01*
X204585474Y-83050000D01*
X204621843Y-83175185D01*
X204621845Y-83175191D01*
X204702226Y-83311108D01*
X204702232Y-83311116D01*
X204813883Y-83422767D01*
X204813891Y-83422773D01*
X204949811Y-83503155D01*
X204949814Y-83503156D01*
X205101446Y-83547210D01*
X205101452Y-83547211D01*
X205136881Y-83549999D01*
X205136894Y-83550000D01*
X205575000Y-83550000D01*
X205575000Y-83050000D01*
X204585474Y-83050000D01*
X203300500Y-83050000D01*
X203300500Y-83015317D01*
X203300499Y-83015302D01*
X203299295Y-83000000D01*
X203730000Y-83000000D01*
X204258790Y-83000000D01*
X204257145Y-82979089D01*
X204212032Y-82823805D01*
X204205715Y-82813125D01*
X204188530Y-82745402D01*
X204205715Y-82686875D01*
X204212031Y-82676195D01*
X204257145Y-82520910D01*
X204258790Y-82500000D01*
X203730000Y-82500000D01*
X203730000Y-83000000D01*
X203299295Y-83000000D01*
X203298363Y-82988163D01*
X203297643Y-82979007D01*
X203275423Y-82902528D01*
X203270500Y-82867934D01*
X203270500Y-82632065D01*
X203275424Y-82597469D01*
X203278663Y-82586320D01*
X203297643Y-82520993D01*
X203300500Y-82484690D01*
X203300500Y-82374000D01*
X203320185Y-82306961D01*
X203372989Y-82261206D01*
X203424500Y-82250000D01*
X203480000Y-82250000D01*
X203480000Y-82124000D01*
X203499685Y-82056961D01*
X203552489Y-82011206D01*
X203604000Y-82000000D01*
X204258790Y-82000000D01*
X204262302Y-81996200D01*
X204261620Y-81990737D01*
X204270522Y-81972160D01*
X204274758Y-81952001D01*
X204285806Y-81940268D01*
X204291816Y-81927729D01*
X204318912Y-81905114D01*
X204385402Y-81864102D01*
X204452795Y-81845661D01*
X204519458Y-81866583D01*
G37*
%TD.AperFunction*%
%TA.AperFunction,Conductor*%
G36*
X222437539Y-77482685D02*
G01*
X222483294Y-77535489D01*
X222494500Y-77587000D01*
X222494500Y-78175021D01*
X222500923Y-78255330D01*
X222500925Y-78255338D01*
X222509787Y-78283745D01*
X222514151Y-78338319D01*
X222494500Y-78474999D01*
X222494500Y-79475002D01*
X222499644Y-79546940D01*
X222526406Y-79638079D01*
X222540164Y-79684935D01*
X222540182Y-79684994D01*
X222617967Y-79806030D01*
X222617971Y-79806034D01*
X222679921Y-79859714D01*
X222726706Y-79900254D01*
X222800818Y-79934100D01*
X222857579Y-79960022D01*
X222857580Y-79960022D01*
X222857584Y-79960024D01*
X222857587Y-79960024D01*
X222860429Y-79960859D01*
X222862928Y-79962465D01*
X222865652Y-79963709D01*
X222865473Y-79964100D01*
X222919209Y-79998631D01*
X222948237Y-80062185D01*
X222949500Y-80079838D01*
X222949500Y-82062751D01*
X222929815Y-82129790D01*
X222877011Y-82175545D01*
X222864508Y-82180455D01*
X222841290Y-82188149D01*
X222766305Y-82212996D01*
X222766294Y-82213001D01*
X222621959Y-82302029D01*
X222621955Y-82302032D01*
X222502032Y-82421955D01*
X222502029Y-82421959D01*
X222413001Y-82566294D01*
X222412997Y-82566303D01*
X222381066Y-82662667D01*
X222380457Y-82664504D01*
X222340685Y-82721949D01*
X222276169Y-82748772D01*
X222262751Y-82749500D01*
X220737249Y-82749500D01*
X220670210Y-82729815D01*
X220624455Y-82677011D01*
X220619543Y-82664504D01*
X220587003Y-82566303D01*
X220586999Y-82566297D01*
X220586998Y-82566294D01*
X220497970Y-82421959D01*
X220497967Y-82421955D01*
X220378044Y-82302032D01*
X220378040Y-82302029D01*
X220233705Y-82213001D01*
X220233699Y-82212998D01*
X220233697Y-82212997D01*
X220233694Y-82212996D01*
X220072709Y-82159651D01*
X219973346Y-82149500D01*
X218826662Y-82149500D01*
X218826644Y-82149501D01*
X218727292Y-82159650D01*
X218727289Y-82159651D01*
X218566305Y-82212996D01*
X218566294Y-82213001D01*
X218421959Y-82302029D01*
X218421955Y-82302032D01*
X218302032Y-82421955D01*
X218302029Y-82421959D01*
X218213001Y-82566294D01*
X218212996Y-82566305D01*
X218159651Y-82727290D01*
X218149500Y-82826647D01*
X218149500Y-83446366D01*
X218129815Y-83513405D01*
X218077011Y-83559160D01*
X218007853Y-83569104D01*
X217986496Y-83564072D01*
X217897709Y-83534651D01*
X217798346Y-83524500D01*
X217201662Y-83524500D01*
X217201644Y-83524501D01*
X217102292Y-83534650D01*
X217102289Y-83534651D01*
X216941305Y-83587996D01*
X216941294Y-83588001D01*
X216796959Y-83677029D01*
X216796955Y-83677032D01*
X216735807Y-83738181D01*
X216674484Y-83771666D01*
X216648126Y-83774500D01*
X216366519Y-83774500D01*
X216299480Y-83754815D01*
X216278842Y-83738185D01*
X216210185Y-83669528D01*
X216064606Y-83581522D01*
X215902196Y-83530914D01*
X215902194Y-83530913D01*
X215902192Y-83530913D01*
X215852778Y-83526423D01*
X215831616Y-83524500D01*
X215384453Y-83524500D01*
X215317414Y-83504815D01*
X215271659Y-83452011D01*
X215261715Y-83382853D01*
X215290740Y-83319297D01*
X215296772Y-83312819D01*
X215298165Y-83311425D01*
X215298170Y-83311420D01*
X215378618Y-83175390D01*
X215422709Y-83023627D01*
X215425500Y-82988163D01*
X215425499Y-82611838D01*
X215422709Y-82576373D01*
X215381519Y-82434594D01*
X215381519Y-82365405D01*
X215403426Y-82290000D01*
X215422709Y-82223627D01*
X215425500Y-82188163D01*
X215425499Y-81811838D01*
X215422709Y-81776373D01*
X215381519Y-81634594D01*
X215381519Y-81565405D01*
X215422707Y-81423633D01*
X215422709Y-81423627D01*
X215425500Y-81388163D01*
X215425499Y-81011838D01*
X215422709Y-80976373D01*
X215381519Y-80834594D01*
X215381519Y-80765405D01*
X215405168Y-80684003D01*
X215422709Y-80623627D01*
X215425500Y-80588163D01*
X215425499Y-80481529D01*
X215445183Y-80414492D01*
X215497987Y-80368737D01*
X215567145Y-80358793D01*
X215630701Y-80387817D01*
X215655037Y-80416433D01*
X215677426Y-80452731D01*
X215797267Y-80572572D01*
X215797271Y-80572575D01*
X215941507Y-80661542D01*
X215941518Y-80661547D01*
X216102393Y-80714855D01*
X216201683Y-80724999D01*
X216249999Y-80724998D01*
X216250000Y-80724998D01*
X216250000Y-79899000D01*
X216269685Y-79831961D01*
X216322489Y-79786206D01*
X216374000Y-79775000D01*
X216626000Y-79775000D01*
X216693039Y-79794685D01*
X216738794Y-79847489D01*
X216750000Y-79899000D01*
X216750000Y-80724999D01*
X216798308Y-80724999D01*
X216798322Y-80724998D01*
X216897607Y-80714855D01*
X217058481Y-80661547D01*
X217058492Y-80661542D01*
X217202728Y-80572575D01*
X217202732Y-80572572D01*
X217322572Y-80452732D01*
X217322575Y-80452728D01*
X217411542Y-80308492D01*
X217411547Y-80308481D01*
X217464856Y-80147606D01*
X217473276Y-80065189D01*
X217499672Y-80000497D01*
X217556853Y-79960345D01*
X217626664Y-79957482D01*
X217631229Y-79958715D01*
X217729086Y-79987144D01*
X217750000Y-79988789D01*
X217750000Y-79334000D01*
X217769685Y-79266961D01*
X217822489Y-79221206D01*
X217874000Y-79210000D01*
X218126000Y-79210000D01*
X218193039Y-79229685D01*
X218238794Y-79282489D01*
X218250000Y-79334000D01*
X218250000Y-79988789D01*
X218270910Y-79987145D01*
X218426195Y-79942031D01*
X218565374Y-79859721D01*
X218565383Y-79859714D01*
X218679714Y-79745383D01*
X218679721Y-79745374D01*
X218762030Y-79606196D01*
X218807145Y-79450910D01*
X218807145Y-79450907D01*
X218809999Y-79414644D01*
X218809999Y-79348939D01*
X218829683Y-79281899D01*
X218882486Y-79236143D01*
X218942623Y-79226239D01*
X218942669Y-79225339D01*
X218945821Y-79225499D01*
X218945826Y-79225500D01*
X218945831Y-79225500D01*
X219554169Y-79225500D01*
X219554174Y-79225500D01*
X219652685Y-79215436D01*
X219812287Y-79162549D01*
X219955391Y-79074281D01*
X220074281Y-78955391D01*
X220162549Y-78812287D01*
X220215436Y-78652685D01*
X220225500Y-78554174D01*
X220225500Y-78020826D01*
X220215436Y-77922315D01*
X220162549Y-77762713D01*
X220162545Y-77762707D01*
X220162544Y-77762704D01*
X220094320Y-77652097D01*
X220075879Y-77584705D01*
X220096801Y-77518041D01*
X220150443Y-77473272D01*
X220199858Y-77463000D01*
X222370500Y-77463000D01*
X222437539Y-77482685D01*
G37*
%TD.AperFunction*%
%TA.AperFunction,Conductor*%
G36*
X212845900Y-77862360D02*
G01*
X212901077Y-77905222D01*
X212924322Y-77971112D01*
X212924500Y-77977749D01*
X212924500Y-78188149D01*
X212924501Y-78188175D01*
X212927290Y-78223624D01*
X212968742Y-78366303D01*
X212968742Y-78435491D01*
X212935475Y-78550000D01*
X213039048Y-78550000D01*
X213106087Y-78569685D01*
X213110173Y-78572426D01*
X213119056Y-78578646D01*
X213163580Y-78623170D01*
X213286212Y-78695694D01*
X213290113Y-78698426D01*
X213309068Y-78722141D01*
X213329793Y-78744337D01*
X213330671Y-78749169D01*
X213333737Y-78753004D01*
X213336862Y-78783203D01*
X213342296Y-78813079D01*
X213340423Y-78817618D01*
X213340929Y-78822503D01*
X213327229Y-78849602D01*
X213315651Y-78877668D01*
X213311005Y-78881693D01*
X213309406Y-78884857D01*
X213303024Y-78888609D01*
X213282109Y-78906732D01*
X213163583Y-78976827D01*
X213163574Y-78976834D01*
X213126730Y-79013680D01*
X213065408Y-79047166D01*
X213039048Y-79050000D01*
X212935475Y-79050000D01*
X212968742Y-79164509D01*
X212968742Y-79233697D01*
X212927291Y-79376373D01*
X212927290Y-79376379D01*
X212924500Y-79411829D01*
X212924500Y-79788150D01*
X212924501Y-79788175D01*
X212927290Y-79823624D01*
X212968481Y-79965406D01*
X212968481Y-80034594D01*
X212927291Y-80176373D01*
X212927290Y-80176379D01*
X212924500Y-80211829D01*
X212924500Y-80588150D01*
X212924501Y-80588175D01*
X212927290Y-80623624D01*
X212968481Y-80765406D01*
X212968481Y-80834594D01*
X212927291Y-80976373D01*
X212927290Y-80976379D01*
X212924500Y-81011829D01*
X212924500Y-81388150D01*
X212924501Y-81388175D01*
X212927290Y-81423624D01*
X212968481Y-81565406D01*
X212968481Y-81634594D01*
X212927291Y-81776373D01*
X212927290Y-81776379D01*
X212924500Y-81811829D01*
X212924500Y-82188150D01*
X212924501Y-82188175D01*
X212927290Y-82223624D01*
X212968481Y-82365406D01*
X212968481Y-82434594D01*
X212927291Y-82576373D01*
X212927290Y-82576379D01*
X212924500Y-82611829D01*
X212924500Y-82800500D01*
X212904815Y-82867539D01*
X212852011Y-82913294D01*
X212800501Y-82924500D01*
X212611850Y-82924500D01*
X212611824Y-82924501D01*
X212576375Y-82927290D01*
X212434594Y-82968481D01*
X212365406Y-82968481D01*
X212265651Y-82939500D01*
X212223627Y-82927291D01*
X212223625Y-82927290D01*
X212223620Y-82927290D01*
X212188163Y-82924500D01*
X211811849Y-82924500D01*
X211811824Y-82924501D01*
X211776375Y-82927290D01*
X211634594Y-82968481D01*
X211565406Y-82968481D01*
X211465651Y-82939500D01*
X211423627Y-82927291D01*
X211423625Y-82927290D01*
X211423620Y-82927290D01*
X211388163Y-82924500D01*
X211011849Y-82924500D01*
X211011824Y-82924501D01*
X210976375Y-82927290D01*
X210834594Y-82968481D01*
X210765406Y-82968481D01*
X210665651Y-82939500D01*
X210623627Y-82927291D01*
X210623625Y-82927290D01*
X210623620Y-82927290D01*
X210588163Y-82924500D01*
X210211849Y-82924500D01*
X210211824Y-82924501D01*
X210176375Y-82927290D01*
X210034594Y-82968481D01*
X209965406Y-82968481D01*
X209865651Y-82939500D01*
X209823627Y-82927291D01*
X209823625Y-82927290D01*
X209823620Y-82927290D01*
X209788163Y-82924500D01*
X209411849Y-82924500D01*
X209411824Y-82924501D01*
X209376375Y-82927290D01*
X209234594Y-82968481D01*
X209165406Y-82968481D01*
X209065651Y-82939500D01*
X209023627Y-82927291D01*
X209023625Y-82927290D01*
X209023620Y-82927290D01*
X208988163Y-82924500D01*
X208611849Y-82924500D01*
X208611824Y-82924501D01*
X208576371Y-82927291D01*
X208574141Y-82927939D01*
X208572843Y-82927935D01*
X208570140Y-82928429D01*
X208570048Y-82927926D01*
X208504271Y-82927734D01*
X208445604Y-82889787D01*
X208416766Y-82826147D01*
X208424994Y-82761408D01*
X208429513Y-82750499D01*
X208465894Y-82662666D01*
X208468301Y-82650568D01*
X208494091Y-82520910D01*
X208500500Y-82488691D01*
X208500500Y-82311309D01*
X208500500Y-82311306D01*
X208500499Y-82311304D01*
X208465896Y-82137341D01*
X208465893Y-82137332D01*
X208459595Y-82122127D01*
X208398013Y-81973453D01*
X208398011Y-81973451D01*
X208398011Y-81973449D01*
X208371398Y-81933620D01*
X208350520Y-81866942D01*
X208350500Y-81864729D01*
X208350500Y-80762229D01*
X208370185Y-80695190D01*
X208386819Y-80674548D01*
X211148548Y-77912819D01*
X211209871Y-77879334D01*
X211236229Y-77876500D01*
X212673920Y-77876500D01*
X212776308Y-77856133D01*
X212845900Y-77862360D01*
G37*
%TD.AperFunction*%
%TA.AperFunction,Conductor*%
G36*
X206346231Y-75895185D02*
G01*
X206366873Y-75911819D01*
X206413181Y-75958127D01*
X206446666Y-76019450D01*
X206449500Y-76045808D01*
X206449500Y-76325500D01*
X206429815Y-76392539D01*
X206377011Y-76438294D01*
X206325500Y-76449500D01*
X205136849Y-76449500D01*
X205136824Y-76449501D01*
X205101372Y-76452291D01*
X204949614Y-76496380D01*
X204949609Y-76496382D01*
X204813583Y-76576827D01*
X204813574Y-76576834D01*
X204701834Y-76688574D01*
X204701827Y-76688583D01*
X204621382Y-76824609D01*
X204621380Y-76824614D01*
X204577292Y-76976366D01*
X204577290Y-76976379D01*
X204574500Y-77011829D01*
X204574500Y-77388150D01*
X204574501Y-77388175D01*
X204577290Y-77423624D01*
X204618481Y-77565406D01*
X204618481Y-77634594D01*
X204577291Y-77776373D01*
X204577290Y-77776379D01*
X204574500Y-77811829D01*
X204574500Y-78188150D01*
X204574501Y-78188175D01*
X204577290Y-78223624D01*
X204618481Y-78365406D01*
X204618481Y-78434594D01*
X204577291Y-78576373D01*
X204577290Y-78576379D01*
X204574500Y-78611829D01*
X204574500Y-78988150D01*
X204574501Y-78988175D01*
X204577290Y-79023624D01*
X204618481Y-79165406D01*
X204618481Y-79234594D01*
X204577291Y-79376373D01*
X204577290Y-79376379D01*
X204574500Y-79411829D01*
X204574500Y-79788150D01*
X204574501Y-79788175D01*
X204577290Y-79823624D01*
X204618481Y-79965406D01*
X204618481Y-79983057D01*
X204623403Y-79999645D01*
X204618481Y-80034594D01*
X204603570Y-80085920D01*
X204565964Y-80144806D01*
X204502492Y-80174013D01*
X204433305Y-80164268D01*
X204419396Y-80156864D01*
X204308492Y-80088457D01*
X204308481Y-80088452D01*
X204147606Y-80035144D01*
X204048322Y-80025000D01*
X204025000Y-80025000D01*
X204025000Y-80876000D01*
X204005315Y-80943039D01*
X203952511Y-80988794D01*
X203901000Y-81000000D01*
X203649000Y-81000000D01*
X203581961Y-80980315D01*
X203536206Y-80927511D01*
X203525000Y-80876000D01*
X203525000Y-80024999D01*
X203501693Y-80025000D01*
X203501674Y-80025001D01*
X203402392Y-80035144D01*
X203241518Y-80088452D01*
X203241507Y-80088457D01*
X203097271Y-80177424D01*
X203097265Y-80177428D01*
X203088031Y-80186663D01*
X203026707Y-80220146D01*
X202957015Y-80215159D01*
X202912672Y-80186660D01*
X202903044Y-80177032D01*
X202903040Y-80177029D01*
X202758705Y-80088001D01*
X202758699Y-80087998D01*
X202758697Y-80087997D01*
X202734075Y-80079838D01*
X202597709Y-80034651D01*
X202498346Y-80024500D01*
X201951662Y-80024500D01*
X201951644Y-80024501D01*
X201852292Y-80034650D01*
X201852289Y-80034651D01*
X201691305Y-80087996D01*
X201691294Y-80088001D01*
X201546959Y-80177029D01*
X201546955Y-80177032D01*
X201427032Y-80296955D01*
X201427029Y-80296959D01*
X201338001Y-80441294D01*
X201337996Y-80441305D01*
X201284651Y-80602290D01*
X201274500Y-80701647D01*
X201274500Y-81298337D01*
X201274501Y-81298355D01*
X201284650Y-81397707D01*
X201284651Y-81397710D01*
X201337996Y-81558694D01*
X201338001Y-81558705D01*
X201427029Y-81703040D01*
X201427032Y-81703044D01*
X201546956Y-81822968D01*
X201680673Y-81905446D01*
X201727396Y-81957392D01*
X201738868Y-82012875D01*
X201739500Y-82012875D01*
X201739500Y-82484697D01*
X201742356Y-82520991D01*
X201742357Y-82520993D01*
X201750784Y-82550000D01*
X201752533Y-82556018D01*
X201752334Y-82625887D01*
X201714393Y-82684558D01*
X201650755Y-82713402D01*
X201581625Y-82703261D01*
X201545776Y-82678295D01*
X200902207Y-82034726D01*
X200902203Y-82034723D01*
X200795661Y-81963535D01*
X200705115Y-81926029D01*
X200650713Y-81882189D01*
X200628648Y-81815895D01*
X200636389Y-81768132D01*
X200644091Y-81747483D01*
X200644091Y-81747481D01*
X200650500Y-81687873D01*
X200650499Y-80852128D01*
X200644091Y-80792517D01*
X200633979Y-80765406D01*
X200601503Y-80678333D01*
X200596519Y-80608642D01*
X200601503Y-80591667D01*
X200601770Y-80590951D01*
X200644091Y-80477483D01*
X200650500Y-80417873D01*
X200650499Y-79582128D01*
X200644103Y-79522627D01*
X200644091Y-79522516D01*
X200614676Y-79443651D01*
X200612562Y-79414102D01*
X200607825Y-79384864D01*
X200610098Y-79379641D01*
X200609692Y-79373960D01*
X200623887Y-79347961D01*
X200635711Y-79320800D01*
X200641614Y-79315496D01*
X200643177Y-79312636D01*
X200661956Y-79297224D01*
X200683055Y-79283127D01*
X200754669Y-79235277D01*
X204078127Y-75911819D01*
X204139450Y-75878334D01*
X204165808Y-75875500D01*
X206279192Y-75875500D01*
X206346231Y-75895185D01*
G37*
%TD.AperFunction*%
%TA.AperFunction,Conductor*%
G36*
X207716753Y-77055388D02*
G01*
X207776373Y-77072709D01*
X207811837Y-77075500D01*
X208188162Y-77075499D01*
X208223627Y-77072709D01*
X208365405Y-77031519D01*
X208434595Y-77031519D01*
X208516753Y-77055388D01*
X208576373Y-77072709D01*
X208611837Y-77075500D01*
X208988162Y-77075499D01*
X209023627Y-77072709D01*
X209165405Y-77031519D01*
X209234595Y-77031519D01*
X209316753Y-77055388D01*
X209376373Y-77072709D01*
X209411837Y-77075500D01*
X209563771Y-77075499D01*
X209630809Y-77095183D01*
X209676564Y-77147987D01*
X209686508Y-77217145D01*
X209657483Y-77280701D01*
X209651451Y-77287180D01*
X207287180Y-79651450D01*
X207225857Y-79684935D01*
X207156165Y-79679951D01*
X207100232Y-79638079D01*
X207075815Y-79572615D01*
X207075499Y-79563769D01*
X207075499Y-79411849D01*
X207075498Y-79411824D01*
X207075221Y-79408310D01*
X207072709Y-79376373D01*
X207031519Y-79234594D01*
X207031519Y-79165405D01*
X207043413Y-79124462D01*
X207072709Y-79023627D01*
X207075500Y-78988163D01*
X207075499Y-78611838D01*
X207072709Y-78576373D01*
X207031519Y-78434594D01*
X207031519Y-78365405D01*
X207046995Y-78312135D01*
X207072709Y-78223627D01*
X207075500Y-78188163D01*
X207075499Y-77811838D01*
X207072709Y-77776373D01*
X207031519Y-77634594D01*
X207031519Y-77565405D01*
X207071720Y-77427032D01*
X207072709Y-77423627D01*
X207075500Y-77388163D01*
X207075499Y-77199498D01*
X207095183Y-77132460D01*
X207147987Y-77086705D01*
X207199499Y-77075499D01*
X207388150Y-77075499D01*
X207388162Y-77075499D01*
X207423627Y-77072709D01*
X207565405Y-77031519D01*
X207634595Y-77031519D01*
X207716753Y-77055388D01*
G37*
%TD.AperFunction*%
%TA.AperFunction,Conductor*%
G36*
X218067309Y-76595185D02*
G01*
X218087946Y-76611814D01*
X218238182Y-76762049D01*
X218271666Y-76823371D01*
X218274500Y-76849729D01*
X218274500Y-76979181D01*
X218284563Y-77077683D01*
X218337450Y-77237284D01*
X218337455Y-77237295D01*
X218365011Y-77281969D01*
X218383452Y-77349361D01*
X218362530Y-77416025D01*
X218308888Y-77460794D01*
X218249750Y-77470684D01*
X218234710Y-77469501D01*
X218234696Y-77469500D01*
X218234690Y-77469500D01*
X217765310Y-77469500D01*
X217765302Y-77469500D01*
X217729008Y-77472356D01*
X217729002Y-77472357D01*
X217573609Y-77517504D01*
X217573606Y-77517505D01*
X217506432Y-77557232D01*
X217490530Y-77561582D01*
X217478246Y-77569477D01*
X217443311Y-77574500D01*
X217401874Y-77574500D01*
X217334835Y-77554815D01*
X217314193Y-77538181D01*
X217203044Y-77427032D01*
X217203040Y-77427029D01*
X217058705Y-77338001D01*
X217058699Y-77337998D01*
X217058697Y-77337997D01*
X217025543Y-77327011D01*
X216897709Y-77284651D01*
X216798346Y-77274500D01*
X216201662Y-77274500D01*
X216201644Y-77274501D01*
X216102292Y-77284650D01*
X216102289Y-77284651D01*
X215990469Y-77321705D01*
X215941303Y-77337997D01*
X215941301Y-77337997D01*
X215934448Y-77340269D01*
X215934197Y-77339512D01*
X215889145Y-77349500D01*
X215174130Y-77349500D01*
X215111009Y-77332232D01*
X215082187Y-77315187D01*
X215050390Y-77296382D01*
X215050385Y-77296380D01*
X214898633Y-77252292D01*
X214898620Y-77252290D01*
X214863170Y-77249500D01*
X214299000Y-77249500D01*
X214290314Y-77246949D01*
X214281353Y-77248238D01*
X214257312Y-77237259D01*
X214231961Y-77229815D01*
X214226033Y-77222974D01*
X214217797Y-77219213D01*
X214203507Y-77196978D01*
X214186206Y-77177011D01*
X214183918Y-77166496D01*
X214180023Y-77160435D01*
X214175000Y-77125500D01*
X214175000Y-77074000D01*
X214194685Y-77006961D01*
X214247489Y-76961206D01*
X214299000Y-76950000D01*
X215414526Y-76950000D01*
X215414525Y-76949999D01*
X215378156Y-76824814D01*
X215378152Y-76824805D01*
X215341377Y-76762620D01*
X215324194Y-76694896D01*
X215346354Y-76628634D01*
X215400821Y-76584871D01*
X215448109Y-76575500D01*
X218000270Y-76575500D01*
X218067309Y-76595185D01*
G37*
%TD.AperFunction*%
%TA.AperFunction,Conductor*%
G36*
X190205527Y-63670185D02*
G01*
X190251282Y-63722989D01*
X190253049Y-63727048D01*
X190266061Y-63758462D01*
X190275500Y-63805914D01*
X190275500Y-64198138D01*
X190255815Y-64265177D01*
X190250000Y-64272393D01*
X190250000Y-64933994D01*
X190272666Y-64975504D01*
X190275500Y-65001862D01*
X190275500Y-65301000D01*
X190272949Y-65309685D01*
X190274238Y-65318647D01*
X190263259Y-65342687D01*
X190255815Y-65368039D01*
X190248974Y-65373966D01*
X190245213Y-65382203D01*
X190222978Y-65396492D01*
X190203011Y-65413794D01*
X190192496Y-65416081D01*
X190186435Y-65419977D01*
X190151500Y-65425000D01*
X190124000Y-65425000D01*
X190056961Y-65405315D01*
X190011206Y-65352511D01*
X190000000Y-65301000D01*
X190000000Y-65175000D01*
X189874000Y-65175000D01*
X189806961Y-65155315D01*
X189761206Y-65102511D01*
X189750000Y-65051000D01*
X189750000Y-64266005D01*
X189727334Y-64224496D01*
X189724500Y-64198138D01*
X189724500Y-63774500D01*
X189744185Y-63707461D01*
X189796989Y-63661706D01*
X189848500Y-63650500D01*
X190138488Y-63650500D01*
X190205527Y-63670185D01*
G37*
%TD.AperFunction*%
%TA.AperFunction,Conductor*%
G36*
X220011941Y-59500561D02*
G01*
X220602598Y-59519123D01*
X220610340Y-59519610D01*
X221196734Y-59575040D01*
X221204459Y-59576016D01*
X221786188Y-59668153D01*
X221793802Y-59669605D01*
X222368649Y-59798098D01*
X222376172Y-59800031D01*
X222941789Y-59964358D01*
X222949139Y-59966746D01*
X223503338Y-60166270D01*
X223510561Y-60169129D01*
X224048049Y-60401721D01*
X224051113Y-60403047D01*
X224058162Y-60406364D01*
X224582951Y-60673758D01*
X224589777Y-60677511D01*
X225096734Y-60977324D01*
X225103311Y-60981498D01*
X225590446Y-61312555D01*
X225596748Y-61317134D01*
X226062118Y-61678112D01*
X226068121Y-61683077D01*
X226424427Y-61997203D01*
X226505653Y-62068814D01*
X226509940Y-62072593D01*
X226515618Y-62077926D01*
X226932073Y-62494381D01*
X226937406Y-62500059D01*
X227326922Y-62941878D01*
X227331887Y-62947881D01*
X227692865Y-63413251D01*
X227697444Y-63419553D01*
X228028501Y-63906688D01*
X228032675Y-63913265D01*
X228332488Y-64420222D01*
X228336241Y-64427048D01*
X228603635Y-64951837D01*
X228606952Y-64958886D01*
X228840868Y-65499434D01*
X228843735Y-65506676D01*
X229043246Y-66060840D01*
X229045646Y-66068230D01*
X229072114Y-66159332D01*
X229209965Y-66633816D01*
X229211903Y-66641361D01*
X229340390Y-67216178D01*
X229341849Y-67223830D01*
X229433982Y-67805538D01*
X229434959Y-67813267D01*
X229490388Y-68399643D01*
X229490877Y-68407417D01*
X229509438Y-68998044D01*
X229509499Y-69001967D01*
X229499514Y-113126077D01*
X229499514Y-113126079D01*
X229499511Y-113134794D01*
X229499311Y-113135556D01*
X229499496Y-113199668D01*
X229499496Y-113199858D01*
X229499489Y-113199879D01*
X229499445Y-113203371D01*
X229482527Y-113795168D01*
X229482059Y-113802959D01*
X229428126Y-114390570D01*
X229427168Y-114398315D01*
X229336381Y-114981333D01*
X229334939Y-114989003D01*
X229207648Y-115565202D01*
X229205725Y-115572765D01*
X229042452Y-116139772D01*
X229040058Y-116147200D01*
X228841432Y-116702837D01*
X228838575Y-116710100D01*
X228605390Y-117252139D01*
X228602082Y-117259207D01*
X228335257Y-117785512D01*
X228331510Y-117792358D01*
X228032122Y-118300809D01*
X228027953Y-118307406D01*
X227697155Y-118796044D01*
X227692578Y-118802366D01*
X227331713Y-119269204D01*
X227326749Y-119275225D01*
X226937217Y-119718457D01*
X226931883Y-119724154D01*
X226515252Y-120141993D01*
X226509570Y-120147344D01*
X226067477Y-120538148D01*
X226061471Y-120543130D01*
X225595652Y-120905364D01*
X225589343Y-120909958D01*
X225101690Y-121242150D01*
X225095105Y-121246339D01*
X224587503Y-121547209D01*
X224580668Y-121550975D01*
X224055136Y-121819321D01*
X224048077Y-121822649D01*
X223506729Y-122057396D01*
X223499475Y-122060274D01*
X222944419Y-122260505D01*
X222936998Y-122262921D01*
X222370457Y-122427836D01*
X222362899Y-122429781D01*
X221787084Y-122558736D01*
X221779418Y-122560201D01*
X221196646Y-122652675D01*
X221188904Y-122653655D01*
X220601465Y-122709288D01*
X220593676Y-122709779D01*
X220002890Y-122728378D01*
X219998988Y-122728439D01*
X187000744Y-122728426D01*
X186996850Y-122728365D01*
X186959461Y-122727190D01*
X186407418Y-122709841D01*
X186399644Y-122709352D01*
X185813269Y-122653923D01*
X185805540Y-122652946D01*
X185223833Y-122560813D01*
X185216181Y-122559354D01*
X184641365Y-122430867D01*
X184633820Y-122428929D01*
X184068245Y-122264613D01*
X184060836Y-122262206D01*
X183506676Y-122062696D01*
X183499434Y-122059829D01*
X182958892Y-121825915D01*
X182951843Y-121822598D01*
X182427056Y-121555204D01*
X182420230Y-121551451D01*
X181913274Y-121251638D01*
X181906697Y-121247464D01*
X181419571Y-120916413D01*
X181413268Y-120911834D01*
X181001860Y-120592712D01*
X180947880Y-120550841D01*
X180941881Y-120545878D01*
X180810129Y-120429723D01*
X180500071Y-120156369D01*
X180494393Y-120151036D01*
X180077933Y-119734574D01*
X180072600Y-119728895D01*
X180061344Y-119716127D01*
X179683094Y-119287085D01*
X179678134Y-119281089D01*
X179673585Y-119275225D01*
X179460100Y-119000000D01*
X179317151Y-118815710D01*
X179312572Y-118809408D01*
X178981517Y-118322273D01*
X178977343Y-118315696D01*
X178677531Y-117808739D01*
X178673778Y-117801913D01*
X178406387Y-117277125D01*
X178403070Y-117270076D01*
X178169155Y-116729528D01*
X178166288Y-116722285D01*
X178160611Y-116706516D01*
X177966782Y-116168133D01*
X177964379Y-116160737D01*
X177960446Y-116147200D01*
X177800055Y-115595124D01*
X177798121Y-115587587D01*
X177793117Y-115565202D01*
X177669638Y-115012778D01*
X177668181Y-115005135D01*
X177665024Y-114985205D01*
X177576049Y-114423424D01*
X177575072Y-114415696D01*
X177572697Y-114390570D01*
X177519643Y-113829304D01*
X177519157Y-113821564D01*
X177500536Y-113228966D01*
X177500534Y-113228966D01*
X177500500Y-113227915D01*
X177500500Y-113163074D01*
X177498077Y-113154034D01*
X177497610Y-113139776D01*
X177497920Y-113138573D01*
X177497543Y-113135704D01*
X177497544Y-113126077D01*
X177499295Y-86972920D01*
X178723499Y-86972920D01*
X178752340Y-87117907D01*
X178752343Y-87117917D01*
X178808914Y-87254492D01*
X178824849Y-87278340D01*
X178824850Y-87278343D01*
X178891046Y-87377414D01*
X178891052Y-87377421D01*
X179488181Y-87974548D01*
X179521666Y-88035871D01*
X179524500Y-88062229D01*
X179524500Y-88837769D01*
X179504815Y-88904808D01*
X179488181Y-88925450D01*
X178891050Y-89522581D01*
X178891044Y-89522589D01*
X178844190Y-89592711D01*
X178844191Y-89592712D01*
X178808913Y-89645508D01*
X178752343Y-89782082D01*
X178752340Y-89782092D01*
X178723500Y-89927079D01*
X178723500Y-89927082D01*
X178723500Y-104897630D01*
X178723500Y-104897632D01*
X178723499Y-104897632D01*
X178752340Y-105042619D01*
X178752343Y-105042629D01*
X178808914Y-105179204D01*
X178841812Y-105228439D01*
X178841813Y-105228442D01*
X178891046Y-105302126D01*
X178891052Y-105302133D01*
X186846869Y-113257950D01*
X186846872Y-113257952D01*
X186902053Y-113294822D01*
X186969793Y-113340084D01*
X187106375Y-113396658D01*
X187106379Y-113396658D01*
X187106380Y-113396659D01*
X187251367Y-113425500D01*
X187251370Y-113425500D01*
X187251371Y-113425500D01*
X187399205Y-113425500D01*
X207677920Y-113425500D01*
X207744959Y-113445185D01*
X207790714Y-113497989D01*
X207800658Y-113567147D01*
X207792481Y-113596953D01*
X207778342Y-113631086D01*
X207778340Y-113631092D01*
X207749500Y-113776079D01*
X207749500Y-117669699D01*
X207729815Y-117736738D01*
X207677011Y-117782493D01*
X207664507Y-117787403D01*
X207631962Y-117798188D01*
X207580668Y-117815185D01*
X207580663Y-117815187D01*
X207431342Y-117907289D01*
X207307289Y-118031342D01*
X207215187Y-118180663D01*
X207215185Y-118180668D01*
X207210180Y-118195772D01*
X207160001Y-118347203D01*
X207160001Y-118347204D01*
X207160000Y-118347204D01*
X207149500Y-118449983D01*
X207149500Y-120050001D01*
X207149501Y-120050018D01*
X207160000Y-120152796D01*
X207160001Y-120152799D01*
X207194031Y-120255493D01*
X207215186Y-120319334D01*
X207307288Y-120468656D01*
X207431344Y-120592712D01*
X207580666Y-120684814D01*
X207747203Y-120739999D01*
X207849991Y-120750500D01*
X209150008Y-120750499D01*
X209252797Y-120739999D01*
X209419334Y-120684814D01*
X209568656Y-120592712D01*
X209692712Y-120468656D01*
X209784814Y-120319334D01*
X209784814Y-120319331D01*
X209788448Y-120313441D01*
X209840395Y-120266716D01*
X209909358Y-120255493D01*
X209973440Y-120283336D01*
X209981668Y-120290856D01*
X210120535Y-120429723D01*
X210120540Y-120429727D01*
X210292442Y-120554620D01*
X210481782Y-120651095D01*
X210683871Y-120716757D01*
X210750000Y-120727231D01*
X210750000Y-119683012D01*
X210807007Y-119715925D01*
X210934174Y-119750000D01*
X211065826Y-119750000D01*
X211192993Y-119715925D01*
X211250000Y-119683012D01*
X211250000Y-120727230D01*
X211316126Y-120716757D01*
X211316129Y-120716757D01*
X211518217Y-120651095D01*
X211707557Y-120554620D01*
X211879459Y-120429727D01*
X211879464Y-120429723D01*
X212029723Y-120279464D01*
X212029727Y-120279459D01*
X212154620Y-120107557D01*
X212251095Y-119918217D01*
X212316757Y-119716130D01*
X212316757Y-119716127D01*
X212350000Y-119506246D01*
X212350000Y-119500000D01*
X211433012Y-119500000D01*
X211465925Y-119442993D01*
X211500000Y-119315826D01*
X211500000Y-119184174D01*
X211465925Y-119057007D01*
X211433012Y-119000000D01*
X212350000Y-119000000D01*
X212350000Y-118993753D01*
X212316757Y-118783872D01*
X212316757Y-118783869D01*
X212251095Y-118581782D01*
X212154620Y-118392442D01*
X212029727Y-118220540D01*
X212029723Y-118220535D01*
X211879464Y-118070276D01*
X211879459Y-118070272D01*
X211707557Y-117945379D01*
X211518215Y-117848903D01*
X211316124Y-117783241D01*
X211250000Y-117772768D01*
X211250000Y-118816988D01*
X211192993Y-118784075D01*
X211065826Y-118750000D01*
X210934174Y-118750000D01*
X210807007Y-118784075D01*
X210750000Y-118816988D01*
X210750000Y-117772768D01*
X210749999Y-117772768D01*
X210683875Y-117783241D01*
X210481784Y-117848903D01*
X210292442Y-117945379D01*
X210120541Y-118070271D01*
X209981668Y-118209144D01*
X209920345Y-118242628D01*
X209850653Y-118237644D01*
X209794720Y-118195772D01*
X209788448Y-118186558D01*
X209692712Y-118031344D01*
X209568657Y-117907289D01*
X209568656Y-117907288D01*
X209473998Y-117848903D01*
X209419336Y-117815187D01*
X209419331Y-117815185D01*
X209398774Y-117808373D01*
X209335495Y-117787404D01*
X209278051Y-117747632D01*
X209251228Y-117683116D01*
X209250500Y-117669699D01*
X209250500Y-114212230D01*
X209270185Y-114145191D01*
X209286819Y-114124549D01*
X209780282Y-113631086D01*
X210257952Y-113153416D01*
X210257952Y-113153415D01*
X211193206Y-112218159D01*
X211193211Y-112218156D01*
X211203414Y-112207952D01*
X211203416Y-112207952D01*
X213582952Y-109828416D01*
X213632186Y-109754729D01*
X213665084Y-109705495D01*
X213721658Y-109568913D01*
X213750500Y-109423918D01*
X213750500Y-101841229D01*
X213770185Y-101774190D01*
X213822989Y-101728435D01*
X213892147Y-101718491D01*
X213955703Y-101747516D01*
X213962181Y-101753548D01*
X216423282Y-104214650D01*
X216456767Y-104275973D01*
X216459129Y-104313137D01*
X216449500Y-104423209D01*
X216449500Y-104536785D01*
X216464364Y-104706687D01*
X216464366Y-104706697D01*
X216523258Y-104926488D01*
X216523261Y-104926497D01*
X216619431Y-105132732D01*
X216619432Y-105132734D01*
X216749954Y-105319141D01*
X216910858Y-105480045D01*
X216910861Y-105480047D01*
X217097266Y-105610568D01*
X217303504Y-105706739D01*
X217523308Y-105765635D01*
X217693214Y-105780499D01*
X217693215Y-105780500D01*
X217693216Y-105780500D01*
X217806785Y-105780500D01*
X217806785Y-105780499D01*
X217976692Y-105765635D01*
X218196496Y-105706739D01*
X218402734Y-105610568D01*
X218589139Y-105480047D01*
X218750047Y-105319139D01*
X218880568Y-105132734D01*
X218912725Y-105063772D01*
X218958897Y-105011333D01*
X219026090Y-104992181D01*
X219092972Y-105012397D01*
X219137489Y-105063772D01*
X219164866Y-105122482D01*
X219295342Y-105308820D01*
X219456179Y-105469657D01*
X219642517Y-105600134D01*
X219848673Y-105696265D01*
X219848682Y-105696269D01*
X220044999Y-105748872D01*
X220045000Y-105748871D01*
X220045000Y-104903012D01*
X220102007Y-104935925D01*
X220229174Y-104970000D01*
X220360826Y-104970000D01*
X220487993Y-104935925D01*
X220545000Y-104903012D01*
X220545000Y-105748872D01*
X220741317Y-105696269D01*
X220741326Y-105696265D01*
X220947482Y-105600134D01*
X221133820Y-105469657D01*
X221294657Y-105308820D01*
X221425134Y-105122481D01*
X221425135Y-105122479D01*
X221459842Y-105048051D01*
X221506014Y-104995611D01*
X221573207Y-104976459D01*
X221640088Y-104996674D01*
X221684606Y-105048050D01*
X221719431Y-105122732D01*
X221719432Y-105122734D01*
X221849954Y-105309141D01*
X222010858Y-105470045D01*
X222010861Y-105470047D01*
X222197266Y-105600568D01*
X222403504Y-105696739D01*
X222623308Y-105755635D01*
X222793214Y-105770499D01*
X222793215Y-105770500D01*
X222793216Y-105770500D01*
X222906785Y-105770500D01*
X222906785Y-105770499D01*
X223076692Y-105755635D01*
X223296496Y-105696739D01*
X223502734Y-105600568D01*
X223689139Y-105470047D01*
X223850047Y-105309139D01*
X223980568Y-105122734D01*
X224076739Y-104916496D01*
X224135635Y-104696692D01*
X224150500Y-104526784D01*
X224150500Y-104413216D01*
X224135635Y-104243308D01*
X224089171Y-104069901D01*
X224076741Y-104023511D01*
X224076738Y-104023502D01*
X224067679Y-104004075D01*
X223980568Y-103817266D01*
X223850047Y-103630861D01*
X223850045Y-103630858D01*
X223689140Y-103469953D01*
X223503377Y-103339881D01*
X223459752Y-103285304D01*
X223450500Y-103238306D01*
X223450500Y-102053064D01*
X223470185Y-101986025D01*
X223522989Y-101940270D01*
X223565652Y-101929380D01*
X223621940Y-101925355D01*
X223759992Y-101884819D01*
X223881032Y-101807031D01*
X223975254Y-101698294D01*
X224035024Y-101567416D01*
X224055500Y-101425000D01*
X224055500Y-100425000D01*
X224051493Y-100361478D01*
X224038659Y-100314891D01*
X224038052Y-100305265D01*
X224035469Y-100299608D01*
X224035469Y-100264320D01*
X224040986Y-100225947D01*
X224070010Y-100162394D01*
X224128788Y-100124620D01*
X224163723Y-100119597D01*
X224444673Y-100119597D01*
X224511712Y-100139282D01*
X224550211Y-100178500D01*
X224627029Y-100303040D01*
X224627032Y-100303044D01*
X224746955Y-100422967D01*
X224746959Y-100422970D01*
X224891294Y-100511998D01*
X224891297Y-100511999D01*
X224891303Y-100512003D01*
X225052292Y-100565349D01*
X225151655Y-100575500D01*
X225698344Y-100575499D01*
X225698352Y-100575498D01*
X225698355Y-100575498D01*
X225757483Y-100569458D01*
X225797708Y-100565349D01*
X225958697Y-100512003D01*
X226103044Y-100422968D01*
X226112668Y-100413343D01*
X226173987Y-100379856D01*
X226243679Y-100384835D01*
X226288034Y-100413339D01*
X226297267Y-100422572D01*
X226297271Y-100422575D01*
X226441507Y-100511542D01*
X226441518Y-100511547D01*
X226602393Y-100564855D01*
X226701683Y-100574999D01*
X227225000Y-100574999D01*
X227248308Y-100574999D01*
X227248322Y-100574998D01*
X227347607Y-100564855D01*
X227508481Y-100511547D01*
X227508492Y-100511542D01*
X227652728Y-100422575D01*
X227652732Y-100422572D01*
X227772572Y-100302732D01*
X227772575Y-100302728D01*
X227861542Y-100158492D01*
X227861547Y-100158481D01*
X227914855Y-99997606D01*
X227924999Y-99898322D01*
X227925000Y-99898309D01*
X227925000Y-99850000D01*
X227225000Y-99850000D01*
X227225000Y-100574999D01*
X226701683Y-100574999D01*
X226725000Y-100574998D01*
X226725000Y-99724000D01*
X226744685Y-99656961D01*
X226797489Y-99611206D01*
X226849000Y-99600000D01*
X226975000Y-99600000D01*
X226975000Y-99474000D01*
X226994685Y-99406961D01*
X227047489Y-99361206D01*
X227099000Y-99350000D01*
X227924999Y-99350000D01*
X227924999Y-99301692D01*
X227924998Y-99301677D01*
X227914855Y-99202392D01*
X227861547Y-99041518D01*
X227861542Y-99041507D01*
X227772575Y-98897271D01*
X227772572Y-98897267D01*
X227652732Y-98777427D01*
X227652728Y-98777424D01*
X227508492Y-98688457D01*
X227508481Y-98688452D01*
X227347606Y-98635144D01*
X227248322Y-98625000D01*
X227173090Y-98625000D01*
X227106051Y-98605315D01*
X227060296Y-98552511D01*
X227050352Y-98483353D01*
X227079377Y-98419797D01*
X227100202Y-98400684D01*
X227177510Y-98344517D01*
X227344517Y-98177510D01*
X227483343Y-97986433D01*
X227590568Y-97775992D01*
X227663553Y-97551368D01*
X227683647Y-97424500D01*
X227700500Y-97318097D01*
X227700500Y-97081902D01*
X227663553Y-96848631D01*
X227611894Y-96689643D01*
X227590568Y-96624008D01*
X227590566Y-96624005D01*
X227590566Y-96624003D01*
X227527655Y-96500535D01*
X227483343Y-96413567D01*
X227344517Y-96222490D01*
X227177510Y-96055483D01*
X226986433Y-95916657D01*
X226958344Y-95902345D01*
X226775996Y-95809433D01*
X226551368Y-95736446D01*
X226318097Y-95699500D01*
X226318092Y-95699500D01*
X226081908Y-95699500D01*
X226081903Y-95699500D01*
X225848631Y-95736446D01*
X225624003Y-95809433D01*
X225413566Y-95916657D01*
X225335394Y-95973453D01*
X225222490Y-96055483D01*
X225222488Y-96055485D01*
X225222487Y-96055485D01*
X225055485Y-96222487D01*
X225055485Y-96222488D01*
X225055483Y-96222490D01*
X224974389Y-96334106D01*
X224927687Y-96398386D01*
X224872357Y-96441051D01*
X224827369Y-96449500D01*
X223526080Y-96449500D01*
X223400433Y-96474493D01*
X223330841Y-96468266D01*
X223307350Y-96455978D01*
X223226549Y-96401988D01*
X223226547Y-96401987D01*
X223062667Y-96334106D01*
X223062658Y-96334103D01*
X222888694Y-96299500D01*
X222888691Y-96299500D01*
X222711309Y-96299500D01*
X222711306Y-96299500D01*
X222537341Y-96334103D01*
X222537332Y-96334106D01*
X222373459Y-96401983D01*
X222373446Y-96401990D01*
X222225965Y-96500535D01*
X222225961Y-96500538D01*
X222100538Y-96625961D01*
X222100535Y-96625965D01*
X222001990Y-96773446D01*
X222001983Y-96773459D01*
X221934106Y-96937332D01*
X221934103Y-96937341D01*
X221899500Y-97111304D01*
X221899500Y-97288695D01*
X221934103Y-97462658D01*
X221934106Y-97462667D01*
X222001984Y-97626542D01*
X222001985Y-97626543D01*
X222001987Y-97626547D01*
X222028602Y-97666378D01*
X222049480Y-97733055D01*
X222049500Y-97735269D01*
X222049500Y-98360842D01*
X222029815Y-98427881D01*
X221977011Y-98473636D01*
X221960437Y-98479819D01*
X221840004Y-98515182D01*
X221718969Y-98592967D01*
X221718965Y-98592971D01*
X221624750Y-98701700D01*
X221624744Y-98701709D01*
X221564976Y-98832580D01*
X221564975Y-98832585D01*
X221544500Y-98974999D01*
X221544500Y-100125021D01*
X221550923Y-100205330D01*
X221550925Y-100205338D01*
X221559787Y-100233745D01*
X221564151Y-100288319D01*
X221544500Y-100424999D01*
X221544500Y-101425002D01*
X221549644Y-101496940D01*
X221590182Y-101634994D01*
X221667967Y-101756030D01*
X221667971Y-101756034D01*
X221776700Y-101850249D01*
X221776706Y-101850254D01*
X221817174Y-101868735D01*
X221907580Y-101910023D01*
X221907583Y-101910023D01*
X221907584Y-101910024D01*
X222043147Y-101929514D01*
X222106702Y-101958538D01*
X222144477Y-102017316D01*
X222149500Y-102052252D01*
X222149500Y-103308326D01*
X222129815Y-103375365D01*
X222096624Y-103409901D01*
X222010863Y-103469951D01*
X221849951Y-103630862D01*
X221719433Y-103817264D01*
X221684606Y-103891950D01*
X221638433Y-103944389D01*
X221571239Y-103963540D01*
X221504358Y-103943324D01*
X221459842Y-103891949D01*
X221425134Y-103817517D01*
X221294657Y-103631179D01*
X221133820Y-103470342D01*
X220947482Y-103339865D01*
X220741328Y-103243734D01*
X220545000Y-103191127D01*
X220545000Y-104036988D01*
X220487993Y-104004075D01*
X220360826Y-103970000D01*
X220229174Y-103970000D01*
X220102007Y-104004075D01*
X220045000Y-104036988D01*
X220045000Y-103191127D01*
X219848671Y-103243734D01*
X219642517Y-103339865D01*
X219456179Y-103470342D01*
X219295342Y-103631179D01*
X219164865Y-103817517D01*
X219132826Y-103886227D01*
X219086653Y-103938666D01*
X219019460Y-103957818D01*
X218952579Y-103937602D01*
X218908062Y-103886227D01*
X218880568Y-103827267D01*
X218880567Y-103827265D01*
X218873741Y-103817517D01*
X218750047Y-103640861D01*
X218750045Y-103640858D01*
X218589141Y-103479954D01*
X218402734Y-103349432D01*
X218402732Y-103349431D01*
X218196497Y-103253261D01*
X218196488Y-103253258D01*
X217976697Y-103194366D01*
X217976687Y-103194364D01*
X217806785Y-103179500D01*
X217806784Y-103179500D01*
X217693216Y-103179500D01*
X217693209Y-103179500D01*
X217583137Y-103189129D01*
X217514637Y-103175362D01*
X217484650Y-103153282D01*
X216840455Y-102509088D01*
X216806970Y-102447765D01*
X216811954Y-102378074D01*
X216853825Y-102322140D01*
X216919290Y-102297723D01*
X216967140Y-102303701D01*
X217002292Y-102315349D01*
X217101655Y-102325500D01*
X217698344Y-102325499D01*
X217698352Y-102325498D01*
X217698355Y-102325498D01*
X217752760Y-102319940D01*
X217797708Y-102315349D01*
X217958697Y-102262003D01*
X218103044Y-102172968D01*
X218222968Y-102053044D01*
X218312003Y-101908697D01*
X218365349Y-101747708D01*
X218375500Y-101648345D01*
X218375499Y-101101656D01*
X218365349Y-101002292D01*
X218312003Y-100841303D01*
X218311999Y-100841297D01*
X218311998Y-100841294D01*
X218222970Y-100696959D01*
X218222967Y-100696955D01*
X218213693Y-100687681D01*
X218180208Y-100626358D01*
X218185192Y-100556666D01*
X218213693Y-100512319D01*
X218214470Y-100511542D01*
X218222968Y-100503044D01*
X218312003Y-100358697D01*
X218365349Y-100197708D01*
X218375500Y-100098345D01*
X218375499Y-99551656D01*
X218367566Y-99474000D01*
X218365349Y-99452292D01*
X218365348Y-99452289D01*
X218350328Y-99406961D01*
X218312003Y-99291303D01*
X218311999Y-99291297D01*
X218311998Y-99291294D01*
X218234158Y-99165097D01*
X218215717Y-99097705D01*
X218234158Y-99034903D01*
X218311998Y-98908705D01*
X218311997Y-98908705D01*
X218312003Y-98908697D01*
X218365349Y-98747708D01*
X218375500Y-98648345D01*
X218375499Y-98101656D01*
X218365349Y-98002292D01*
X218312003Y-97841303D01*
X218311999Y-97841297D01*
X218311998Y-97841294D01*
X218222970Y-97696959D01*
X218222967Y-97696955D01*
X218213339Y-97687327D01*
X218179854Y-97626004D01*
X218184838Y-97556312D01*
X218213345Y-97511959D01*
X218222573Y-97502731D01*
X218311542Y-97358492D01*
X218311547Y-97358481D01*
X218364855Y-97197606D01*
X218374999Y-97098322D01*
X218375000Y-97098309D01*
X218375000Y-97075000D01*
X216425001Y-97075000D01*
X216425001Y-97098322D01*
X216435144Y-97197607D01*
X216488452Y-97358481D01*
X216488457Y-97358492D01*
X216577424Y-97502728D01*
X216577427Y-97502732D01*
X216586660Y-97511965D01*
X216620145Y-97573288D01*
X216615161Y-97642980D01*
X216586663Y-97687324D01*
X216577033Y-97696953D01*
X216577029Y-97696959D01*
X216488001Y-97841294D01*
X216487996Y-97841305D01*
X216434651Y-98002290D01*
X216424500Y-98101647D01*
X216424500Y-98648337D01*
X216424501Y-98648355D01*
X216434650Y-98747707D01*
X216434651Y-98747710D01*
X216487996Y-98908694D01*
X216487998Y-98908699D01*
X216565842Y-99034903D01*
X216584282Y-99102296D01*
X216565842Y-99165097D01*
X216487998Y-99291300D01*
X216487996Y-99291305D01*
X216434651Y-99452290D01*
X216424500Y-99551647D01*
X216424500Y-100098337D01*
X216424501Y-100098355D01*
X216434650Y-100197707D01*
X216434651Y-100197710D01*
X216487996Y-100358694D01*
X216487999Y-100358701D01*
X216501048Y-100379856D01*
X216527641Y-100422970D01*
X216535310Y-100435402D01*
X216553751Y-100502795D01*
X216532829Y-100569458D01*
X216479187Y-100614228D01*
X216429772Y-100624500D01*
X215007230Y-100624500D01*
X214940191Y-100604815D01*
X214919549Y-100588181D01*
X213786819Y-99455451D01*
X213753334Y-99394128D01*
X213750500Y-99367770D01*
X213750500Y-96935269D01*
X213770185Y-96868230D01*
X213771398Y-96866378D01*
X213798013Y-96826547D01*
X213865894Y-96662666D01*
X213868913Y-96647489D01*
X213887972Y-96551677D01*
X216425000Y-96551677D01*
X216425000Y-96575000D01*
X217150000Y-96575000D01*
X217650000Y-96575000D01*
X218381000Y-96575000D01*
X218448039Y-96594685D01*
X218493794Y-96647489D01*
X218502109Y-96685714D01*
X218505000Y-96689643D01*
X218597890Y-96718589D01*
X218597897Y-96718590D01*
X218668418Y-96724999D01*
X219250000Y-96724999D01*
X219331581Y-96724999D01*
X219402102Y-96718591D01*
X219402107Y-96718590D01*
X219564396Y-96668018D01*
X219709877Y-96580072D01*
X219830072Y-96459877D01*
X219918019Y-96314395D01*
X219968590Y-96152106D01*
X219975000Y-96081572D01*
X219975000Y-96075000D01*
X219250000Y-96075000D01*
X219250000Y-96724999D01*
X218668418Y-96724999D01*
X218749999Y-96724998D01*
X218750000Y-96724998D01*
X218750000Y-96075000D01*
X218019000Y-96075000D01*
X217951961Y-96055315D01*
X217906206Y-96002511D01*
X217895000Y-95951000D01*
X217895000Y-95917415D01*
X217797609Y-95885144D01*
X217698322Y-95875000D01*
X217650000Y-95875000D01*
X217650000Y-96575000D01*
X217150000Y-96575000D01*
X217150000Y-95875000D01*
X217149999Y-95874999D01*
X217101693Y-95875000D01*
X217101675Y-95875001D01*
X217002392Y-95885144D01*
X216841518Y-95938452D01*
X216841507Y-95938457D01*
X216697271Y-96027424D01*
X216697267Y-96027427D01*
X216577427Y-96147267D01*
X216577424Y-96147271D01*
X216488457Y-96291507D01*
X216488452Y-96291518D01*
X216435144Y-96452393D01*
X216425000Y-96551677D01*
X213887972Y-96551677D01*
X213893410Y-96524337D01*
X213893410Y-96524336D01*
X213900500Y-96488693D01*
X213900500Y-96311306D01*
X213900499Y-96311304D01*
X213865896Y-96137341D01*
X213865893Y-96137332D01*
X213842797Y-96081572D01*
X213798013Y-95973453D01*
X213798011Y-95973451D01*
X213798011Y-95973449D01*
X213771398Y-95933620D01*
X213750520Y-95866942D01*
X213750500Y-95864729D01*
X213750500Y-93831582D01*
X216525001Y-93831582D01*
X216531408Y-93902102D01*
X216531409Y-93902107D01*
X216581981Y-94064396D01*
X216669927Y-94209877D01*
X216790122Y-94330072D01*
X216935604Y-94418019D01*
X216935603Y-94418019D01*
X217097894Y-94468590D01*
X217097892Y-94468590D01*
X217168418Y-94474999D01*
X217249999Y-94474998D01*
X217250000Y-94474998D01*
X217250000Y-93825000D01*
X216525001Y-93825000D01*
X216525001Y-93831582D01*
X213750500Y-93831582D01*
X213750500Y-93362228D01*
X213770185Y-93295189D01*
X213786814Y-93274552D01*
X216316204Y-90745162D01*
X216377525Y-90711679D01*
X216447217Y-90716663D01*
X216503150Y-90758535D01*
X216527241Y-90820243D01*
X216535144Y-90897607D01*
X216588452Y-91058481D01*
X216588457Y-91058492D01*
X216660272Y-91174921D01*
X216678713Y-91242313D01*
X216660851Y-91304168D01*
X216581522Y-91435393D01*
X216530913Y-91597807D01*
X216524500Y-91668386D01*
X216524500Y-92181613D01*
X216530913Y-92252192D01*
X216530913Y-92252194D01*
X216530914Y-92252196D01*
X216581522Y-92414606D01*
X216648258Y-92525001D01*
X216669530Y-92560188D01*
X216772015Y-92662673D01*
X216805500Y-92723996D01*
X216800516Y-92793688D01*
X216772015Y-92838035D01*
X216669928Y-92940121D01*
X216669927Y-92940122D01*
X216581980Y-93085604D01*
X216531409Y-93247893D01*
X216525000Y-93318427D01*
X216525000Y-93325000D01*
X217376000Y-93325000D01*
X217443039Y-93344685D01*
X217488794Y-93397489D01*
X217500000Y-93449000D01*
X217500000Y-93575000D01*
X217626000Y-93575000D01*
X217693039Y-93594685D01*
X217738794Y-93647489D01*
X217750000Y-93699000D01*
X217750000Y-94474999D01*
X217831581Y-94474999D01*
X217902092Y-94468592D01*
X217904132Y-94468187D01*
X217905355Y-94468296D01*
X217908639Y-94467998D01*
X217908693Y-94468594D01*
X217973724Y-94474410D01*
X218028905Y-94517269D01*
X218046718Y-94552913D01*
X218081522Y-94664606D01*
X218169530Y-94810188D01*
X218272015Y-94912673D01*
X218305500Y-94973996D01*
X218300516Y-95043688D01*
X218272015Y-95088035D01*
X218169928Y-95190121D01*
X218169927Y-95190122D01*
X218081980Y-95335604D01*
X218031409Y-95497893D01*
X218025000Y-95568427D01*
X218025000Y-95575000D01*
X219974999Y-95575000D01*
X219974999Y-95568417D01*
X219968591Y-95497897D01*
X219968590Y-95497892D01*
X219918018Y-95335603D01*
X219830072Y-95190122D01*
X219727984Y-95088034D01*
X219723645Y-95080088D01*
X219716398Y-95074663D01*
X219707163Y-95049903D01*
X219694499Y-95026711D01*
X219695144Y-95017681D01*
X219691981Y-95009199D01*
X219697597Y-94983378D01*
X219699483Y-94957019D01*
X219705301Y-94947965D01*
X219706833Y-94940926D01*
X219727981Y-94912675D01*
X219804055Y-94836601D01*
X219865376Y-94803118D01*
X219935068Y-94808102D01*
X219979413Y-94836601D01*
X220074089Y-94931277D01*
X220180631Y-95002465D01*
X220299014Y-95051501D01*
X220299018Y-95051501D01*
X220299019Y-95051502D01*
X220424686Y-95076500D01*
X220424689Y-95076500D01*
X223125313Y-95076500D01*
X223209857Y-95059682D01*
X223250986Y-95051501D01*
X223369369Y-95002465D01*
X223475911Y-94931277D01*
X224085277Y-94321911D01*
X224156466Y-94215368D01*
X224158690Y-94210000D01*
X224163039Y-94199500D01*
X224188070Y-94139069D01*
X224205501Y-94096986D01*
X224230500Y-93971311D01*
X224230500Y-92990442D01*
X224236280Y-92970757D01*
X224237191Y-92950261D01*
X224245924Y-92937913D01*
X224250185Y-92923403D01*
X224265688Y-92909968D01*
X224277537Y-92893217D01*
X224296429Y-92883332D01*
X224302989Y-92877648D01*
X224308046Y-92875472D01*
X224316101Y-92872216D01*
X224318912Y-92871658D01*
X224375601Y-92848175D01*
X224376059Y-92847991D01*
X224376892Y-92847908D01*
X224406328Y-92840021D01*
X224436320Y-92836074D01*
X224503376Y-92808297D01*
X224572844Y-92800828D01*
X224598281Y-92808297D01*
X224737334Y-92865894D01*
X224737336Y-92865894D01*
X224737341Y-92865896D01*
X224911304Y-92900499D01*
X224911307Y-92900500D01*
X224911309Y-92900500D01*
X225088693Y-92900500D01*
X225088694Y-92900499D01*
X225175000Y-92883332D01*
X225262658Y-92865896D01*
X225262661Y-92865894D01*
X225262666Y-92865894D01*
X225426547Y-92798013D01*
X225574035Y-92699464D01*
X225699464Y-92574035D01*
X225798013Y-92426547D01*
X225865894Y-92262666D01*
X225867978Y-92252192D01*
X225900499Y-92088695D01*
X225900500Y-92088693D01*
X225900500Y-91911306D01*
X225900499Y-91911304D01*
X225865896Y-91737341D01*
X225865893Y-91737332D01*
X225798016Y-91573459D01*
X225798009Y-91573446D01*
X225699464Y-91425965D01*
X225699461Y-91425961D01*
X225574038Y-91300538D01*
X225574034Y-91300535D01*
X225426553Y-91201990D01*
X225426540Y-91201983D01*
X225262667Y-91134106D01*
X225262658Y-91134103D01*
X225088694Y-91099500D01*
X225088691Y-91099500D01*
X224974499Y-91099500D01*
X224907460Y-91079815D01*
X224861705Y-91027011D01*
X224850891Y-90977303D01*
X224850765Y-90977312D01*
X224850709Y-90976468D01*
X224850499Y-90975500D01*
X224850499Y-90973257D01*
X224836075Y-90863688D01*
X224836074Y-90863680D01*
X224779596Y-90727331D01*
X224777613Y-90724746D01*
X224776618Y-90722174D01*
X224775534Y-90720296D01*
X224775827Y-90720126D01*
X224752420Y-90659580D01*
X224766458Y-90591135D01*
X224777190Y-90574332D01*
X224782718Y-90567041D01*
X224839193Y-90423833D01*
X224839193Y-90423832D01*
X224848060Y-90350000D01*
X224224000Y-90350000D01*
X224215314Y-90347449D01*
X224206353Y-90348738D01*
X224182312Y-90337759D01*
X224156961Y-90330315D01*
X224151033Y-90323474D01*
X224142797Y-90319713D01*
X224128507Y-90297478D01*
X224111206Y-90277511D01*
X224108918Y-90266996D01*
X224105023Y-90260935D01*
X224100000Y-90226000D01*
X224100000Y-90074000D01*
X224119685Y-90006961D01*
X224172489Y-89961206D01*
X224224000Y-89950000D01*
X224848058Y-89950000D01*
X224839193Y-89876166D01*
X224782718Y-89732958D01*
X224777188Y-89725665D01*
X224752363Y-89660354D01*
X224766790Y-89591990D01*
X224777610Y-89575256D01*
X224779596Y-89572669D01*
X224836074Y-89436320D01*
X224850500Y-89326741D01*
X224850500Y-89152797D01*
X224850500Y-89076082D01*
X224850500Y-89068487D01*
X224850499Y-89068469D01*
X224850499Y-88973257D01*
X224836075Y-88863688D01*
X224836074Y-88863680D01*
X224800377Y-88777500D01*
X224779599Y-88727337D01*
X224779597Y-88727335D01*
X224779596Y-88727331D01*
X224778179Y-88725485D01*
X224777469Y-88723648D01*
X224775536Y-88720300D01*
X224776058Y-88719998D01*
X224752985Y-88660322D01*
X224767021Y-88591877D01*
X224778171Y-88574526D01*
X224779596Y-88572669D01*
X224836074Y-88436320D01*
X224850500Y-88326741D01*
X224850499Y-87973260D01*
X224842832Y-87915021D01*
X224836075Y-87863688D01*
X224836074Y-87863680D01*
X224779596Y-87727331D01*
X224689754Y-87610246D01*
X224599911Y-87541307D01*
X224572668Y-87520403D01*
X224436320Y-87463926D01*
X224436318Y-87463925D01*
X224326741Y-87449500D01*
X223873263Y-87449500D01*
X223801103Y-87458999D01*
X223732068Y-87448231D01*
X223697240Y-87423740D01*
X223574038Y-87300538D01*
X223574034Y-87300535D01*
X223426553Y-87201990D01*
X223426540Y-87201983D01*
X223262667Y-87134106D01*
X223262658Y-87134103D01*
X223088694Y-87099500D01*
X223088691Y-87099500D01*
X222911309Y-87099500D01*
X222911306Y-87099500D01*
X222737341Y-87134103D01*
X222737332Y-87134106D01*
X222573459Y-87201983D01*
X222573446Y-87201990D01*
X222425965Y-87300535D01*
X222425961Y-87300538D01*
X222300538Y-87425961D01*
X222300535Y-87425965D01*
X222201990Y-87573446D01*
X222201983Y-87573459D01*
X222134106Y-87737332D01*
X222134103Y-87737341D01*
X222099500Y-87911304D01*
X222099500Y-87917949D01*
X222079815Y-87984988D01*
X222027011Y-88030743D01*
X221957853Y-88040687D01*
X221894297Y-88011662D01*
X221887819Y-88005630D01*
X220302915Y-86420726D01*
X220282805Y-86407289D01*
X220196369Y-86349535D01*
X220113443Y-86315186D01*
X220077986Y-86300499D01*
X220077984Y-86300498D01*
X220071498Y-86299208D01*
X220067154Y-86298344D01*
X220067152Y-86298343D01*
X220067152Y-86298344D01*
X219952313Y-86275500D01*
X219952311Y-86275500D01*
X218526862Y-86275500D01*
X218525159Y-86275000D01*
X217624000Y-86275000D01*
X217556961Y-86255315D01*
X217511206Y-86202511D01*
X217500000Y-86151000D01*
X217500000Y-85899000D01*
X217519685Y-85831961D01*
X217572489Y-85786206D01*
X217624000Y-85775000D01*
X218474999Y-85775000D01*
X218474999Y-85751689D01*
X218474998Y-85751677D01*
X218464855Y-85652392D01*
X218411547Y-85491518D01*
X218411542Y-85491507D01*
X218322575Y-85347271D01*
X218322572Y-85347267D01*
X218313339Y-85338034D01*
X218308991Y-85330072D01*
X218301729Y-85324632D01*
X218292507Y-85299884D01*
X218279854Y-85276711D01*
X218280501Y-85267662D01*
X218277333Y-85259160D01*
X218282954Y-85233359D01*
X218284838Y-85207019D01*
X218290669Y-85197947D01*
X218292207Y-85190892D01*
X218313360Y-85162651D01*
X218314956Y-85161055D01*
X218376288Y-85127591D01*
X218387120Y-85125887D01*
X218389066Y-85125500D01*
X218389069Y-85125500D01*
X218514744Y-85100501D01*
X218633127Y-85051465D01*
X218673482Y-85024501D01*
X218739669Y-84980277D01*
X219033128Y-84686816D01*
X219094449Y-84653333D01*
X219120808Y-84650499D01*
X219973338Y-84650499D01*
X219973344Y-84650499D01*
X219973352Y-84650498D01*
X219973355Y-84650498D01*
X220027760Y-84644940D01*
X220072708Y-84640349D01*
X220233697Y-84587003D01*
X220378044Y-84497968D01*
X220497968Y-84378044D01*
X220587003Y-84233697D01*
X220619543Y-84135495D01*
X220659315Y-84078051D01*
X220723831Y-84051228D01*
X220737249Y-84050500D01*
X222262751Y-84050500D01*
X222329790Y-84070185D01*
X222375545Y-84122989D01*
X222380457Y-84135496D01*
X222412996Y-84233694D01*
X222413001Y-84233705D01*
X222502029Y-84378040D01*
X222502032Y-84378044D01*
X222621955Y-84497967D01*
X222621959Y-84497970D01*
X222766294Y-84586998D01*
X222766297Y-84586999D01*
X222766303Y-84587003D01*
X222927292Y-84640349D01*
X223026655Y-84650500D01*
X224173344Y-84650499D01*
X224173352Y-84650498D01*
X224173355Y-84650498D01*
X224227760Y-84644940D01*
X224272708Y-84640349D01*
X224433697Y-84587003D01*
X224578044Y-84497968D01*
X224697968Y-84378044D01*
X224787003Y-84233697D01*
X224840349Y-84072708D01*
X224842479Y-84066281D01*
X224844328Y-84066893D01*
X224873076Y-84013805D01*
X224913611Y-83986619D01*
X224938127Y-83976465D01*
X224944811Y-83971998D01*
X224948221Y-83969721D01*
X224999595Y-83935394D01*
X225044669Y-83905277D01*
X226219807Y-82730137D01*
X226281128Y-82696654D01*
X226345802Y-82699888D01*
X226418632Y-82723553D01*
X226535270Y-82742026D01*
X226651903Y-82760500D01*
X226651908Y-82760500D01*
X226888097Y-82760500D01*
X227121368Y-82723553D01*
X227183820Y-82703261D01*
X227345992Y-82650568D01*
X227556433Y-82543343D01*
X227747510Y-82404517D01*
X227914517Y-82237510D01*
X228053343Y-82046433D01*
X228160568Y-81835992D01*
X228233553Y-81611368D01*
X228241896Y-81558694D01*
X228270500Y-81378097D01*
X228270500Y-81141902D01*
X228233553Y-80908631D01*
X228195825Y-80792517D01*
X228160568Y-80684008D01*
X228160566Y-80684005D01*
X228160566Y-80684003D01*
X228088443Y-80542454D01*
X228053343Y-80473567D01*
X227914517Y-80282490D01*
X227747510Y-80115483D01*
X227556433Y-79976657D01*
X227534352Y-79965406D01*
X227345996Y-79869433D01*
X227121368Y-79796446D01*
X226888097Y-79759500D01*
X226888092Y-79759500D01*
X226651908Y-79759500D01*
X226651903Y-79759500D01*
X226418631Y-79796446D01*
X226194003Y-79869433D01*
X225983566Y-79976657D01*
X225874550Y-80055862D01*
X225792490Y-80115483D01*
X225792488Y-80115485D01*
X225792487Y-80115485D01*
X225625485Y-80282487D01*
X225625485Y-80282488D01*
X225625483Y-80282490D01*
X225598714Y-80319334D01*
X225486657Y-80473566D01*
X225379433Y-80684003D01*
X225306446Y-80908631D01*
X225269500Y-81141902D01*
X225269500Y-81378097D01*
X225306447Y-81611369D01*
X225306447Y-81611372D01*
X225330109Y-81684194D01*
X225332104Y-81754035D01*
X225299859Y-81810193D01*
X224780713Y-82329339D01*
X224719390Y-82362824D01*
X224649698Y-82357840D01*
X224605351Y-82329339D01*
X224578044Y-82302032D01*
X224578040Y-82302029D01*
X224433705Y-82213001D01*
X224433699Y-82212998D01*
X224433697Y-82212997D01*
X224335495Y-82180456D01*
X224278051Y-82140685D01*
X224251228Y-82076169D01*
X224250500Y-82062751D01*
X224250500Y-80104500D01*
X224270185Y-80037461D01*
X224322989Y-79991706D01*
X224374500Y-79980500D01*
X224500000Y-79980500D01*
X224571940Y-79975355D01*
X224709992Y-79934819D01*
X224831032Y-79857031D01*
X224925254Y-79748294D01*
X224985024Y-79617416D01*
X225005500Y-79475000D01*
X225005500Y-78475000D01*
X225001493Y-78411478D01*
X224988659Y-78364891D01*
X224985469Y-78314318D01*
X225005500Y-78175000D01*
X225005500Y-77025000D01*
X225000355Y-76953060D01*
X224999456Y-76950000D01*
X224976027Y-76870208D01*
X224959819Y-76815008D01*
X224918362Y-76750500D01*
X224882032Y-76693969D01*
X224882028Y-76693965D01*
X224773299Y-76599750D01*
X224773297Y-76599748D01*
X224773294Y-76599746D01*
X224757892Y-76592712D01*
X224642419Y-76539976D01*
X224642414Y-76539975D01*
X224500000Y-76519500D01*
X223963133Y-76519500D01*
X223896094Y-76499815D01*
X223875452Y-76483181D01*
X223521824Y-76129552D01*
X223521817Y-76129546D01*
X223446778Y-76079407D01*
X223446679Y-76079342D01*
X223398898Y-76047416D01*
X223398897Y-76047415D01*
X223398895Y-76047414D01*
X223262320Y-75990843D01*
X223262310Y-75990840D01*
X223117323Y-75962000D01*
X223117321Y-75962000D01*
X220043034Y-75962000D01*
X219975995Y-75942315D01*
X219955885Y-75926109D01*
X219955387Y-75925716D01*
X219812295Y-75837455D01*
X219812289Y-75837452D01*
X219812287Y-75837451D01*
X219652685Y-75784564D01*
X219652683Y-75784563D01*
X219554181Y-75774500D01*
X219554174Y-75774500D01*
X219424729Y-75774500D01*
X219357690Y-75754815D01*
X219337048Y-75738181D01*
X218840921Y-75242052D01*
X218840920Y-75242051D01*
X218763652Y-75190423D01*
X218763651Y-75190422D01*
X218718001Y-75159919D01*
X218717988Y-75159912D01*
X218581417Y-75103343D01*
X218581407Y-75103340D01*
X218436420Y-75074500D01*
X218436418Y-75074500D01*
X213633004Y-75074500D01*
X213565965Y-75054815D01*
X213520210Y-75002011D01*
X213513928Y-74985095D01*
X213503619Y-74949614D01*
X213503618Y-74949611D01*
X213503618Y-74949610D01*
X213423170Y-74813580D01*
X213423168Y-74813578D01*
X213423165Y-74813574D01*
X213311425Y-74701834D01*
X213311416Y-74701827D01*
X213175390Y-74621382D01*
X213175385Y-74621380D01*
X213023633Y-74577292D01*
X213023620Y-74577290D01*
X212988170Y-74574500D01*
X212988163Y-74574500D01*
X212774500Y-74574500D01*
X212707461Y-74554815D01*
X212661706Y-74502011D01*
X212650500Y-74450500D01*
X212650500Y-74108308D01*
X212670185Y-74041269D01*
X212686819Y-74020627D01*
X212945627Y-73761819D01*
X213006950Y-73728334D01*
X213033308Y-73725500D01*
X213304169Y-73725500D01*
X213304174Y-73725500D01*
X213402685Y-73715436D01*
X213562287Y-73662549D01*
X213705391Y-73574281D01*
X213824281Y-73455391D01*
X213912549Y-73312287D01*
X213965436Y-73152685D01*
X213975500Y-73054174D01*
X213975500Y-72520826D01*
X213965436Y-72422315D01*
X213912549Y-72262713D01*
X213912545Y-72262707D01*
X213912544Y-72262704D01*
X213824283Y-72119612D01*
X213824280Y-72119608D01*
X213792353Y-72087681D01*
X213758868Y-72026358D01*
X213763852Y-71956666D01*
X213792353Y-71912319D01*
X213807289Y-71897383D01*
X213824281Y-71880391D01*
X213912549Y-71737287D01*
X213965436Y-71577685D01*
X213975500Y-71479174D01*
X213975500Y-70945826D01*
X213965436Y-70847315D01*
X213912549Y-70687713D01*
X213912545Y-70687707D01*
X213912544Y-70687704D01*
X213824283Y-70544612D01*
X213824282Y-70544611D01*
X213824281Y-70544609D01*
X213705391Y-70425719D01*
X213705390Y-70425718D01*
X213699730Y-70421243D01*
X213701327Y-70419222D01*
X213662669Y-70376227D01*
X213650500Y-70322655D01*
X213650500Y-69723988D01*
X213670185Y-69656949D01*
X213704809Y-69623263D01*
X213704285Y-69622594D01*
X213710180Y-69617974D01*
X213710185Y-69617972D01*
X213830472Y-69497685D01*
X213918478Y-69352106D01*
X213969086Y-69189696D01*
X213975500Y-69119116D01*
X213975500Y-68605884D01*
X213969086Y-68535304D01*
X213918478Y-68372894D01*
X213830472Y-68227315D01*
X213830470Y-68227313D01*
X213830469Y-68227311D01*
X213727984Y-68124826D01*
X213694499Y-68063503D01*
X213699483Y-67993811D01*
X213727985Y-67949463D01*
X213830071Y-67847378D01*
X213830072Y-67847377D01*
X213918019Y-67701895D01*
X213968590Y-67539606D01*
X213975000Y-67469072D01*
X213975000Y-67462500D01*
X212025001Y-67462500D01*
X212025001Y-67469082D01*
X212031408Y-67539602D01*
X212031409Y-67539607D01*
X212081981Y-67701896D01*
X212169927Y-67847377D01*
X212272015Y-67949465D01*
X212305500Y-68010788D01*
X212300516Y-68080480D01*
X212272015Y-68124827D01*
X212169531Y-68227310D01*
X212169530Y-68227311D01*
X212081522Y-68372893D01*
X212030913Y-68535307D01*
X212024500Y-68605886D01*
X212024500Y-69119113D01*
X212030913Y-69189692D01*
X212030913Y-69189694D01*
X212030914Y-69189696D01*
X212053652Y-69262666D01*
X212081522Y-69352106D01*
X212169530Y-69497688D01*
X212289810Y-69617968D01*
X212295715Y-69622594D01*
X212294911Y-69623619D01*
X212336833Y-69669390D01*
X212349500Y-69723988D01*
X212349500Y-70322655D01*
X212329815Y-70389694D01*
X212299139Y-70419813D01*
X212300270Y-70421243D01*
X212294609Y-70425718D01*
X212175716Y-70544612D01*
X212087455Y-70687704D01*
X212087451Y-70687713D01*
X212034564Y-70847315D01*
X212034564Y-70847316D01*
X212034563Y-70847316D01*
X212024500Y-70945818D01*
X212024500Y-71479181D01*
X212034563Y-71577683D01*
X212087450Y-71737284D01*
X212087455Y-71737295D01*
X212175716Y-71880387D01*
X212175719Y-71880391D01*
X212207647Y-71912319D01*
X212241132Y-71973642D01*
X212236148Y-72043334D01*
X212207647Y-72087681D01*
X212175719Y-72119608D01*
X212175716Y-72119612D01*
X212087455Y-72262704D01*
X212087450Y-72262715D01*
X212083552Y-72274478D01*
X212034564Y-72422315D01*
X212034564Y-72422316D01*
X212034563Y-72422316D01*
X212024500Y-72520818D01*
X212024500Y-72791691D01*
X212004815Y-72858730D01*
X211988181Y-72879372D01*
X211494727Y-73372825D01*
X211494726Y-73372826D01*
X211452780Y-73435604D01*
X211440486Y-73454004D01*
X211423535Y-73479373D01*
X211374499Y-73597756D01*
X211369588Y-73622439D01*
X211364313Y-73634601D01*
X211350085Y-73651667D01*
X211339787Y-73671353D01*
X211328149Y-73677979D01*
X211319573Y-73688267D01*
X211298379Y-73694931D01*
X211279071Y-73705926D01*
X211265696Y-73705208D01*
X211252921Y-73709226D01*
X211231490Y-73703374D01*
X211209301Y-73702185D01*
X211195668Y-73693594D01*
X211185518Y-73690823D01*
X211177972Y-73682442D01*
X211162876Y-73672930D01*
X210686819Y-73196873D01*
X210653334Y-73135550D01*
X210650500Y-73109192D01*
X210650500Y-66955927D01*
X212025000Y-66955927D01*
X212025000Y-66962500D01*
X212750000Y-66962500D01*
X213250000Y-66962500D01*
X213974999Y-66962500D01*
X213974999Y-66955917D01*
X213968591Y-66885397D01*
X213968590Y-66885392D01*
X213918018Y-66723103D01*
X213830072Y-66577622D01*
X213709877Y-66457427D01*
X213564395Y-66369480D01*
X213564396Y-66369480D01*
X213402105Y-66318909D01*
X213402106Y-66318909D01*
X213331572Y-66312500D01*
X213250000Y-66312500D01*
X213250000Y-66962500D01*
X212750000Y-66962500D01*
X212750000Y-66312500D01*
X212749999Y-66312499D01*
X212668417Y-66312500D01*
X212597897Y-66318908D01*
X212597892Y-66318909D01*
X212435603Y-66369481D01*
X212290122Y-66457427D01*
X212169927Y-66577622D01*
X212081980Y-66723104D01*
X212031409Y-66885393D01*
X212025000Y-66955927D01*
X210650500Y-66955927D01*
X210650500Y-64512162D01*
X210670185Y-64445123D01*
X210722989Y-64399368D01*
X210748552Y-64390907D01*
X210752788Y-64389999D01*
X210752797Y-64389999D01*
X210919334Y-64334814D01*
X211068656Y-64242712D01*
X211192712Y-64118656D01*
X211284814Y-63969334D01*
X211339999Y-63802797D01*
X211350500Y-63700009D01*
X211350499Y-62099992D01*
X211339999Y-61997203D01*
X211284814Y-61830666D01*
X211192712Y-61681344D01*
X211068656Y-61557288D01*
X210919334Y-61465186D01*
X210752797Y-61410001D01*
X210752795Y-61410000D01*
X210650010Y-61399500D01*
X209349998Y-61399500D01*
X209349981Y-61399501D01*
X209247203Y-61410000D01*
X209247200Y-61410001D01*
X209080668Y-61465185D01*
X209080663Y-61465187D01*
X208931342Y-61557289D01*
X208807289Y-61681342D01*
X208711551Y-61836559D01*
X208659603Y-61883283D01*
X208590640Y-61894506D01*
X208526558Y-61866662D01*
X208518331Y-61859143D01*
X208379464Y-61720276D01*
X208379459Y-61720272D01*
X208207557Y-61595379D01*
X208018215Y-61498903D01*
X207816124Y-61433241D01*
X207750000Y-61422768D01*
X207750000Y-62466988D01*
X207692993Y-62434075D01*
X207565826Y-62400000D01*
X207434174Y-62400000D01*
X207307007Y-62434075D01*
X207250000Y-62466988D01*
X207250000Y-61422768D01*
X207249999Y-61422768D01*
X207183875Y-61433241D01*
X206981784Y-61498903D01*
X206792442Y-61595379D01*
X206620540Y-61720272D01*
X206620535Y-61720276D01*
X206470276Y-61870535D01*
X206470272Y-61870540D01*
X206345379Y-62042442D01*
X206248904Y-62231782D01*
X206183242Y-62433869D01*
X206183242Y-62433872D01*
X206150000Y-62643753D01*
X206150000Y-62650000D01*
X207066988Y-62650000D01*
X207034075Y-62707007D01*
X207000000Y-62834174D01*
X207000000Y-62965826D01*
X207034075Y-63092993D01*
X207066988Y-63150000D01*
X206150000Y-63150000D01*
X206150000Y-63156246D01*
X206183242Y-63366127D01*
X206183242Y-63366130D01*
X206248904Y-63568217D01*
X206345379Y-63757557D01*
X206470272Y-63929459D01*
X206470276Y-63929464D01*
X206620535Y-64079723D01*
X206620540Y-64079727D01*
X206792442Y-64204620D01*
X206981782Y-64301095D01*
X207183871Y-64366757D01*
X207250000Y-64377231D01*
X207250000Y-63333012D01*
X207307007Y-63365925D01*
X207434174Y-63400000D01*
X207565826Y-63400000D01*
X207692993Y-63365925D01*
X207750000Y-63333012D01*
X207750000Y-64377230D01*
X207816126Y-64366757D01*
X207816129Y-64366757D01*
X208018217Y-64301095D01*
X208207557Y-64204620D01*
X208379458Y-64079728D01*
X208518330Y-63940856D01*
X208579653Y-63907371D01*
X208649345Y-63912355D01*
X208705279Y-63954226D01*
X208711551Y-63963440D01*
X208715185Y-63969331D01*
X208715186Y-63969334D01*
X208807288Y-64118656D01*
X208931344Y-64242712D01*
X209080666Y-64334814D01*
X209247203Y-64389999D01*
X209247209Y-64389999D01*
X209251448Y-64390907D01*
X209312884Y-64424185D01*
X209346576Y-64485394D01*
X209349500Y-64512162D01*
X209349500Y-72737200D01*
X209329815Y-72804239D01*
X209277011Y-72849994D01*
X209207853Y-72859938D01*
X209144297Y-72830913D01*
X209137819Y-72824881D01*
X208686819Y-72373881D01*
X208653334Y-72312558D01*
X208650500Y-72286200D01*
X208650500Y-71686488D01*
X208670185Y-71619449D01*
X208704809Y-71585763D01*
X208704285Y-71585094D01*
X208710180Y-71580474D01*
X208710185Y-71580472D01*
X208830472Y-71460185D01*
X208918478Y-71314606D01*
X208969086Y-71152196D01*
X208975500Y-71081616D01*
X208975500Y-70568384D01*
X208969086Y-70497804D01*
X208918478Y-70335394D01*
X208830472Y-70189815D01*
X208830470Y-70189813D01*
X208830469Y-70189811D01*
X208727984Y-70087326D01*
X208694499Y-70026003D01*
X208699483Y-69956311D01*
X208727985Y-69911963D01*
X208830071Y-69809878D01*
X208830072Y-69809877D01*
X208918019Y-69664395D01*
X208968590Y-69502106D01*
X208975000Y-69431572D01*
X208975000Y-69425000D01*
X207025001Y-69425000D01*
X207025001Y-69431582D01*
X207031408Y-69502102D01*
X207031409Y-69502107D01*
X207081981Y-69664396D01*
X207169927Y-69809877D01*
X207272015Y-69911965D01*
X207305500Y-69973288D01*
X207300516Y-70042980D01*
X207272015Y-70087327D01*
X207169531Y-70189810D01*
X207169530Y-70189811D01*
X207081522Y-70335393D01*
X207062319Y-70397017D01*
X207053377Y-70425718D01*
X207039630Y-70469834D01*
X207000892Y-70527982D01*
X206936867Y-70555956D01*
X206867882Y-70544875D01*
X206833563Y-70520625D01*
X206157666Y-69844727D01*
X206157662Y-69844724D01*
X206120032Y-69819580D01*
X206075227Y-69765967D01*
X206066520Y-69696642D01*
X206082192Y-69653355D01*
X206113756Y-69599984D01*
X206113756Y-69599983D01*
X206157246Y-69450291D01*
X206157247Y-69450285D01*
X206159999Y-69415313D01*
X206160000Y-69415301D01*
X206160000Y-69330000D01*
X204644000Y-69330000D01*
X204576961Y-69310315D01*
X204531206Y-69257511D01*
X204520000Y-69206000D01*
X204520000Y-68954000D01*
X204530445Y-68918427D01*
X207025000Y-68918427D01*
X207025000Y-68925000D01*
X207750000Y-68925000D01*
X208250000Y-68925000D01*
X208974999Y-68925000D01*
X208974999Y-68918417D01*
X208968591Y-68847897D01*
X208968590Y-68847892D01*
X208918018Y-68685603D01*
X208830072Y-68540122D01*
X208709877Y-68419927D01*
X208564395Y-68331980D01*
X208564396Y-68331980D01*
X208402105Y-68281409D01*
X208402106Y-68281409D01*
X208331572Y-68275000D01*
X208250000Y-68275000D01*
X208250000Y-68925000D01*
X207750000Y-68925000D01*
X207750000Y-68275000D01*
X207749999Y-68274999D01*
X207668417Y-68275000D01*
X207597897Y-68281408D01*
X207597892Y-68281409D01*
X207435603Y-68331981D01*
X207290122Y-68419927D01*
X207169927Y-68540122D01*
X207081980Y-68685604D01*
X207031409Y-68847893D01*
X207025000Y-68918427D01*
X204530445Y-68918427D01*
X204539685Y-68886961D01*
X204592489Y-68841206D01*
X204644000Y-68830000D01*
X206160000Y-68830000D01*
X206160000Y-68744698D01*
X206159999Y-68744686D01*
X206157247Y-68709714D01*
X206157246Y-68709708D01*
X206113756Y-68560016D01*
X206113752Y-68560007D01*
X206088357Y-68517065D01*
X206071174Y-68449341D01*
X206088356Y-68390825D01*
X206124218Y-68330188D01*
X206167745Y-68180366D01*
X206170500Y-68145361D01*
X206170499Y-67474640D01*
X206167745Y-67439634D01*
X206124218Y-67289812D01*
X206044799Y-67155522D01*
X206044797Y-67155520D01*
X206044794Y-67155516D01*
X205934483Y-67045205D01*
X205934474Y-67045198D01*
X205800188Y-66965782D01*
X205800183Y-66965780D01*
X205650370Y-66922255D01*
X205650364Y-66922254D01*
X205620869Y-66919933D01*
X205615361Y-66919500D01*
X205615359Y-66919500D01*
X203444650Y-66919500D01*
X203444628Y-66919501D01*
X203409637Y-66922254D01*
X203409634Y-66922255D01*
X203259812Y-66965782D01*
X203259810Y-66965782D01*
X203259810Y-66965783D01*
X203125525Y-67045198D01*
X203125516Y-67045205D01*
X203015205Y-67155516D01*
X203015198Y-67155525D01*
X202935782Y-67289811D01*
X202935780Y-67289816D01*
X202892255Y-67439629D01*
X202892254Y-67439635D01*
X202889500Y-67474632D01*
X202889500Y-67636675D01*
X202869815Y-67703714D01*
X202853181Y-67724356D01*
X201862181Y-68715356D01*
X201800858Y-68748841D01*
X201731166Y-68743857D01*
X201675233Y-68701985D01*
X201650816Y-68636521D01*
X201650500Y-68627675D01*
X201650500Y-66935928D01*
X201625502Y-66810261D01*
X201625501Y-66810260D01*
X201625501Y-66810256D01*
X201605070Y-66760931D01*
X201576466Y-66691874D01*
X201573088Y-66686819D01*
X201505278Y-66585332D01*
X201505272Y-66585325D01*
X200414673Y-65494726D01*
X200414669Y-65494723D01*
X200308127Y-65423535D01*
X200308122Y-65423533D01*
X200189744Y-65374499D01*
X200189738Y-65374497D01*
X200064071Y-65349500D01*
X200064069Y-65349500D01*
X197935931Y-65349500D01*
X197935929Y-65349500D01*
X197810261Y-65374497D01*
X197810255Y-65374499D01*
X197691875Y-65423533D01*
X197691866Y-65423538D01*
X197585331Y-65494723D01*
X197585327Y-65494726D01*
X196941873Y-66138181D01*
X196880550Y-66171666D01*
X196854192Y-66174500D01*
X192866519Y-66174500D01*
X192837081Y-66165855D01*
X192807091Y-66159332D01*
X192802075Y-66155577D01*
X192799480Y-66154815D01*
X192778837Y-66138180D01*
X192727983Y-66087325D01*
X192694499Y-66026002D01*
X192699484Y-65956310D01*
X192727985Y-65911963D01*
X192830071Y-65809878D01*
X192830072Y-65809877D01*
X192918019Y-65664395D01*
X192968590Y-65502106D01*
X192975000Y-65431572D01*
X192975000Y-65425000D01*
X191700500Y-65425000D01*
X191633461Y-65405315D01*
X191587706Y-65352511D01*
X191576500Y-65301000D01*
X191576500Y-65049000D01*
X191596185Y-64981961D01*
X191648989Y-64936206D01*
X191700500Y-64925000D01*
X191750000Y-64925000D01*
X192250000Y-64925000D01*
X192974999Y-64925000D01*
X192974999Y-64918417D01*
X192968591Y-64847897D01*
X192968590Y-64847892D01*
X192918018Y-64685603D01*
X192830072Y-64540122D01*
X192709877Y-64419927D01*
X192564395Y-64331980D01*
X192564396Y-64331980D01*
X192402105Y-64281409D01*
X192402106Y-64281409D01*
X192331572Y-64275000D01*
X192250000Y-64275000D01*
X192250000Y-64925000D01*
X191750000Y-64925000D01*
X191750000Y-64306152D01*
X191652613Y-64265380D01*
X191644048Y-64258424D01*
X191633462Y-64255316D01*
X191617407Y-64236788D01*
X191598376Y-64221333D01*
X191594931Y-64210851D01*
X191587706Y-64202513D01*
X191578922Y-64162135D01*
X191576563Y-64154956D01*
X191576996Y-64153283D01*
X191576500Y-64151000D01*
X191576500Y-63498830D01*
X191551502Y-63373163D01*
X191551501Y-63373159D01*
X191548589Y-63366130D01*
X191511620Y-63276878D01*
X191506240Y-63260893D01*
X191505294Y-63257289D01*
X191488599Y-63173354D01*
X191439563Y-63054971D01*
X191399307Y-62994723D01*
X191399307Y-62994722D01*
X191368373Y-62948426D01*
X190914673Y-62494726D01*
X190914157Y-62494381D01*
X190808127Y-62423535D01*
X190689744Y-62374499D01*
X190689738Y-62374497D01*
X190564071Y-62349500D01*
X190564069Y-62349500D01*
X189435931Y-62349500D01*
X189435929Y-62349500D01*
X189310261Y-62374497D01*
X189310255Y-62374499D01*
X189191874Y-62423534D01*
X189085326Y-62494726D01*
X189085325Y-62494727D01*
X188568725Y-63011328D01*
X188568724Y-63011329D01*
X188519280Y-63085330D01*
X188519279Y-63085330D01*
X188497536Y-63117870D01*
X188497534Y-63117874D01*
X188448499Y-63236255D01*
X188448497Y-63236261D01*
X188423500Y-63361928D01*
X188423500Y-80254191D01*
X188403815Y-80321230D01*
X188351011Y-80366985D01*
X188281853Y-80376929D01*
X188218297Y-80347904D01*
X188211819Y-80341872D01*
X187236818Y-79366871D01*
X187203333Y-79305548D01*
X187200499Y-79279190D01*
X187200499Y-77949998D01*
X187200498Y-77949981D01*
X187189999Y-77847203D01*
X187189998Y-77847200D01*
X187178277Y-77811829D01*
X187134814Y-77680666D01*
X187042712Y-77531344D01*
X186918656Y-77407288D01*
X186796970Y-77332232D01*
X186769336Y-77315187D01*
X186769331Y-77315185D01*
X186712581Y-77296380D01*
X186602797Y-77260001D01*
X186602795Y-77260000D01*
X186500010Y-77249500D01*
X185099998Y-77249500D01*
X185099981Y-77249501D01*
X184997203Y-77260000D01*
X184997200Y-77260001D01*
X184830668Y-77315185D01*
X184830659Y-77315189D01*
X184723900Y-77381039D01*
X184658804Y-77399500D01*
X182571206Y-77399500D01*
X182504167Y-77379815D01*
X182458412Y-77327011D01*
X182453275Y-77313818D01*
X182443798Y-77284651D01*
X182426557Y-77231588D01*
X182330051Y-77042184D01*
X182284272Y-76979174D01*
X182224850Y-76897385D01*
X182201370Y-76831579D01*
X182217196Y-76763525D01*
X182267302Y-76714830D01*
X182325168Y-76700500D01*
X184857993Y-76700500D01*
X184896997Y-76706794D01*
X184997203Y-76739999D01*
X185099991Y-76750500D01*
X186500008Y-76750499D01*
X186602797Y-76739999D01*
X186769334Y-76684814D01*
X186918656Y-76592712D01*
X187042712Y-76468656D01*
X187134814Y-76319334D01*
X187189999Y-76152797D01*
X187200500Y-76050009D01*
X187200499Y-73949992D01*
X187189999Y-73847203D01*
X187134814Y-73680666D01*
X187042712Y-73531344D01*
X186918656Y-73407288D01*
X186769334Y-73315186D01*
X186602797Y-73260001D01*
X186602795Y-73260000D01*
X186500010Y-73249500D01*
X185099998Y-73249500D01*
X185099981Y-73249501D01*
X184997203Y-73260000D01*
X184997200Y-73260001D01*
X184830668Y-73315185D01*
X184830663Y-73315187D01*
X184681342Y-73407289D01*
X184557289Y-73531342D01*
X184465187Y-73680663D01*
X184465185Y-73680668D01*
X184437349Y-73764670D01*
X184410001Y-73847203D01*
X184410001Y-73847204D01*
X184410000Y-73847204D01*
X184399500Y-73949983D01*
X184399500Y-73949991D01*
X184399500Y-74574500D01*
X184399501Y-75075500D01*
X184379816Y-75142539D01*
X184327013Y-75188294D01*
X184275501Y-75199500D01*
X182649499Y-75199500D01*
X182582460Y-75179815D01*
X182536705Y-75127011D01*
X182525499Y-75075500D01*
X182525499Y-74599998D01*
X182525498Y-74599981D01*
X182514999Y-74497203D01*
X182514998Y-74497200D01*
X182499523Y-74450500D01*
X182459814Y-74330666D01*
X182367712Y-74181344D01*
X182243656Y-74057288D01*
X182150777Y-74000000D01*
X182094336Y-73965187D01*
X182094331Y-73965185D01*
X182092862Y-73964698D01*
X181927797Y-73910001D01*
X181927795Y-73910000D01*
X181825010Y-73899500D01*
X180224998Y-73899500D01*
X180224981Y-73899501D01*
X180122203Y-73910000D01*
X180122200Y-73910001D01*
X179955668Y-73965185D01*
X179955663Y-73965187D01*
X179806342Y-74057289D01*
X179682289Y-74181342D01*
X179590187Y-74330663D01*
X179590186Y-74330666D01*
X179535001Y-74497203D01*
X179535001Y-74497204D01*
X179535000Y-74497204D01*
X179524500Y-74599983D01*
X179524500Y-75637769D01*
X179504815Y-75704808D01*
X179488181Y-75725450D01*
X178891048Y-76322583D01*
X178879709Y-76339554D01*
X178849627Y-76384577D01*
X178844307Y-76392539D01*
X178808916Y-76445504D01*
X178808912Y-76445511D01*
X178752343Y-76582082D01*
X178752340Y-76582092D01*
X178723500Y-76727079D01*
X178723500Y-76727082D01*
X178723500Y-86972918D01*
X178723500Y-86972920D01*
X178723499Y-86972920D01*
X177499295Y-86972920D01*
X177500495Y-69051966D01*
X177500500Y-69051949D01*
X177500500Y-68987999D01*
X177500561Y-68984115D01*
X177503614Y-68886961D01*
X177519096Y-68394332D01*
X177519582Y-68386596D01*
X177574932Y-67801062D01*
X177575908Y-67793343D01*
X177586653Y-67725500D01*
X177667908Y-67212475D01*
X177669358Y-67204873D01*
X177797663Y-66630867D01*
X177799592Y-66623359D01*
X177963671Y-66058594D01*
X177966075Y-66051198D01*
X178051087Y-65815069D01*
X178165291Y-65497852D01*
X178168147Y-65490639D01*
X178401727Y-64950866D01*
X178405030Y-64943846D01*
X178672040Y-64419811D01*
X178675780Y-64413009D01*
X178975163Y-63906779D01*
X178979318Y-63900232D01*
X179309901Y-63413794D01*
X179314451Y-63407531D01*
X179674938Y-62942795D01*
X179679866Y-62936837D01*
X180068829Y-62495644D01*
X180074131Y-62489999D01*
X180489999Y-62074131D01*
X180495644Y-62068829D01*
X180936837Y-61679866D01*
X180942795Y-61674938D01*
X181407531Y-61314451D01*
X181413794Y-61309901D01*
X181900232Y-60979318D01*
X181906779Y-60975163D01*
X182413009Y-60675780D01*
X182419811Y-60672040D01*
X182943846Y-60405030D01*
X182950866Y-60401727D01*
X183490639Y-60168147D01*
X183497852Y-60165291D01*
X184051199Y-59966074D01*
X184058594Y-59963671D01*
X184623359Y-59799592D01*
X184630867Y-59797663D01*
X185204873Y-59669358D01*
X185212475Y-59667908D01*
X185793349Y-59575907D01*
X185801062Y-59574932D01*
X186386596Y-59519582D01*
X186394332Y-59519096D01*
X186984116Y-59500561D01*
X186988011Y-59500500D01*
X187051949Y-59500500D01*
X219944108Y-59500500D01*
X220008046Y-59500500D01*
X220011941Y-59500561D01*
G37*
%TD.AperFunction*%
%TD*%
M02*
