%TF.GenerationSoftware,KiCad,Pcbnew,9.0.4*%
%TF.CreationDate,2025-11-05T17:51:59+01:00*%
%TF.ProjectId,FliperKAd,466c6970-6572-44b4-9164-2e6b69636164,rev?*%
%TF.SameCoordinates,Original*%
%TF.FileFunction,Copper,L2,Bot*%
%TF.FilePolarity,Positive*%
%FSLAX46Y46*%
G04 Gerber Fmt 4.6, Leading zero omitted, Abs format (unit mm)*
G04 Created by KiCad (PCBNEW 9.0.4) date 2025-11-05 17:51:59*
%MOMM*%
%LPD*%
G01*
G04 APERTURE LIST*
G04 Aperture macros list*
%AMRoundRect*
0 Rectangle with rounded corners*
0 $1 Rounding radius*
0 $2 $3 $4 $5 $6 $7 $8 $9 X,Y pos of 4 corners*
0 Add a 4 corners polygon primitive as box body*
4,1,4,$2,$3,$4,$5,$6,$7,$8,$9,$2,$3,0*
0 Add four circle primitives for the rounded corners*
1,1,$1+$1,$2,$3*
1,1,$1+$1,$4,$5*
1,1,$1+$1,$6,$7*
1,1,$1+$1,$8,$9*
0 Add four rect primitives between the rounded corners*
20,1,$1+$1,$2,$3,$4,$5,0*
20,1,$1+$1,$4,$5,$6,$7,0*
20,1,$1+$1,$6,$7,$8,$9,0*
20,1,$1+$1,$8,$9,$2,$3,0*%
G04 Aperture macros list end*
%TA.AperFunction,ComponentPad*%
%ADD10C,0.800000*%
%TD*%
%TA.AperFunction,ComponentPad*%
%ADD11C,6.400000*%
%TD*%
%TA.AperFunction,ComponentPad*%
%ADD12RoundRect,0.250000X-0.600000X-0.750000X0.600000X-0.750000X0.600000X0.750000X-0.600000X0.750000X0*%
%TD*%
%TA.AperFunction,ComponentPad*%
%ADD13O,1.700000X2.000000*%
%TD*%
%TA.AperFunction,ComponentPad*%
%ADD14RoundRect,0.250000X-0.750000X0.600000X-0.750000X-0.600000X0.750000X-0.600000X0.750000X0.600000X0*%
%TD*%
%TA.AperFunction,ComponentPad*%
%ADD15O,2.000000X1.700000*%
%TD*%
%TA.AperFunction,ComponentPad*%
%ADD16RoundRect,0.800000X0.000010X0.000010X-0.000010X0.000010X-0.000010X-0.000010X0.000010X-0.000010X0*%
%TD*%
%TA.AperFunction,ComponentPad*%
%ADD17RoundRect,0.250000X0.600000X0.750000X-0.600000X0.750000X-0.600000X-0.750000X0.600000X-0.750000X0*%
%TD*%
%TA.AperFunction,ViaPad*%
%ADD18C,0.800000*%
%TD*%
%TA.AperFunction,Conductor*%
%ADD19C,0.300000*%
%TD*%
%TA.AperFunction,Conductor*%
%ADD20C,0.500000*%
%TD*%
G04 APERTURE END LIST*
D10*
%TO.P,H1,1,1*%
%TO.N,GND*%
X182600000Y-66900000D03*
X183302944Y-65202944D03*
X183302944Y-68597056D03*
X185000000Y-64500000D03*
D11*
X185000000Y-66900000D03*
D10*
X185000000Y-69300000D03*
X186697056Y-65202944D03*
X186697056Y-68597056D03*
X187400000Y-66900000D03*
%TD*%
D12*
%TO.P,J5,1,Pin_1*%
%TO.N,+24V*%
X208500000Y-119250000D03*
D13*
%TO.P,J5,2,Pin_2*%
%TO.N,GND*%
X211000000Y-119250000D03*
%TD*%
D10*
%TO.P,H2,1,1*%
%TO.N,GND*%
X218600000Y-66900000D03*
X219302944Y-65202944D03*
X219302944Y-68597056D03*
X221000000Y-64500000D03*
D11*
X221000000Y-66900000D03*
D10*
X221000000Y-69300000D03*
X222697056Y-65202944D03*
X222697056Y-68597056D03*
X223400000Y-66900000D03*
%TD*%
D14*
%TO.P,J3,1,Pin_1*%
%TO.N,+24V*%
X181025000Y-75250000D03*
D15*
%TO.P,J3,2,Pin_2*%
%TO.N,Sortie-Sol\u00E9noideA*%
X181025000Y-77750000D03*
%TD*%
D10*
%TO.P,H3,1,1*%
%TO.N,GND*%
X218600000Y-116250000D03*
X219302944Y-114552944D03*
X219302944Y-117947056D03*
X221000000Y-113850000D03*
D11*
X221000000Y-116250000D03*
D10*
X221000000Y-118650000D03*
X222697056Y-114552944D03*
X222697056Y-117947056D03*
X223400000Y-116250000D03*
%TD*%
D16*
%TO.P,U5,1,Vin*%
%TO.N,+24V*%
X217750000Y-104480000D03*
%TO.P,U5,2,Gnd*%
%TO.N,GND*%
X220295000Y-104470000D03*
%TO.P,U5,3,Vout*%
%TO.N,/12test*%
X222850000Y-104470000D03*
%TD*%
D10*
%TO.P,H4,1,1*%
%TO.N,GND*%
X182600000Y-116250000D03*
X183302944Y-114552944D03*
X183302944Y-117947056D03*
X185000000Y-113850000D03*
D11*
X185000000Y-116250000D03*
D10*
X185000000Y-118650000D03*
X186697056Y-114552944D03*
X186697056Y-117947056D03*
X187400000Y-116250000D03*
%TD*%
D17*
%TO.P,J1,1,Pin_1*%
%TO.N,Bouton_Actif*%
X210000000Y-62900000D03*
D13*
%TO.P,J1,2,Pin_2*%
%TO.N,GND*%
X207500000Y-62900000D03*
%TD*%
D14*
%TO.P,J4,1,Pin_1*%
%TO.N,+24V*%
X181025000Y-88450000D03*
D15*
%TO.P,J4,2,Pin_2*%
%TO.N,Sortie-Sol\u00E9noideB*%
X181025000Y-90950000D03*
%TD*%
D18*
%TO.N,Net-(Q2-G)*%
X205100000Y-106100000D03*
%TO.N,Net-(Q1-G)*%
X192000000Y-105400000D03*
%TO.N,Net-(Q2-G)*%
X200098252Y-91301748D03*
%TO.N,Net-(Q1-G)*%
X189120000Y-92280000D03*
%TO.N,+24V*%
X225000000Y-92000000D03*
X223000000Y-88000000D03*
X213000000Y-96400000D03*
%TO.N,GND*%
X221780000Y-86025000D03*
X227000000Y-85000000D03*
X210600000Y-96400000D03*
X196000000Y-86000000D03*
X199000000Y-86000000D03*
X227000000Y-91000000D03*
X202200000Y-78400000D03*
X227000000Y-65000000D03*
X190000000Y-64000000D03*
X210000000Y-79900000D03*
X213000000Y-114000000D03*
X223000000Y-72000000D03*
X218100000Y-81400000D03*
X227000000Y-114000000D03*
X189000000Y-93800000D03*
X203000000Y-61000000D03*
X227000000Y-69000000D03*
X227000000Y-88000000D03*
X215000000Y-61000000D03*
X202000000Y-120000000D03*
X205000000Y-84000000D03*
X222300000Y-92100000D03*
X196000000Y-74000000D03*
X227000000Y-72000000D03*
X203000000Y-64000000D03*
X219000000Y-72000000D03*
X227000000Y-111000000D03*
X192000000Y-86000000D03*
X216000000Y-77000000D03*
X216000000Y-112000000D03*
X207800000Y-77800000D03*
X227000000Y-118000000D03*
X223000000Y-61000000D03*
X216000000Y-96000000D03*
X206000000Y-86000000D03*
X216000000Y-119000000D03*
X227000000Y-76000000D03*
X219000000Y-61000000D03*
X215000000Y-72000000D03*
X216000000Y-116000000D03*
X215000000Y-69000000D03*
X192000000Y-81000000D03*
X198000000Y-121000000D03*
X215000000Y-65000000D03*
%TO.N,+3.3V*%
X192300000Y-77400000D03*
X207600000Y-82400000D03*
%TO.N,+12V*%
X222800000Y-97200000D03*
X197000000Y-69000000D03*
%TD*%
D19*
%TO.N,Net-(Q2-G)*%
X205100000Y-106100000D02*
X205200000Y-106200000D01*
X200098252Y-101098252D02*
X205100000Y-106100000D01*
X200098252Y-91301748D02*
X200098252Y-101098252D01*
%TO.N,Net-(Q1-G)*%
X189200000Y-105400000D02*
X192000000Y-105400000D01*
X187000000Y-103200000D02*
X189200000Y-105400000D01*
X189120000Y-92280000D02*
X187000000Y-94400000D01*
X187000000Y-94400000D02*
X187000000Y-103200000D01*
D20*
%TO.N,+24V*%
X223193918Y-98151000D02*
X214751000Y-98151000D01*
X223000000Y-88000000D02*
X223000000Y-90000000D01*
X223000000Y-90000000D02*
X225000000Y-92000000D01*
X225000000Y-96344918D02*
X223193918Y-98151000D01*
X225000000Y-92000000D02*
X225000000Y-96344918D01*
X214751000Y-98151000D02*
X213000000Y-96400000D01*
%TO.N,+3.3V*%
X197300000Y-82400000D02*
X192300000Y-77400000D01*
X207600000Y-82400000D02*
X197300000Y-82400000D01*
%TO.N,+12V*%
X222800000Y-97200000D02*
X222800000Y-94800000D01*
X222800000Y-94800000D02*
X197000000Y-69000000D01*
%TD*%
%TA.AperFunction,Conductor*%
%TO.N,GND*%
G36*
X220011941Y-59500561D02*
G01*
X220602598Y-59519123D01*
X220610340Y-59519610D01*
X221196734Y-59575040D01*
X221204459Y-59576016D01*
X221786188Y-59668153D01*
X221793802Y-59669605D01*
X222368649Y-59798098D01*
X222376172Y-59800031D01*
X222941789Y-59964358D01*
X222949139Y-59966746D01*
X223503338Y-60166270D01*
X223510561Y-60169129D01*
X224048049Y-60401721D01*
X224051113Y-60403047D01*
X224058162Y-60406364D01*
X224582951Y-60673758D01*
X224589777Y-60677511D01*
X225096734Y-60977324D01*
X225103311Y-60981498D01*
X225590446Y-61312555D01*
X225596748Y-61317134D01*
X226062118Y-61678112D01*
X226068121Y-61683077D01*
X226424427Y-61997203D01*
X226505653Y-62068814D01*
X226509940Y-62072593D01*
X226515618Y-62077926D01*
X226932073Y-62494381D01*
X226937406Y-62500059D01*
X227326922Y-62941878D01*
X227331887Y-62947881D01*
X227692865Y-63413251D01*
X227697444Y-63419553D01*
X228028501Y-63906688D01*
X228032675Y-63913265D01*
X228332488Y-64420222D01*
X228336241Y-64427048D01*
X228603635Y-64951837D01*
X228606952Y-64958886D01*
X228840868Y-65499434D01*
X228843735Y-65506676D01*
X229043246Y-66060840D01*
X229045648Y-66068234D01*
X229209965Y-66633816D01*
X229211903Y-66641361D01*
X229340390Y-67216178D01*
X229341849Y-67223830D01*
X229433982Y-67805538D01*
X229434959Y-67813267D01*
X229490388Y-68399643D01*
X229490877Y-68407417D01*
X229509438Y-68998044D01*
X229509499Y-69001967D01*
X229499514Y-113126077D01*
X229499514Y-113126079D01*
X229499511Y-113134794D01*
X229499311Y-113135556D01*
X229499496Y-113199668D01*
X229499496Y-113199858D01*
X229499489Y-113199879D01*
X229499445Y-113203371D01*
X229482527Y-113795168D01*
X229482059Y-113802959D01*
X229428126Y-114390570D01*
X229427168Y-114398315D01*
X229336381Y-114981333D01*
X229334939Y-114989003D01*
X229207648Y-115565202D01*
X229205725Y-115572765D01*
X229042452Y-116139772D01*
X229040058Y-116147200D01*
X228841432Y-116702837D01*
X228838575Y-116710100D01*
X228605390Y-117252139D01*
X228602082Y-117259207D01*
X228335257Y-117785512D01*
X228331510Y-117792358D01*
X228032122Y-118300809D01*
X228027953Y-118307406D01*
X227697155Y-118796044D01*
X227692578Y-118802366D01*
X227331713Y-119269204D01*
X227326749Y-119275225D01*
X226937217Y-119718457D01*
X226931883Y-119724154D01*
X226515252Y-120141993D01*
X226509570Y-120147344D01*
X226067477Y-120538148D01*
X226061471Y-120543130D01*
X225595652Y-120905364D01*
X225589343Y-120909958D01*
X225101690Y-121242150D01*
X225095105Y-121246339D01*
X224587503Y-121547209D01*
X224580668Y-121550975D01*
X224055136Y-121819321D01*
X224048077Y-121822649D01*
X223506729Y-122057396D01*
X223499475Y-122060274D01*
X222944419Y-122260505D01*
X222936998Y-122262921D01*
X222370457Y-122427836D01*
X222362899Y-122429781D01*
X221787084Y-122558736D01*
X221779418Y-122560201D01*
X221196646Y-122652675D01*
X221188904Y-122653655D01*
X220601465Y-122709288D01*
X220593676Y-122709779D01*
X220002890Y-122728378D01*
X219998988Y-122728439D01*
X187000744Y-122728426D01*
X186996850Y-122728365D01*
X186959461Y-122727190D01*
X186407418Y-122709841D01*
X186399644Y-122709352D01*
X185813269Y-122653923D01*
X185805540Y-122652946D01*
X185223833Y-122560813D01*
X185216181Y-122559354D01*
X184641365Y-122430867D01*
X184633820Y-122428929D01*
X184068245Y-122264613D01*
X184060836Y-122262206D01*
X183506676Y-122062696D01*
X183499434Y-122059829D01*
X182958892Y-121825915D01*
X182951843Y-121822598D01*
X182427056Y-121555204D01*
X182420230Y-121551451D01*
X181913274Y-121251638D01*
X181906697Y-121247464D01*
X181419571Y-120916413D01*
X181413268Y-120911834D01*
X181001860Y-120592712D01*
X180947880Y-120550841D01*
X180941881Y-120545878D01*
X180810129Y-120429723D01*
X180500071Y-120156369D01*
X180494393Y-120151036D01*
X180077933Y-119734574D01*
X180072600Y-119728895D01*
X180061344Y-119716127D01*
X179683094Y-119287085D01*
X179678134Y-119281089D01*
X179673585Y-119275225D01*
X179460100Y-119000000D01*
X179317151Y-118815710D01*
X179312572Y-118809408D01*
X179113535Y-118516532D01*
X179068308Y-118449983D01*
X207149500Y-118449983D01*
X207149500Y-120050001D01*
X207149501Y-120050018D01*
X207160000Y-120152796D01*
X207160001Y-120152799D01*
X207194031Y-120255493D01*
X207215186Y-120319334D01*
X207307288Y-120468656D01*
X207431344Y-120592712D01*
X207580666Y-120684814D01*
X207747203Y-120739999D01*
X207849991Y-120750500D01*
X209150008Y-120750499D01*
X209252797Y-120739999D01*
X209419334Y-120684814D01*
X209568656Y-120592712D01*
X209692712Y-120468656D01*
X209784814Y-120319334D01*
X209784814Y-120319331D01*
X209788448Y-120313441D01*
X209840395Y-120266716D01*
X209909358Y-120255493D01*
X209973440Y-120283336D01*
X209981668Y-120290856D01*
X210120535Y-120429723D01*
X210120540Y-120429727D01*
X210292442Y-120554620D01*
X210481782Y-120651095D01*
X210683871Y-120716757D01*
X210750000Y-120727231D01*
X210750000Y-119683012D01*
X210807007Y-119715925D01*
X210934174Y-119750000D01*
X211065826Y-119750000D01*
X211192993Y-119715925D01*
X211250000Y-119683012D01*
X211250000Y-120727230D01*
X211316126Y-120716757D01*
X211316129Y-120716757D01*
X211518217Y-120651095D01*
X211707557Y-120554620D01*
X211879459Y-120429727D01*
X211879464Y-120429723D01*
X212029723Y-120279464D01*
X212029727Y-120279459D01*
X212154620Y-120107557D01*
X212251095Y-119918217D01*
X212316757Y-119716130D01*
X212316757Y-119716127D01*
X212350000Y-119506246D01*
X212350000Y-119500000D01*
X211433012Y-119500000D01*
X211465925Y-119442993D01*
X211500000Y-119315826D01*
X211500000Y-119184174D01*
X211465925Y-119057007D01*
X211433012Y-119000000D01*
X212350000Y-119000000D01*
X212350000Y-118993753D01*
X212316757Y-118783872D01*
X212316757Y-118783869D01*
X212251095Y-118581782D01*
X212154620Y-118392442D01*
X212029727Y-118220540D01*
X212029723Y-118220535D01*
X211879464Y-118070276D01*
X211879459Y-118070272D01*
X211707557Y-117945379D01*
X211518215Y-117848903D01*
X211316124Y-117783241D01*
X211250000Y-117772768D01*
X211250000Y-118816988D01*
X211192993Y-118784075D01*
X211065826Y-118750000D01*
X210934174Y-118750000D01*
X210807007Y-118784075D01*
X210750000Y-118816988D01*
X210750000Y-117772768D01*
X210749999Y-117772768D01*
X210683875Y-117783241D01*
X210481784Y-117848903D01*
X210292442Y-117945379D01*
X210120541Y-118070271D01*
X209981668Y-118209144D01*
X209920345Y-118242628D01*
X209850653Y-118237644D01*
X209794720Y-118195772D01*
X209788448Y-118186558D01*
X209692712Y-118031344D01*
X209568657Y-117907289D01*
X209568656Y-117907288D01*
X209473998Y-117848903D01*
X209419336Y-117815187D01*
X209419331Y-117815185D01*
X209398774Y-117808373D01*
X209252797Y-117760001D01*
X209252795Y-117760000D01*
X209150010Y-117749500D01*
X207849998Y-117749500D01*
X207849981Y-117749501D01*
X207747203Y-117760000D01*
X207747200Y-117760001D01*
X207580668Y-117815185D01*
X207580663Y-117815187D01*
X207431342Y-117907289D01*
X207307289Y-118031342D01*
X207215187Y-118180663D01*
X207215185Y-118180668D01*
X207210180Y-118195772D01*
X207160001Y-118347203D01*
X207160001Y-118347204D01*
X207160000Y-118347204D01*
X207149500Y-118449983D01*
X179068308Y-118449983D01*
X178981517Y-118322273D01*
X178977343Y-118315696D01*
X178677531Y-117808739D01*
X178673778Y-117801913D01*
X178406387Y-117277125D01*
X178403070Y-117270076D01*
X178169155Y-116729528D01*
X178166288Y-116722285D01*
X178160611Y-116706516D01*
X177966782Y-116168133D01*
X177964379Y-116160737D01*
X177960446Y-116147200D01*
X177800055Y-115595124D01*
X177798121Y-115587587D01*
X177793117Y-115565202D01*
X177669638Y-115012778D01*
X177668181Y-115005135D01*
X177665024Y-114985205D01*
X177576049Y-114423424D01*
X177575072Y-114415696D01*
X177572697Y-114390570D01*
X177519643Y-113829304D01*
X177519157Y-113821564D01*
X177500536Y-113228966D01*
X177500534Y-113228966D01*
X177500500Y-113227915D01*
X177500500Y-113163074D01*
X177498077Y-113154034D01*
X177497610Y-113139776D01*
X177497920Y-113138573D01*
X177497543Y-113135704D01*
X177497976Y-106674034D01*
X177498204Y-103264071D01*
X186349499Y-103264071D01*
X186374497Y-103389738D01*
X186374499Y-103389744D01*
X186423534Y-103508125D01*
X186494726Y-103614673D01*
X188785328Y-105905275D01*
X188888228Y-105974030D01*
X188890085Y-105975270D01*
X188891873Y-105976465D01*
X189010256Y-106025501D01*
X189010260Y-106025501D01*
X189010261Y-106025502D01*
X189135928Y-106050500D01*
X189135931Y-106050500D01*
X191325638Y-106050500D01*
X191392677Y-106070185D01*
X191413319Y-106086819D01*
X191425961Y-106099461D01*
X191425965Y-106099464D01*
X191573446Y-106198009D01*
X191573459Y-106198016D01*
X191696363Y-106248923D01*
X191737334Y-106265894D01*
X191737336Y-106265894D01*
X191737341Y-106265896D01*
X191911304Y-106300499D01*
X191911307Y-106300500D01*
X191911309Y-106300500D01*
X192088693Y-106300500D01*
X192088694Y-106300499D01*
X192146682Y-106288964D01*
X192262658Y-106265896D01*
X192262661Y-106265894D01*
X192262666Y-106265894D01*
X192426547Y-106198013D01*
X192574035Y-106099464D01*
X192622999Y-106050500D01*
X192699463Y-105974037D01*
X192699468Y-105974030D01*
X192798009Y-105826553D01*
X192798009Y-105826552D01*
X192798013Y-105826547D01*
X192865894Y-105662666D01*
X192878247Y-105600567D01*
X192900499Y-105488695D01*
X192900500Y-105488693D01*
X192900500Y-105311306D01*
X192900499Y-105311304D01*
X192865896Y-105137341D01*
X192865893Y-105137332D01*
X192863988Y-105132734D01*
X192848923Y-105096363D01*
X192798016Y-104973459D01*
X192798009Y-104973446D01*
X192699464Y-104825965D01*
X192699461Y-104825961D01*
X192574038Y-104700538D01*
X192574034Y-104700535D01*
X192426553Y-104601990D01*
X192426540Y-104601983D01*
X192262667Y-104534106D01*
X192262658Y-104534103D01*
X192088694Y-104499500D01*
X192088691Y-104499500D01*
X191911309Y-104499500D01*
X191911306Y-104499500D01*
X191737341Y-104534103D01*
X191737332Y-104534106D01*
X191573459Y-104601983D01*
X191573446Y-104601990D01*
X191425965Y-104700535D01*
X191425961Y-104700538D01*
X191413319Y-104713181D01*
X191351996Y-104746666D01*
X191325638Y-104749500D01*
X189520808Y-104749500D01*
X189453769Y-104729815D01*
X189433127Y-104713181D01*
X187686819Y-102966873D01*
X187653334Y-102905550D01*
X187650500Y-102879192D01*
X187650500Y-94720808D01*
X187670185Y-94653769D01*
X187686819Y-94633127D01*
X189103127Y-93216819D01*
X189164450Y-93183334D01*
X189190808Y-93180500D01*
X189208693Y-93180500D01*
X189208694Y-93180499D01*
X189266682Y-93168964D01*
X189382658Y-93145896D01*
X189382661Y-93145894D01*
X189382666Y-93145894D01*
X189546547Y-93078013D01*
X189694035Y-92979464D01*
X189819464Y-92854035D01*
X189918013Y-92706547D01*
X189985894Y-92542666D01*
X189987366Y-92535269D01*
X190020499Y-92368695D01*
X190020500Y-92368693D01*
X190020500Y-92191306D01*
X190020499Y-92191304D01*
X189985896Y-92017341D01*
X189985893Y-92017332D01*
X189918016Y-91853459D01*
X189918009Y-91853446D01*
X189819464Y-91705965D01*
X189819461Y-91705961D01*
X189694038Y-91580538D01*
X189694034Y-91580535D01*
X189546553Y-91481990D01*
X189546540Y-91481983D01*
X189382667Y-91414106D01*
X189382658Y-91414103D01*
X189208694Y-91379500D01*
X189208691Y-91379500D01*
X189031309Y-91379500D01*
X189031306Y-91379500D01*
X188857341Y-91414103D01*
X188857332Y-91414106D01*
X188693459Y-91481983D01*
X188693446Y-91481990D01*
X188545965Y-91580535D01*
X188545961Y-91580538D01*
X188420538Y-91705961D01*
X188420535Y-91705965D01*
X188321990Y-91853446D01*
X188321983Y-91853459D01*
X188254106Y-92017332D01*
X188254103Y-92017341D01*
X188219500Y-92191304D01*
X188219500Y-92209191D01*
X188199815Y-92276230D01*
X188183181Y-92296872D01*
X186494727Y-93985325D01*
X186494721Y-93985332D01*
X186432575Y-94078340D01*
X186432576Y-94078341D01*
X186423535Y-94091871D01*
X186374499Y-94210255D01*
X186374497Y-94210261D01*
X186349500Y-94335928D01*
X186349500Y-94335931D01*
X186349500Y-103264069D01*
X186349500Y-103264071D01*
X186349499Y-103264071D01*
X177498204Y-103264071D01*
X177499240Y-87799983D01*
X179524500Y-87799983D01*
X179524500Y-89100001D01*
X179524501Y-89100018D01*
X179535000Y-89202796D01*
X179535001Y-89202799D01*
X179590185Y-89369331D01*
X179590187Y-89369336D01*
X179682289Y-89518657D01*
X179806344Y-89642712D01*
X179961120Y-89738178D01*
X180007845Y-89790126D01*
X180019068Y-89859088D01*
X179991224Y-89923171D01*
X179983706Y-89931398D01*
X179844889Y-90070215D01*
X179719951Y-90242179D01*
X179623444Y-90431585D01*
X179557753Y-90633760D01*
X179524500Y-90843713D01*
X179524500Y-91056286D01*
X179557753Y-91266239D01*
X179557753Y-91266241D01*
X179557754Y-91266243D01*
X179598109Y-91390443D01*
X179623444Y-91468414D01*
X179719951Y-91657820D01*
X179844890Y-91829786D01*
X179995213Y-91980109D01*
X180167179Y-92105048D01*
X180167181Y-92105049D01*
X180167184Y-92105051D01*
X180356588Y-92201557D01*
X180558757Y-92267246D01*
X180768713Y-92300500D01*
X180768714Y-92300500D01*
X181281286Y-92300500D01*
X181281287Y-92300500D01*
X181491243Y-92267246D01*
X181693412Y-92201557D01*
X181882816Y-92105051D01*
X181905334Y-92088691D01*
X182054786Y-91980109D01*
X182054788Y-91980106D01*
X182054792Y-91980104D01*
X182205104Y-91829792D01*
X182205106Y-91829788D01*
X182205109Y-91829786D01*
X182330048Y-91657820D01*
X182330047Y-91657820D01*
X182330051Y-91657816D01*
X182426557Y-91468412D01*
X182492246Y-91266243D01*
X182500671Y-91213052D01*
X199197752Y-91213052D01*
X199197752Y-91390443D01*
X199232355Y-91564406D01*
X199232358Y-91564415D01*
X199300235Y-91728288D01*
X199300242Y-91728301D01*
X199398786Y-91875781D01*
X199398787Y-91875782D01*
X199398788Y-91875783D01*
X199411432Y-91888427D01*
X199444917Y-91949747D01*
X199447752Y-91976109D01*
X199447752Y-101162321D01*
X199447752Y-101162323D01*
X199447751Y-101162323D01*
X199472749Y-101287990D01*
X199472751Y-101287996D01*
X199521786Y-101406377D01*
X199592978Y-101512925D01*
X199592979Y-101512926D01*
X204163181Y-106083127D01*
X204196666Y-106144450D01*
X204199500Y-106170808D01*
X204199500Y-106188695D01*
X204234103Y-106362658D01*
X204234106Y-106362667D01*
X204301983Y-106526540D01*
X204301990Y-106526553D01*
X204400535Y-106674034D01*
X204400538Y-106674038D01*
X204525961Y-106799461D01*
X204525965Y-106799464D01*
X204673446Y-106898009D01*
X204673459Y-106898016D01*
X204796363Y-106948923D01*
X204837334Y-106965894D01*
X204837336Y-106965894D01*
X204837341Y-106965896D01*
X205011304Y-107000499D01*
X205011307Y-107000500D01*
X205011309Y-107000500D01*
X205188693Y-107000500D01*
X205188694Y-107000499D01*
X205246682Y-106988964D01*
X205362658Y-106965896D01*
X205362661Y-106965894D01*
X205362666Y-106965894D01*
X205526547Y-106898013D01*
X205674035Y-106799464D01*
X205799464Y-106674035D01*
X205898013Y-106526547D01*
X205965894Y-106362666D01*
X205985144Y-106265893D01*
X205998646Y-106198013D01*
X206000500Y-106188691D01*
X206000500Y-106011309D01*
X206000500Y-106011306D01*
X206000499Y-106011304D01*
X205965896Y-105837341D01*
X205965893Y-105837332D01*
X205898016Y-105673459D01*
X205898009Y-105673446D01*
X205799464Y-105525965D01*
X205799461Y-105525961D01*
X205674038Y-105400538D01*
X205674034Y-105400535D01*
X205526553Y-105301990D01*
X205526540Y-105301983D01*
X205362667Y-105234106D01*
X205362658Y-105234103D01*
X205188694Y-105199500D01*
X205188691Y-105199500D01*
X205170808Y-105199500D01*
X205103769Y-105179815D01*
X205083127Y-105163181D01*
X204343160Y-104423214D01*
X216449500Y-104423214D01*
X216449500Y-104536785D01*
X216464364Y-104706687D01*
X216464366Y-104706697D01*
X216523258Y-104926488D01*
X216523261Y-104926497D01*
X216619431Y-105132732D01*
X216619432Y-105132734D01*
X216749954Y-105319141D01*
X216910858Y-105480045D01*
X216910861Y-105480047D01*
X217097266Y-105610568D01*
X217303504Y-105706739D01*
X217523308Y-105765635D01*
X217693214Y-105780499D01*
X217693215Y-105780500D01*
X217693216Y-105780500D01*
X217806785Y-105780500D01*
X217806785Y-105780499D01*
X217976692Y-105765635D01*
X218196496Y-105706739D01*
X218402734Y-105610568D01*
X218589139Y-105480047D01*
X218750047Y-105319139D01*
X218880568Y-105132734D01*
X218912725Y-105063772D01*
X218958897Y-105011333D01*
X219026090Y-104992181D01*
X219092972Y-105012397D01*
X219137489Y-105063772D01*
X219164866Y-105122482D01*
X219295342Y-105308820D01*
X219456179Y-105469657D01*
X219642517Y-105600134D01*
X219848673Y-105696265D01*
X219848682Y-105696269D01*
X220044999Y-105748872D01*
X220045000Y-105748871D01*
X220045000Y-104903012D01*
X220102007Y-104935925D01*
X220229174Y-104970000D01*
X220360826Y-104970000D01*
X220487993Y-104935925D01*
X220545000Y-104903012D01*
X220545000Y-105748872D01*
X220741317Y-105696269D01*
X220741326Y-105696265D01*
X220947482Y-105600134D01*
X221133820Y-105469657D01*
X221294657Y-105308820D01*
X221425134Y-105122481D01*
X221425135Y-105122479D01*
X221459842Y-105048051D01*
X221506014Y-104995611D01*
X221573207Y-104976459D01*
X221640088Y-104996674D01*
X221684606Y-105048050D01*
X221719431Y-105122732D01*
X221719432Y-105122734D01*
X221849954Y-105309141D01*
X222010858Y-105470045D01*
X222010861Y-105470047D01*
X222197266Y-105600568D01*
X222403504Y-105696739D01*
X222623308Y-105755635D01*
X222793214Y-105770499D01*
X222793215Y-105770500D01*
X222793216Y-105770500D01*
X222906785Y-105770500D01*
X222906785Y-105770499D01*
X223076692Y-105755635D01*
X223296496Y-105696739D01*
X223502734Y-105600568D01*
X223689139Y-105470047D01*
X223850047Y-105309139D01*
X223980568Y-105122734D01*
X224076739Y-104916496D01*
X224135635Y-104696692D01*
X224150500Y-104526784D01*
X224150500Y-104413216D01*
X224135635Y-104243308D01*
X224079420Y-104033511D01*
X224076741Y-104023511D01*
X224076738Y-104023502D01*
X224067679Y-104004075D01*
X223980568Y-103817266D01*
X223850047Y-103630861D01*
X223850045Y-103630858D01*
X223689141Y-103469954D01*
X223502734Y-103339432D01*
X223502732Y-103339431D01*
X223296497Y-103243261D01*
X223296488Y-103243258D01*
X223076697Y-103184366D01*
X223076687Y-103184364D01*
X222906785Y-103169500D01*
X222906784Y-103169500D01*
X222793216Y-103169500D01*
X222793215Y-103169500D01*
X222623312Y-103184364D01*
X222623302Y-103184366D01*
X222403511Y-103243258D01*
X222403502Y-103243261D01*
X222197267Y-103339431D01*
X222197265Y-103339432D01*
X222010858Y-103469954D01*
X221849954Y-103630858D01*
X221719433Y-103817264D01*
X221684606Y-103891950D01*
X221638433Y-103944389D01*
X221571239Y-103963540D01*
X221504358Y-103943324D01*
X221459842Y-103891949D01*
X221425134Y-103817517D01*
X221294657Y-103631179D01*
X221133820Y-103470342D01*
X220947482Y-103339865D01*
X220741328Y-103243734D01*
X220545000Y-103191127D01*
X220545000Y-104036988D01*
X220487993Y-104004075D01*
X220360826Y-103970000D01*
X220229174Y-103970000D01*
X220102007Y-104004075D01*
X220045000Y-104036988D01*
X220045000Y-103191127D01*
X219848671Y-103243734D01*
X219642517Y-103339865D01*
X219456179Y-103470342D01*
X219295342Y-103631179D01*
X219164865Y-103817517D01*
X219132826Y-103886227D01*
X219086653Y-103938666D01*
X219019460Y-103957818D01*
X218952579Y-103937602D01*
X218908062Y-103886227D01*
X218880568Y-103827267D01*
X218880567Y-103827265D01*
X218873741Y-103817517D01*
X218750047Y-103640861D01*
X218750045Y-103640858D01*
X218589141Y-103479954D01*
X218402734Y-103349432D01*
X218402732Y-103349431D01*
X218196497Y-103253261D01*
X218196488Y-103253258D01*
X217976697Y-103194366D01*
X217976687Y-103194364D01*
X217806785Y-103179500D01*
X217806784Y-103179500D01*
X217693216Y-103179500D01*
X217693215Y-103179500D01*
X217523312Y-103194364D01*
X217523302Y-103194366D01*
X217303511Y-103253258D01*
X217303502Y-103253261D01*
X217097267Y-103349431D01*
X217097265Y-103349432D01*
X216910858Y-103479954D01*
X216749954Y-103640858D01*
X216619432Y-103827265D01*
X216619431Y-103827267D01*
X216523261Y-104033502D01*
X216523258Y-104033511D01*
X216464366Y-104253302D01*
X216464364Y-104253312D01*
X216449500Y-104423214D01*
X204343160Y-104423214D01*
X200785071Y-100865125D01*
X200751586Y-100803802D01*
X200748752Y-100777444D01*
X200748752Y-91976109D01*
X200768437Y-91909070D01*
X200785068Y-91888430D01*
X200797716Y-91875783D01*
X200896265Y-91728295D01*
X200964146Y-91564414D01*
X200998752Y-91390439D01*
X200998752Y-91213057D01*
X200998752Y-91213054D01*
X200998751Y-91213052D01*
X200964148Y-91039089D01*
X200964145Y-91039080D01*
X200896268Y-90875207D01*
X200896261Y-90875194D01*
X200797716Y-90727713D01*
X200797713Y-90727709D01*
X200672290Y-90602286D01*
X200672286Y-90602283D01*
X200524805Y-90503738D01*
X200524792Y-90503731D01*
X200360919Y-90435854D01*
X200360910Y-90435851D01*
X200186946Y-90401248D01*
X200186943Y-90401248D01*
X200009561Y-90401248D01*
X200009558Y-90401248D01*
X199835593Y-90435851D01*
X199835584Y-90435854D01*
X199671711Y-90503731D01*
X199671698Y-90503738D01*
X199524217Y-90602283D01*
X199524213Y-90602286D01*
X199398790Y-90727709D01*
X199398787Y-90727713D01*
X199300242Y-90875194D01*
X199300235Y-90875207D01*
X199232358Y-91039080D01*
X199232355Y-91039089D01*
X199197752Y-91213052D01*
X182500671Y-91213052D01*
X182525500Y-91056287D01*
X182525500Y-90843713D01*
X182492246Y-90633757D01*
X182426557Y-90431588D01*
X182330051Y-90242184D01*
X182330049Y-90242181D01*
X182330048Y-90242179D01*
X182205109Y-90070213D01*
X182066294Y-89931398D01*
X182032809Y-89870075D01*
X182037793Y-89800383D01*
X182079665Y-89744450D01*
X182088879Y-89738178D01*
X182094331Y-89734814D01*
X182094334Y-89734814D01*
X182243656Y-89642712D01*
X182367712Y-89518656D01*
X182459814Y-89369334D01*
X182514999Y-89202797D01*
X182525500Y-89100009D01*
X182525499Y-87799992D01*
X182514999Y-87697203D01*
X182459814Y-87530666D01*
X182367712Y-87381344D01*
X182243656Y-87257288D01*
X182094334Y-87165186D01*
X181927797Y-87110001D01*
X181927795Y-87110000D01*
X181825010Y-87099500D01*
X180224998Y-87099500D01*
X180224981Y-87099501D01*
X180122203Y-87110000D01*
X180122200Y-87110001D01*
X179955668Y-87165185D01*
X179955663Y-87165187D01*
X179806342Y-87257289D01*
X179682289Y-87381342D01*
X179590187Y-87530663D01*
X179590186Y-87530666D01*
X179535001Y-87697203D01*
X179535001Y-87697204D01*
X179535000Y-87697204D01*
X179524500Y-87799983D01*
X177499240Y-87799983D01*
X177500124Y-74599983D01*
X179524500Y-74599983D01*
X179524500Y-75900001D01*
X179524501Y-75900018D01*
X179535000Y-76002796D01*
X179535001Y-76002799D01*
X179590185Y-76169331D01*
X179590187Y-76169336D01*
X179682289Y-76318657D01*
X179806344Y-76442712D01*
X179961120Y-76538178D01*
X180007845Y-76590126D01*
X180019068Y-76659088D01*
X179991224Y-76723171D01*
X179983706Y-76731398D01*
X179844889Y-76870215D01*
X179719951Y-77042179D01*
X179623444Y-77231585D01*
X179557753Y-77433760D01*
X179524500Y-77643713D01*
X179524500Y-77856286D01*
X179543149Y-77974035D01*
X179557754Y-78066243D01*
X179568548Y-78099464D01*
X179623444Y-78268414D01*
X179719951Y-78457820D01*
X179844890Y-78629786D01*
X179995213Y-78780109D01*
X180167179Y-78905048D01*
X180167181Y-78905049D01*
X180167184Y-78905051D01*
X180356588Y-79001557D01*
X180558757Y-79067246D01*
X180768713Y-79100500D01*
X180768714Y-79100500D01*
X181281286Y-79100500D01*
X181281287Y-79100500D01*
X181491243Y-79067246D01*
X181693412Y-79001557D01*
X181882816Y-78905051D01*
X181904789Y-78889086D01*
X182054786Y-78780109D01*
X182054788Y-78780106D01*
X182054792Y-78780104D01*
X182205104Y-78629792D01*
X182205106Y-78629788D01*
X182205109Y-78629786D01*
X182330048Y-78457820D01*
X182330047Y-78457820D01*
X182330051Y-78457816D01*
X182426557Y-78268412D01*
X182492246Y-78066243D01*
X182525500Y-77856287D01*
X182525500Y-77643713D01*
X182492246Y-77433757D01*
X182452458Y-77311304D01*
X191399500Y-77311304D01*
X191399500Y-77488695D01*
X191434103Y-77662658D01*
X191434106Y-77662667D01*
X191501983Y-77826540D01*
X191501990Y-77826553D01*
X191600535Y-77974034D01*
X191600538Y-77974038D01*
X191725961Y-78099461D01*
X191725965Y-78099464D01*
X191873446Y-78198009D01*
X191873459Y-78198016D01*
X191950106Y-78229763D01*
X192037334Y-78265894D01*
X192084318Y-78275239D01*
X192146227Y-78307622D01*
X192147807Y-78309175D01*
X196821578Y-82982947D01*
X196821585Y-82982953D01*
X196879704Y-83021786D01*
X196879706Y-83021787D01*
X196879709Y-83021789D01*
X196944505Y-83065084D01*
X196944506Y-83065084D01*
X196944507Y-83065085D01*
X197027506Y-83099464D01*
X197081087Y-83121658D01*
X197081091Y-83121658D01*
X197081092Y-83121659D01*
X197226079Y-83150500D01*
X197226082Y-83150500D01*
X197226083Y-83150500D01*
X197373918Y-83150500D01*
X207064730Y-83150500D01*
X207131769Y-83170185D01*
X207133622Y-83171399D01*
X207173447Y-83198010D01*
X207173450Y-83198011D01*
X207173453Y-83198013D01*
X207337334Y-83265894D01*
X207337336Y-83265894D01*
X207337341Y-83265896D01*
X207511304Y-83300499D01*
X207511307Y-83300500D01*
X207511309Y-83300500D01*
X207688693Y-83300500D01*
X207688694Y-83300499D01*
X207746682Y-83288964D01*
X207862658Y-83265896D01*
X207862661Y-83265894D01*
X207862666Y-83265894D01*
X208026547Y-83198013D01*
X208174035Y-83099464D01*
X208299464Y-82974035D01*
X208398013Y-82826547D01*
X208465894Y-82662666D01*
X208500500Y-82488691D01*
X208500500Y-82311309D01*
X208500500Y-82311306D01*
X208500499Y-82311304D01*
X208465896Y-82137341D01*
X208465893Y-82137332D01*
X208398016Y-81973459D01*
X208398009Y-81973446D01*
X208299464Y-81825965D01*
X208299461Y-81825961D01*
X208174038Y-81700538D01*
X208174034Y-81700535D01*
X208026553Y-81601990D01*
X208026540Y-81601983D01*
X207862667Y-81534106D01*
X207862658Y-81534103D01*
X207688694Y-81499500D01*
X207688691Y-81499500D01*
X207511309Y-81499500D01*
X207511306Y-81499500D01*
X207337341Y-81534103D01*
X207337332Y-81534106D01*
X207173452Y-81601987D01*
X207173447Y-81601989D01*
X207133622Y-81628601D01*
X207066945Y-81649480D01*
X207064730Y-81649500D01*
X197662230Y-81649500D01*
X197595191Y-81629815D01*
X197574549Y-81613181D01*
X193209175Y-77247807D01*
X193175690Y-77186484D01*
X193175262Y-77184432D01*
X193165894Y-77137334D01*
X193126480Y-77042179D01*
X193098016Y-76973459D01*
X193098009Y-76973446D01*
X192999464Y-76825965D01*
X192999461Y-76825961D01*
X192874038Y-76700538D01*
X192874034Y-76700535D01*
X192726553Y-76601990D01*
X192726540Y-76601983D01*
X192562667Y-76534106D01*
X192562658Y-76534103D01*
X192388694Y-76499500D01*
X192388691Y-76499500D01*
X192211309Y-76499500D01*
X192211306Y-76499500D01*
X192037341Y-76534103D01*
X192037332Y-76534106D01*
X191873459Y-76601983D01*
X191873446Y-76601990D01*
X191725965Y-76700535D01*
X191725961Y-76700538D01*
X191600538Y-76825961D01*
X191600535Y-76825965D01*
X191501990Y-76973446D01*
X191501983Y-76973459D01*
X191434106Y-77137332D01*
X191434103Y-77137341D01*
X191399500Y-77311304D01*
X182452458Y-77311304D01*
X182426557Y-77231588D01*
X182426555Y-77231585D01*
X182426555Y-77231583D01*
X182330048Y-77042179D01*
X182205109Y-76870213D01*
X182066294Y-76731398D01*
X182032809Y-76670075D01*
X182037793Y-76600383D01*
X182079665Y-76544450D01*
X182088879Y-76538178D01*
X182094331Y-76534814D01*
X182094334Y-76534814D01*
X182243656Y-76442712D01*
X182367712Y-76318656D01*
X182459814Y-76169334D01*
X182514999Y-76002797D01*
X182525500Y-75900009D01*
X182525499Y-74599992D01*
X182514999Y-74497203D01*
X182459814Y-74330666D01*
X182367712Y-74181344D01*
X182243656Y-74057288D01*
X182094334Y-73965186D01*
X181927797Y-73910001D01*
X181927795Y-73910000D01*
X181825010Y-73899500D01*
X180224998Y-73899500D01*
X180224981Y-73899501D01*
X180122203Y-73910000D01*
X180122200Y-73910001D01*
X179955668Y-73965185D01*
X179955663Y-73965187D01*
X179806342Y-74057289D01*
X179682289Y-74181342D01*
X179590187Y-74330663D01*
X179590186Y-74330666D01*
X179535001Y-74497203D01*
X179535001Y-74497204D01*
X179535000Y-74497204D01*
X179524500Y-74599983D01*
X177500124Y-74599983D01*
X177500495Y-69051966D01*
X177500500Y-69051949D01*
X177500500Y-68987999D01*
X177500561Y-68984115D01*
X177502849Y-68911304D01*
X196099500Y-68911304D01*
X196099500Y-69088695D01*
X196134103Y-69262658D01*
X196134106Y-69262667D01*
X196201983Y-69426540D01*
X196201990Y-69426553D01*
X196300535Y-69574034D01*
X196300538Y-69574038D01*
X196425961Y-69699461D01*
X196425965Y-69699464D01*
X196573446Y-69798009D01*
X196573459Y-69798016D01*
X196650106Y-69829763D01*
X196737334Y-69865894D01*
X196784318Y-69875239D01*
X196846227Y-69907622D01*
X196847807Y-69909175D01*
X222013181Y-95074549D01*
X222046666Y-95135872D01*
X222049500Y-95162230D01*
X222049500Y-96664729D01*
X222029815Y-96731768D01*
X222028602Y-96733620D01*
X222001988Y-96773449D01*
X222001987Y-96773452D01*
X221934106Y-96937332D01*
X221934103Y-96937341D01*
X221899500Y-97111304D01*
X221899500Y-97276500D01*
X221879815Y-97343539D01*
X221827011Y-97389294D01*
X221775500Y-97400500D01*
X215113230Y-97400500D01*
X215046191Y-97380815D01*
X215025549Y-97364181D01*
X213909175Y-96247807D01*
X213875690Y-96186484D01*
X213875262Y-96184432D01*
X213865894Y-96137334D01*
X213801838Y-95982687D01*
X213798016Y-95973459D01*
X213798009Y-95973446D01*
X213699464Y-95825965D01*
X213699461Y-95825961D01*
X213574038Y-95700538D01*
X213574034Y-95700535D01*
X213426553Y-95601990D01*
X213426540Y-95601983D01*
X213262667Y-95534106D01*
X213262658Y-95534103D01*
X213088694Y-95499500D01*
X213088691Y-95499500D01*
X212911309Y-95499500D01*
X212911306Y-95499500D01*
X212737341Y-95534103D01*
X212737332Y-95534106D01*
X212573459Y-95601983D01*
X212573446Y-95601990D01*
X212425965Y-95700535D01*
X212425961Y-95700538D01*
X212300538Y-95825961D01*
X212300535Y-95825965D01*
X212201990Y-95973446D01*
X212201983Y-95973459D01*
X212134106Y-96137332D01*
X212134103Y-96137341D01*
X212099500Y-96311304D01*
X212099500Y-96488695D01*
X212134103Y-96662658D01*
X212134106Y-96662667D01*
X212201983Y-96826540D01*
X212201990Y-96826553D01*
X212300535Y-96974034D01*
X212300538Y-96974038D01*
X212425961Y-97099461D01*
X212425965Y-97099464D01*
X212573446Y-97198009D01*
X212573459Y-97198016D01*
X212650106Y-97229763D01*
X212737334Y-97265894D01*
X212784318Y-97275239D01*
X212846227Y-97307622D01*
X212847807Y-97309175D01*
X214272586Y-98733954D01*
X214302058Y-98753645D01*
X214346270Y-98783186D01*
X214395505Y-98816084D01*
X214395506Y-98816084D01*
X214395507Y-98816085D01*
X214395509Y-98816086D01*
X214532082Y-98872656D01*
X214532087Y-98872658D01*
X214532091Y-98872658D01*
X214532092Y-98872659D01*
X214677079Y-98901500D01*
X214677082Y-98901500D01*
X223267838Y-98901500D01*
X223365380Y-98882096D01*
X223412831Y-98872658D01*
X223549413Y-98816084D01*
X223598647Y-98783186D01*
X223598652Y-98783183D01*
X223622989Y-98766921D01*
X223672334Y-98733952D01*
X225582952Y-96823333D01*
X225628280Y-96755494D01*
X225665084Y-96700413D01*
X225688518Y-96643838D01*
X225721659Y-96563830D01*
X225750500Y-96418835D01*
X225750500Y-96271000D01*
X225750500Y-92535269D01*
X225770185Y-92468230D01*
X225771398Y-92466378D01*
X225798013Y-92426547D01*
X225865894Y-92262666D01*
X225866315Y-92260554D01*
X225900499Y-92088695D01*
X225900500Y-92088693D01*
X225900500Y-91911306D01*
X225900499Y-91911304D01*
X225865896Y-91737341D01*
X225865893Y-91737332D01*
X225798016Y-91573459D01*
X225798009Y-91573446D01*
X225699464Y-91425965D01*
X225699461Y-91425961D01*
X225574038Y-91300538D01*
X225574034Y-91300535D01*
X225426553Y-91201990D01*
X225426540Y-91201983D01*
X225262670Y-91134107D01*
X225262660Y-91134104D01*
X225215679Y-91124759D01*
X225153768Y-91092374D01*
X225152190Y-91090823D01*
X223786819Y-89725451D01*
X223753334Y-89664128D01*
X223750500Y-89637770D01*
X223750500Y-88535269D01*
X223770185Y-88468230D01*
X223771398Y-88466378D01*
X223798013Y-88426547D01*
X223865894Y-88262666D01*
X223900500Y-88088691D01*
X223900500Y-87911309D01*
X223900500Y-87911306D01*
X223900499Y-87911304D01*
X223865896Y-87737341D01*
X223865893Y-87737332D01*
X223798016Y-87573459D01*
X223798009Y-87573446D01*
X223699464Y-87425965D01*
X223699461Y-87425961D01*
X223574038Y-87300538D01*
X223574034Y-87300535D01*
X223426553Y-87201990D01*
X223426540Y-87201983D01*
X223262667Y-87134106D01*
X223262658Y-87134103D01*
X223088694Y-87099500D01*
X223088691Y-87099500D01*
X222911309Y-87099500D01*
X222911306Y-87099500D01*
X222737341Y-87134103D01*
X222737332Y-87134106D01*
X222573459Y-87201983D01*
X222573446Y-87201990D01*
X222425965Y-87300535D01*
X222425961Y-87300538D01*
X222300538Y-87425961D01*
X222300535Y-87425965D01*
X222201990Y-87573446D01*
X222201983Y-87573459D01*
X222134106Y-87737332D01*
X222134103Y-87737341D01*
X222099500Y-87911304D01*
X222099500Y-88088695D01*
X222134103Y-88262658D01*
X222134106Y-88262667D01*
X222201984Y-88426542D01*
X222201985Y-88426543D01*
X222201987Y-88426547D01*
X222228602Y-88466378D01*
X222249480Y-88533055D01*
X222249500Y-88535269D01*
X222249500Y-90073918D01*
X222249500Y-90073920D01*
X222249499Y-90073920D01*
X222278340Y-90218907D01*
X222278343Y-90218917D01*
X222334914Y-90355492D01*
X222365486Y-90401246D01*
X222365487Y-90401249D01*
X222417046Y-90478414D01*
X222417052Y-90478421D01*
X224090823Y-92152190D01*
X224124308Y-92213513D01*
X224124759Y-92215679D01*
X224134104Y-92262660D01*
X224134107Y-92262670D01*
X224201984Y-92426542D01*
X224201985Y-92426543D01*
X224201987Y-92426547D01*
X224228602Y-92466378D01*
X224249480Y-92533055D01*
X224249500Y-92535269D01*
X224249500Y-95982687D01*
X224229815Y-96049726D01*
X224213181Y-96070368D01*
X223762181Y-96521368D01*
X223700858Y-96554853D01*
X223631166Y-96549869D01*
X223575233Y-96507997D01*
X223550816Y-96442533D01*
X223550500Y-96433687D01*
X223550500Y-94726079D01*
X223521659Y-94581092D01*
X223521658Y-94581091D01*
X223521658Y-94581087D01*
X223465084Y-94444505D01*
X223432186Y-94395270D01*
X223432185Y-94395268D01*
X223382956Y-94321589D01*
X223382952Y-94321584D01*
X197909175Y-68847807D01*
X197875690Y-68786484D01*
X197875262Y-68784432D01*
X197865894Y-68737334D01*
X197837667Y-68669187D01*
X197798016Y-68573459D01*
X197798009Y-68573446D01*
X197699464Y-68425965D01*
X197699461Y-68425961D01*
X197574038Y-68300538D01*
X197574034Y-68300535D01*
X197426553Y-68201990D01*
X197426540Y-68201983D01*
X197262667Y-68134106D01*
X197262658Y-68134103D01*
X197088694Y-68099500D01*
X197088691Y-68099500D01*
X196911309Y-68099500D01*
X196911306Y-68099500D01*
X196737341Y-68134103D01*
X196737332Y-68134106D01*
X196573459Y-68201983D01*
X196573446Y-68201990D01*
X196425965Y-68300535D01*
X196425961Y-68300538D01*
X196300538Y-68425961D01*
X196300535Y-68425965D01*
X196201990Y-68573446D01*
X196201983Y-68573459D01*
X196134106Y-68737332D01*
X196134103Y-68737341D01*
X196099500Y-68911304D01*
X177502849Y-68911304D01*
X177503163Y-68901322D01*
X177508316Y-68737341D01*
X177519096Y-68394332D01*
X177519582Y-68386596D01*
X177574932Y-67801062D01*
X177575908Y-67793343D01*
X177667908Y-67212475D01*
X177669358Y-67204873D01*
X177797663Y-66630867D01*
X177799592Y-66623359D01*
X177963671Y-66058594D01*
X177966075Y-66051198D01*
X178165288Y-65497862D01*
X178168147Y-65490639D01*
X178401727Y-64950866D01*
X178405030Y-64943846D01*
X178672040Y-64419811D01*
X178675780Y-64413009D01*
X178975163Y-63906779D01*
X178979318Y-63900232D01*
X179309901Y-63413794D01*
X179314466Y-63407512D01*
X179400838Y-63296162D01*
X179674938Y-62942795D01*
X179679866Y-62936837D01*
X179938254Y-62643753D01*
X206150000Y-62643753D01*
X206150000Y-62650000D01*
X207066988Y-62650000D01*
X207034075Y-62707007D01*
X207000000Y-62834174D01*
X207000000Y-62965826D01*
X207034075Y-63092993D01*
X207066988Y-63150000D01*
X206150000Y-63150000D01*
X206150000Y-63156246D01*
X206183242Y-63366127D01*
X206183242Y-63366130D01*
X206248904Y-63568217D01*
X206345379Y-63757557D01*
X206470272Y-63929459D01*
X206470276Y-63929464D01*
X206620535Y-64079723D01*
X206620540Y-64079727D01*
X206792442Y-64204620D01*
X206981782Y-64301095D01*
X207183871Y-64366757D01*
X207250000Y-64377231D01*
X207250000Y-63333012D01*
X207307007Y-63365925D01*
X207434174Y-63400000D01*
X207565826Y-63400000D01*
X207692993Y-63365925D01*
X207750000Y-63333012D01*
X207750000Y-64377230D01*
X207816126Y-64366757D01*
X207816129Y-64366757D01*
X208018217Y-64301095D01*
X208207557Y-64204620D01*
X208379458Y-64079728D01*
X208518330Y-63940856D01*
X208579653Y-63907371D01*
X208649345Y-63912355D01*
X208705279Y-63954226D01*
X208711551Y-63963440D01*
X208715185Y-63969331D01*
X208715186Y-63969334D01*
X208807288Y-64118656D01*
X208931344Y-64242712D01*
X209080666Y-64334814D01*
X209247203Y-64389999D01*
X209349991Y-64400500D01*
X210650008Y-64400499D01*
X210752797Y-64389999D01*
X210919334Y-64334814D01*
X211068656Y-64242712D01*
X211192712Y-64118656D01*
X211284814Y-63969334D01*
X211339999Y-63802797D01*
X211350500Y-63700009D01*
X211350499Y-62099992D01*
X211339999Y-61997203D01*
X211284814Y-61830666D01*
X211192712Y-61681344D01*
X211068656Y-61557288D01*
X210919334Y-61465186D01*
X210752797Y-61410001D01*
X210752795Y-61410000D01*
X210650010Y-61399500D01*
X209349998Y-61399500D01*
X209349981Y-61399501D01*
X209247203Y-61410000D01*
X209247200Y-61410001D01*
X209080668Y-61465185D01*
X209080663Y-61465187D01*
X208931342Y-61557289D01*
X208807289Y-61681342D01*
X208711551Y-61836559D01*
X208659603Y-61883283D01*
X208590640Y-61894506D01*
X208526558Y-61866662D01*
X208518331Y-61859143D01*
X208379464Y-61720276D01*
X208379459Y-61720272D01*
X208207557Y-61595379D01*
X208018215Y-61498903D01*
X207816124Y-61433241D01*
X207750000Y-61422768D01*
X207750000Y-62466988D01*
X207692993Y-62434075D01*
X207565826Y-62400000D01*
X207434174Y-62400000D01*
X207307007Y-62434075D01*
X207250000Y-62466988D01*
X207250000Y-61422768D01*
X207249999Y-61422768D01*
X207183875Y-61433241D01*
X206981784Y-61498903D01*
X206792442Y-61595379D01*
X206620540Y-61720272D01*
X206620535Y-61720276D01*
X206470276Y-61870535D01*
X206470272Y-61870540D01*
X206345379Y-62042442D01*
X206248904Y-62231782D01*
X206183242Y-62433869D01*
X206183242Y-62433872D01*
X206150000Y-62643753D01*
X179938254Y-62643753D01*
X180068829Y-62495644D01*
X180074131Y-62489999D01*
X180489999Y-62074131D01*
X180495644Y-62068829D01*
X180936837Y-61679866D01*
X180942795Y-61674938D01*
X181407531Y-61314451D01*
X181413794Y-61309901D01*
X181900232Y-60979318D01*
X181906779Y-60975163D01*
X182413009Y-60675780D01*
X182419811Y-60672040D01*
X182943846Y-60405030D01*
X182950866Y-60401727D01*
X183490639Y-60168147D01*
X183497852Y-60165291D01*
X184051199Y-59966074D01*
X184058594Y-59963671D01*
X184623359Y-59799592D01*
X184630867Y-59797663D01*
X185204873Y-59669358D01*
X185212475Y-59667908D01*
X185793349Y-59575907D01*
X185801062Y-59574932D01*
X186386596Y-59519582D01*
X186394332Y-59519096D01*
X186984116Y-59500561D01*
X186988011Y-59500500D01*
X187051949Y-59500500D01*
X219944108Y-59500500D01*
X220008046Y-59500500D01*
X220011941Y-59500561D01*
G37*
%TD.AperFunction*%
%TD*%
M02*
