M48
; DRILL file {KiCad 9.0.4} date 2025-11-05T15:35:13+0100
; FORMAT={-:-/ absolute / inch / decimal}
; #@! TF.CreationDate,2025-11-05T15:35:13+01:00
; #@! TF.GenerationSoftware,Kicad,Pcbnew,9.0.4
; #@! TF.FileFunction,Plated,1,2,PTH
FMAT,2
INCH
; #@! TA.AperFunction,Plated,PTH,ComponentDrill
T1C0.0197
; #@! TA.AperFunction,Plated,PTH,ViaDrill
T2C0.0236
; #@! TA.AperFunction,Plated,PTH,ComponentDrill
T3C0.0394
; #@! TA.AperFunction,Plated,PTH,ComponentDrill
T4C0.1260
%
G90
G05
T1
X7.189Y-2.6339
X7.189Y-4.5768
X7.2167Y-2.567
X7.2167Y-2.7007
X7.2167Y-4.51
X7.2167Y-4.6436
X7.2835Y-2.5394
X7.2835Y-2.7283
X7.2835Y-4.4823
X7.2835Y-4.6713
X7.3503Y-2.567
X7.3503Y-2.7007
X7.3503Y-4.51
X7.3503Y-4.6436
X7.378Y-2.6339
X7.378Y-4.5768
X8.6063Y-2.6339
X8.6063Y-4.5768
X8.634Y-2.567
X8.634Y-2.7007
X8.634Y-4.51
X8.634Y-4.6436
X8.7008Y-2.5394
X8.7008Y-2.7283
X8.7008Y-4.4823
X8.7008Y-4.6713
X8.7676Y-2.567
X8.7676Y-2.7007
X8.7676Y-4.51
X8.7676Y-4.6436
X8.7953Y-2.6339
X8.7953Y-4.5768
T2
X7.4409Y-3.6929
X7.4803Y-2.5197
X7.5591Y-3.189
X7.5591Y-3.3858
X7.5709Y-3.0472
X7.7165Y-2.9134
X7.7165Y-3.3858
X7.7559Y-2.7165
X7.7953Y-4.7638
X7.8346Y-3.3858
X7.9528Y-4.7244
X7.9606Y-3.0866
X7.9921Y-2.4016
X7.9921Y-2.5197
X8.0709Y-3.3071
X8.1102Y-3.3858
X8.1732Y-3.2441
X8.1811Y-3.063
X8.2677Y-3.1457
X8.2913Y-3.7953
X8.3858Y-3.7953
X8.3858Y-4.4882
X8.4646Y-2.4016
X8.4646Y-2.5591
X8.4646Y-2.7165
X8.4646Y-2.8346
X8.5039Y-3.0315
X8.5039Y-3.7795
X8.5039Y-4.4094
X8.5039Y-4.5669
X8.5039Y-4.685
X8.5866Y-3.2047
X8.622Y-2.4016
X8.622Y-2.8346
X8.7315Y-3.3868
X8.752Y-3.626
X8.7717Y-3.8268
X8.7795Y-2.4016
X8.7795Y-2.8346
X8.7795Y-3.4646
X8.8583Y-3.622
X8.937Y-2.5591
X8.937Y-2.7165
X8.937Y-2.8346
X8.937Y-2.9921
X8.937Y-3.3465
X8.937Y-3.4646
X8.937Y-3.5827
X8.937Y-4.3701
X8.937Y-4.4882
X8.937Y-4.6457
T3
X7.127Y-2.9626
X7.127Y-3.061
X7.127Y-3.4823
X7.127Y-3.5807
X8.1693Y-2.4764
X8.2087Y-4.6949
X8.2677Y-2.4764
X8.3071Y-4.6949
X8.5728Y-4.1134
X8.673Y-4.113
X8.7736Y-4.113
T4
X7.2835Y-2.6339
X7.2835Y-4.5768
X8.7008Y-2.6339
X8.7008Y-4.5768
M30
