%TF.GenerationSoftware,KiCad,Pcbnew,9.0.6-9.0.6~ubuntu22.04.1*%
%TF.CreationDate,2025-11-05T22:25:10+01:00*%
%TF.ProjectId,FliperKAd,466c6970-6572-44b4-9164-2e6b69636164,rev?*%
%TF.SameCoordinates,Original*%
%TF.FileFunction,Copper,L4,Bot*%
%TF.FilePolarity,Positive*%
%FSLAX46Y46*%
G04 Gerber Fmt 4.6, Leading zero omitted, Abs format (unit mm)*
G04 Created by KiCad (PCBNEW 9.0.6-9.0.6~ubuntu22.04.1) date 2025-11-05 22:25:10*
%MOMM*%
%LPD*%
G01*
G04 APERTURE LIST*
G04 Aperture macros list*
%AMRoundRect*
0 Rectangle with rounded corners*
0 $1 Rounding radius*
0 $2 $3 $4 $5 $6 $7 $8 $9 X,Y pos of 4 corners*
0 Add a 4 corners polygon primitive as box body*
4,1,4,$2,$3,$4,$5,$6,$7,$8,$9,$2,$3,0*
0 Add four circle primitives for the rounded corners*
1,1,$1+$1,$2,$3*
1,1,$1+$1,$4,$5*
1,1,$1+$1,$6,$7*
1,1,$1+$1,$8,$9*
0 Add four rect primitives between the rounded corners*
20,1,$1+$1,$2,$3,$4,$5,0*
20,1,$1+$1,$4,$5,$6,$7,0*
20,1,$1+$1,$6,$7,$8,$9,0*
20,1,$1+$1,$8,$9,$2,$3,0*%
G04 Aperture macros list end*
%TA.AperFunction,ComponentPad*%
%ADD10RoundRect,0.760000X1.140000X1.140000X-1.140000X1.140000X-1.140000X-1.140000X1.140000X-1.140000X0*%
%TD*%
%TA.AperFunction,ComponentPad*%
%ADD11C,4.000000*%
%TD*%
%TA.AperFunction,ComponentPad*%
%ADD12C,0.800000*%
%TD*%
%TA.AperFunction,ComponentPad*%
%ADD13C,6.400000*%
%TD*%
%TA.AperFunction,ComponentPad*%
%ADD14RoundRect,0.250000X-0.750000X0.600000X-0.750000X-0.600000X0.750000X-0.600000X0.750000X0.600000X0*%
%TD*%
%TA.AperFunction,ComponentPad*%
%ADD15O,2.000000X1.700000*%
%TD*%
%TA.AperFunction,ComponentPad*%
%ADD16RoundRect,0.800000X0.000010X0.000010X-0.000010X0.000010X-0.000010X-0.000010X0.000010X-0.000010X0*%
%TD*%
%TA.AperFunction,ComponentPad*%
%ADD17O,1.700000X2.000000*%
%TD*%
%TA.AperFunction,ComponentPad*%
%ADD18RoundRect,0.250000X-0.600000X-0.750000X0.600000X-0.750000X0.600000X0.750000X-0.600000X0.750000X0*%
%TD*%
%TA.AperFunction,ViaPad*%
%ADD19C,0.450000*%
%TD*%
%TA.AperFunction,Conductor*%
%ADD20C,0.200000*%
%TD*%
G04 APERTURE END LIST*
D10*
%TO.P,J2,1,Pin_1*%
%TO.N,GND*%
X34000000Y-20000000D03*
D11*
%TO.P,J2,2,Pin_2*%
%TO.N,+24V*%
X29000000Y-20000000D03*
%TD*%
D12*
%TO.P,H1,1,1*%
%TO.N,GND*%
X17600000Y-20000000D03*
X18302944Y-18302944D03*
X18302944Y-21697056D03*
X20000000Y-17600000D03*
D13*
X20000000Y-20000000D03*
D12*
X20000000Y-22400000D03*
X21697056Y-18302944D03*
X21697056Y-21697056D03*
X22400000Y-20000000D03*
%TD*%
%TO.P,H2,1,1*%
%TO.N,GND*%
X57600000Y-20000000D03*
X58302944Y-18302944D03*
X58302944Y-21697056D03*
X60000000Y-17600000D03*
D13*
X60000000Y-20000000D03*
D12*
X60000000Y-22400000D03*
X61697056Y-18302944D03*
X61697056Y-21697056D03*
X62400000Y-20000000D03*
%TD*%
D14*
%TO.P,J3,1,Pin_1*%
%TO.N,Sortie-Sol\u00E9noideA*%
X20000000Y-28750000D03*
D15*
%TO.P,J3,2,Pin_2*%
%TO.N,+24V*%
X20000000Y-31250000D03*
%TD*%
D12*
%TO.P,H3,1,1*%
%TO.N,GND*%
X57600000Y-50000000D03*
X58302944Y-48302944D03*
X58302944Y-51697056D03*
X60000000Y-47600000D03*
D13*
X60000000Y-50000000D03*
D12*
X60000000Y-52400000D03*
X61697056Y-48302944D03*
X61697056Y-51697056D03*
X62400000Y-50000000D03*
%TD*%
D16*
%TO.P,U3,1,Vin*%
%TO.N,+24V*%
X47755000Y-18380000D03*
%TO.P,U3,2,Gnd*%
%TO.N,GND*%
X50300000Y-18370000D03*
%TO.P,U3,3,Vout*%
%TO.N,/12test*%
X52855000Y-18370000D03*
%TD*%
D12*
%TO.P,H4,1,1*%
%TO.N,GND*%
X17600000Y-50000000D03*
X18302944Y-48302944D03*
X18302944Y-51697056D03*
X20000000Y-47600000D03*
D13*
X20000000Y-50000000D03*
D12*
X20000000Y-52400000D03*
X21697056Y-48302944D03*
X21697056Y-51697056D03*
X22400000Y-50000000D03*
%TD*%
D17*
%TO.P,J1,2,Pin_2*%
%TO.N,Bouton_Actif*%
X39675000Y-49675000D03*
D18*
%TO.P,J1,1,Pin_1*%
%TO.N,GND*%
X37175000Y-49675000D03*
%TD*%
D14*
%TO.P,J4,1,Pin_1*%
%TO.N,Sortie-Sol\u00E9noideB*%
X20000000Y-38750000D03*
D15*
%TO.P,J4,2,Pin_2*%
%TO.N,+24V*%
X20000000Y-41250000D03*
%TD*%
D19*
%TO.N,GND*%
X27300000Y-31800000D03*
X32500000Y-31800000D03*
X29900000Y-32600000D03*
X29900000Y-31000000D03*
X27300000Y-43300000D03*
X32500000Y-43300000D03*
X29900000Y-44100000D03*
X29900000Y-42500000D03*
X45600000Y-51500000D03*
X54700000Y-46600000D03*
%TO.N,+12V*%
X61000000Y-27000000D03*
%TO.N,+24V*%
X58000000Y-30000000D03*
X57000000Y-30000000D03*
X56000000Y-30000000D03*
X55000000Y-30000000D03*
X55000000Y-31000000D03*
X56000000Y-31000000D03*
X57000000Y-31000000D03*
X58000000Y-31000000D03*
X59000000Y-31000000D03*
X59000000Y-30000000D03*
X59000000Y-29000000D03*
X58000000Y-29000000D03*
X57000000Y-29000000D03*
X56000000Y-29000000D03*
X55000000Y-29000000D03*
%TO.N,NRST*%
X56000000Y-39000000D03*
X51122250Y-46200000D03*
%TO.N,USART2_RX*%
X60000000Y-37700000D03*
%TO.N,USART2_TX*%
X52500000Y-45800000D03*
X56100000Y-37700000D03*
%TO.N,USART2_RX*%
X52600000Y-46600000D03*
%TO.N,SYS_SWCLK*%
X56000000Y-42800000D03*
X50725000Y-45400000D03*
%TO.N,SYS_SWDIO*%
X55800000Y-43400000D03*
X51800000Y-44900000D03*
%TO.N,GND*%
X47100000Y-34500000D03*
%TO.N,/Test 3.3*%
X49400000Y-32700000D03*
%TO.N,Net-(U4-FSW)*%
X53800000Y-35900000D03*
X49400000Y-31900000D03*
%TO.N,Net-(U4-FB)*%
X49400000Y-33400000D03*
X52500000Y-33400000D03*
%TO.N,GND*%
X58300000Y-34300000D03*
X55900000Y-34300000D03*
X57100000Y-35500000D03*
X59200000Y-33900000D03*
%TO.N,+24V*%
X60500000Y-24300000D03*
X45400000Y-17225000D03*
X41600000Y-17225000D03*
X44200000Y-17225000D03*
X34900000Y-17225000D03*
X35900000Y-17225000D03*
X37100000Y-17225000D03*
X38300000Y-17225000D03*
%TO.N,GND*%
X46000000Y-20175000D03*
X45000000Y-20175000D03*
X44100000Y-20175000D03*
X36700000Y-20175000D03*
X37700000Y-20175000D03*
X38700000Y-20175000D03*
X41700000Y-20175000D03*
X53225000Y-51600000D03*
%TO.N,Com-SolB*%
X50800000Y-39700000D03*
X49500000Y-39700000D03*
%TO.N,GND*%
X44900000Y-28700000D03*
X44900000Y-41100000D03*
%TO.N,+24V*%
X22200000Y-31250000D03*
X22900000Y-31250000D03*
X22900000Y-41250000D03*
X22100000Y-41250000D03*
%TO.N,GND*%
X47400000Y-53100000D03*
%TO.N,+3.3V*%
X45825000Y-52400000D03*
X43625000Y-52900000D03*
%TO.N,GND*%
X44425000Y-50500000D03*
%TO.N,+3.3V*%
X53925000Y-42100000D03*
X55600000Y-46400000D03*
%TO.N,GND*%
X55200000Y-44800000D03*
%TO.N,+3.3V*%
X62000000Y-36200000D03*
%TO.N,/Test 3.3*%
X62000000Y-32900000D03*
X53900000Y-27100000D03*
%TO.N,+3.3V*%
X63040000Y-44040000D03*
%TO.N,GND*%
X63070000Y-42770000D03*
X63100000Y-41500000D03*
X63100000Y-39000000D03*
%TO.N,+12V*%
X47400000Y-29000000D03*
X48100000Y-36300000D03*
X48300000Y-38400000D03*
%TO.N,GND*%
X55200000Y-38400000D03*
X50900000Y-34100000D03*
X50900000Y-32600000D03*
X49300000Y-29900000D03*
X49200000Y-27100000D03*
%TD*%
D20*
%TO.N,SYS_SWCLK*%
X56000000Y-42800000D02*
X53200000Y-42800000D01*
X53200000Y-42800000D02*
X51601000Y-44399000D01*
X51601000Y-44399000D02*
X51592479Y-44399000D01*
X51592479Y-44399000D02*
X51299000Y-44692479D01*
X51299000Y-44692479D02*
X51299000Y-44701000D01*
X51299000Y-44701000D02*
X50725000Y-45275000D01*
X50725000Y-45275000D02*
X50725000Y-45400000D01*
%TO.N,SYS_SWDIO*%
X53300000Y-43400000D02*
X55800000Y-43400000D01*
X51800000Y-44900000D02*
X53300000Y-43400000D01*
%TO.N,NRST*%
X51122250Y-46200000D02*
X51313748Y-46200000D01*
X51313748Y-46200000D02*
X53413748Y-44100000D01*
X53413748Y-44100000D02*
X55900000Y-44100000D01*
X55900000Y-44100000D02*
X56749000Y-43251000D01*
X56749000Y-43251000D02*
X56749000Y-39749000D01*
X56749000Y-39749000D02*
X56000000Y-39000000D01*
%TO.N,/Test 3.3*%
X48899000Y-31692479D02*
X53491479Y-27100000D01*
%TO.N,+12V*%
X60599000Y-26599000D02*
X61000000Y-27000000D01*
X53496091Y-26599000D02*
X60599000Y-26599000D01*
X51095091Y-29000000D02*
X53496091Y-26599000D01*
X47400000Y-29000000D02*
X51095091Y-29000000D01*
%TO.N,USART2_RX*%
X57451000Y-39500000D02*
X59251000Y-37700000D01*
X56200000Y-45900000D02*
X56900000Y-45200000D01*
X54700000Y-45900000D02*
X56200000Y-45900000D01*
X59251000Y-37700000D02*
X60000000Y-37700000D01*
X56900000Y-45200000D02*
X57451000Y-44649000D01*
X57451000Y-44649000D02*
X57451000Y-39500000D01*
X53700000Y-45900000D02*
X54700000Y-45900000D01*
X52700000Y-46600000D02*
X53400000Y-45900000D01*
X53400000Y-45900000D02*
X53700000Y-45900000D01*
%TO.N,USART2_TX*%
X57100000Y-44500000D02*
X57100000Y-40100000D01*
X56500000Y-45100000D02*
X57100000Y-44500000D01*
X56199000Y-45401000D02*
X56500000Y-45100000D01*
X57100000Y-40100000D02*
X57100000Y-38700000D01*
X52500000Y-45800000D02*
X52899000Y-45401000D01*
X52899000Y-45401000D02*
X56199000Y-45401000D01*
X57100000Y-38700000D02*
X56100000Y-37700000D01*
%TO.N,/Test 3.3*%
X49400000Y-32700000D02*
X48899000Y-32199000D01*
X48899000Y-32199000D02*
X48899000Y-31692479D01*
X53491479Y-27100000D02*
X53900000Y-27100000D01*
%TO.N,Net-(U4-FSW)*%
X53800000Y-33991479D02*
X53800000Y-35900000D01*
X51708521Y-31900000D02*
X53800000Y-33991479D01*
X49400000Y-31900000D02*
X51708521Y-31900000D01*
%TO.N,Net-(U4-FB)*%
X52500000Y-33400000D02*
X49400000Y-33400000D01*
%TO.N,Com-SolB*%
X50800000Y-39700000D02*
X49500000Y-39700000D01*
%TD*%
%TA.AperFunction,Conductor*%
%TO.N,GND*%
G36*
X56718834Y-43808651D02*
G01*
X56774767Y-43850523D01*
X56799184Y-43915987D01*
X56799500Y-43924833D01*
X56799500Y-44324167D01*
X56779815Y-44391206D01*
X56763181Y-44411848D01*
X56110848Y-45064181D01*
X56049525Y-45097666D01*
X56023167Y-45100500D01*
X53137580Y-45100500D01*
X53070541Y-45080815D01*
X53024786Y-45028011D01*
X53014842Y-44958853D01*
X53043867Y-44895297D01*
X53049899Y-44888819D01*
X53250157Y-44688562D01*
X53501900Y-44436819D01*
X53563223Y-44403334D01*
X53589581Y-44400500D01*
X55939560Y-44400500D01*
X55939562Y-44400500D01*
X56015989Y-44380021D01*
X56084511Y-44340460D01*
X56140460Y-44284511D01*
X56587819Y-43837152D01*
X56649142Y-43803667D01*
X56718834Y-43808651D01*
G37*
%TD.AperFunction*%
%TA.AperFunction,Conductor*%
G36*
X51599727Y-32220185D02*
G01*
X51620369Y-32236819D01*
X52254369Y-32870819D01*
X52260582Y-32882198D01*
X52270452Y-32890610D01*
X52277006Y-32912277D01*
X52287854Y-32932142D01*
X52286929Y-32945074D01*
X52290684Y-32957486D01*
X52284484Y-32979255D01*
X52282870Y-33001834D01*
X52275038Y-33012428D01*
X52271548Y-33024684D01*
X52248654Y-33051546D01*
X52241263Y-33058056D01*
X52238737Y-33059515D01*
X52232295Y-33065956D01*
X52229356Y-33068546D01*
X52201106Y-33081727D01*
X52173748Y-33096666D01*
X52169708Y-33096377D01*
X52166040Y-33098089D01*
X52147390Y-33099500D01*
X49875448Y-33099500D01*
X49808409Y-33079815D01*
X49762654Y-33027011D01*
X49752710Y-32957853D01*
X49768061Y-32913500D01*
X49768767Y-32912277D01*
X49796503Y-32864237D01*
X49825500Y-32756018D01*
X49825500Y-32643982D01*
X49796503Y-32535763D01*
X49740485Y-32438737D01*
X49713929Y-32412181D01*
X49680444Y-32350858D01*
X49685428Y-32281166D01*
X49727300Y-32225233D01*
X49792764Y-32200816D01*
X49801610Y-32200500D01*
X51532688Y-32200500D01*
X51599727Y-32220185D01*
G37*
%TD.AperFunction*%
%TA.AperFunction,Conductor*%
G36*
X60003032Y-16500648D02*
G01*
X60336929Y-16517052D01*
X60349037Y-16518245D01*
X60452146Y-16533539D01*
X60676699Y-16566849D01*
X60688617Y-16569219D01*
X61009951Y-16649709D01*
X61021588Y-16653240D01*
X61092806Y-16678722D01*
X61333467Y-16764832D01*
X61344688Y-16769479D01*
X61644163Y-16911120D01*
X61654871Y-16916844D01*
X61938988Y-17087137D01*
X61949103Y-17093895D01*
X62169913Y-17257659D01*
X62215170Y-17291224D01*
X62224576Y-17298944D01*
X62470013Y-17521395D01*
X62478604Y-17529986D01*
X62604499Y-17668890D01*
X62701055Y-17775423D01*
X62708775Y-17784829D01*
X62906102Y-18050893D01*
X62912862Y-18061011D01*
X63081294Y-18342024D01*
X63083148Y-18345116D01*
X63088883Y-18355844D01*
X63228008Y-18650000D01*
X63230514Y-18655297D01*
X63235170Y-18666540D01*
X63346759Y-18978411D01*
X63350292Y-18990055D01*
X63430777Y-19311369D01*
X63433151Y-19323305D01*
X63481754Y-19650962D01*
X63482947Y-19663071D01*
X63499351Y-19996966D01*
X63499500Y-20003051D01*
X63499500Y-43600180D01*
X63479815Y-43667219D01*
X63427011Y-43712974D01*
X63357853Y-43722918D01*
X63309012Y-43702348D01*
X63308302Y-43703579D01*
X63204239Y-43643498D01*
X63204238Y-43643497D01*
X63204237Y-43643497D01*
X63096018Y-43614500D01*
X62983982Y-43614500D01*
X62875763Y-43643497D01*
X62875760Y-43643498D01*
X62778740Y-43699513D01*
X62778734Y-43699517D01*
X62699517Y-43778734D01*
X62699513Y-43778740D01*
X62643498Y-43875760D01*
X62643497Y-43875763D01*
X62614500Y-43983982D01*
X62614500Y-44096018D01*
X62643497Y-44204237D01*
X62699515Y-44301263D01*
X62778737Y-44380485D01*
X62875763Y-44436503D01*
X62983982Y-44465500D01*
X62983984Y-44465500D01*
X63096016Y-44465500D01*
X63096018Y-44465500D01*
X63204237Y-44436503D01*
X63301263Y-44380485D01*
X63301263Y-44380484D01*
X63308302Y-44376421D01*
X63309160Y-44377908D01*
X63365176Y-44356250D01*
X63433622Y-44370284D01*
X63483614Y-44419096D01*
X63499500Y-44479819D01*
X63499500Y-49996948D01*
X63499351Y-50003033D01*
X63482947Y-50336928D01*
X63481754Y-50349037D01*
X63433151Y-50676694D01*
X63430777Y-50688630D01*
X63350292Y-51009944D01*
X63346759Y-51021588D01*
X63235170Y-51333459D01*
X63230514Y-51344702D01*
X63088885Y-51644151D01*
X63083148Y-51654883D01*
X62912862Y-51938988D01*
X62906102Y-51949106D01*
X62708775Y-52215170D01*
X62701055Y-52224576D01*
X62478611Y-52470006D01*
X62470006Y-52478611D01*
X62224576Y-52701055D01*
X62215170Y-52708775D01*
X61949106Y-52906102D01*
X61938988Y-52912862D01*
X61654883Y-53083148D01*
X61644151Y-53088885D01*
X61344702Y-53230514D01*
X61333459Y-53235170D01*
X61021588Y-53346759D01*
X61009944Y-53350292D01*
X60688630Y-53430777D01*
X60676694Y-53433151D01*
X60349037Y-53481754D01*
X60336928Y-53482947D01*
X60021989Y-53498419D01*
X60003031Y-53499351D01*
X59996949Y-53499500D01*
X43900410Y-53499500D01*
X43833371Y-53479815D01*
X43787616Y-53427011D01*
X43777672Y-53357853D01*
X43806697Y-53294297D01*
X43838410Y-53268113D01*
X43840212Y-53267072D01*
X43886263Y-53240485D01*
X43965485Y-53161263D01*
X44021503Y-53064237D01*
X44050500Y-52956018D01*
X44050500Y-52843982D01*
X44021503Y-52735763D01*
X43965485Y-52638737D01*
X43886263Y-52559515D01*
X43789237Y-52503497D01*
X43681018Y-52474500D01*
X43568982Y-52474500D01*
X43460763Y-52503497D01*
X43460760Y-52503498D01*
X43363740Y-52559513D01*
X43363734Y-52559517D01*
X43284517Y-52638734D01*
X43284513Y-52638740D01*
X43228498Y-52735760D01*
X43228497Y-52735763D01*
X43199500Y-52843982D01*
X43199500Y-52956018D01*
X43222912Y-53043391D01*
X43228497Y-53064236D01*
X43228498Y-53064239D01*
X43247169Y-53096579D01*
X43284515Y-53161263D01*
X43363737Y-53240485D01*
X43408458Y-53266304D01*
X43411590Y-53268113D01*
X43459806Y-53318680D01*
X43473029Y-53387287D01*
X43447060Y-53452152D01*
X43390146Y-53492680D01*
X43349590Y-53499500D01*
X20003051Y-53499500D01*
X19996968Y-53499351D01*
X19976900Y-53498365D01*
X19663071Y-53482947D01*
X19650962Y-53481754D01*
X19323305Y-53433151D01*
X19311369Y-53430777D01*
X18990055Y-53350292D01*
X18978411Y-53346759D01*
X18666540Y-53235170D01*
X18655301Y-53230515D01*
X18355844Y-53088883D01*
X18345121Y-53083150D01*
X18061011Y-52912862D01*
X18050893Y-52906102D01*
X17784829Y-52708775D01*
X17775423Y-52701055D01*
X17706669Y-52638740D01*
X17529986Y-52478604D01*
X17521395Y-52470013D01*
X17407167Y-52343982D01*
X45399500Y-52343982D01*
X45399500Y-52456018D01*
X45428497Y-52564237D01*
X45484515Y-52661263D01*
X45563737Y-52740485D01*
X45660763Y-52796503D01*
X45768982Y-52825500D01*
X45768984Y-52825500D01*
X45881016Y-52825500D01*
X45881018Y-52825500D01*
X45989237Y-52796503D01*
X46086263Y-52740485D01*
X46165485Y-52661263D01*
X46221503Y-52564237D01*
X46250500Y-52456018D01*
X46250500Y-52343982D01*
X46221503Y-52235763D01*
X46165485Y-52138737D01*
X46086263Y-52059515D01*
X45989237Y-52003497D01*
X45881018Y-51974500D01*
X45768982Y-51974500D01*
X45660763Y-52003497D01*
X45660760Y-52003498D01*
X45563740Y-52059513D01*
X45563734Y-52059517D01*
X45484517Y-52138734D01*
X45484513Y-52138740D01*
X45428498Y-52235760D01*
X45428497Y-52235763D01*
X45399500Y-52343982D01*
X17407167Y-52343982D01*
X17298944Y-52224576D01*
X17291224Y-52215170D01*
X17093897Y-51949106D01*
X17087137Y-51938988D01*
X16916844Y-51654871D01*
X16911120Y-51644163D01*
X16769479Y-51344688D01*
X16764829Y-51333459D01*
X16653240Y-51021588D01*
X16649707Y-51009944D01*
X16640958Y-50975015D01*
X16569219Y-50688617D01*
X16566848Y-50676694D01*
X16518245Y-50349037D01*
X16517052Y-50336927D01*
X16517030Y-50336488D01*
X16500649Y-50003032D01*
X16500500Y-49996948D01*
X16500500Y-48875013D01*
X35825000Y-48875013D01*
X35825000Y-49425000D01*
X36741988Y-49425000D01*
X36709075Y-49482007D01*
X36675000Y-49609174D01*
X36675000Y-49740826D01*
X36709075Y-49867993D01*
X36741988Y-49925000D01*
X35825001Y-49925000D01*
X35825001Y-50474986D01*
X35835494Y-50577697D01*
X35890641Y-50744119D01*
X35890643Y-50744124D01*
X35982684Y-50893345D01*
X36106654Y-51017315D01*
X36255875Y-51109356D01*
X36255880Y-51109358D01*
X36422302Y-51164505D01*
X36422309Y-51164506D01*
X36525019Y-51174999D01*
X36924999Y-51174999D01*
X36925000Y-51174998D01*
X36925000Y-50108012D01*
X36982007Y-50140925D01*
X37109174Y-50175000D01*
X37240826Y-50175000D01*
X37367993Y-50140925D01*
X37425000Y-50108012D01*
X37425000Y-51174999D01*
X37824972Y-51174999D01*
X37824986Y-51174998D01*
X37927697Y-51164505D01*
X38094119Y-51109358D01*
X38094124Y-51109356D01*
X38243345Y-51017315D01*
X38367315Y-50893345D01*
X38459356Y-50744124D01*
X38459358Y-50744119D01*
X38514505Y-50577697D01*
X38514506Y-50577690D01*
X38524999Y-50474986D01*
X38524999Y-50403528D01*
X38544683Y-50336488D01*
X38597486Y-50290732D01*
X38666644Y-50280788D01*
X38730200Y-50309812D01*
X38752101Y-50334635D01*
X38859022Y-50494655D01*
X39005342Y-50640975D01*
X39005345Y-50640977D01*
X39177402Y-50755941D01*
X39368580Y-50835130D01*
X39571530Y-50875499D01*
X39571534Y-50875500D01*
X39571535Y-50875500D01*
X39778466Y-50875500D01*
X39778467Y-50875499D01*
X39981420Y-50835130D01*
X40172598Y-50755941D01*
X40344655Y-50640977D01*
X40490977Y-50494655D01*
X40605941Y-50322598D01*
X40685130Y-50131420D01*
X40725500Y-49928465D01*
X40725500Y-49421535D01*
X40685130Y-49218580D01*
X40605941Y-49027402D01*
X40490977Y-48855345D01*
X40490975Y-48855342D01*
X40344657Y-48709024D01*
X40258626Y-48651541D01*
X40172598Y-48594059D01*
X39981420Y-48514870D01*
X39981412Y-48514868D01*
X39778469Y-48474500D01*
X39778465Y-48474500D01*
X39571535Y-48474500D01*
X39571530Y-48474500D01*
X39368587Y-48514868D01*
X39368579Y-48514870D01*
X39177403Y-48594058D01*
X39005342Y-48709024D01*
X38859024Y-48855342D01*
X38752102Y-49015365D01*
X38698489Y-49060171D01*
X38629165Y-49068878D01*
X38566137Y-49038724D01*
X38529417Y-48979281D01*
X38524999Y-48946475D01*
X38524999Y-48875028D01*
X38524998Y-48875012D01*
X38514505Y-48772302D01*
X38459358Y-48605880D01*
X38459356Y-48605875D01*
X38367315Y-48456654D01*
X38243345Y-48332684D01*
X38094124Y-48240643D01*
X38094119Y-48240641D01*
X37927697Y-48185494D01*
X37927690Y-48185493D01*
X37824986Y-48175000D01*
X37425000Y-48175000D01*
X37425000Y-49241988D01*
X37367993Y-49209075D01*
X37240826Y-49175000D01*
X37109174Y-49175000D01*
X36982007Y-49209075D01*
X36925000Y-49241988D01*
X36925000Y-48175000D01*
X36525028Y-48175000D01*
X36525012Y-48175001D01*
X36422302Y-48185494D01*
X36255880Y-48240641D01*
X36255875Y-48240643D01*
X36106654Y-48332684D01*
X35982684Y-48456654D01*
X35890643Y-48605875D01*
X35890641Y-48605880D01*
X35835494Y-48772302D01*
X35835493Y-48772309D01*
X35825000Y-48875013D01*
X16500500Y-48875013D01*
X16500500Y-45343982D01*
X50299500Y-45343982D01*
X50299500Y-45456018D01*
X50328497Y-45564237D01*
X50384515Y-45661263D01*
X50463737Y-45740485D01*
X50560763Y-45796503D01*
X50667181Y-45825017D01*
X50726839Y-45861381D01*
X50757369Y-45924227D01*
X50749075Y-45993603D01*
X50742474Y-46006789D01*
X50725749Y-46035758D01*
X50725747Y-46035763D01*
X50696750Y-46143982D01*
X50696750Y-46256018D01*
X50725747Y-46364237D01*
X50781765Y-46461263D01*
X50860987Y-46540485D01*
X50958013Y-46596503D01*
X51066232Y-46625500D01*
X51066234Y-46625500D01*
X51178266Y-46625500D01*
X51178268Y-46625500D01*
X51286487Y-46596503D01*
X51383513Y-46540485D01*
X51451891Y-46472106D01*
X51477563Y-46452408D01*
X51498259Y-46440460D01*
X51554208Y-46384511D01*
X51942007Y-45996710D01*
X52003328Y-45963227D01*
X52073019Y-45968211D01*
X52122024Y-46001630D01*
X52130628Y-46011229D01*
X52159515Y-46061263D01*
X52238737Y-46140485D01*
X52254782Y-46149748D01*
X52267985Y-46164479D01*
X52274852Y-46178872D01*
X52285858Y-46190413D01*
X52289587Y-46209757D01*
X52298072Y-46227540D01*
X52296067Y-46243362D01*
X52299086Y-46259019D01*
X52291765Y-46277309D01*
X52289289Y-46296855D01*
X52279049Y-46309079D01*
X52273124Y-46323886D01*
X52263333Y-46334919D01*
X52259516Y-46338735D01*
X52259513Y-46338740D01*
X52203498Y-46435760D01*
X52203497Y-46435763D01*
X52174500Y-46543982D01*
X52174500Y-46656018D01*
X52203497Y-46764237D01*
X52259515Y-46861263D01*
X52338737Y-46940485D01*
X52435763Y-46996503D01*
X52543982Y-47025500D01*
X52543984Y-47025500D01*
X52656016Y-47025500D01*
X52656018Y-47025500D01*
X52764237Y-46996503D01*
X52861263Y-46940485D01*
X52940485Y-46861263D01*
X52996503Y-46764237D01*
X53000995Y-46747470D01*
X53033088Y-46691881D01*
X53488152Y-46236819D01*
X53549475Y-46203334D01*
X53575833Y-46200500D01*
X53660438Y-46200500D01*
X54660438Y-46200500D01*
X55051995Y-46200500D01*
X55119034Y-46220185D01*
X55164789Y-46272989D01*
X55174210Y-46335855D01*
X55174500Y-46335855D01*
X55174500Y-46337789D01*
X55174934Y-46340686D01*
X55174500Y-46343982D01*
X55174500Y-46456018D01*
X55203497Y-46564237D01*
X55259515Y-46661263D01*
X55338737Y-46740485D01*
X55435763Y-46796503D01*
X55543982Y-46825500D01*
X55543984Y-46825500D01*
X55656016Y-46825500D01*
X55656018Y-46825500D01*
X55764237Y-46796503D01*
X55861263Y-46740485D01*
X55940485Y-46661263D01*
X55996503Y-46564237D01*
X56025500Y-46456018D01*
X56025500Y-46343982D01*
X56025066Y-46340686D01*
X56025500Y-46337902D01*
X56025500Y-46335855D01*
X56025819Y-46335855D01*
X56035831Y-46271651D01*
X56082211Y-46219395D01*
X56148005Y-46200500D01*
X56239560Y-46200500D01*
X56239562Y-46200500D01*
X56315989Y-46180021D01*
X56384511Y-46140460D01*
X56440460Y-46084511D01*
X57140460Y-45384511D01*
X57691460Y-44833511D01*
X57731022Y-44764988D01*
X57751500Y-44688562D01*
X57751500Y-44609438D01*
X57751500Y-39675833D01*
X57771185Y-39608794D01*
X57787819Y-39588152D01*
X59339152Y-38036819D01*
X59366079Y-38022115D01*
X59391898Y-38005523D01*
X59398098Y-38004631D01*
X59400475Y-38003334D01*
X59426833Y-38000500D01*
X59647390Y-38000500D01*
X59714429Y-38020185D01*
X59735071Y-38036819D01*
X59738737Y-38040485D01*
X59835763Y-38096503D01*
X59943982Y-38125500D01*
X59943984Y-38125500D01*
X60056016Y-38125500D01*
X60056018Y-38125500D01*
X60164237Y-38096503D01*
X60261263Y-38040485D01*
X60340485Y-37961263D01*
X60396503Y-37864237D01*
X60425500Y-37756018D01*
X60425500Y-37643982D01*
X60396503Y-37535763D01*
X60340485Y-37438737D01*
X60261263Y-37359515D01*
X60164237Y-37303497D01*
X60056018Y-37274500D01*
X59943982Y-37274500D01*
X59835763Y-37303497D01*
X59835760Y-37303498D01*
X59738740Y-37359513D01*
X59738734Y-37359517D01*
X59735071Y-37363181D01*
X59673748Y-37396666D01*
X59647390Y-37399500D01*
X59211438Y-37399500D01*
X59160486Y-37413152D01*
X59135010Y-37419979D01*
X59075934Y-37454087D01*
X59075933Y-37454086D01*
X59066492Y-37459537D01*
X59066487Y-37459541D01*
X57612181Y-38913848D01*
X57550858Y-38947333D01*
X57481166Y-38942349D01*
X57425233Y-38900477D01*
X57400816Y-38835013D01*
X57400500Y-38826167D01*
X57400500Y-38660440D01*
X57400499Y-38660436D01*
X57400252Y-38659515D01*
X57391485Y-38626793D01*
X57380022Y-38584012D01*
X57340460Y-38515489D01*
X56561819Y-37736848D01*
X56528334Y-37675525D01*
X56525500Y-37649167D01*
X56525500Y-37643984D01*
X56525500Y-37643982D01*
X56496503Y-37535763D01*
X56440485Y-37438737D01*
X56361263Y-37359515D01*
X56264237Y-37303497D01*
X56156018Y-37274500D01*
X56043982Y-37274500D01*
X55935763Y-37303497D01*
X55935760Y-37303498D01*
X55838740Y-37359513D01*
X55838734Y-37359517D01*
X55759517Y-37438734D01*
X55759513Y-37438740D01*
X55703498Y-37535760D01*
X55703497Y-37535763D01*
X55674500Y-37643982D01*
X55674500Y-37756018D01*
X55703497Y-37864237D01*
X55759515Y-37961263D01*
X55838737Y-38040485D01*
X55935763Y-38096503D01*
X56043982Y-38125500D01*
X56049167Y-38125500D01*
X56116206Y-38145185D01*
X56136848Y-38161819D01*
X56763181Y-38788152D01*
X56796666Y-38849475D01*
X56799500Y-38875833D01*
X56799500Y-39075167D01*
X56793261Y-39096412D01*
X56791682Y-39118501D01*
X56783609Y-39129284D01*
X56779815Y-39142206D01*
X56763081Y-39156705D01*
X56749810Y-39174434D01*
X56737189Y-39179141D01*
X56727011Y-39187961D01*
X56705093Y-39191112D01*
X56684346Y-39198851D01*
X56671185Y-39195988D01*
X56657853Y-39197905D01*
X56637709Y-39188705D01*
X56616073Y-39183999D01*
X56598347Y-39170730D01*
X56594297Y-39168880D01*
X56587819Y-39162848D01*
X56461819Y-39036848D01*
X56428334Y-38975525D01*
X56425500Y-38949167D01*
X56425500Y-38943984D01*
X56425500Y-38943982D01*
X56396503Y-38835763D01*
X56340485Y-38738737D01*
X56261263Y-38659515D01*
X56164237Y-38603497D01*
X56056018Y-38574500D01*
X55943982Y-38574500D01*
X55835763Y-38603497D01*
X55835760Y-38603498D01*
X55738740Y-38659513D01*
X55738734Y-38659517D01*
X55659517Y-38738734D01*
X55659513Y-38738740D01*
X55603498Y-38835760D01*
X55603497Y-38835763D01*
X55574500Y-38943982D01*
X55574500Y-39056018D01*
X55603497Y-39164237D01*
X55659515Y-39261263D01*
X55738737Y-39340485D01*
X55835763Y-39396503D01*
X55943982Y-39425500D01*
X55949167Y-39425500D01*
X56016206Y-39445185D01*
X56036848Y-39461819D01*
X56412181Y-39837152D01*
X56445666Y-39898475D01*
X56448500Y-39924833D01*
X56448500Y-42352842D01*
X56428815Y-42419881D01*
X56376011Y-42465636D01*
X56306853Y-42475580D01*
X56262500Y-42460229D01*
X56164239Y-42403498D01*
X56164238Y-42403497D01*
X56164237Y-42403497D01*
X56056018Y-42374500D01*
X55943982Y-42374500D01*
X55835763Y-42403497D01*
X55835760Y-42403498D01*
X55738740Y-42459513D01*
X55738734Y-42459517D01*
X55735071Y-42463181D01*
X55673748Y-42496666D01*
X55647390Y-42499500D01*
X54400448Y-42499500D01*
X54333409Y-42479815D01*
X54287654Y-42427011D01*
X54277710Y-42357853D01*
X54293061Y-42313500D01*
X54293485Y-42312765D01*
X54321503Y-42264237D01*
X54350500Y-42156018D01*
X54350500Y-42043982D01*
X54321503Y-41935763D01*
X54265485Y-41838737D01*
X54186263Y-41759515D01*
X54089237Y-41703497D01*
X53981018Y-41674500D01*
X53868982Y-41674500D01*
X53760763Y-41703497D01*
X53760760Y-41703498D01*
X53663740Y-41759513D01*
X53663734Y-41759517D01*
X53584517Y-41838734D01*
X53584513Y-41838740D01*
X53528498Y-41935760D01*
X53528497Y-41935763D01*
X53499500Y-42043982D01*
X53499500Y-42156018D01*
X53527397Y-42260129D01*
X53528497Y-42264236D01*
X53528498Y-42264239D01*
X53556939Y-42313500D01*
X53573412Y-42381400D01*
X53550559Y-42447427D01*
X53495638Y-42490618D01*
X53449552Y-42499500D01*
X53160438Y-42499500D01*
X53109486Y-42513152D01*
X53084010Y-42519979D01*
X53024934Y-42554087D01*
X53024933Y-42554086D01*
X53015492Y-42559537D01*
X53015487Y-42559541D01*
X51439670Y-44135357D01*
X51413997Y-44155059D01*
X51407964Y-44158542D01*
X51116730Y-44449777D01*
X51116720Y-44449787D01*
X51114489Y-44452019D01*
X51058540Y-44507968D01*
X51048505Y-44525346D01*
X51039716Y-44535083D01*
X51038129Y-44536057D01*
X51035357Y-44539670D01*
X50596585Y-44978442D01*
X50567069Y-44998167D01*
X50567801Y-44999434D01*
X50560764Y-45003496D01*
X50560763Y-45003497D01*
X50518304Y-45028011D01*
X50463740Y-45059513D01*
X50463734Y-45059517D01*
X50384517Y-45138734D01*
X50384513Y-45138740D01*
X50328498Y-45235760D01*
X50328497Y-45235763D01*
X50299500Y-45343982D01*
X16500500Y-45343982D01*
X16500500Y-41146530D01*
X18799500Y-41146530D01*
X18799500Y-41353469D01*
X18830888Y-41511265D01*
X18839870Y-41556420D01*
X18919059Y-41747598D01*
X18927022Y-41759515D01*
X19034024Y-41919657D01*
X19180342Y-42065975D01*
X19180345Y-42065977D01*
X19352402Y-42180941D01*
X19543580Y-42260130D01*
X19746530Y-42300499D01*
X19746534Y-42300500D01*
X19746535Y-42300500D01*
X20253466Y-42300500D01*
X20253467Y-42300499D01*
X20456420Y-42260130D01*
X20647598Y-42180941D01*
X20819655Y-42065977D01*
X20965977Y-41919655D01*
X21080941Y-41747598D01*
X21160130Y-41556420D01*
X21200500Y-41353465D01*
X21200500Y-41193982D01*
X21674500Y-41193982D01*
X21674500Y-41306018D01*
X21703497Y-41414237D01*
X21759515Y-41511263D01*
X21838737Y-41590485D01*
X21935763Y-41646503D01*
X22043982Y-41675500D01*
X22043984Y-41675500D01*
X22156016Y-41675500D01*
X22156018Y-41675500D01*
X22264237Y-41646503D01*
X22361263Y-41590485D01*
X22412319Y-41539429D01*
X22473642Y-41505944D01*
X22543334Y-41510928D01*
X22587681Y-41539429D01*
X22638737Y-41590485D01*
X22735763Y-41646503D01*
X22843982Y-41675500D01*
X22843984Y-41675500D01*
X22956016Y-41675500D01*
X22956018Y-41675500D01*
X23064237Y-41646503D01*
X23161263Y-41590485D01*
X23240485Y-41511263D01*
X23296503Y-41414237D01*
X23325500Y-41306018D01*
X23325500Y-41193982D01*
X23296503Y-41085763D01*
X23240485Y-40988737D01*
X23161263Y-40909515D01*
X23064237Y-40853497D01*
X22956018Y-40824500D01*
X22843982Y-40824500D01*
X22735763Y-40853497D01*
X22735760Y-40853498D01*
X22638740Y-40909513D01*
X22638734Y-40909517D01*
X22587681Y-40960571D01*
X22526358Y-40994056D01*
X22456666Y-40989072D01*
X22412319Y-40960571D01*
X22361265Y-40909517D01*
X22361263Y-40909515D01*
X22264237Y-40853497D01*
X22156018Y-40824500D01*
X22043982Y-40824500D01*
X21935763Y-40853497D01*
X21935760Y-40853498D01*
X21838740Y-40909513D01*
X21838734Y-40909517D01*
X21759517Y-40988734D01*
X21759513Y-40988740D01*
X21703498Y-41085760D01*
X21703497Y-41085763D01*
X21674500Y-41193982D01*
X21200500Y-41193982D01*
X21200500Y-41146535D01*
X21160130Y-40943580D01*
X21080941Y-40752402D01*
X20965977Y-40580345D01*
X20965975Y-40580342D01*
X20819657Y-40434024D01*
X20733626Y-40376541D01*
X20647598Y-40319059D01*
X20456420Y-40239870D01*
X20456412Y-40239868D01*
X20253469Y-40199500D01*
X20253465Y-40199500D01*
X19746535Y-40199500D01*
X19746530Y-40199500D01*
X19543587Y-40239868D01*
X19543579Y-40239870D01*
X19352403Y-40319058D01*
X19180342Y-40434024D01*
X19034024Y-40580342D01*
X18919058Y-40752403D01*
X18839870Y-40943579D01*
X18839868Y-40943587D01*
X18799500Y-41146530D01*
X16500500Y-41146530D01*
X16500500Y-38095730D01*
X18799500Y-38095730D01*
X18799500Y-39404269D01*
X18802353Y-39434699D01*
X18802353Y-39434701D01*
X18847206Y-39562880D01*
X18847207Y-39562882D01*
X18927850Y-39672150D01*
X19037118Y-39752793D01*
X19046332Y-39756017D01*
X19165299Y-39797646D01*
X19195730Y-39800500D01*
X19195734Y-39800500D01*
X20804270Y-39800500D01*
X20834699Y-39797646D01*
X20834701Y-39797646D01*
X20898790Y-39775219D01*
X20962882Y-39752793D01*
X21072150Y-39672150D01*
X21092939Y-39643982D01*
X49074500Y-39643982D01*
X49074500Y-39756018D01*
X49103497Y-39864237D01*
X49159515Y-39961263D01*
X49238737Y-40040485D01*
X49335763Y-40096503D01*
X49443982Y-40125500D01*
X49443984Y-40125500D01*
X49556016Y-40125500D01*
X49556018Y-40125500D01*
X49664237Y-40096503D01*
X49761263Y-40040485D01*
X49764929Y-40036819D01*
X49826252Y-40003334D01*
X49852610Y-40000500D01*
X50447390Y-40000500D01*
X50514429Y-40020185D01*
X50535071Y-40036819D01*
X50538737Y-40040485D01*
X50635763Y-40096503D01*
X50743982Y-40125500D01*
X50743984Y-40125500D01*
X50856016Y-40125500D01*
X50856018Y-40125500D01*
X50964237Y-40096503D01*
X51061263Y-40040485D01*
X51140485Y-39961263D01*
X51196503Y-39864237D01*
X51225500Y-39756018D01*
X51225500Y-39643982D01*
X51196503Y-39535763D01*
X51140485Y-39438737D01*
X51061263Y-39359515D01*
X50964237Y-39303497D01*
X50856018Y-39274500D01*
X50743982Y-39274500D01*
X50635763Y-39303497D01*
X50635760Y-39303498D01*
X50538740Y-39359513D01*
X50538734Y-39359517D01*
X50535071Y-39363181D01*
X50473748Y-39396666D01*
X50447390Y-39399500D01*
X49852610Y-39399500D01*
X49785571Y-39379815D01*
X49764929Y-39363181D01*
X49761265Y-39359517D01*
X49761263Y-39359515D01*
X49664237Y-39303497D01*
X49556018Y-39274500D01*
X49443982Y-39274500D01*
X49335763Y-39303497D01*
X49335760Y-39303498D01*
X49238740Y-39359513D01*
X49238734Y-39359517D01*
X49159517Y-39438734D01*
X49159513Y-39438740D01*
X49103498Y-39535760D01*
X49103497Y-39535763D01*
X49074500Y-39643982D01*
X21092939Y-39643982D01*
X21152793Y-39562882D01*
X21175219Y-39498790D01*
X21197646Y-39434701D01*
X21197646Y-39434699D01*
X21200500Y-39404269D01*
X21200500Y-38343982D01*
X47874500Y-38343982D01*
X47874500Y-38456018D01*
X47903497Y-38564237D01*
X47959515Y-38661263D01*
X48038737Y-38740485D01*
X48135763Y-38796503D01*
X48243982Y-38825500D01*
X48243984Y-38825500D01*
X48356016Y-38825500D01*
X48356018Y-38825500D01*
X48464237Y-38796503D01*
X48561263Y-38740485D01*
X48640485Y-38661263D01*
X48696503Y-38564237D01*
X48725500Y-38456018D01*
X48725500Y-38343982D01*
X48696503Y-38235763D01*
X48640485Y-38138737D01*
X48561263Y-38059515D01*
X48464237Y-38003497D01*
X48356018Y-37974500D01*
X48243982Y-37974500D01*
X48135763Y-38003497D01*
X48135760Y-38003498D01*
X48038740Y-38059513D01*
X48038734Y-38059517D01*
X47959517Y-38138734D01*
X47959513Y-38138740D01*
X47903498Y-38235760D01*
X47903497Y-38235763D01*
X47874500Y-38343982D01*
X21200500Y-38343982D01*
X21200500Y-38095730D01*
X21197646Y-38065300D01*
X21197646Y-38065298D01*
X21152793Y-37937119D01*
X21152792Y-37937117D01*
X21072150Y-37827850D01*
X20962882Y-37747207D01*
X20962880Y-37747206D01*
X20834700Y-37702353D01*
X20804270Y-37699500D01*
X20804266Y-37699500D01*
X19195734Y-37699500D01*
X19195730Y-37699500D01*
X19165300Y-37702353D01*
X19165298Y-37702353D01*
X19037119Y-37747206D01*
X19037117Y-37747207D01*
X18927850Y-37827850D01*
X18847207Y-37937117D01*
X18847206Y-37937119D01*
X18802353Y-38065298D01*
X18802353Y-38065300D01*
X18799500Y-38095730D01*
X16500500Y-38095730D01*
X16500500Y-36243982D01*
X47674500Y-36243982D01*
X47674500Y-36356018D01*
X47703497Y-36464237D01*
X47759515Y-36561263D01*
X47838737Y-36640485D01*
X47935763Y-36696503D01*
X48043982Y-36725500D01*
X48043984Y-36725500D01*
X48156016Y-36725500D01*
X48156018Y-36725500D01*
X48264237Y-36696503D01*
X48361263Y-36640485D01*
X48440485Y-36561263D01*
X48496503Y-36464237D01*
X48525500Y-36356018D01*
X48525500Y-36243982D01*
X48496503Y-36135763D01*
X48440485Y-36038737D01*
X48361263Y-35959515D01*
X48264237Y-35903497D01*
X48156018Y-35874500D01*
X48043982Y-35874500D01*
X47935763Y-35903497D01*
X47935760Y-35903498D01*
X47838740Y-35959513D01*
X47838734Y-35959517D01*
X47759517Y-36038734D01*
X47759513Y-36038740D01*
X47703498Y-36135760D01*
X47703497Y-36135763D01*
X47674500Y-36243982D01*
X16500500Y-36243982D01*
X16500500Y-31146530D01*
X18799500Y-31146530D01*
X18799500Y-31353469D01*
X18839868Y-31556412D01*
X18839870Y-31556420D01*
X18919058Y-31747596D01*
X19034024Y-31919657D01*
X19180342Y-32065975D01*
X19180345Y-32065977D01*
X19352402Y-32180941D01*
X19543580Y-32260130D01*
X19726441Y-32296503D01*
X19746530Y-32300499D01*
X19746534Y-32300500D01*
X19746535Y-32300500D01*
X20253466Y-32300500D01*
X20253467Y-32300499D01*
X20456420Y-32260130D01*
X20647598Y-32180941D01*
X20819655Y-32065977D01*
X20965977Y-31919655D01*
X21080941Y-31747598D01*
X21160130Y-31556420D01*
X21200500Y-31353465D01*
X21200500Y-31193982D01*
X21774500Y-31193982D01*
X21774500Y-31306018D01*
X21803497Y-31414237D01*
X21859515Y-31511263D01*
X21938737Y-31590485D01*
X22035763Y-31646503D01*
X22143982Y-31675500D01*
X22143984Y-31675500D01*
X22256016Y-31675500D01*
X22256018Y-31675500D01*
X22364237Y-31646503D01*
X22461263Y-31590485D01*
X22462319Y-31589429D01*
X22463426Y-31588824D01*
X22467709Y-31585538D01*
X22468221Y-31586205D01*
X22523642Y-31555944D01*
X22593334Y-31560928D01*
X22632071Y-31585823D01*
X22632291Y-31585538D01*
X22635715Y-31588165D01*
X22637681Y-31589429D01*
X22638737Y-31590485D01*
X22735763Y-31646503D01*
X22843982Y-31675500D01*
X22843984Y-31675500D01*
X22956016Y-31675500D01*
X22956018Y-31675500D01*
X23064237Y-31646503D01*
X23161263Y-31590485D01*
X23240485Y-31511263D01*
X23296503Y-31414237D01*
X23325500Y-31306018D01*
X23325500Y-31193982D01*
X23296503Y-31085763D01*
X23240485Y-30988737D01*
X23161263Y-30909515D01*
X23064237Y-30853497D01*
X22956018Y-30824500D01*
X22843982Y-30824500D01*
X22735763Y-30853497D01*
X22735760Y-30853498D01*
X22638740Y-30909513D01*
X22638734Y-30909517D01*
X22637675Y-30910577D01*
X22636562Y-30911184D01*
X22632291Y-30914462D01*
X22631779Y-30913795D01*
X22576349Y-30944057D01*
X22506658Y-30939068D01*
X22467927Y-30914177D01*
X22467709Y-30914462D01*
X22464301Y-30911847D01*
X22462325Y-30910577D01*
X22461265Y-30909517D01*
X22461263Y-30909515D01*
X22364237Y-30853497D01*
X22256018Y-30824500D01*
X22143982Y-30824500D01*
X22035763Y-30853497D01*
X22035760Y-30853498D01*
X21938740Y-30909513D01*
X21938734Y-30909517D01*
X21859517Y-30988734D01*
X21859513Y-30988740D01*
X21803498Y-31085760D01*
X21803497Y-31085763D01*
X21774500Y-31193982D01*
X21200500Y-31193982D01*
X21200500Y-31146535D01*
X21160130Y-30943580D01*
X21080941Y-30752402D01*
X20965977Y-30580345D01*
X20965975Y-30580342D01*
X20819657Y-30434024D01*
X20679666Y-30340486D01*
X20647598Y-30319059D01*
X20456420Y-30239870D01*
X20456412Y-30239868D01*
X20253469Y-30199500D01*
X20253465Y-30199500D01*
X19746535Y-30199500D01*
X19746530Y-30199500D01*
X19543587Y-30239868D01*
X19543579Y-30239870D01*
X19352403Y-30319058D01*
X19180342Y-30434024D01*
X19034024Y-30580342D01*
X18919058Y-30752403D01*
X18839870Y-30943579D01*
X18839868Y-30943587D01*
X18799500Y-31146530D01*
X16500500Y-31146530D01*
X16500500Y-28095730D01*
X18799500Y-28095730D01*
X18799500Y-29404269D01*
X18802353Y-29434699D01*
X18802353Y-29434701D01*
X18847206Y-29562880D01*
X18847207Y-29562882D01*
X18927850Y-29672150D01*
X19037118Y-29752793D01*
X19079845Y-29767744D01*
X19165299Y-29797646D01*
X19195730Y-29800500D01*
X19195734Y-29800500D01*
X20804270Y-29800500D01*
X20834699Y-29797646D01*
X20834701Y-29797646D01*
X20898790Y-29775219D01*
X20962882Y-29752793D01*
X21072150Y-29672150D01*
X21152793Y-29562882D01*
X21178921Y-29488213D01*
X21197646Y-29434701D01*
X21197646Y-29434699D01*
X21200500Y-29404269D01*
X21200500Y-28943982D01*
X46974500Y-28943982D01*
X46974500Y-29056017D01*
X47003497Y-29164236D01*
X47003498Y-29164239D01*
X47022169Y-29196579D01*
X47059515Y-29261263D01*
X47138737Y-29340485D01*
X47235763Y-29396503D01*
X47343982Y-29425500D01*
X47343984Y-29425500D01*
X47456016Y-29425500D01*
X47456018Y-29425500D01*
X47564237Y-29396503D01*
X47661263Y-29340485D01*
X47664929Y-29336819D01*
X47726252Y-29303334D01*
X47752610Y-29300500D01*
X50566646Y-29300500D01*
X50633685Y-29320185D01*
X50679440Y-29372989D01*
X50689384Y-29442147D01*
X50660359Y-29505703D01*
X50654327Y-29512181D01*
X48658541Y-31507966D01*
X48658535Y-31507974D01*
X48618982Y-31576483D01*
X48618979Y-31576488D01*
X48614845Y-31591918D01*
X48598500Y-31652917D01*
X48598500Y-32238562D01*
X48604280Y-32260131D01*
X48618979Y-32314990D01*
X48618980Y-32314991D01*
X48625794Y-32326793D01*
X48625795Y-32326794D01*
X48658539Y-32383509D01*
X48658541Y-32383512D01*
X48938181Y-32663152D01*
X48971666Y-32724475D01*
X48974500Y-32750833D01*
X48974500Y-32756018D01*
X49003497Y-32864237D01*
X49059515Y-32961263D01*
X49059517Y-32961265D01*
X49060577Y-32962325D01*
X49061184Y-32963437D01*
X49064462Y-32967709D01*
X49063795Y-32968220D01*
X49094057Y-33023651D01*
X49089068Y-33093342D01*
X49064177Y-33132072D01*
X49064462Y-33132291D01*
X49061847Y-33135698D01*
X49060577Y-33137675D01*
X49059517Y-33138734D01*
X49059513Y-33138740D01*
X49003498Y-33235760D01*
X49003497Y-33235763D01*
X48974500Y-33343982D01*
X48974500Y-33456018D01*
X49003497Y-33564237D01*
X49059515Y-33661263D01*
X49138737Y-33740485D01*
X49235763Y-33796503D01*
X49343982Y-33825500D01*
X49343984Y-33825500D01*
X49456016Y-33825500D01*
X49456018Y-33825500D01*
X49564237Y-33796503D01*
X49661263Y-33740485D01*
X49664929Y-33736819D01*
X49726252Y-33703334D01*
X49752610Y-33700500D01*
X52147390Y-33700500D01*
X52214429Y-33720185D01*
X52235071Y-33736819D01*
X52238737Y-33740485D01*
X52335763Y-33796503D01*
X52443982Y-33825500D01*
X52443984Y-33825500D01*
X52556016Y-33825500D01*
X52556018Y-33825500D01*
X52664237Y-33796503D01*
X52761263Y-33740485D01*
X52840485Y-33661263D01*
X52840489Y-33661255D01*
X52843124Y-33657823D01*
X52846092Y-33655655D01*
X52846232Y-33655516D01*
X52846253Y-33655537D01*
X52899553Y-33616621D01*
X52969299Y-33612467D01*
X53029180Y-33645630D01*
X53463181Y-34079631D01*
X53496666Y-34140954D01*
X53499500Y-34167312D01*
X53499500Y-35547390D01*
X53479815Y-35614429D01*
X53463181Y-35635071D01*
X53459517Y-35638734D01*
X53459513Y-35638740D01*
X53403498Y-35735760D01*
X53403497Y-35735763D01*
X53374500Y-35843982D01*
X53374500Y-35956018D01*
X53403497Y-36064237D01*
X53459515Y-36161263D01*
X53538737Y-36240485D01*
X53635763Y-36296503D01*
X53743982Y-36325500D01*
X53743984Y-36325500D01*
X53856016Y-36325500D01*
X53856018Y-36325500D01*
X53964237Y-36296503D01*
X54061263Y-36240485D01*
X54140485Y-36161263D01*
X54150462Y-36143982D01*
X61574500Y-36143982D01*
X61574500Y-36256018D01*
X61603497Y-36364237D01*
X61659515Y-36461263D01*
X61738737Y-36540485D01*
X61835763Y-36596503D01*
X61943982Y-36625500D01*
X61943984Y-36625500D01*
X62056016Y-36625500D01*
X62056018Y-36625500D01*
X62164237Y-36596503D01*
X62261263Y-36540485D01*
X62340485Y-36461263D01*
X62396503Y-36364237D01*
X62425500Y-36256018D01*
X62425500Y-36143982D01*
X62396503Y-36035763D01*
X62340485Y-35938737D01*
X62261263Y-35859515D01*
X62164237Y-35803497D01*
X62056018Y-35774500D01*
X61943982Y-35774500D01*
X61835763Y-35803497D01*
X61835760Y-35803498D01*
X61738740Y-35859513D01*
X61738734Y-35859517D01*
X61659517Y-35938734D01*
X61659513Y-35938740D01*
X61603498Y-36035760D01*
X61603497Y-36035763D01*
X61574500Y-36143982D01*
X54150462Y-36143982D01*
X54196503Y-36064237D01*
X54225500Y-35956018D01*
X54225500Y-35843982D01*
X54196503Y-35735763D01*
X54140485Y-35638737D01*
X54136819Y-35635071D01*
X54103334Y-35573748D01*
X54100500Y-35547390D01*
X54100500Y-33951918D01*
X54080020Y-33875488D01*
X54080017Y-33875483D01*
X54040464Y-33806974D01*
X54040458Y-33806966D01*
X53077474Y-32843982D01*
X61574500Y-32843982D01*
X61574500Y-32956018D01*
X61603497Y-33064237D01*
X61659515Y-33161263D01*
X61738737Y-33240485D01*
X61835763Y-33296503D01*
X61943982Y-33325500D01*
X61943984Y-33325500D01*
X62056016Y-33325500D01*
X62056018Y-33325500D01*
X62164237Y-33296503D01*
X62261263Y-33240485D01*
X62340485Y-33161263D01*
X62396503Y-33064237D01*
X62425500Y-32956018D01*
X62425500Y-32843982D01*
X62396503Y-32735763D01*
X62340485Y-32638737D01*
X62261263Y-32559515D01*
X62164237Y-32503497D01*
X62056018Y-32474500D01*
X61943982Y-32474500D01*
X61835763Y-32503497D01*
X61835760Y-32503498D01*
X61738740Y-32559513D01*
X61738734Y-32559517D01*
X61659517Y-32638734D01*
X61659513Y-32638740D01*
X61603498Y-32735760D01*
X61603497Y-32735763D01*
X61574500Y-32843982D01*
X53077474Y-32843982D01*
X51893033Y-31659541D01*
X51893028Y-31659537D01*
X51883586Y-31654086D01*
X51883585Y-31654086D01*
X51870447Y-31646501D01*
X51824512Y-31619980D01*
X51824511Y-31619979D01*
X51799034Y-31613152D01*
X51748083Y-31599500D01*
X51748081Y-31599500D01*
X49752610Y-31599500D01*
X49726789Y-31591918D01*
X49700184Y-31587872D01*
X49690924Y-31581386D01*
X49685571Y-31579815D01*
X49670649Y-31568550D01*
X49667703Y-31565955D01*
X49661263Y-31559515D01*
X49658733Y-31558054D01*
X49651349Y-31551550D01*
X49634849Y-31525412D01*
X49616620Y-31500445D01*
X49616362Y-31496126D01*
X49614053Y-31492467D01*
X49614304Y-31461554D01*
X49612467Y-31430699D01*
X49614586Y-31426872D01*
X49614621Y-31422600D01*
X49629815Y-31399373D01*
X49645627Y-31370821D01*
X52072467Y-28943982D01*
X54574500Y-28943982D01*
X54574500Y-29056017D01*
X54603497Y-29164236D01*
X54603498Y-29164239D01*
X54622169Y-29196579D01*
X54659515Y-29261263D01*
X54738737Y-29340485D01*
X54795036Y-29372989D01*
X54829025Y-29392613D01*
X54877241Y-29443180D01*
X54890463Y-29511787D01*
X54864495Y-29576652D01*
X54829025Y-29607387D01*
X54738740Y-29659513D01*
X54738734Y-29659517D01*
X54659517Y-29738734D01*
X54659513Y-29738740D01*
X54603498Y-29835760D01*
X54603497Y-29835763D01*
X54574500Y-29943982D01*
X54574500Y-30056017D01*
X54603497Y-30164236D01*
X54603498Y-30164239D01*
X54622169Y-30196579D01*
X54659515Y-30261263D01*
X54738737Y-30340485D01*
X54810654Y-30382006D01*
X54829025Y-30392613D01*
X54877241Y-30443180D01*
X54890463Y-30511787D01*
X54864495Y-30576652D01*
X54829025Y-30607387D01*
X54738740Y-30659513D01*
X54738734Y-30659517D01*
X54659517Y-30738734D01*
X54659513Y-30738740D01*
X54603498Y-30835760D01*
X54603497Y-30835763D01*
X54574500Y-30943982D01*
X54574500Y-31056018D01*
X54598753Y-31146530D01*
X54603497Y-31164236D01*
X54603498Y-31164239D01*
X54620670Y-31193982D01*
X54659515Y-31261263D01*
X54738737Y-31340485D01*
X54835763Y-31396503D01*
X54943982Y-31425500D01*
X54943984Y-31425500D01*
X55056016Y-31425500D01*
X55056018Y-31425500D01*
X55164237Y-31396503D01*
X55261263Y-31340485D01*
X55340485Y-31261263D01*
X55392613Y-31170973D01*
X55443180Y-31122759D01*
X55511787Y-31109535D01*
X55576651Y-31135503D01*
X55607385Y-31170972D01*
X55659515Y-31261263D01*
X55738737Y-31340485D01*
X55835763Y-31396503D01*
X55943982Y-31425500D01*
X55943984Y-31425500D01*
X56056016Y-31425500D01*
X56056018Y-31425500D01*
X56164237Y-31396503D01*
X56261263Y-31340485D01*
X56340485Y-31261263D01*
X56392613Y-31170973D01*
X56443180Y-31122759D01*
X56511787Y-31109535D01*
X56576651Y-31135503D01*
X56607385Y-31170972D01*
X56659515Y-31261263D01*
X56738737Y-31340485D01*
X56835763Y-31396503D01*
X56943982Y-31425500D01*
X56943984Y-31425500D01*
X57056016Y-31425500D01*
X57056018Y-31425500D01*
X57164237Y-31396503D01*
X57261263Y-31340485D01*
X57340485Y-31261263D01*
X57392613Y-31170973D01*
X57443180Y-31122759D01*
X57511787Y-31109535D01*
X57576651Y-31135503D01*
X57607385Y-31170972D01*
X57659515Y-31261263D01*
X57738737Y-31340485D01*
X57835763Y-31396503D01*
X57943982Y-31425500D01*
X57943984Y-31425500D01*
X58056016Y-31425500D01*
X58056018Y-31425500D01*
X58164237Y-31396503D01*
X58261263Y-31340485D01*
X58340485Y-31261263D01*
X58392613Y-31170973D01*
X58443180Y-31122759D01*
X58511787Y-31109535D01*
X58576651Y-31135503D01*
X58607385Y-31170972D01*
X58659515Y-31261263D01*
X58738737Y-31340485D01*
X58835763Y-31396503D01*
X58943982Y-31425500D01*
X58943984Y-31425500D01*
X59056016Y-31425500D01*
X59056018Y-31425500D01*
X59164237Y-31396503D01*
X59261263Y-31340485D01*
X59340485Y-31261263D01*
X59396503Y-31164237D01*
X59425500Y-31056018D01*
X59425500Y-30943982D01*
X59396503Y-30835763D01*
X59340485Y-30738737D01*
X59261263Y-30659515D01*
X59170973Y-30607386D01*
X59122759Y-30556820D01*
X59109535Y-30488213D01*
X59135503Y-30423349D01*
X59170972Y-30392614D01*
X59261263Y-30340485D01*
X59340485Y-30261263D01*
X59396503Y-30164237D01*
X59425500Y-30056018D01*
X59425500Y-29943982D01*
X59396503Y-29835763D01*
X59340485Y-29738737D01*
X59261263Y-29659515D01*
X59170973Y-29607386D01*
X59122759Y-29556820D01*
X59109535Y-29488213D01*
X59135503Y-29423349D01*
X59170972Y-29392614D01*
X59261263Y-29340485D01*
X59340485Y-29261263D01*
X59396503Y-29164237D01*
X59425500Y-29056018D01*
X59425500Y-28943982D01*
X59396503Y-28835763D01*
X59340485Y-28738737D01*
X59261263Y-28659515D01*
X59164237Y-28603497D01*
X59056018Y-28574500D01*
X58943982Y-28574500D01*
X58835763Y-28603497D01*
X58835760Y-28603498D01*
X58738740Y-28659513D01*
X58738734Y-28659517D01*
X58659517Y-28738734D01*
X58659513Y-28738740D01*
X58607387Y-28829025D01*
X58556820Y-28877241D01*
X58488213Y-28890463D01*
X58423348Y-28864495D01*
X58392613Y-28829025D01*
X58382006Y-28810654D01*
X58340485Y-28738737D01*
X58261263Y-28659515D01*
X58164237Y-28603497D01*
X58056018Y-28574500D01*
X57943982Y-28574500D01*
X57835763Y-28603497D01*
X57835760Y-28603498D01*
X57738740Y-28659513D01*
X57738734Y-28659517D01*
X57659517Y-28738734D01*
X57659513Y-28738740D01*
X57607387Y-28829025D01*
X57556820Y-28877241D01*
X57488213Y-28890463D01*
X57423348Y-28864495D01*
X57392613Y-28829025D01*
X57382006Y-28810654D01*
X57340485Y-28738737D01*
X57261263Y-28659515D01*
X57164237Y-28603497D01*
X57056018Y-28574500D01*
X56943982Y-28574500D01*
X56835763Y-28603497D01*
X56835760Y-28603498D01*
X56738740Y-28659513D01*
X56738734Y-28659517D01*
X56659517Y-28738734D01*
X56659513Y-28738740D01*
X56607387Y-28829025D01*
X56556820Y-28877241D01*
X56488213Y-28890463D01*
X56423348Y-28864495D01*
X56392613Y-28829025D01*
X56382006Y-28810654D01*
X56340485Y-28738737D01*
X56261263Y-28659515D01*
X56164237Y-28603497D01*
X56056018Y-28574500D01*
X55943982Y-28574500D01*
X55835763Y-28603497D01*
X55835760Y-28603498D01*
X55738740Y-28659513D01*
X55738734Y-28659517D01*
X55659517Y-28738734D01*
X55659513Y-28738740D01*
X55607387Y-28829025D01*
X55556820Y-28877241D01*
X55488213Y-28890463D01*
X55423348Y-28864495D01*
X55392613Y-28829025D01*
X55382006Y-28810654D01*
X55340485Y-28738737D01*
X55261263Y-28659515D01*
X55164237Y-28603497D01*
X55056018Y-28574500D01*
X54943982Y-28574500D01*
X54835763Y-28603497D01*
X54835760Y-28603498D01*
X54738740Y-28659513D01*
X54738734Y-28659517D01*
X54659517Y-28738734D01*
X54659513Y-28738740D01*
X54603498Y-28835760D01*
X54603497Y-28835763D01*
X54574500Y-28943982D01*
X52072467Y-28943982D01*
X53531664Y-27484785D01*
X53592983Y-27451303D01*
X53662675Y-27456287D01*
X53681332Y-27465077D01*
X53735763Y-27496503D01*
X53843982Y-27525500D01*
X53843984Y-27525500D01*
X53956016Y-27525500D01*
X53956018Y-27525500D01*
X54064237Y-27496503D01*
X54161263Y-27440485D01*
X54240485Y-27361263D01*
X54296503Y-27264237D01*
X54325500Y-27156018D01*
X54325500Y-27043982D01*
X54325498Y-27043977D01*
X54324934Y-27039689D01*
X54325500Y-27036058D01*
X54325500Y-27035855D01*
X54325532Y-27035855D01*
X54335698Y-26970654D01*
X54382076Y-26918396D01*
X54447873Y-26899500D01*
X60423167Y-26899500D01*
X60452607Y-26908144D01*
X60482594Y-26914668D01*
X60487609Y-26918422D01*
X60490206Y-26919185D01*
X60510848Y-26935819D01*
X60538181Y-26963152D01*
X60571666Y-27024475D01*
X60574500Y-27050833D01*
X60574500Y-27056018D01*
X60603497Y-27164237D01*
X60659515Y-27261263D01*
X60738737Y-27340485D01*
X60835763Y-27396503D01*
X60943982Y-27425500D01*
X60943984Y-27425500D01*
X61056016Y-27425500D01*
X61056018Y-27425500D01*
X61164237Y-27396503D01*
X61261263Y-27340485D01*
X61340485Y-27261263D01*
X61396503Y-27164237D01*
X61425500Y-27056018D01*
X61425500Y-26943982D01*
X61396503Y-26835763D01*
X61340485Y-26738737D01*
X61261263Y-26659515D01*
X61164237Y-26603497D01*
X61056018Y-26574500D01*
X61056017Y-26574500D01*
X61050833Y-26574500D01*
X60983794Y-26554815D01*
X60963152Y-26538181D01*
X60783512Y-26358541D01*
X60783504Y-26358535D01*
X60714995Y-26318982D01*
X60714990Y-26318979D01*
X60689513Y-26312152D01*
X60638562Y-26298500D01*
X53535653Y-26298500D01*
X53456529Y-26298500D01*
X53380101Y-26318978D01*
X53311580Y-26358540D01*
X53311577Y-26358542D01*
X51006939Y-28663181D01*
X50945616Y-28696666D01*
X50919258Y-28699500D01*
X47752610Y-28699500D01*
X47685571Y-28679815D01*
X47664929Y-28663181D01*
X47661265Y-28659517D01*
X47661263Y-28659515D01*
X47564237Y-28603497D01*
X47456018Y-28574500D01*
X47343982Y-28574500D01*
X47235763Y-28603497D01*
X47235760Y-28603498D01*
X47138740Y-28659513D01*
X47138734Y-28659517D01*
X47059517Y-28738734D01*
X47059513Y-28738740D01*
X47003498Y-28835760D01*
X47003497Y-28835763D01*
X46974500Y-28943982D01*
X21200500Y-28943982D01*
X21200500Y-28095730D01*
X21197646Y-28065300D01*
X21197646Y-28065298D01*
X21152793Y-27937119D01*
X21152792Y-27937117D01*
X21072150Y-27827850D01*
X20962882Y-27747207D01*
X20962880Y-27747206D01*
X20834700Y-27702353D01*
X20804270Y-27699500D01*
X20804266Y-27699500D01*
X19195734Y-27699500D01*
X19195730Y-27699500D01*
X19165300Y-27702353D01*
X19165298Y-27702353D01*
X19037119Y-27747206D01*
X19037117Y-27747207D01*
X18927850Y-27827850D01*
X18847207Y-27937117D01*
X18847206Y-27937119D01*
X18802353Y-28065298D01*
X18802353Y-28065300D01*
X18799500Y-28095730D01*
X16500500Y-28095730D01*
X16500500Y-24243982D01*
X60074500Y-24243982D01*
X60074500Y-24356018D01*
X60103497Y-24464237D01*
X60159515Y-24561263D01*
X60238737Y-24640485D01*
X60335763Y-24696503D01*
X60443982Y-24725500D01*
X60443984Y-24725500D01*
X60556016Y-24725500D01*
X60556018Y-24725500D01*
X60664237Y-24696503D01*
X60761263Y-24640485D01*
X60840485Y-24561263D01*
X60896503Y-24464237D01*
X60925500Y-24356018D01*
X60925500Y-24243982D01*
X60896503Y-24135763D01*
X60840485Y-24038737D01*
X60761263Y-23959515D01*
X60664237Y-23903497D01*
X60556018Y-23874500D01*
X60443982Y-23874500D01*
X60335763Y-23903497D01*
X60335760Y-23903498D01*
X60238740Y-23959513D01*
X60238734Y-23959517D01*
X60159517Y-24038734D01*
X60159513Y-24038740D01*
X60103498Y-24135760D01*
X60103497Y-24135763D01*
X60074500Y-24243982D01*
X16500500Y-24243982D01*
X16500500Y-20003051D01*
X16500649Y-19996966D01*
X16507585Y-19855778D01*
X26799500Y-19855778D01*
X26799500Y-20144221D01*
X26799501Y-20144238D01*
X26837149Y-20430206D01*
X26837150Y-20430211D01*
X26837151Y-20430217D01*
X26911463Y-20707554D01*
X26911809Y-20708844D01*
X26911814Y-20708860D01*
X27022191Y-20975336D01*
X27022199Y-20975352D01*
X27166420Y-21225148D01*
X27166431Y-21225164D01*
X27342024Y-21454002D01*
X27342030Y-21454009D01*
X27545990Y-21657969D01*
X27545996Y-21657974D01*
X27774844Y-21833575D01*
X27774851Y-21833579D01*
X28024647Y-21977800D01*
X28024663Y-21977808D01*
X28291139Y-22088185D01*
X28291145Y-22088186D01*
X28291155Y-22088191D01*
X28569783Y-22162849D01*
X28855772Y-22200500D01*
X28855779Y-22200500D01*
X29144221Y-22200500D01*
X29144228Y-22200500D01*
X29430217Y-22162849D01*
X29708845Y-22088191D01*
X29708857Y-22088185D01*
X29708860Y-22088185D01*
X29975336Y-21977808D01*
X29975339Y-21977806D01*
X29975345Y-21977804D01*
X30225156Y-21833575D01*
X30454004Y-21657974D01*
X30657974Y-21454004D01*
X30833575Y-21225156D01*
X30977804Y-20975345D01*
X31088191Y-20708845D01*
X31162849Y-20430217D01*
X31200500Y-20144228D01*
X31200500Y-19855772D01*
X31162849Y-19569783D01*
X31088191Y-19291155D01*
X31088186Y-19291145D01*
X31088185Y-19291139D01*
X30977808Y-19024663D01*
X30977803Y-19024654D01*
X30976549Y-19022482D01*
X30845374Y-18795280D01*
X31600000Y-18795280D01*
X31600000Y-19750000D01*
X32672769Y-19750000D01*
X32650000Y-19893753D01*
X32650000Y-20106247D01*
X32672769Y-20250000D01*
X31600000Y-20250000D01*
X31600000Y-21204719D01*
X31610482Y-21337906D01*
X31610483Y-21337912D01*
X31665898Y-21557829D01*
X31665899Y-21557832D01*
X31759695Y-21764330D01*
X31759698Y-21764336D01*
X31888851Y-21950758D01*
X31888861Y-21950770D01*
X32049229Y-22111138D01*
X32049241Y-22111148D01*
X32235663Y-22240301D01*
X32235669Y-22240304D01*
X32442167Y-22334100D01*
X32442170Y-22334101D01*
X32662087Y-22389516D01*
X32662093Y-22389517D01*
X32795280Y-22399999D01*
X32795294Y-22400000D01*
X33750000Y-22400000D01*
X33750000Y-21327231D01*
X33893753Y-21350000D01*
X34106247Y-21350000D01*
X34250000Y-21327231D01*
X34250000Y-22400000D01*
X35204706Y-22400000D01*
X35204719Y-22399999D01*
X35337906Y-22389517D01*
X35337912Y-22389516D01*
X35557829Y-22334101D01*
X35557832Y-22334100D01*
X35764330Y-22240304D01*
X35764336Y-22240301D01*
X35950758Y-22111148D01*
X35950770Y-22111138D01*
X36111138Y-21950770D01*
X36111148Y-21950758D01*
X36240301Y-21764336D01*
X36240304Y-21764330D01*
X36334100Y-21557832D01*
X36334101Y-21557829D01*
X36389516Y-21337912D01*
X36389517Y-21337906D01*
X36399999Y-21204719D01*
X36400000Y-21204706D01*
X36400000Y-20250000D01*
X35327231Y-20250000D01*
X35350000Y-20106247D01*
X35350000Y-19893753D01*
X35327231Y-19750000D01*
X36400000Y-19750000D01*
X36400000Y-18795293D01*
X36399999Y-18795280D01*
X36389517Y-18662093D01*
X36389516Y-18662087D01*
X36334101Y-18442170D01*
X36334100Y-18442167D01*
X36301546Y-18370495D01*
X36279503Y-18321966D01*
X46754500Y-18321966D01*
X46754500Y-18438027D01*
X46754501Y-18438035D01*
X46765113Y-18557415D01*
X46821089Y-18753045D01*
X46821090Y-18753046D01*
X46821091Y-18753049D01*
X46915302Y-18933407D01*
X46915304Y-18933409D01*
X47043890Y-19091109D01*
X47137803Y-19167684D01*
X47201593Y-19219698D01*
X47381951Y-19313909D01*
X47381953Y-19313909D01*
X47381954Y-19313910D01*
X47401355Y-19319461D01*
X47577582Y-19369886D01*
X47696963Y-19380500D01*
X47813036Y-19380499D01*
X47932418Y-19369886D01*
X48128049Y-19313909D01*
X48308407Y-19219698D01*
X48466109Y-19091109D01*
X48594698Y-18933407D01*
X48688909Y-18753049D01*
X48744886Y-18557418D01*
X48755500Y-18438037D01*
X48755499Y-18321964D01*
X48744886Y-18202582D01*
X48721256Y-18119999D01*
X49021127Y-18119999D01*
X49021128Y-18120000D01*
X49866988Y-18120000D01*
X49834075Y-18177007D01*
X49800000Y-18304174D01*
X49800000Y-18435826D01*
X49834075Y-18562993D01*
X49866988Y-18620000D01*
X49021128Y-18620000D01*
X49073730Y-18816317D01*
X49073734Y-18816326D01*
X49169865Y-19022482D01*
X49300342Y-19208820D01*
X49461179Y-19369657D01*
X49647517Y-19500134D01*
X49853673Y-19596265D01*
X49853682Y-19596269D01*
X50049999Y-19648872D01*
X50050000Y-19648871D01*
X50050000Y-18803012D01*
X50107007Y-18835925D01*
X50234174Y-18870000D01*
X50365826Y-18870000D01*
X50492993Y-18835925D01*
X50550000Y-18803012D01*
X50550000Y-19648872D01*
X50746317Y-19596269D01*
X50746326Y-19596265D01*
X50952482Y-19500134D01*
X51138820Y-19369657D01*
X51299657Y-19208820D01*
X51430134Y-19022482D01*
X51526265Y-18816326D01*
X51526269Y-18816317D01*
X51578872Y-18620000D01*
X50733012Y-18620000D01*
X50765925Y-18562993D01*
X50800000Y-18435826D01*
X50800000Y-18311966D01*
X51854500Y-18311966D01*
X51854500Y-18428027D01*
X51854501Y-18428035D01*
X51865113Y-18547415D01*
X51921089Y-18743045D01*
X51921090Y-18743048D01*
X51921091Y-18743049D01*
X52015302Y-18923407D01*
X52015304Y-18923409D01*
X52143890Y-19081109D01*
X52237803Y-19157684D01*
X52301593Y-19209698D01*
X52481951Y-19303909D01*
X52677582Y-19359886D01*
X52796963Y-19370500D01*
X52913036Y-19370499D01*
X53032418Y-19359886D01*
X53228049Y-19303909D01*
X53408407Y-19209698D01*
X53566109Y-19081109D01*
X53694698Y-18923407D01*
X53788909Y-18743049D01*
X53844886Y-18547418D01*
X53855500Y-18428037D01*
X53855499Y-18311964D01*
X53844886Y-18192582D01*
X53796133Y-18022199D01*
X53788910Y-17996954D01*
X53788909Y-17996953D01*
X53788909Y-17996951D01*
X53694698Y-17816593D01*
X53586653Y-17684086D01*
X53566109Y-17658890D01*
X53420671Y-17540302D01*
X53408407Y-17530302D01*
X53228049Y-17436091D01*
X53228048Y-17436090D01*
X53228045Y-17436089D01*
X53110829Y-17402550D01*
X53032418Y-17380114D01*
X53032415Y-17380113D01*
X53032413Y-17380113D01*
X52971515Y-17374699D01*
X52913037Y-17369500D01*
X52913031Y-17369500D01*
X52796972Y-17369500D01*
X52796964Y-17369501D01*
X52677584Y-17380113D01*
X52481954Y-17436089D01*
X52394254Y-17481900D01*
X52301593Y-17530302D01*
X52301591Y-17530303D01*
X52301590Y-17530304D01*
X52143890Y-17658890D01*
X52015738Y-17816058D01*
X52015302Y-17816593D01*
X52004563Y-17837152D01*
X51921089Y-17996954D01*
X51885882Y-18120000D01*
X51872599Y-18166425D01*
X51865114Y-18192583D01*
X51865113Y-18192586D01*
X51854500Y-18311966D01*
X50800000Y-18311966D01*
X50800000Y-18304174D01*
X50765925Y-18177007D01*
X50733012Y-18120000D01*
X51578872Y-18120000D01*
X51578872Y-18119999D01*
X51526269Y-17923682D01*
X51526265Y-17923673D01*
X51430134Y-17717517D01*
X51299657Y-17531179D01*
X51138820Y-17370342D01*
X50952482Y-17239865D01*
X50746328Y-17143734D01*
X50550000Y-17091127D01*
X50550000Y-17936988D01*
X50492993Y-17904075D01*
X50365826Y-17870000D01*
X50234174Y-17870000D01*
X50107007Y-17904075D01*
X50050000Y-17936988D01*
X50050000Y-17091127D01*
X49853671Y-17143734D01*
X49647517Y-17239865D01*
X49461179Y-17370342D01*
X49300342Y-17531179D01*
X49169865Y-17717517D01*
X49073734Y-17923673D01*
X49073730Y-17923682D01*
X49021127Y-18119999D01*
X48721256Y-18119999D01*
X48688909Y-18006951D01*
X48594698Y-17826593D01*
X48529470Y-17746597D01*
X48466109Y-17668890D01*
X48339293Y-17565486D01*
X48308407Y-17540302D01*
X48128049Y-17446091D01*
X48128048Y-17446090D01*
X48128045Y-17446089D01*
X48010829Y-17412550D01*
X47932418Y-17390114D01*
X47932415Y-17390113D01*
X47932413Y-17390113D01*
X47871515Y-17384699D01*
X47813037Y-17379500D01*
X47813031Y-17379500D01*
X47696972Y-17379500D01*
X47696964Y-17379501D01*
X47577584Y-17390113D01*
X47381954Y-17446089D01*
X47305042Y-17486265D01*
X47201593Y-17540302D01*
X47201591Y-17540303D01*
X47201590Y-17540304D01*
X47043890Y-17668890D01*
X46915304Y-17826590D01*
X46915302Y-17826593D01*
X46892628Y-17870000D01*
X46821089Y-18006954D01*
X46776332Y-18163376D01*
X46767976Y-18192582D01*
X46765114Y-18202583D01*
X46765113Y-18202586D01*
X46762172Y-18235669D01*
X46754501Y-18321959D01*
X46754500Y-18321966D01*
X36279503Y-18321966D01*
X36240302Y-18235665D01*
X36240301Y-18235663D01*
X36111148Y-18049241D01*
X36111138Y-18049229D01*
X35950770Y-17888861D01*
X35950762Y-17888855D01*
X35924151Y-17870418D01*
X35880255Y-17816058D01*
X35872716Y-17746597D01*
X35903928Y-17684086D01*
X35962672Y-17648716D01*
X36064237Y-17621503D01*
X36161263Y-17565485D01*
X36240485Y-17486263D01*
X36296503Y-17389237D01*
X36325500Y-17281018D01*
X36325500Y-17168982D01*
X36674500Y-17168982D01*
X36674500Y-17281018D01*
X36703497Y-17389237D01*
X36759515Y-17486263D01*
X36838737Y-17565485D01*
X36935763Y-17621503D01*
X37043982Y-17650500D01*
X37043984Y-17650500D01*
X37156016Y-17650500D01*
X37156018Y-17650500D01*
X37264237Y-17621503D01*
X37361263Y-17565485D01*
X37440485Y-17486263D01*
X37496503Y-17389237D01*
X37525500Y-17281018D01*
X37525500Y-17168982D01*
X37874500Y-17168982D01*
X37874500Y-17281018D01*
X37903497Y-17389237D01*
X37959515Y-17486263D01*
X38038737Y-17565485D01*
X38135763Y-17621503D01*
X38243982Y-17650500D01*
X38243984Y-17650500D01*
X38356016Y-17650500D01*
X38356018Y-17650500D01*
X38464237Y-17621503D01*
X38561263Y-17565485D01*
X38640485Y-17486263D01*
X38696503Y-17389237D01*
X38725500Y-17281018D01*
X38725500Y-17168982D01*
X41174500Y-17168982D01*
X41174500Y-17281018D01*
X41203497Y-17389237D01*
X41259515Y-17486263D01*
X41338737Y-17565485D01*
X41435763Y-17621503D01*
X41543982Y-17650500D01*
X41543984Y-17650500D01*
X41656016Y-17650500D01*
X41656018Y-17650500D01*
X41764237Y-17621503D01*
X41861263Y-17565485D01*
X41940485Y-17486263D01*
X41996503Y-17389237D01*
X42025500Y-17281018D01*
X42025500Y-17168982D01*
X43774500Y-17168982D01*
X43774500Y-17281018D01*
X43803497Y-17389237D01*
X43859515Y-17486263D01*
X43938737Y-17565485D01*
X44035763Y-17621503D01*
X44143982Y-17650500D01*
X44143984Y-17650500D01*
X44256016Y-17650500D01*
X44256018Y-17650500D01*
X44364237Y-17621503D01*
X44461263Y-17565485D01*
X44540485Y-17486263D01*
X44596503Y-17389237D01*
X44625500Y-17281018D01*
X44625500Y-17168982D01*
X44974500Y-17168982D01*
X44974500Y-17281018D01*
X45003497Y-17389237D01*
X45059515Y-17486263D01*
X45138737Y-17565485D01*
X45235763Y-17621503D01*
X45343982Y-17650500D01*
X45343984Y-17650500D01*
X45456016Y-17650500D01*
X45456018Y-17650500D01*
X45564237Y-17621503D01*
X45661263Y-17565485D01*
X45740485Y-17486263D01*
X45796503Y-17389237D01*
X45825500Y-17281018D01*
X45825500Y-17168982D01*
X45796503Y-17060763D01*
X45740485Y-16963737D01*
X45661263Y-16884515D01*
X45564237Y-16828497D01*
X45456018Y-16799500D01*
X45343982Y-16799500D01*
X45235763Y-16828497D01*
X45235760Y-16828498D01*
X45138740Y-16884513D01*
X45138734Y-16884517D01*
X45059517Y-16963734D01*
X45059513Y-16963740D01*
X45003498Y-17060760D01*
X45003497Y-17060763D01*
X44974500Y-17168982D01*
X44625500Y-17168982D01*
X44596503Y-17060763D01*
X44540485Y-16963737D01*
X44461263Y-16884515D01*
X44364237Y-16828497D01*
X44256018Y-16799500D01*
X44143982Y-16799500D01*
X44035763Y-16828497D01*
X44035760Y-16828498D01*
X43938740Y-16884513D01*
X43938734Y-16884517D01*
X43859517Y-16963734D01*
X43859513Y-16963740D01*
X43803498Y-17060760D01*
X43803497Y-17060763D01*
X43774500Y-17168982D01*
X42025500Y-17168982D01*
X41996503Y-17060763D01*
X41940485Y-16963737D01*
X41861263Y-16884515D01*
X41764237Y-16828497D01*
X41656018Y-16799500D01*
X41543982Y-16799500D01*
X41435763Y-16828497D01*
X41435760Y-16828498D01*
X41338740Y-16884513D01*
X41338734Y-16884517D01*
X41259517Y-16963734D01*
X41259513Y-16963740D01*
X41203498Y-17060760D01*
X41203497Y-17060763D01*
X41174500Y-17168982D01*
X38725500Y-17168982D01*
X38696503Y-17060763D01*
X38640485Y-16963737D01*
X38561263Y-16884515D01*
X38464237Y-16828497D01*
X38356018Y-16799500D01*
X38243982Y-16799500D01*
X38135763Y-16828497D01*
X38135760Y-16828498D01*
X38038740Y-16884513D01*
X38038734Y-16884517D01*
X37959517Y-16963734D01*
X37959513Y-16963740D01*
X37903498Y-17060760D01*
X37903497Y-17060763D01*
X37874500Y-17168982D01*
X37525500Y-17168982D01*
X37496503Y-17060763D01*
X37440485Y-16963737D01*
X37361263Y-16884515D01*
X37264237Y-16828497D01*
X37156018Y-16799500D01*
X37043982Y-16799500D01*
X36935763Y-16828497D01*
X36935760Y-16828498D01*
X36838740Y-16884513D01*
X36838734Y-16884517D01*
X36759517Y-16963734D01*
X36759513Y-16963740D01*
X36703498Y-17060760D01*
X36703497Y-17060763D01*
X36674500Y-17168982D01*
X36325500Y-17168982D01*
X36296503Y-17060763D01*
X36240485Y-16963737D01*
X36161263Y-16884515D01*
X36064237Y-16828497D01*
X35956018Y-16799500D01*
X35843982Y-16799500D01*
X35735763Y-16828497D01*
X35735760Y-16828498D01*
X35638740Y-16884513D01*
X35638734Y-16884517D01*
X35559517Y-16963734D01*
X35559513Y-16963740D01*
X35507387Y-17054025D01*
X35456820Y-17102241D01*
X35388213Y-17115463D01*
X35323348Y-17089495D01*
X35292613Y-17054025D01*
X35282006Y-17035654D01*
X35240485Y-16963737D01*
X35161263Y-16884515D01*
X35064237Y-16828497D01*
X34956018Y-16799500D01*
X34843982Y-16799500D01*
X34735763Y-16828497D01*
X34735760Y-16828498D01*
X34638740Y-16884513D01*
X34638734Y-16884517D01*
X34559517Y-16963734D01*
X34559513Y-16963740D01*
X34503498Y-17060760D01*
X34503497Y-17060763D01*
X34474500Y-17168982D01*
X34474500Y-17281018D01*
X34501053Y-17380113D01*
X34503497Y-17389236D01*
X34503498Y-17389239D01*
X34517794Y-17414000D01*
X34534267Y-17481900D01*
X34511415Y-17547927D01*
X34456493Y-17591118D01*
X34410407Y-17600000D01*
X34250000Y-17600000D01*
X34250000Y-18672768D01*
X34106247Y-18650000D01*
X33893753Y-18650000D01*
X33750000Y-18672768D01*
X33750000Y-17600000D01*
X32795280Y-17600000D01*
X32662093Y-17610482D01*
X32662087Y-17610483D01*
X32442170Y-17665898D01*
X32442167Y-17665899D01*
X32235669Y-17759695D01*
X32235663Y-17759698D01*
X32049241Y-17888851D01*
X32049229Y-17888861D01*
X31888861Y-18049229D01*
X31888851Y-18049241D01*
X31759698Y-18235663D01*
X31759695Y-18235669D01*
X31665899Y-18442167D01*
X31665898Y-18442170D01*
X31610483Y-18662087D01*
X31610482Y-18662093D01*
X31600000Y-18795280D01*
X30845374Y-18795280D01*
X30833575Y-18774844D01*
X30746065Y-18660799D01*
X30657975Y-18545997D01*
X30657969Y-18545990D01*
X30454009Y-18342030D01*
X30454002Y-18342024D01*
X30225164Y-18166431D01*
X30225162Y-18166429D01*
X30225156Y-18166425D01*
X30225151Y-18166422D01*
X30225148Y-18166420D01*
X29975352Y-18022199D01*
X29975336Y-18022191D01*
X29708860Y-17911814D01*
X29708848Y-17911810D01*
X29708845Y-17911809D01*
X29430217Y-17837151D01*
X29430211Y-17837150D01*
X29430206Y-17837149D01*
X29144238Y-17799501D01*
X29144233Y-17799500D01*
X29144228Y-17799500D01*
X28855772Y-17799500D01*
X28855766Y-17799500D01*
X28855761Y-17799501D01*
X28569793Y-17837149D01*
X28569786Y-17837150D01*
X28569783Y-17837151D01*
X28447189Y-17870000D01*
X28291155Y-17911809D01*
X28291139Y-17911814D01*
X28024663Y-18022191D01*
X28024647Y-18022199D01*
X27774851Y-18166420D01*
X27774835Y-18166431D01*
X27545997Y-18342024D01*
X27545990Y-18342030D01*
X27342030Y-18545990D01*
X27342024Y-18545997D01*
X27166431Y-18774835D01*
X27166420Y-18774851D01*
X27022199Y-19024647D01*
X27022191Y-19024663D01*
X26911814Y-19291139D01*
X26911809Y-19291155D01*
X26855814Y-19500134D01*
X26837152Y-19569780D01*
X26837149Y-19569793D01*
X26799501Y-19855761D01*
X26799500Y-19855778D01*
X16507585Y-19855778D01*
X16508084Y-19845628D01*
X16508084Y-19845627D01*
X16517052Y-19663072D01*
X16518245Y-19650962D01*
X16526358Y-19596269D01*
X16566849Y-19323296D01*
X16569218Y-19311385D01*
X16649710Y-18990043D01*
X16653240Y-18978411D01*
X16697451Y-18854850D01*
X16764835Y-18666525D01*
X16769476Y-18655318D01*
X16911124Y-18355828D01*
X16916840Y-18345136D01*
X17087145Y-18060998D01*
X17093888Y-18050905D01*
X17291232Y-17784818D01*
X17298935Y-17775433D01*
X17521405Y-17529975D01*
X17529975Y-17521405D01*
X17775433Y-17298935D01*
X17784818Y-17291232D01*
X18050905Y-17093888D01*
X18060998Y-17087145D01*
X18345136Y-16916840D01*
X18355828Y-16911124D01*
X18655318Y-16769476D01*
X18666525Y-16764835D01*
X18978412Y-16653239D01*
X18990043Y-16649710D01*
X19311385Y-16569218D01*
X19323296Y-16566849D01*
X19650962Y-16518244D01*
X19663068Y-16517052D01*
X19996967Y-16500648D01*
X20003051Y-16500500D01*
X20065892Y-16500500D01*
X59934108Y-16500500D01*
X59996949Y-16500500D01*
X60003032Y-16500648D01*
G37*
%TD.AperFunction*%
%TD*%
M02*
