M48
; DRILL file {KiCad 9.0.6-9.0.6~ubuntu22.04.1} date 2025-11-05T22:25:06+0100
; FORMAT={-:-/ absolute / metric / decimal}
; #@! TF.CreationDate,2025-11-05T22:25:06+01:00
; #@! TF.GenerationSoftware,Kicad,Pcbnew,9.0.6-9.0.6~ubuntu22.04.1
; #@! TF.FileFunction,Plated,1,4,PTH
FMAT,2
METRIC
; #@! TA.AperFunction,Plated,PTH,ViaDrill
T1C0.300
; #@! TA.AperFunction,Plated,PTH,ComponentDrill
T2C0.500
; #@! TA.AperFunction,Plated,PTH,ComponentDrill
T3C1.000
; #@! TA.AperFunction,Plated,PTH,ComponentDrill
T4C2.700
; #@! TA.AperFunction,Plated,PTH,ComponentDrill
T5C3.200
%
G90
G05
T1
X22.1Y-41.25
X22.2Y-31.25
X22.9Y-31.25
X22.9Y-41.25
X27.3Y-31.8
X27.3Y-43.3
X29.9Y-31.0
X29.9Y-32.6
X29.9Y-42.5
X29.9Y-44.1
X32.5Y-31.8
X32.5Y-43.3
X34.9Y-17.225
X35.9Y-17.225
X36.7Y-20.175
X37.1Y-17.225
X37.7Y-20.175
X38.3Y-17.225
X38.7Y-20.175
X41.6Y-17.225
X41.7Y-20.175
X43.625Y-52.9
X44.1Y-20.175
X44.2Y-17.225
X44.425Y-50.5
X44.9Y-28.7
X44.9Y-41.1
X45.0Y-20.175
X45.4Y-17.225
X45.6Y-51.5
X45.825Y-52.4
X46.0Y-20.175
X47.1Y-34.5
X47.4Y-29.0
X47.4Y-53.1
X48.1Y-36.3
X48.3Y-38.4
X49.2Y-27.1
X49.3Y-29.9
X49.4Y-31.9
X49.4Y-32.7
X49.4Y-33.4
X49.5Y-39.7
X50.725Y-45.4
X50.8Y-39.7
X50.9Y-32.6
X50.9Y-34.1
X51.122Y-46.2
X51.8Y-44.9
X52.5Y-33.4
X52.5Y-45.8
X52.6Y-46.6
X53.225Y-51.6
X53.8Y-35.9
X53.9Y-27.1
X53.925Y-42.1
X54.7Y-46.6
X55.0Y-29.0
X55.0Y-30.0
X55.0Y-31.0
X55.2Y-38.4
X55.2Y-44.8
X55.6Y-46.4
X55.8Y-43.4
X55.9Y-34.3
X56.0Y-29.0
X56.0Y-30.0
X56.0Y-31.0
X56.0Y-39.0
X56.0Y-42.8
X56.1Y-37.7
X57.0Y-29.0
X57.0Y-30.0
X57.0Y-31.0
X57.1Y-35.5
X58.0Y-29.0
X58.0Y-30.0
X58.0Y-31.0
X58.3Y-34.3
X59.0Y-29.0
X59.0Y-30.0
X59.0Y-31.0
X59.2Y-33.9
X60.0Y-37.7
X60.5Y-24.3
X61.0Y-27.0
X62.0Y-32.9
X62.0Y-36.2
X63.04Y-44.04
X63.07Y-42.77
X63.1Y-39.0
X63.1Y-41.5
T2
X17.6Y-20.0
X17.6Y-50.0
X18.303Y-18.303
X18.303Y-21.697
X18.303Y-48.303
X18.303Y-51.697
X20.0Y-17.6
X20.0Y-22.4
X20.0Y-47.6
X20.0Y-52.4
X21.697Y-18.303
X21.697Y-21.697
X21.697Y-48.303
X21.697Y-51.697
X22.4Y-20.0
X22.4Y-50.0
X57.6Y-20.0
X57.6Y-50.0
X58.303Y-18.303
X58.303Y-21.697
X58.303Y-48.303
X58.303Y-51.697
X60.0Y-17.6
X60.0Y-22.4
X60.0Y-47.6
X60.0Y-52.4
X61.697Y-18.303
X61.697Y-21.697
X61.697Y-48.303
X61.697Y-51.697
X62.4Y-20.0
X62.4Y-50.0
T3
X20.0Y-28.75
X20.0Y-31.25
X20.0Y-38.75
X20.0Y-41.25
X37.175Y-49.675
X39.675Y-49.675
X47.755Y-18.38
X50.3Y-18.37
X52.855Y-18.37
T4
X29.0Y-20.0
X34.0Y-20.0
T5
X20.0Y-20.0
X20.0Y-50.0
X60.0Y-20.0
X60.0Y-50.0
M30
