%TF.GenerationSoftware,KiCad,Pcbnew,9.0.4*%
%TF.CreationDate,2025-11-05T17:51:59+01:00*%
%TF.ProjectId,FliperKAd,466c6970-6572-44b4-9164-2e6b69636164,rev?*%
%TF.SameCoordinates,Original*%
%TF.FileFunction,Soldermask,Bot*%
%TF.FilePolarity,Negative*%
%FSLAX46Y46*%
G04 Gerber Fmt 4.6, Leading zero omitted, Abs format (unit mm)*
G04 Created by KiCad (PCBNEW 9.0.4) date 2025-11-05 17:51:59*
%MOMM*%
%LPD*%
G01*
G04 APERTURE LIST*
G04 Aperture macros list*
%AMRoundRect*
0 Rectangle with rounded corners*
0 $1 Rounding radius*
0 $2 $3 $4 $5 $6 $7 $8 $9 X,Y pos of 4 corners*
0 Add a 4 corners polygon primitive as box body*
4,1,4,$2,$3,$4,$5,$6,$7,$8,$9,$2,$3,0*
0 Add four circle primitives for the rounded corners*
1,1,$1+$1,$2,$3*
1,1,$1+$1,$4,$5*
1,1,$1+$1,$6,$7*
1,1,$1+$1,$8,$9*
0 Add four rect primitives between the rounded corners*
20,1,$1+$1,$2,$3,$4,$5,0*
20,1,$1+$1,$4,$5,$6,$7,0*
20,1,$1+$1,$6,$7,$8,$9,0*
20,1,$1+$1,$8,$9,$2,$3,0*%
G04 Aperture macros list end*
%ADD10C,0.800000*%
%ADD11C,6.400000*%
%ADD12RoundRect,0.250000X-0.600000X-0.750000X0.600000X-0.750000X0.600000X0.750000X-0.600000X0.750000X0*%
%ADD13O,1.700000X2.000000*%
%ADD14RoundRect,0.250000X-0.750000X0.600000X-0.750000X-0.600000X0.750000X-0.600000X0.750000X0.600000X0*%
%ADD15O,2.000000X1.700000*%
%ADD16RoundRect,0.800000X0.000010X0.000010X-0.000010X0.000010X-0.000010X-0.000010X0.000010X-0.000010X0*%
%ADD17RoundRect,0.250000X0.600000X0.750000X-0.600000X0.750000X-0.600000X-0.750000X0.600000X-0.750000X0*%
G04 APERTURE END LIST*
D10*
%TO.C,H1*%
X182600000Y-66900000D03*
X183302944Y-65202944D03*
X183302944Y-68597056D03*
X185000000Y-64500000D03*
D11*
X185000000Y-66900000D03*
D10*
X185000000Y-69300000D03*
X186697056Y-65202944D03*
X186697056Y-68597056D03*
X187400000Y-66900000D03*
%TD*%
D12*
%TO.C,J5*%
X208500000Y-119250000D03*
D13*
X211000000Y-119250000D03*
%TD*%
D10*
%TO.C,H2*%
X218600000Y-66900000D03*
X219302944Y-65202944D03*
X219302944Y-68597056D03*
X221000000Y-64500000D03*
D11*
X221000000Y-66900000D03*
D10*
X221000000Y-69300000D03*
X222697056Y-65202944D03*
X222697056Y-68597056D03*
X223400000Y-66900000D03*
%TD*%
D14*
%TO.C,J3*%
X181025000Y-75250000D03*
D15*
X181025000Y-77750000D03*
%TD*%
D10*
%TO.C,H3*%
X218600000Y-116250000D03*
X219302944Y-114552944D03*
X219302944Y-117947056D03*
X221000000Y-113850000D03*
D11*
X221000000Y-116250000D03*
D10*
X221000000Y-118650000D03*
X222697056Y-114552944D03*
X222697056Y-117947056D03*
X223400000Y-116250000D03*
%TD*%
D16*
%TO.C,U5*%
X217750000Y-104480000D03*
X220295000Y-104470000D03*
X222850000Y-104470000D03*
%TD*%
D10*
%TO.C,H4*%
X182600000Y-116250000D03*
X183302944Y-114552944D03*
X183302944Y-117947056D03*
X185000000Y-113850000D03*
D11*
X185000000Y-116250000D03*
D10*
X185000000Y-118650000D03*
X186697056Y-114552944D03*
X186697056Y-117947056D03*
X187400000Y-116250000D03*
%TD*%
D17*
%TO.C,J1*%
X210000000Y-62900000D03*
D13*
X207500000Y-62900000D03*
%TD*%
D14*
%TO.C,J4*%
X181025000Y-88450000D03*
D15*
X181025000Y-90950000D03*
%TD*%
M02*
